<svg version="1.1" xmlns="http://www.w3.org/2000/svg" xmlns:xlink="http://www.w3.org/1999/xlink" width="153.59996" height="181.53294" viewBox="0,0,153.59996,181.53294"><g transform="translate(-243.20002,-79.86235)"><g stroke-miterlimit="10"><g><g stroke="none" stroke-width="0.5" stroke-linecap="butt"><path d="M337.65528,243.27754l-0.19981,0.12169c0.60016,-0.54501 1.10191,-1.08861 1.79162,-1.50984c2.06119,-1.41682 4.71817,-3.65103 7.33007,-3.62974c1.03722,0.00846 1.93957,0.60876 2.88401,0.93825c1.10085,0.38407 2.24065,0.7686 2.9326,1.71504c0.12404,0.19067 0.27851,0.26931 0.42069,0.29159c0.13852,0.03336 0.30931,0.02025 0.49455,-0.10507l0.46242,-0.27492c2.82994,-1.69515 6.07968,-2.07727 9.16807,-3.10366c0.85963,-0.23031 2.17039,-0.63433 3.04649,-0.43369c0.46092,0.10556 0.87544,1.22943 1.08178,1.57355c0.69941,1.16643 1.70395,2.60242 1.6668,4.02137c-0.00871,0.33289 -0.47032,0.98627 -0.58379,1.23709c-0.86045,1.90187 -2.08099,2.85776 -3.85666,3.92139c-5.75867,3.44946 -12.12197,7.47683 -18.96349,7.75399c-1.38105,-0.01144 -3.45791,0.0143 -4.76976,-0.43857c-1.11695,-0.38559 -1.4251,-2.14566 -1.77842,-3.11069c-0.26943,-0.73592 -0.74808,-1.38536 -1.04429,-2.11091c-0.47593,-1.16578 -0.55332,-2.6404 -0.91166,-3.86714c-0.25722,-0.88057 -0.53428,-1.64925 0.0199,-2.37307c0.03617,0.00664 0.07489,0.01113 0.11634,0.01313c0.66056,0.03194 0.69258,-0.62981 0.69258,-0.62981z" fill="#e19c72"/><path d="M344.51499,240.82867c0.61547,-0.24194 0.85741,0.37353 0.85741,0.37353l0.15963,0.43071c0.34612,0.57783 0.67499,1.34847 1.17111,1.81812c2.049,1.93969 4.60837,0.91509 6.67988,-0.32575c2.32036,-1.3899 4.97325,-2.98879 7.73378,-3.25542c2.09726,-0.20257 4.26532,1.11804 6.06965,1.96988c0,0 0.59746,0.28354 0.31391,0.881c-0.28354,0.59746 -0.881,0.31391 -0.881,0.31391c-1.5345,-0.73161 -3.57004,-2.05128 -5.36122,-1.84972c-2.5815,0.2905 -5.01608,1.76954 -7.19547,3.07501c-2.59125,1.55217 -5.76957,2.53536 -8.27711,0.1437c-0.58907,-0.56184 -0.9745,-1.40043 -1.38819,-2.09106l-0.25594,-0.62649c0,0 -0.24194,-0.61547 0.37353,-0.85741z" fill="#8f0700"/><path d="M365.00658,246.83245c-0.48967,0.44449 -0.93416,-0.04516 -0.93416,-0.04516l-0.15432,-0.2205c-1.34839,-0.76423 -3.44935,-2.28953 -5.06397,-2.35327c-0.78162,-0.03086 -1.74787,0.83557 -2.35822,1.20118c-1.94476,1.16492 -3.88953,2.32984 -5.83429,3.49476c-1.36345,0.81671 -2.69183,1.5902 -4.11619,2.24047c-0.7016,0.32031 -1.16908,0.9585 -2.07765,0.70553c-0.94025,-0.26178 -1.213,-0.9226 -1.64551,-1.63337c-1.33975,-2.20167 -1.21181,-4.80394 -2.24254,-7.02448c0,0 -0.26683,-0.6051 0.33826,-0.87194c0.6051,-0.26683 0.87194,0.33826 0.87194,0.33826c0.82222,1.93611 0.65644,4.38919 1.78314,6.23767c0.27673,0.45401 0.63291,1.47676 1.20248,1.66751c0.44464,0.14891 0.8279,-0.44177 1.25416,-0.63716c1.36548,-0.62592 2.64154,-1.37205 3.95225,-2.15717c1.94476,-1.16492 3.88953,-2.32984 5.83429,-3.49476c0.92926,-0.55663 1.90548,-1.39651 3.05625,-1.38904c1.85303,0.01203 4.13282,1.65214 5.69354,2.52273l0.4857,0.48456c0,0 0.44449,0.48967 -0.04516,0.93416z" fill="#8f0700"/><path d="M336.98913,243.90856c-0.04145,-0.002 -0.08017,-0.00649 -0.11635,-0.01312c-0.55419,0.72383 -0.27725,1.48843 -0.02002,2.36899c0.35835,1.22675 0.43414,2.69474 0.91006,3.86052c0.29621,0.72555 0.77312,1.37134 1.04255,2.10725c0.35332,0.96503 0.65789,2.72024 1.77484,3.10583c1.31185,0.45287 3.38307,0.42253 4.76412,0.43398c6.84153,-0.27717 13.16563,-4.28914 18.92429,-7.7386c1.77567,-1.06363 2.99523,-2.01152 3.85568,-3.91339c0.11348,-0.25082 0.57521,-0.90227 0.58392,-1.23515c0.03714,-1.41896 -0.96577,-2.84818 -1.66518,-4.01461c-0.20634,-0.34412 -0.61957,-1.46512 -1.08048,-1.57068c-0.87611,-0.20065 -2.18578,0.20523 -3.04541,0.43554c-3.08839,1.02638 -6.32629,1.41857 -9.15623,3.11372l-0.46031,0.27573c-0.18524,0.12534 -0.35279,0.1393 -0.49132,0.10593c-0.14218,-0.02227 -0.29331,-0.10048 -0.41736,-0.29114c-0.69195,-0.94644 -1.81819,-1.33368 -2.91905,-1.71773c-0.94442,-0.32948 -1.84109,-0.93361 -2.87831,-0.94207c-2.61189,-0.0213 -5.26044,2.19848 -7.32163,3.6153c-0.68969,0.42123 -1.19098,0.96154 -1.79114,1.50655l0.1998,-0.12145c0,0 -0.03195,0.66055 -0.6925,0.6286zM336.59284,242.42208c0.65302,-0.59255 1.20961,-1.16636 1.95716,-1.6348c1.70488,-1.17139 3.70285,-2.67275 5.62403,-3.4532c2.54015,-1.03189 6.92357,0.3777 8.89907,2.38499l0.00817,-0.00489c2.93548,-1.75837 6.25668,-2.18155 9.45616,-3.24603c1.06605,-0.2848 2.76395,-0.7751 3.84105,-0.42414c0.77846,0.25366 1.04111,0.88966 1.41538,1.50574c0.94511,1.55576 2.35479,3.48669 2.23522,5.40421c-0.17306,2.77511 -2.96859,4.94889 -5.08076,6.21409c-5.97359,3.5782 -12.48516,7.64098 -19.58374,7.92644c-1.45253,-0.01614 -3.90702,0.03807 -5.26098,-0.5227c-1.64386,-0.68083 -2.00197,-2.40296 -2.54235,-3.89073c-0.94089,-2.5905 -3.55129,-7.14472 -1.63414,-9.71726c0,0 0.23994,-0.30141 0.58359,-0.26099z" fill="#000000"/></g><g><path d="M335.42123,217.26988c0,0 11.51568,3.24431 13.93578,5.71009c2.57853,2.62718 4.138,7.91459 4.58742,9.74891c0.51805,2.11449 -0.65469,4.51619 -0.65469,4.51619c0,0 -6.96691,6.39555 -10.75684,8.80264c-3.25622,2.0681 -10.62555,4.77791 -10.62555,4.77791c0,0 -3.21231,-7.93125 -5.4656,-10.68012c-1.78896,-2.18244 -6.98542,-4.50945 -6.98542,-4.50945z" fill="#82615a" stroke="#000000" stroke-width="3" stroke-linecap="round"/><path d="M320.1982,234.17543l0.02412,0.01155l0.03504,0.02901l0.04293,0.01505l0.01861,0.01225l0.00187,0.00035l0.0054,-0.00242l0.01563,0.00633l0.03157,0.00586l0.13309,0.06081l0.13563,0.05492l0.02595,0.0189l0.01534,0.00702l0.00195,0.00559l0.00676,0.00493l0.13767,0.03356l0.01427,0.0075l0.01611,0.00068l0.42275,0.12461l0.00624,0.00366l0.00721,0.00045l0.23047,0.0733l0.28358,0.03375l0.00442,0.00168l0.0047,-0.00053l0.26285,0.03499l0.20704,0.00863l0.24792,-0.01216l0.33121,-0.0333l0.67325,-0.12608l0.00433,0.00025l0.00397,-0.00176l0.6155,-0.10717l0.59807,-0.11201l0.56763,-0.30015l0.00295,-0.00073l0.00228,-0.00201l0.7654,-0.39602l0.01828,-0.00433l0.01476,-0.01163l0.80097,-0.35959l0.62905,-0.48518l0.01711,-0.00748l0.01237,-0.01399l0.8811,-0.60516l0.03683,-0.01374l0.0293,-0.02621l1.13493,-0.59802l1.05504,-0.72979l0.00972,-0.00366l0.00709,-0.00759l0.9679,-0.62664l0.72665,-0.5235l0.59439,-0.54681l0.74144,-0.77931l0.59986,-0.79904l0.00902,-0.00732l0.00488,-0.01054l0.47951,-0.59516l0.01944,-0.0147l0.0118,-0.02132l0.29039,-0.31152l0.10864,-0.17768l0.00807,-0.00793l0.00375,-0.01067l0.1608,-0.24431l0.30749,-0.53186l0.01363,-0.01409l0.00649,-0.01849l0.25416,-0.38616l0.29744,-0.46768l0.24876,-0.47314l0.01727,-0.01934l0.00805,-0.02464l0.21942,-0.34934l0.00003,-0.00007l0.00671,-0.02279l0.02207,-0.12329l0.05417,-0.12061l-0.00386,-0.10999l0.023,-0.02365l0.00638,-0.05362l0.38366,-1.00878l-0.00254,-0.07239l-0.00932,-0.15167l0.00336,-0.01811l-0.00067,-0.01898l0.00518,-0.00532l0.02661,-0.14336l0.01442,-0.03158l0.00145,-0.03469l0.03929,-0.13328l0.00774,-0.18565l0.00864,-0.02933l-0.00343,-0.03039l0.03895,-0.29258l0.00078,-0.00193l-0.00899,-0.0136l-0.06188,-0.17556l-0.00504,-0.00925l-0.04685,-0.0463l-0.10012,-0.16465l-0.0124,-0.03991l-0.02586,-0.03284l-0.04895,-0.10902l-0.0035,-0.01958l-0.01136,-0.01632l-0.04414,-0.11612l-0.10641,-0.15493l-0.021,-0.05633l-0.03718,-0.04724l-0.00499,-0.01112l-0.1832,-0.19914l-0.02583,-0.04742l-0.03014,-0.01342l-0.04436,-0.12336l-0.0627,-0.11512l0.01001,-0.03144l-0.01827,-0.0508l-0.00315,-0.03134l-0.7088,-0.77049l-0.09104,-0.03463l-0.05976,-0.04163l-0.06873,-0.02409l-0.17812,-0.11723l-0.11697,-0.03448l-0.06278,-0.03691l-0.07038,-0.01875l-0.14562,-0.08056l-0.14173,-0.04178l-0.02236,-0.01315l-0.02574,-0.00307l-0.09249,-0.03517l-0.16993,-0.0261l-0.08982,-0.03769l-0.09543,-0.0195l-0.06113,-0.02927l-0.29158,-0.01216l-0.06318,-0.01863l-0.06587,0.00038l-0.33354,-0.08129l-0.25497,-0.01063l-0.03572,-0.01053l-0.03708,0.00344l-1.15971,-0.17804l-0.65915,-0.02748l-0.45908,0.053l-0.01085,-0.00142l-0.01036,0.00353l-0.42941,0.03559l-0.0219,-0.00358l-0.02142,0.00574l-0.4091,0.00698l-0.354,0.05558l-0.70261,0.12019l-0.88793,0.28831l-0.93596,0.35574l-0.01427,0.00169l-0.01212,0.0077l-0.74885,0.24888l-0.459,0.21655l-0.59931,0.50507l-0.03232,0.01583l-0.02407,0.02676l-1.00445,0.67743l-3.67083,3.37694l-0.61225,0.66084l-0.48132,0.58895l-0.59793,0.83216l-0.12395,0.29281l0.00088,0.00384l-0.00699,0.01061l-0.01913,0.04519l-0.08426,0.11189l-0.07701,0.117l-0.03611,0.03323l-0.00765,0.01015l-0.00389,0.00047l-0.01954,0.01798l-0.16112,0.49496l-0.03009,0.04802l-0.01342,0.05505l-0.25903,0.49266l-0.14015,0.27707l-0.14717,0.30737l-0.07891,0.28682l-0.00857,0.01519l-0.00131,0.01739l-0.06669,0.20124l0.00874,0.04238l-0.0041,0.0984l0.01479,0.09737l-0.04786,0.50617l-0.00159,0.00449l0.00065,0.00472l-0.03509,0.32287l0.06234,0.50234l0.07069,0.20943l0.0797,0.12203l0.00593,0.01712l0.01262,0.01301l0.17465,0.30148l0.01498,0.05207l0.03096,0.04446l0.11921,0.31365l0.08661,0.13261l0.0235,0.06779l0.04099,0.05888l0.11921,0.31365l0.08661,0.13261l0.0235,0.06779l0.04099,0.05888l0.09936,0.26143l0.14405,0.15658l0.01606,0.02949l0.02608,0.02116l0.22805,0.30372l0.03617,0.08575l0.05317,0.07637l0.05636,0.14828l0.01412,0.02592l0.29676,0.3226c0.16678,0.00865 0.33042,0.08008 0.45243,0.21271c0.06153,0.06688 0.10666,0.14302 0.13561,0.22348zM318.05591,233.86917l-0.03909,-0.10286l-0.15211,-0.20259l-0.20795,-0.22604l-0.0599,-0.10999l-0.07157,-0.10279l-0.11921,-0.31365l-0.08661,-0.13261l-0.0235,-0.06779l-0.04099,-0.05888l-0.11921,-0.31365l-0.08661,-0.13261l-0.0235,-0.06779l-0.04099,-0.05888l-0.12556,-0.33034l-0.1389,-0.23976l-0.11602,-0.17764l-0.02753,-0.07941l-0.04539,-0.07074l-0.11902,-0.35266l-0.00542,-0.06717l-0.02427,-0.06286l-0.08008,-0.64524l0.00935,-0.07652l-0.0105,-0.07637l0.0429,-0.39479l0.03809,-0.4029l-0.02326,-0.11281l-0.00681,-0.00759l0.01271,-0.16927l0.00707,-0.16961l0.00765,-0.00674l0.11513,-0.34743l0.09005,-0.32734l0.02924,-0.05186l0.01192,-0.05833l0.17578,-0.36711l0.00471,-0.0057l0.00164,-0.00721l0.14575,-0.28813l0.00351,-0.00405l0.00127,-0.0052l0.23533,-0.44758l0.19331,-0.59388l-0.00223,-0.00975l0.09524,-0.14471l0.09198,-0.14682l0.00978,-0.00202l0.07963,-0.07326l0.12217,-0.2886l0.04458,-0.05921l0.02735,-0.06888l0.65305,-0.90888l0.01604,-0.01358l0.00895,-0.01901l0.50731,-0.62075l0.01683,-0.01255l0.01011,-0.0184l0.64415,-0.69529l0.02256,-0.01474l0.01482,-0.02251l3.72692,-3.42855l0.04426,-0.02411l0.03371,-0.03747l1.01641,-0.68549l0.63822,-0.53786l0.07734,-0.03787l0.06665,-0.05454l0.57294,-0.27031l0.03957,-0.00785l0.03405,-0.02162l0.77324,-0.257l0.93809,-0.35655l0.01657,-0.00198l0.01415,-0.00885l0.94896,-0.30813l0.04835,-0.00334l0.04437,-0.01953l0.75427,-0.12903l0.00464,0.00035l0.00429,-0.00181l0.40384,-0.0634l0.04635,0.00414l0.04492,-0.01205l0.43331,-0.00741l0.39716,-0.03292l0.50004,-0.05772l0.05201,0.0068l0.05138,-0.01059l0.74758,0.03117l0.03572,0.01053l0.03708,-0.00344l1.15971,0.17804l0.2838,0.01184l0.06318,0.01863l0.06586,-0.00039l-0.02803,0.41391l0.109,0.37899l0.34708,0.04041l0.1963,-0.7399l-0.67777,0.64038l0.87638,-0.59979l0.13039,0.02664l0.06405,0.03066l0.00483,0.00142l0.00061,0.00117l0.02568,0.0123l-1.01914,0.93628l1.22634,-0.8872l0.06986,0.00831l0.13423,0.05105l0.18701,0.05513l0.06277,0.03692l0.07037,0.01874l0.14562,0.08056l0.14174,0.04178l0.0843,0.04959l0.09229,0.03235l0.19968,0.13142l0.12877,0.04898l0.00725,-0.00166l0.01587,0.01045l0.01722,0.00655l0.12469,0.08684l0.12693,0.08354l0.01248,0.01356l0.01558,0.01086l0.00114,0.00734l0.84072,0.91388l0.0315,0.05784l0.04686,0.04629l0.07231,0.11893l0.00541,0.00241l0.00571,0.01587l0.01668,0.02744l0.04342,0.13973l0.03305,0.09189l0.11994,0.13038l0.05085,0.09336l0.06577,0.08353l0.02452,0.05462l0.11753,0.17113l0.02771,0.07434l0.04533,0.06511l0.06541,0.17207l0.02412,0.05373l0.0447,0.07352l0.03242,0.03525l0.06366,0.11688l0.07337,0.11104l0.0236,0.06698l0.0024,0.00442l-0.0004,0.00126l0.05245,0.1488l0.04918,0.0903l0.01853,0.07144l0.03,0.02541l0.00727,0.11832l0.02976,0.11476l-0.02065,0.03346l0.00453,0.07366l-0.0314,0.16912l-0.03276,0.24605l-0.00989,0.23702l-0.02302,0.07809l-0.00339,0.08134l-0.05236,0.17763l0.0035,0.01215l0.0019,0.05396l0.02095,0.02548l-0.01549,0.13017l0.00459,0.13101l-0.02301,0.02364l-0.00638,0.05362l-0.39491,1.03839l-0.00687,0.03833l0.00393,0.11201l-0.0294,0.03024l-0.01485,0.08293l-0.0808,0.17989l-0.02706,0.09179l-0.03911,0.14683l-0.00893,0.01613l-0.00537,0.01822l-0.0066,0.00342l-0.03696,0.06681l-0.01282,0.01375l-0.00584,0.01786l-0.21567,0.34338l-0.24963,0.4748l-0.01854,0.02074l-0.00879,0.0264l-0.31484,0.49504l-0.00386,0.00366l-0.00175,0.00501l-0.24647,0.37448l-0.30749,0.53186l-0.01363,0.01408l-0.00648,0.01849l-0.16527,0.25111l-0.13777,0.22533l-0.04792,0.04713l-0.03254,0.05882l-0.31972,0.34298l-0.45742,0.56777l-0.61623,0.82083l-0.03043,0.02471l-0.01933,0.0341l-0.78322,0.82321l-0.019,0.01206l-0.01238,0.0188l-0.63969,0.58848l-0.03527,0.0192l-0.02592,0.03067l-0.77208,0.55622l-0.01565,0.00624l-0.01151,0.01231l-0.97321,0.63009l-1.07945,0.74668l-0.03782,0.01424l-0.03012,0.02694l-1.13591,0.59854l-0.83417,0.57293l-0.67643,0.52172l-0.07162,0.0313l-0.06141,0.04835l-0.85546,0.38405l-0.74648,0.38623l-0.65377,0.34569l-0.0968,0.02384l-0.09061,0.04157l-0.70087,0.13125l-0.00432,-0.00026l-0.00397,0.00176l-0.6155,0.10717l-0.69673,0.13047l-0.0286,-0.00172l-0.02696,0.00969l-0.37602,0.03782l-0.01718,-0.0025l-0.01661,0.00502l-0.29481,0.01446l-0.02998,-0.00596l-0.02995,0.00617l-0.267,-0.01113l-0.02932,-0.00864l-0.03038,0.00344l-0.28803,-0.03834l-0.34142,-0.04063l-0.05914,-0.02249l-0.06315,-0.00398l-0.28365,-0.09021l-0.40089,-0.11818l-0.24947,-0.06081l-0.11373,-0.0598l-0.11911,-0.04822l-0.03451,-0.02515l-0.0383,-0.00711l-0.11919,-0.05445l-0.12367,-0.04334l-0.06535,-0.04301l-0.00181,-0.00083l-0.00016,-0.00048l-0.02534,-0.01668l-0.1371,-0.06565l-0.01015,0.00084l-0.12738,-0.11263l-0.07777,-0.06438l-0.04636,0.01059l-0.2847,-0.18738l-0.66524,-0.72313l-0.03894,-0.07149l-0.05513,-0.05992l-0.07453,-0.13684l-0.01142,-0.04404z" fill="#82615a" stroke="none" stroke-width="0.5" stroke-linecap="butt"/><path d="M320.18553,234.13622c-0.02895,-0.08046 -0.07455,-0.15701 -0.13607,-0.22389c-0.122,-0.13262 -0.28647,-0.20484 -0.45324,-0.2135l-0.29749,-0.32335l-0.01417,-0.02597l-0.0566,-0.14855l-0.05332,-0.07655l-0.03629,-0.08591l-0.22864,-0.30443l-0.02613,-0.02122l-0.01611,-0.02955l-0.14436,-0.15699l-0.09976,-0.26195l-0.0411,-0.05903l-0.02359,-0.06793l-0.08683,-0.13293l-0.11965,-0.31432l-0.0411,-0.05903l-0.02358,-0.06794l-0.08681,-0.13294l-0.11962,-0.31436l-0.03102,-0.04459l-0.01504,-0.05218l-0.17504,-0.30225l-0.01263,-0.01305l-0.00596,-0.01717l-0.07985,-0.12235l-0.07091,-0.20993l-0.06282,-0.50346l0.03482,-0.32355l-0.00065,-0.00473l0.00159,-0.00449l0.04747,-0.50731l-0.01486,-0.09761l0.00403,-0.09863l-0.00877,-0.04249l0.06656,-0.20168l0.00129,-0.01744l0.00856,-0.01522l0.07874,-0.28748l0.14701,-0.30808l0.14001,-0.27773l0.25882,-0.49391l0.0134,-0.0552l0.03006,-0.04814l0.16097,-0.49637l0.01954,-0.01802l0.00389,-0.00047l0.00765,-0.01018l0.03611,-0.03332l0.07698,-0.11735l0.08425,-0.11222l0.01912,-0.04533l0.00699,-0.01065l-0.00087,-0.00384l0.12393,-0.29372l0.59807,-0.83495l0.48164,-0.59116l0.61294,-0.66362l3.68304,-3.39221l1.00898,-0.67947l0.02418,-0.02681l0.03246,-0.01588l0.60203,-0.50582l0.46085,-0.21689l0.75172,-0.24913l0.01216,-0.00769l0.01431,-0.0017l0.93929,-0.35562l0.89074,-0.28788l0.70467,-0.11967l0.35498,-0.05528l0.41021,-0.00658l0.02148,-0.00573l0.02196,0.00361l0.4305,-0.03514l0.01039,-0.00352l0.01088,0.00143l0.46014,-0.05249l0.66065,0.0283l1.16216,0.17967l0.03714,-0.0034l0.0358,0.01059l0.25541,0.01097l0.33417,0.08181l0.06597,-0.00031l0.0633,0.01872l0.29201,0.01255l0.06125,0.02938l0.09558,0.01965l0.08999,0.03785l0.17019,0.02633l0.09265,0.03533l0.02579,0.0031l0.02239,0.0132l0.14196,0.042l0.1459,0.08084l0.07048,0.01885l0.0629,0.03705l0.11716,0.03467l0.17844,0.1176l0.06883,0.02421l0.05988,0.04176l0.09117,0.03478l0.71032,0.77246l0.00319,0.0314l0.01835,0.05091l-0.00997,0.03148l0.06289,0.11538l0.04452,0.12362l0.03017,0.01347l0.02589,0.04753l0.18354,0.19969l0.00501,0.01114l0.03726,0.04735l0.02107,0.05645l0.10663,0.15531l0.04428,0.11639l0.01139,0.01636l0.00352,0.01961l0.04908,0.10927l0.0259,0.03292l0.01245,0.04l0.10033,0.16506l0.04691,0.04644l0.00505,0.00927l0.06205,0.17595l0.00901,0.01365l-0.00076,0.00194l-0.0387,0.29313l0.00346,0.03045l-0.00862,0.02938l-0.00757,0.18603l-0.03919,0.13352l-0.00142,0.03476l-0.01441,0.03163l-0.0265,0.14364l-0.00517,0.00534l0.00069,0.01902l-0.00335,0.01815l0.00945,0.15201l0.0026,0.07255l-0.383,1.01086l-0.00636,0.05374l-0.02299,0.02369l0.00393,0.11027l-0.05412,0.12088l-0.02201,0.12359l-0.00671,0.02286l-0.00003,0.00007l-0.21926,0.35014l-0.00804,0.02472l-0.01726,0.01939l-0.24856,0.47434l-0.29729,0.46896l-0.25407,0.3873l-0.00648,0.01855l-0.01363,0.01413l-0.30747,0.53356l-0.16083,0.24515l-0.00374,0.0107l-0.00807,0.00796l-0.10868,0.17831l-0.29051,0.31269l-0.01181,0.02141l-0.01945,0.01476l-0.47991,0.59754l-0.00489,0.01058l-0.00902,0.00735l-0.60086,0.80246l-0.74315,0.78301l-0.59617,0.54956l-0.72909,0.52636l-0.97182,0.62993l-0.00713,0.00762l-0.00976,0.00368l-1.06004,0.73247l-1.14014,0.59952l-0.02943,0.02623l-0.03699,0.01375l-0.88486,0.60552l-0.01243,0.01399l-0.01718,0.00748l-0.63135,0.48512l-0.80359,0.35928l-0.0148,0.01162l-0.01835,0.00432l-0.76752,0.39557l-0.00228,0.00201l-0.00295,0.00072l-0.56901,0.29976l-0.59953,0.11149l-0.61689,0.10659l-0.00397,0.00176l-0.00434,-0.00026l-0.67461,0.12542l-0.33185,0.03295l-0.24839,0.01188l-0.20746,-0.00888l-0.26337,-0.03532l-0.0047,0.00053l-0.00443,-0.00169l-0.28411,-0.0341l-0.23095,-0.07363l-0.00723,-0.00047l-0.00625,-0.00367l-0.42356,-0.12521l-0.01614,-0.00069l-0.01431,-0.00753l-0.13791,-0.03375l-0.00679,-0.00495l-0.00196,-0.0056l-0.01537,-0.00704l-0.02601,-0.01896l-0.13589,-0.05512l-0.13335,-0.06103l-0.03163,-0.0059l-0.01567,-0.00636l-0.0054,0.00242l-0.00187,-0.00035l-0.01864,-0.01228l-0.04301,-0.01512l-0.03513,-0.02908l-0.02416,-0.01159z" fill="#82615a" stroke="none" stroke-width="0.5" stroke-linecap="butt"/><path d="M339.10045,217.3778c4.19762,1.85919 7.95791,3.27467 11.19293,6.6696c0.71754,0.75301 2.12908,1.25535 2.11384,2.29537c-0.00916,0.62507 -0.59408,1.14025 -1.11991,0.62664c-1.65463,-1.61614 -3.27378,-3.78102 -5.30106,-4.98056c-2.17804,-1.28872 -5.29007,-3.06807 -7.78124,-3.50247c-0.40413,-0.07047 -3.22697,-0.19378 -3.40582,-0.53945c-0.04594,-0.02973 -0.08889,-0.06569 -0.12766,-0.10782c-0.24727,-0.2688 -0.22984,-0.68716 0.03896,-0.93443c0.21535,-0.19811 0.5267,-0.2263 0.76916,-0.09147c1.00702,-0.3135 2.70507,0.15899 3.6208,0.56457z" fill="#000000" stroke="none" stroke-width="0.5" stroke-linecap="butt"/></g></g><g stroke="none" stroke-width="0.5" stroke-linecap="butt"><path d="M367.74409,176.80915c0.25402,0.27396 0.52161,0.55772 0.87589,0.83295c1.4589,1.13341 3.12728,1.94641 4.64791,2.97886c2.04128,1.38595 3.70286,3.42433 5.8155,4.67573c2.79157,2.54883 5.98984,5.2881 8.26866,8.28101c1.16083,1.52459 2.51274,3.21113 3.87717,4.57389c1.5971,1.40974 3.2424,3.36284 4.0081,5.34566c0.67906,1.75844 0.05544,5.54901 -1.65928,6.60484c-0.59739,0.36784 -1.5282,0.04308 -2.14671,-0.07056c-2.29626,-0.795 -4.77286,-1.4872 -6.74527,-2.94905c-2.07615,-1.53874 -3.66929,-3.26907 -5.54155,-4.99784c-1.20436,-1.11206 -2.67248,-1.84394 -3.8622,-2.97362c-2.05594,-1.86486 -4.45755,-3.36027 -6.49763,-5.24144c-2.68945,-2.47996 -5.54337,-5.17586 -8.70006,-7.04954c-0.19269,-0.17351 -0.37936,-0.35391 -0.56299,-0.53734c-0.07668,-0.60214 0.24937,-1.31884 0.52896,-1.88388c1.79592,-3.33092 3.57325,-7.28956 7.69351,-7.58967z" fill="#e6a075"/><path d="M360.92838,176.66038c0.39545,-0.51101 0.92474,-0.12082 0.92474,-0.12082l0.22968,0.2188c0.23532,0.0704 0.47064,0.14079 0.70596,0.21119c0,0 0.10832,0.0324 0.22207,0.11387c0.1698,0.03717 0.29104,0.12656 0.29104,0.12656l0.56426,0.41645c2.33014,1.48618 4.33416,3.42121 6.48772,5.13686c1.59544,0.8588 2.68845,2.08018 4.15683,3.10788c1.68777,1.18124 3.45021,2.13764 4.97477,3.53952c1.88656,1.73475 3.20264,3.73534 4.76815,5.71914c2.57176,4.29554 8.19506,6.66065 9.65871,11.52191c0,0 0.18616,0.61876 -0.44777,0.79346c-0.63393,0.17469 -0.82009,-0.44406 -0.82009,-0.44406c-0.72057,-2.39704 -2.34734,-3.65182 -4.23011,-5.25713c-1.88189,-1.60456 -3.98274,-3.78359 -5.25484,-5.9043c-1.51449,-1.90935 -2.76212,-3.82514 -4.57797,-5.50031c-1.4785,-1.36395 -3.19299,-2.27213 -4.82887,-3.42272c-1.45802,-1.0255 -2.55515,-2.2327 -4.13242,-3.09138c-2.16721,-1.71123 -4.17188,-3.66074 -6.50811,-5.15058l-0.60117,-0.44271c0,0 -0.00804,-0.00593 -0.0214,-0.01729c-0.04777,-0.00764 -0.077,-0.01638 -0.077,-0.01638c-0.23532,-0.07039 -0.47064,-0.14079 -0.70596,-0.21119l-0.64439,-0.42556c0,0 -0.52928,-0.39019 -0.13383,-0.9012z" fill="#961308"/><path d="M366.20232,175.60774c-1.89701,-0.35212 -3.70966,-0.71241 -5.64689,-0.67245c-0.6028,0.11552 -1.76585,0.05397 -2.28646,0.38827c-1.82022,1.16885 -4.13873,4.22817 -3.32784,6.5519c0.33313,0.95464 1.5666,1.59498 2.31268,2.18601c0.40423,0.32022 0.77744,0.67643 1.14084,1.04453c0.1154,-0.4212 0.2911,-0.84933 0.49549,-1.27825c1.8613,-3.45249 3.76703,-7.19209 7.57448,-8.09329c-0.08257,-0.04411 -0.16975,-0.08641 -0.26229,-0.12672zM368.63349,177.66433c-0.35428,-0.27523 -0.6215,-0.5592 -0.87552,-0.83316c-4.12026,0.3001 -5.88772,4.24827 -7.68364,7.57919c-0.27959,0.56504 -0.6046,1.27938 -0.52791,1.88152c0.18363,0.18344 0.37045,0.36343 0.56314,0.53694c3.15668,1.87368 6.012,4.55873 8.70144,7.0387c2.04008,1.88118 4.42614,3.35528 6.48209,5.22014c1.18973,1.12968 2.64388,1.85937 3.84824,2.97143c1.87227,1.72878 3.45741,3.46125 5.53356,4.99998c1.97241,1.46185 4.44396,2.15701 6.74022,2.95201c0.61851,0.11364 1.54787,0.43956 2.14526,0.07173c1.71472,-1.05582 2.33344,-4.8407 1.65438,-6.59914c-0.76571,-1.98282 -2.41313,-3.93171 -4.01023,-5.34144c-1.36443,-1.36277 -2.71803,-3.04115 -3.87887,-4.56575c-2.27882,-2.9929 -5.4541,-5.70549 -8.24566,-8.25432c-2.11264,-1.2514 -3.7616,-3.29104 -5.80289,-4.677c-1.52064,-1.03245 -3.18472,-1.84741 -4.64362,-2.98082zM367.1581,174.6532c0.44231,0.25799 0.77063,0.55884 1.08801,0.8778c0.34979,-0.001 0.71333,0.01883 1.09152,0.06105c0,0 0.14462,0.01655 0.29088,0.10007c0.27875,-0.51596 -0.20226,-1.1066 -0.42504,-1.68474c-0.77514,-2.01156 -3.34472,-3.27363 -5.26937,-4.10537c-4.2137,-1.73845 -8.95954,-3.41562 -13.57053,-3.58214c-1.9141,-0.06912 -3.84445,0.47757 -5.70551,0.81856c-0.36127,0.1946 -1.50121,0.75928 -1.78291,1.10087c-0.48043,0.5826 -0.12934,2.79464 -0.07417,3.51392c0.28465,3.71116 2.18257,6.67264 5.05042,9.19074c2.57242,3.00274 6.45244,5.95303 10.65925,6.27401c-0.04412,-0.087 -0.08213,-0.17493 -0.1144,-0.26371c-0.63962,-0.65951 -1.25961,-1.34194 -1.9734,-1.90146c-1.00917,-0.79106 -2.28833,-1.50678 -2.73011,-2.76854c-0.88529,-2.52846 0.89532,-5.25326 2.68453,-6.81436c0.42513,-0.37093 0.67571,-0.93249 1.16131,-1.22532c0.76316,-0.46019 1.99572,-0.42529 2.86158,-0.58779c2.10135,-0.04878 4.04988,0.31986 6.10956,0.70143l-0.12867,-0.03528c0,0 0.55197,-0.15212 0.77705,0.33027zM367.90221,194.79174c-2.3845,-2.19327 -4.90136,-4.58261 -7.65507,-6.3676c-0.15504,0.10246 -0.3049,0.11719 -0.4333,0.09398c-5.05992,0.19338 -9.83125,-3.07443 -12.91148,-6.68909c-3.3319,-2.94127 -5.43012,-6.50168 -5.46692,-10.88133c-0.00739,-0.87951 -0.25793,-2.62555 0.3046,-3.3782c0.54921,-0.73482 1.66802,-1.22458 2.45809,-1.64117c2.02608,-0.39505 4.1255,-0.96344 6.2142,-0.89291c4.76898,0.16102 9.68062,1.89078 14.03869,3.68849c2.29218,1.00353 5.05494,2.45134 5.98777,4.83953c0.47444,1.21464 0.90795,1.94125 0.10688,3.09814l-0.83868,0.19227c1.37625,1.00353 2.89133,1.76451 4.29551,2.72394c2.05493,1.40406 3.73265,3.47063 5.86743,4.72164c2.90417,2.61927 6.13912,5.43536 8.51564,8.52c1.12885,1.4652 2.40463,3.10321 3.73185,4.40244c1.73722,1.56585 3.53335,3.66613 4.34661,5.85555c0.85551,2.30316 0.06476,6.8357 -2.2313,8.11914c-1.00631,0.5625 -2.09881,0.25171 -3.15012,0.0556c-2.46652,-0.84458 -5.07187,-1.6107 -7.19338,-3.1672c-2.1298,-1.56258 -3.76608,-3.34487 -5.67258,-5.11672c-1.19076,-1.10666 -2.64161,-1.83324 -3.82949,-2.95371c-2.0564,-1.86588 -4.44087,-3.34264 -6.48494,-5.22279z" fill="#000000"/><path d="M368.43252,176.42744c0.59588,-0.51495 0.94035,-0.96708 0.60923,-1.29819c-0.57395,-0.57395 -1.9945,0.6025 -2.32463,0.94089c-1.92721,1.97549 -3.5406,1.41165 -5.65337,4.34742c-0.12258,0.17034 -0.22716,-0.35551 -0.36353,-0.51501c-0.23303,-0.27256 -0.48505,-0.56165 -0.71084,-0.84997c-0.61412,-0.78419 -1.39423,-1.1475 -2.16405,-1.76876c-2.98429,-2.40837 -7.76038,-8.48154 -4.19877,-12.02914c1.70596,-1.69925 4.56986,-2.54025 6.89827,-2.34423c0.04513,0.0038 2.84709,4.61947 3.20696,4.99312c1.92723,2.00103 6.04071,3.45836 6.95681,6.23884c0.64094,1.94536 -0.19308,2.79615 -0.74508,4.01514c-0.24446,-0.04509 -0.57478,-0.11745 -0.64024,-0.23185c-0.27858,-0.48684 -0.54801,-1.09068 -0.87076,-1.49825z" fill="#b3c976"/><path d="M369.32378,177.94242c0.06547,0.1144 0.35446,0.15374 0.59891,0.19884c0.552,-1.21899 1.38135,-2.06047 0.74041,-4.00583c-0.9161,-2.78049 -5.01692,-4.20772 -6.94415,-6.20875c-0.35987,-0.37365 -3.14562,-4.98619 -3.19076,-4.98999c-2.32841,-0.19602 -5.17499,0.63527 -6.88096,2.33452c-3.56161,3.5476 1.20868,9.58235 4.19297,11.99072c0.76982,0.62126 1.54083,0.98064 2.15495,1.76483c0.22579,0.28832 0.47504,0.57695 0.70807,0.84951c0.13638,0.15951 0.23969,0.68523 0.36227,0.5149c2.11278,-2.93577 3.70444,-2.36287 5.63166,-4.33835c0.33013,-0.3384 1.74671,-1.50872 2.32065,-0.93477c0.33112,0.33112 0.03228,0.80962 -0.56361,1.32458c0.32275,0.40756 0.59101,1.01296 0.86959,1.4998zM363.8214,179.15684c-1.28931,0.61327 -1.33917,1.64897 -1.94902,2.7996c-0.06338,0.11958 -0.11877,0.29644 -0.25238,0.31805c-1.39927,0.22635 -2.29939,-2.33996 -3.32931,-3.11006c-3.71776,-2.77987 -10.16482,-9.3735 -6.02408,-14.34293c1.72892,-2.07493 6.06702,-4.15183 8.79479,-3.15444c1.6013,0.5855 2.00421,3.6008 3.11672,4.76791c2.34647,2.46164 6.30773,3.97528 7.71247,7.19789c0.43871,1.00644 0.61679,5.95703 -1.58646,5.97996c-0.00321,0.00005 -0.00642,0.00007 -0.00963,0.00007c-0.09153,0 -0.17873,-0.0186 -0.258,-0.05221c-0.81879,0.31674 -2.1236,-1.24863 -2.76105,-2.2656c-1.30145,0.82807 -2.89613,1.59639 -3.45403,1.86176z" fill="#000000"/></g><path d="M358.49533,180.57796c0.44385,-0.47172 0.93326,-0.03484 0.93326,-0.03484l0.47702,0.4389c3.08191,1.23705 5.18906,3.45945 7.48646,5.56432c1.54117,0.57082 2.34267,1.81928 3.6671,2.7008c3.91905,2.60846 7.06206,6.00564 10.34157,9.3186c3.02406,3.70837 9.8685,5.19206 10.27192,10.61904c0,0 0.04421,0.64192 -0.61501,0.67823c-0.65922,0.03631 -0.70342,-0.60562 -0.70342,-0.60562c-0.10149,-1.63522 -1.0541,-2.55887 -2.19181,-3.63892c-0.42119,-0.39984 -0.6937,-0.93615 -1.133,-1.31707c-0.97082,-0.84181 -2.39726,-1.18857 -3.4619,-1.88903c-1.24904,-0.82179 -2.22394,-1.8567 -3.1574,-3.00574c-3.21374,-3.23629 -6.27372,-6.5247 -10.08882,-9.10032c-1.30424,-0.8805 -2.1091,-2.09952 -3.61682,-2.66894c-2.39891,-2.09496 -4.3741,-4.27236 -7.50399,-5.57509l-0.65961,-0.57575c0,0 -0.48941,-0.43689 -0.04555,-0.9086z" fill="#961308" stroke="none" stroke-width="0.5" stroke-linecap="butt"/><g stroke="none" stroke-width="0.5" stroke-linecap="butt"><path d="M343.29182,93.39582l-0.62658,1.12618c-2.02189,2.04034 -4.5674,3.22618 -7.10548,4.49546c-2.15467,1.01367 -4.38808,1.98721 -6.50424,3.07023c-1.49132,0.76324 -2.2823,2.07837 -4.18806,1.83832c-3.52334,-0.44381 -4.28156,-5.88711 -3.08294,-8.47906c0.66572,-1.43958 1.87536,-2.13548 3.23359,-2.5081c-0.1859,-0.19583 -0.35935,-0.40144 -0.50696,-0.62758c-1.23131,-1.88642 -0.64581,-3.76409 1.57031,-4.36466c1.51871,-0.41156 2.95952,-0.14993 4.29346,0.42755c-0.2182,-0.85584 -0.27379,-1.72511 0.11652,-2.52809c1.14464,-2.35483 3.76658,-1.66229 5.43412,-0.30511c0.50424,-1.65649 1.25977,-3.48072 2.4614,-4.52935c2.03885,-1.77925 5.95119,-1.51864 7.39724,0.96399c1.92196,3.29967 -1.02492,7.63824 -2.08489,10.63191c0,0 -0.08939,0.25031 -0.30025,0.48644c-0.04064,0.17981 -0.10724,0.3019 -0.10724,0.3019zM323.70999,96.325c-0.58953,1.34119 -0.41732,3.41429 0.42912,4.55717c0.26143,0.353 0.50209,0.89434 1.0286,0.94901c0.99504,0.10331 2.1225,-1.21337 2.89537,-1.61258c2.1318,-1.10116 4.39823,-2.08143 6.57286,-3.10507c2.1964,-1.098 4.56533,-2.11446 6.33487,-3.85935l0.2672,-0.50287c-0.22213,-0.49523 -0.02989,-1.03351 -0.02989,-1.03351c0.75482,-2.0978 3.47967,-6.037 2.27414,-8.43887c-0.49831,-0.99282 -2.63375,-1.00616 -3.31872,-0.3074c-1.11865,1.14116 -1.68933,3.11773 -2.0571,4.608l0.03949,0.13328c0,0 0,1.32264 -1.32264,1.32264c-0.77888,0 -1.0991,-0.45868 -1.23074,-0.83581c-0.26064,-0.15907 -0.40309,-0.39651 -0.40309,-0.39651c-0.48576,-0.92136 -1.05706,-1.04873 -2.06522,-1.31431c-0.28724,-0.07567 -0.60671,-0.23375 -0.68504,0.18468c-0.24357,1.30116 0.45121,2.42734 0.84725,3.61072l0.00959,0.07516c0.0889,0.21808 0.11323,0.49569 -0.05675,0.81234c-0.07833,0.18561 -0.21714,0.3824 -0.4631,0.49699c-0.23621,0.13354 -0.47702,0.13212 -0.67359,0.08797c-0.28435,-0.03647 -0.47662,-0.15913 -0.60662,-0.30832c-1.47628,-1.04657 -2.17604,-1.38798 -4.02644,-1.40607c-0.48613,-0.00475 -1.13107,-0.28864 -1.45666,0.07237c-0.55155,0.61157 1.20797,2.05288 1.70243,2.52448c0.21518,0.08034 0.43963,0.23981 0.555,0.55312c0.09112,0.18257 0.14009,0.41379 0.05767,0.68251c-0.05328,0.27598 -0.20501,0.45719 -0.37113,0.57567c-0.23694,0.21188 -0.49575,0.25425 -0.71655,0.23194c-1.25781,0.1144 -2.93623,0.29109 -3.53032,1.64263z" fill="#000000"/><path d="M327.26489,94.67259c0.22079,0.02231 0.43053,-0.00029 0.66747,-0.21217c0.16612,-0.11848 0.3172,-0.30147 0.37048,-0.57745c0.08242,-0.26871 0.03263,-0.5031 -0.05849,-0.68567c-0.11537,-0.31331 -0.34022,-0.47568 -0.5554,-0.55602c-0.49446,-0.47161 -2.25316,-1.92197 -1.7016,-2.53354c0.32559,-0.36102 0.97108,-0.07889 1.4572,-0.07414c1.8504,0.01809 2.60018,0.37675 4.07646,1.42332c0.13001,0.14919 0.27175,0.25625 0.5561,0.29273c0.19657,0.04414 0.44037,0.0387 0.67659,-0.09485c0.24596,-0.11459 0.3988,-0.32255 0.47713,-0.50815c0.16999,-0.31665 0.15009,-0.59535 0.0612,-0.81343l-0.00155,-0.02287c-0.39605,-1.18338 -1.10018,-2.36161 -0.85661,-3.66277c0.07833,-0.41843 0.40107,-0.26081 0.6883,-0.18514c1.00816,0.26558 1.59074,0.3945 2.0765,1.31587c0,0 0.14528,0.23867 0.40591,0.39775c0.13165,0.37713 0.45891,0.84104 1.23779,0.84104c1.32264,0 1.28462,-1.28586 1.28462,-1.28586l-0.03914,-0.13292c0.36776,-1.49028 0.97247,-3.50713 2.09112,-4.6483c0.68497,-0.69875 2.82469,-0.68159 3.323,0.31124c1.20553,2.40187 -1.51261,6.35719 -2.26743,8.45499c0,0 -0.19228,0.54185 0.02985,1.03709l-0.2674,0.50471c-1.76954,1.74489 -4.15909,2.78335 -6.3555,3.88135c-2.17463,1.02365 -4.46154,1.99988 -6.59334,3.10104c-0.77287,0.39922 -1.90276,1.71403 -2.89779,1.61072c-0.52651,-0.05466 -0.76923,-0.59802 -1.03067,-0.95101c-0.84644,-1.14288 -1.02361,-3.22364 -0.43407,-4.56484c0.59408,-1.35154 2.32146,-1.54829 3.57927,-1.6627z" fill="#7c3e1e"/></g><path d="M353.3099,99.80777c0,0 0.539,1.78626 0.70077,2.20847c0.05749,0.15007 0.67871,0.10223 1.13536,0.24635c0.58478,0.18456 1.02667,0.5442 1.02667,0.5442c0,0 5.14873,5.99865 5.69966,14.99773c0.01612,0.26331 1.65474,1.62821 2.2502,2.66295c2.87575,4.99725 9.3969,16.50516 9.528,17.8547c0.91886,9.45945 -4.04439,16.77325 -11.81211,19.37734c-7.2725,2.43807 -17.35673,0.45324 -17.30031,0.63011c0.1124,0.35237 7.73088,0.49225 10.84037,0.61323c0.67722,0.02635 1.26505,-0.03639 1.8,-0.14043c0.3211,-0.06245 0.62315,-0.34295 0.91405,-0.05857c2.83973,2.77617 2.38662,7.68974 2.42066,10.10046c0.03243,2.29632 -0.52888,5.21292 -2.25575,7.12659c-0.47715,0.52875 0.8863,2.2274 1.19458,2.83498c2.8245,5.56682 7.10434,11.72121 7.2119,20.44506c0.22193,17.99961 -13.78967,27.22116 -14.20559,27.57824c-4.46417,3.83267 -21.60062,15.35211 -61.99435,10.29028c-28.23548,-3.53825 -31.7267,-27.71352 -31.83564,-28.34809c-0.60384,-3.51741 -0.80371,-12.56799 7.40355,-28.36352c3.17557,-6.11164 10.28982,-15.32508 14.90534,-22.38915c12.76895,-19.54293 25.50892,-37.48731 29.18935,-41.63659c6.21334,-7.00485 11.50888,-13.00386 16.87457,-17.26186c4.63015,-3.6743 9.6836,-6.09858 11.0219,-6.20379c13.93866,-1.09585 15.2868,6.89131 15.2868,6.89131z" fill="#b3c976" stroke="#000000" stroke-width="2" stroke-linecap="round"/><path d="M294.06849,138.11037c0,0 36.22771,-57.73068 55.23052,-43.65815c4.61039,3.41422 12.95042,21.9719 14.55237,25.60319c0.14656,0.33223 7.18457,12.88303 9.50097,17.01192c0.37249,0.66395 0.11617,21.20721 -19.35501,21.53225c-0.28023,0.00468 4.76551,0.1082 4.52514,0.7719c-0.21788,0.60158 -5.68629,1.75792 -6.55873,1.96367c-33.71804,7.9518 -57.35964,-22.22418 -57.35964,-22.22418" fill="#e19c71" stroke="#000000" stroke-width="0.5" stroke-linecap="round"/><path d="M315.21405,109.85663c0,0 3.00755,-3.71618 4.53281,-5.03171c0.62485,-0.53893 1.5841,-1.85378 2.41823,-2.29097c0.15505,-0.08127 0.80315,-0.49713 0.93154,-0.52119c0.55388,-0.10379 0.34813,0.60241 0.34813,0.60241c0,0 -1.14869,4.35811 -1.39059,6.7382c-0.27259,2.68216 -0.16391,8.55711 -0.16391,8.55711l-6.57024,0.7418l-0.10598,-8.79564z" fill="#7c3e1e" stroke="#000000" stroke-width="1" stroke-linecap="round"/><path d="M318.05423,110.20383c3.56175,-0.04599 7.15894,0.12937 10.71443,0.04538c1.21052,-0.0286 3.50094,-0.82811 4.32518,-0.00387c0.71975,0.71975 0.63806,1.93111 -0.52906,1.98397c-2.02258,0.09159 -3.95437,0.0651 -5.95764,0.04538c-2.60047,-0.0256 -5.20123,-0.01325 -7.80179,0c-1.12548,0.00573 -3.49722,0.73624 -3.97555,-0.10084c-0.31187,-0.18406 -0.52108,-0.52355 -0.52108,-0.91191c0,-0.58438 0.47373,-1.05812 1.05812,-1.05812c0.18102,0 0.35141,0.04545 0.5004,0.12557c0.71103,-0.13544 1.51673,-0.11691 2.187,-0.12557z" fill="#000000" stroke="none" stroke-width="0.5" stroke-linecap="butt"/><path d="M353.73758,171.50775c0,0 1.32517,1.17215 1.99373,1.9351c0.8058,0.91956 2.50666,3.20064 2.50666,3.20064" fill="none" stroke="#000000" stroke-width="2" stroke-linecap="round"/><path d="M358.87991,160.11737c0,0 -16.46956,6.6093 -46.12681,-4.30891c-9.79935,-3.60759 -18.29969,-17.00751 -18.29969,-17.00751" fill="none" stroke="#000000" stroke-width="1" stroke-linecap="round"/><path d="M364.40155,211.6637c0,0 -13.08298,8.03811 -27.24007,6.99079c-5.8598,-0.4335 21.52586,-0.48771 -13.97772,0.91551c-0.89815,0.03549 -4.0771,-0.80141 -4.95644,-0.82306c-15.19016,-0.37398 -27.56704,-1.33071 -39.6047,-6.67866c-4.82536,-2.14376 -8.56094,-3.10265 -12.98061,-5.71346c-0.98304,-0.58071 -2.76954,-1.21967 -4.45715,-1.84603c-1.11904,-0.41534 -2.40842,-0.68259 -2.6193,-1.43825c-0.3464,-1.2413 1.13054,-5.17136 1.13054,-5.17136c0,0 12.231,8.53181 25.8809,8.96949c10.10703,0.32407 36.30803,-4.57866 54.7343,-8.44143c16.45944,-3.45046 26.41827,3.66357 26.41827,3.66357z" fill="#e19c72" stroke="#000000" stroke-width="1" stroke-linecap="round"/><path d="M366.77081,112.68331c0,4.01562 -3.90629,7.27093 -8.72494,7.27093c-1.52004,0 -3.49173,-0.08399 -4.73622,-0.65353c-2.70063,-1.23595 -3.98872,-3.8685 -3.98872,-6.6174c0,-3.02052 1.98144,-6.84325 5.31456,-7.14908c1.32856,-0.1219 2.21628,-0.12185 3.41038,-0.12185c4.81865,0 8.72494,3.25531 8.72494,7.27093z" fill="#5fbeb6" stroke="#278986" stroke-width="1" stroke-linecap="butt"/><path d="M366.20484,112.93634c0,3.84205 -2.54115,6.95664 -5.67583,6.95664c-3.13467,0 -5.67583,-3.11459 -5.67583,-6.95664c0,-3.84205 2.54115,-6.95665 5.67583,-6.95665c3.13467,0 5.67583,3.1146 5.67583,6.95665z" fill="#77ece3" stroke="#278986" stroke-width="1" stroke-linecap="butt"/><path d="M351.44943,113.41471c0,4.5566 -4.24811,8.25045 -9.48842,8.25045c-1.65306,0 -3.79728,-0.09531 -5.15067,-0.74158c-2.93695,-1.40246 -4.33776,-4.38966 -4.33776,-7.50888c0,-3.42744 2.15483,-7.76516 5.77962,-8.11218c1.44482,-0.13832 2.41022,-0.13827 3.70881,-0.13827c5.24031,0 9.48842,3.69385 9.48842,8.25045z" fill="#5fbeb6" stroke="#278986" stroke-width="1" stroke-linecap="butt"/><path d="M351.48139,113.24248c0,4.31852 -3.17136,7.81937 -7.08343,7.81937c-3.91207,0 -7.08343,-3.50085 -7.08343,-7.81937c0,-4.31852 3.17136,-7.81937 7.08343,-7.81937c3.91207,0 7.08343,3.50085 7.08343,7.81937z" fill="#77ece3" stroke="#278986" stroke-width="1" stroke-linecap="butt"/><path d="M314.6594,143.05304c0,-0.29219 0.23687,-0.52906 0.52906,-0.52906c0.29219,0 0.52906,0.23687 0.52906,0.52906c0,0.29219 -0.23687,0.52906 -0.52906,0.52906c-0.29219,0 -0.52906,-0.23687 -0.52906,-0.52906z" fill="#000000" stroke="none" stroke-width="0.5" stroke-linecap="butt"/><path d="M318.15435,146.73863c0,-0.29219 0.23687,-0.52906 0.52906,-0.52906c0.29219,0 0.52906,0.23686 0.52906,0.52906c0,0.29219 -0.23687,0.52906 -0.52906,0.52906c-0.29219,0 -0.52906,-0.23686 -0.52906,-0.52906z" fill="#000000" stroke="none" stroke-width="0.5" stroke-linecap="butt"/><path d="M315.04067,150.86902c0,-0.29219 0.23687,-0.52906 0.52906,-0.52906c0.29219,0 0.52906,0.23686 0.52906,0.52906c0,0.29219 -0.23687,0.52906 -0.52906,0.52906c-0.29219,0 -0.52906,-0.23686 -0.52906,-0.52906z" fill="#000000" stroke="none" stroke-width="0.5" stroke-linecap="butt"/><path d="M326.41513,152.20346c0,-0.29219 0.23687,-0.52906 0.52906,-0.52906c0.29219,0 0.52906,0.23686 0.52906,0.52906c0,0.29219 -0.23687,0.52906 -0.52906,0.52906c-0.29219,0 -0.52906,-0.23686 -0.52906,-0.52906z" fill="#000000" stroke="none" stroke-width="0.5" stroke-linecap="butt"/><path d="M333.02376,156.01613c0,-0.29219 0.23687,-0.52906 0.52906,-0.52906c0.29219,0 0.52906,0.23686 0.52906,0.52906c0,0.29219 -0.23687,0.52906 -0.52906,0.52906c-0.29219,0 -0.52906,-0.23686 -0.52906,-0.52906z" fill="#000000" stroke="none" stroke-width="0.5" stroke-linecap="butt"/><path d="M337.78961,151.94928c0,-0.29219 0.23687,-0.52906 0.52906,-0.52906c0.29219,0 0.52906,0.23686 0.52906,0.52906c0,0.29219 -0.23687,0.52906 -0.52906,0.52906c-0.29219,0 -0.52906,-0.23686 -0.52906,-0.52906z" fill="#000000" stroke="none" stroke-width="0.5" stroke-linecap="butt"/><path d="M341.03038,154.04625c0,-0.29219 0.23687,-0.52906 0.52906,-0.52906c0.29219,0 0.52906,0.23686 0.52906,0.52906c0,0.29219 -0.23687,0.52906 -0.52906,0.52906c-0.29219,0 -0.52906,-0.23686 -0.52906,-0.52906z" fill="#000000" stroke="none" stroke-width="0.5" stroke-linecap="butt"/><path d="M348.338,150.29712c0,-0.29219 0.23687,-0.52906 0.52906,-0.52906c0.29219,0 0.52906,0.23686 0.52906,0.52906c0,0.29219 -0.23687,0.52906 -0.52906,0.52906c-0.29219,0 -0.52906,-0.23686 -0.52906,-0.52906z" fill="#000000" stroke="none" stroke-width="0.5" stroke-linecap="butt"/><path d="M352.97675,152.20346c0,-0.29219 0.23687,-0.52906 0.52906,-0.52906c0.29219,0 0.52906,0.23686 0.52906,0.52906c0,0.29219 -0.23687,0.52906 -0.52906,0.52906c-0.29219,0 -0.52906,-0.23686 -0.52906,-0.52906z" fill="#000000" stroke="none" stroke-width="0.5" stroke-linecap="butt"/><path d="M362.24907,148.2637c0,-0.36524 0.29608,-0.66132 0.66132,-0.66132c0.36524,0 0.66132,0.29608 0.66132,0.66132c0,0.36524 -0.29608,0.66132 -0.66132,0.66132c-0.36524,0 -0.66132,-0.29608 -0.66132,-0.66132z" fill="#000000" stroke="none" stroke-width="0.5" stroke-linecap="butt"/><path d="M360.97819,152.58472c0,-0.36524 0.29608,-0.66132 0.66132,-0.66132c0.36524,0 0.66132,0.29608 0.66132,0.66132c0,0.36524 -0.29608,0.66132 -0.66132,0.66132c-0.36524,0 -0.66132,-0.29608 -0.66132,-0.66132z" fill="#000000" stroke="none" stroke-width="0.5" stroke-linecap="butt"/><path d="M356.08525,150.29712c0,-0.36524 0.29608,-0.66132 0.66132,-0.66132c0.36524,0 0.66132,0.29608 0.66132,0.66132c0,0.36524 -0.29608,0.66132 -0.66132,0.66132c-0.36524,0 -0.66132,-0.29608 -0.66132,-0.66132z" fill="#000000" stroke="none" stroke-width="0.5" stroke-linecap="butt"/><path d="M345.65639,206.38726c0.61921,0.23221 0.38701,0.85142 0.38701,0.85142l-0.14303,0.38118c-0.1936,0.53692 -0.12234,1.20184 -0.48579,1.64193c-1.43328,1.73547 -4.34535,-0.10265 -5.79239,-0.77637c0,0 -0.59928,-0.27966 -0.31961,-0.87894c0.27967,-0.59928 0.87894,-0.31961 0.87894,-0.31961c1.11485,0.52138 2.07081,1.15438 3.32895,1.25873c0.28301,0.02347 0.71571,0.17091 0.84817,-0.0803c0.20582,-0.39034 0.14881,-0.87433 0.29613,-1.29029l0.15019,-0.40074c0,0 0.2322,-0.61921 0.85142,-0.38701z" fill="#000000" stroke="none" stroke-width="0.5" stroke-linecap="butt"/><path d="M348.20978,207.42029c0.66132,0 0.66132,0.66132 0.66132,0.66132l-0.02687,0.67531c-0.30258,0.99239 -0.96536,2.51123 -1.91859,3.07517c-0.6696,0.39615 -1.74172,0.23402 -2.47887,0.23402c-2.33668,0 -5.80401,-0.22479 -7.52665,-2.02467c0,0 -0.44485,-0.48934 0.04449,-0.93419c0.48934,-0.44485 0.93419,0.04449 0.93419,0.04449c0.51067,0.61111 0.97167,0.55323 1.71853,0.79325c1.75267,0.56327 2.95983,0.79848 4.82944,0.79848c0.39352,0 1.44443,0.17414 1.82171,-0.05921c0.62819,-0.38855 1.12029,-1.63472 1.30685,-2.30054l-0.02687,-0.3021c0,0 0,-0.66132 0.66132,-0.66132z" fill="#000000" stroke="none" stroke-width="0.5" stroke-linecap="butt"/><path d="M336.22493,127.86163c0,0 6.06678,-2.97897 9.02835,-3.34837c17.54842,-2.18882 19.93919,5.84703 19.93919,5.84703c0,0 1.31231,2.62771 0.26709,4.11709c-0.89505,1.2754 -3.97067,1.54664 -6.0158,0.51713c-7.53476,-3.79296 -19.08268,-0.38332 -24.28533,2.61025c-1.27437,0.73326 -2.15432,-2.65251 -1.45758,-5.6312c0.50602,-2.16333 2.52409,-4.11193 2.52409,-4.11193z" fill="#dc6d2c" stroke="#a60e03" stroke-width="2" stroke-linecap="round"/><path d="M337.91894,128.58158c0,2.05826 -3.65757,12.32391 -7.85596,12.32391c-4.1984,0 -7.34777,-10.26565 -7.34777,-12.32391c0,-2.05826 3.40347,-3.72682 7.60187,-3.72682c4.1984,0 7.60186,1.66855 7.60186,3.72682z" fill="#e19c72" stroke="none" stroke-width="0" stroke-linecap="butt"/><path d="M341.838,128.91076c4.73346,-1.05342 10.32674,-2.43914 15.20491,-1.74381c0.89191,0.12713 6.00726,2.13834 5.09896,3.95494c-0.22529,0.45059 -0.78261,0.44787 -1.09067,0.18382c-1.45281,-1.24527 -1.69168,-2.79116 -4.17174,-2.82511c-5.78929,-0.07927 -12.61968,0.59697 -17.99036,2.85831c-0.10954,0.2139 -0.33217,0.3603 -0.589,0.3603c-0.21374,0 -0.40379,-0.1014 -0.52469,-0.25871c-1.60657,-1.11034 3.92136,-2.49831 4.06259,-2.52974z" fill="#a60e03" stroke="none" stroke-width="0.5" stroke-linecap="butt"/><path d="M337.72256,99.43762c1.16403,-0.0545 4.21855,2.481 5.90998,2.73177c1.28687,0.19079 2.90944,0.29495 3.83985,-0.79496c0.61614,-0.72176 1.51453,-4.27468 2.48995,-2.97412c1.00283,1.33711 -2.4062,4.60523 -3.284,5.07339c-1.72757,0.92138 -5.2338,-0.41811 -6.84288,-1.30141c-0.23857,-0.13097 -2.60641,-1.26666 -2.63103,-1.70962c-0.0672,-0.10352 -0.10622,-0.22701 -0.10622,-0.35961c0,-0.32478 0.23412,-0.59487 0.54279,-0.65073c0.02563,-0.00829 0.05274,-0.01336 0.08156,-0.01471z" fill="#000000" stroke="none" stroke-width="0.5" stroke-linecap="butt"/><path d="M358.82686,101.8331c3.17649,-1.40056 2.26987,-4.06963 3.30071,-5.05158c0.39275,-0.37412 0.78417,-0.49717 1.22077,0.03657c0.54366,0.66462 -0.73034,2.90618 -1.10711,3.48905c-1.67145,2.58572 -4.98772,4.39008 -8.06416,2.52953c-1.21444,-0.73446 -1.89205,-1.74946 -2.54511,-2.98853c-0.09093,-0.17253 -0.70612,-1.41903 0.00409,-1.45849c0.10351,-0.0672 0.227,-0.10623 0.35961,-0.10623c0.36524,0 0.66132,0.29609 0.66132,0.66132c0,0.0121 -0.00032,0.02412 -0.00096,0.03607c1.6659,1.94937 2.66843,4.39657 6.17084,2.85229z" fill="#000000" stroke="none" stroke-width="0.5" stroke-linecap="butt"/><path d="M364.71459,211.28815c0,0 -8.32951,14.36267 -17.3575,19.06391c-3.41663,1.77918 -9.83364,4.77432 -16.39193,6.10975c-8.88877,1.80999 -17.81563,1.67835 -17.81563,1.67835c0,0 -34.3695,4.35472 -47.4701,-13.97855c-3.76484,-5.2686 -5.83535,-11.82572 -6.56997,-16.14314c-0.41504,-2.43924 -0.14938,-4.41785 -0.14938,-4.41785c0,0 18.55269,9.75982 31.6679,12.13112c27.32344,4.94024 55.85288,5.03583 66.15996,-0.88439c0.65113,-0.374 2.20778,-0.71485 2.80996,-1.02424c3.50319,-1.7999 5.11669,-2.53495 5.11669,-2.53495z" fill="#82615a" stroke="#000000" stroke-width="0.5" stroke-linecap="round"/><path d="M269.24003,225.06277l0.00993,0.02482l0.00615,0.04507l0.02141,0.04014l0.0054,0.02161l0.00115,0.00152l0.00562,0.00187l0.00722,0.01524l0.01927,0.02569l0.05678,0.13486l0.06264,0.13224l0.0063,0.03148l0.00654,0.01554l-0.00235,0.00543l0.00165,0.00821l0.0786,0.1179l0.00542,0.01519l0.0114,0.0114l0.22675,0.37792l0.00211,0.00692l0.005,0.00522l0.11999,0.20998l0.18585,0.21683l0.00212,0.00423l0.00381,0.00279l0.16975,0.20371l0.14653,0.14653l0.19069,0.1589l0.2663,0.19973l0.58084,0.36302l0.00301,0.00312l0.00411,0.00139l0.52554,0.33785l0.51597,0.32248l0.62097,0.16342l0.00266,0.00146l0.00304,0.00007l0.83142,0.22675l0.01639,0.0092l0.01873,0.00144l0.83294,0.27764l0.79143,0.06882l0.01766,0.00608l0.01858,-0.00192l1.05816,0.15117l0.0364,0.01483l0.0393,0.00054l1.24014,0.32828l1.27055,0.17721l0.00963,0.00388l0.01036,-0.00079l1.13659,0.19412l0.8892,0.1067h0.80765l1.07328,-0.07155l0.98244,-0.18193l0.01159,0.00071l0.01072,-0.00445l0.75583,-0.11337l0.02426,0.00234l0.02313,-0.00771l0.42462,-0.03266l0.20025,-0.05721l0.01131,-0.00038l0.00998,-0.00532l0.28375,-0.07094l0.58639,-0.18324l0.01956,-0.00114l0.01729,-0.00922l0.44849,-0.11212l0.53554,-0.14281l0.5034,-0.17979l0.02581,-0.00254l0.02261,-0.01269l0.398,-0.10855l0.00006,-0.00002l0.02038,-0.01223l0.09972,-0.07578l0.12152,-0.05209l0.07162,-0.08356l0.03294,-0.00183l0.041,-0.03514l0.96533,-0.48266l0.04714,-0.055l0.09582,-0.11793l0.01474,-0.01106l0.01236,-0.01442l0.00742,-0.00041l0.11665,-0.08749l0.032,-0.01347l0.02455,-0.02455l0.11915,-0.07149l0.13139,-0.13139l0.02621,-0.01573l0.01804,-0.02469l0.22675,-0.18896l0.00188,-0.0009l0.0026,-0.0161l0.07332,-0.17109l0.00256,-0.01022l-0.00314,-0.06579l0.0378,-0.18896l0.01789,-0.03776l0.00321,-0.04167l0.03779,-0.11338l0.01068,-0.01678l0.00269,-0.0197l0.04614,-0.11535l0.02658,-0.18606l0.02268,-0.05567l0.00461,-0.05994l0.00385,-0.01157v-0.2706l0.01309,-0.05238l-0.01309,-0.03028l0.05087,-0.12082l0.0318,-0.12717l0.02865,-0.01637l0.02095,-0.04976l0.0189,-0.0252v-1.04693l-0.04356,-0.08711l-0.0158,-0.07109l-0.03427,-0.06426l-0.05172,-0.20687l-0.06275,-0.10457l-0.0212,-0.06967l-0.0391,-0.06144l-0.05263,-0.15788l-0.07603,-0.1267l-0.00755,-0.02481l-0.01687,-0.01969l-0.04426,-0.0885l-0.1074,-0.13425l-0.04058,-0.08855l-0.05703,-0.07896l-0.02517,-0.06293l-0.20635,-0.20635l-0.03389,-0.05648l-0.04874,-0.04431l-0.19043,-0.28564l-0.18045,-0.18045l-0.01916,-0.03193l-0.02962,-0.02257l-0.73295,-0.91619l-0.4665,-0.4665l-0.37374,-0.27181l-0.00703,-0.0084l-0.01002,-0.00442l-0.34013,-0.26454l-0.01369,-0.01746l-0.01966,-0.01028l-0.30581,-0.27183l-0.29816,-0.19877l-0.59846,-0.38724l-0.84867,-0.38897l-0.92967,-0.37186l-0.01164,-0.00841l-0.01413,-0.00254l-0.71962,-0.32383l-0.48442,-0.15138l-0.78302,-0.03404l-0.03451,-0.01024l-0.03583,0.0034l-1.19787,-0.18149h-4.98786l-0.898,0.07184l-0.75296,0.10757l-1.00345,0.20761l-0.28947,0.13158l-0.00195,0.00341l-0.01233,0.00308l-0.04467,0.02031l-0.13777,0.0253l-0.13589,0.03397h-0.04907l-0.0125,0.0023l-0.00318,-0.0023h-0.02655l-0.45368,0.25519l-0.05465,0.01497l-0.04714,0.03143l-0.52418,0.18721l-0.29073,0.10902l-0.31642,0.12657l-0.25226,0.15766l-0.01659,0.00538l-0.01274,0.01192l-0.18532,0.10295l-0.02226,0.03711l-0.06964,0.06964l-0.05504,0.08167l-0.37792,0.34012l-0.00421,0.00223l-0.00271,0.00391l-0.24441,0.21386l-0.29422,0.41191l-0.08977,0.20199l-0.02396,0.14377l-0.00723,0.01662l0.00048,0.01812l-0.07558,0.34013l-0.02424,0.04846l-0.00732,0.05368l-0.12462,0.31154l-0.02604,0.15624l-0.02861,0.0658l-0.00969,0.07109l-0.12462,0.31154l-0.02604,0.15624l-0.02861,0.0658l-0.0097,0.07109l-0.10387,0.25967v0.21277l-0.00814,0.03258l0.00487,0.03322l-0.0378,0.37792l-0.03144,0.08759l-0.01258,0.09221l-0.05892,0.14729l-0.00716,0.02864v0.43833c0.11688,0.11928 0.18896,0.28264 0.18896,0.46284c0,0.09088 -0.01833,0.17747 -0.05149,0.25629zM267.87075,223.38698l0.04087,-0.10217l0.0252,-0.25208v-0.30714l0.03038,-0.12151l0.01692,-0.1241l0.12462,-0.31154l0.02604,-0.15624l0.02861,-0.0658l0.0097,-0.07109l0.12462,-0.31154l0.02604,-0.15624l0.02861,-0.0658l0.0097,-0.07109l0.13125,-0.32812l0.06011,-0.27049l0.03488,-0.20929l0.03351,-0.07708l0.01449,-0.08279l0.15117,-0.34013l0.04148,-0.0531l0.0247,-0.0627l0.37792,-0.52908l0.05869,-0.04999l0.04397,-0.06332l0.29885,-0.26149l0.3008,-0.27072l0.05926,-0.09877l0.00013,-0.01019l0.12396,-0.11597l0.12003,-0.12003l0.01019,0.00022l0.31995,-0.17775l0.28789,-0.17993l0.05663,-0.01837l0.04827,-0.03485l0.37792,-0.15117l0.00732,-0.001l0.00608,-0.0042l0.30234,-0.11337l0.00532,-0.00061l0.00446,-0.00297l0.47622,-0.17008l0.54434,-0.30619l0.00496,-0.00868l0.16807,-0.04202l0.16709,-0.04578l0.00857,0.00513h0.10821l0.2853,-0.12968l0.0729,-0.01339l0.06677,-0.03217l1.09596,-0.22675l0.021,0.00086l0.01946,-0.00793l0.79362,-0.11337l0.02089,0.00216l0.0199,-0.0067l0.94479,-0.07559l0.02659,0.00443l0.02615,-0.00654h5.06408l0.0489,0.01222l0.05018,-0.00476l1.21213,0.18366l0.83385,0.03626l0.08256,0.0245l0.08597,0.00498l0.60467,0.18896l0.03443,0.02101l0.0397,0.00714l0.74306,0.33438l0.93179,0.37272l0.01353,0.00977l0.0164,0.00307l0.907,0.41571l0.03785,0.03028l0.04587,0.01568l0.64246,0.41571l0.00318,0.00341l0.00439,0.00157l0.34013,0.22675l0.0313,0.03443l0.04122,0.02155l0.32391,0.28792l0.31458,0.24467l0.40708,0.29607l0.03367,0.04022l0.04499,0.02699l0.52908,0.52908l0.01916,0.03193l0.02962,0.02257l0.73295,0.91619l0.20085,0.20085l0.03389,0.05648l0.04874,0.0443l-0.30086,0.28564l-0.17637,0.35272l0.22807,0.26472l0.6454,-0.41163l-0.93237,0.01242l1.05105,0.15192l0.07792,0.10789l0.02638,0.06594l0.00259,0.00432l-0.00035,0.00128l0.01058,0.02644l-1.38393,-0.00094l1.50319,0.17733l0.04578,0.05342l0.06423,0.12845l0.10031,0.16718l0.0212,0.06967l0.0391,0.06144l0.05263,0.15788l0.07603,0.12671l0.02847,0.09356l0.04602,0.08629l0.05798,0.23191l0.06161,0.12322l0.00645,0.00369l0.0046,0.01843l0.00824,0.01648l0.03297,0.14833l0.03685,0.14742v0.01843l0.00412,0.01854l-0.00412,0.00618v1.24177l-0.01598,0.0639l0.00314,0.06579l-0.0273,0.13649l0.00235,0.00543l-0.00654,0.01554l-0.0063,0.03149l-0.06264,0.13224l-0.03789,0.09v0.17715l-0.02579,0.10313l-0.00815,0.10599l-0.01893,0.0568l-0.02936,0.20551l-0.02993,0.07347l-0.01072,0.07861l-0.06836,0.17092l-0.01863,0.05588l-0.01687,0.08437v0.04789l-0.03228,0.12912l-0.02119,0.13139l-0.02798,0.06527l-0.00122,0.00488l-0.00115,0.00066l-0.06215,0.14502l-0.02494,0.09976l-0.03473,0.06512l0.00488,0.03901l-0.07475,0.092l-0.05579,0.1046l-0.03785,0.01064l-0.04654,0.05728l-0.13761,0.10321l-0.19069,0.15891l-0.16774,0.16774l-0.06981,0.04189l-0.05757,0.05757l-0.15879,0.09528l-0.00566,0.01131l-0.03514,0.041l-0.00183,0.03294l-0.09953,0.08532l-0.08532,0.09953l-0.03294,0.00183l-0.041,0.03514l-0.99366,0.49683l-0.031,0.02356l-0.07294,0.0851l-0.04211,0.00234l-0.06707,0.05097l-0.18125,0.07768l-0.08206,0.04923l-0.1282,0.08158l-0.01749,0.00582l-0.01628,0.00977l-0.00717,-0.00195l-0.07244,0.02415l-0.01874,0.00144l-0.01639,0.00919l-0.3912,0.10669l-0.50517,0.18042l-0.02769,0.00272l-0.02434,0.01348l-0.56687,0.15117l-0.00532,0.00008l-0.00469,0.0025l-0.43492,0.10873l-0.58638,0.18324l-0.01957,0.00113l-0.01729,0.00922l-0.29164,0.07291l-0.25395,0.07256l-0.06719,0.00224l-0.06377,0.02126l-0.46751,0.03596l-0.72105,0.10816l-1.00925,0.18689l-0.03912,-0.00242l-0.03731,0.01201l-1.13375,0.07558l-0.02215,-0.00399l-0.02184,0.00546h-0.8692l-0.03895,-0.00974l-0.03984,0.00503l-0.94479,-0.11337l-0.01574,-0.006l-0.0168,0.00128l-1.14283,-0.19519l-1.29995,-0.1813l-0.03747,-0.01512l-0.0404,-0.00056l-1.24121,-0.32856l-1.00181,-0.14312l-0.85103,-0.074l-0.0739,-0.02545l-0.07794,-0.00599l-0.88958,-0.29653l-0.81086,-0.22115l-0.71519,-0.18821l-0.08737,-0.04799l-0.09483,-0.03075l-0.60467,-0.37792l-0.00301,-0.00312l-0.00411,-0.00139l-0.52554,-0.33785l-0.60109,-0.37568l-0.01989,-0.02063l-0.02641,-0.01112l-0.30234,-0.22675l-0.01095,-0.01347l-0.01563,-0.00755l-0.22675,-0.18896l-0.01804,-0.02469l-0.02621,-0.01573l-0.18896,-0.18896l-0.01573,-0.02621l-0.02469,-0.01804l-0.18602,-0.22322l-0.22376,-0.26105l-0.0283,-0.05659l-0.04378,-0.04568l-0.14768,-0.25843l-0.21503,-0.35839l-0.14244,-0.21365l-0.04322,-0.12101l-0.05501,-0.11613l-0.00837,-0.04187l-0.02337,-0.03116l-0.05085,-0.12077l-0.06167,-0.11563l-0.01898,-0.0759l-0.00077,-0.00183l0.0002,-0.00046l-0.00736,-0.02943l-0.05646,-0.14114l-0.00804,-0.00625l-0.0175,-0.16913l-0.01364,-0.10003l-0.04129,-0.0236l-0.08267,-0.33066v-0.98258l0.01974,-0.07898v-0.08142l0.03779,-0.15117l0.02141,-0.04014z" fill="#82615a" stroke="none" stroke-width="0.5" stroke-linecap="butt"/><path d="M341.94765,172.63698c0.46763,0.46762 0,0.93525 0,0.93525l-0.36207,0.36046c-0.7482,0.84172 -1.46844,1.86773 -2.36566,2.55209c-3.62824,2.76747 -9.74008,1.90739 -13.97204,1.68623c-3.18959,-0.01068 -5.91863,-0.94403 -8.79204,-2.26228c-3.39713,-1.55851 -6.24341,-2.95745 -8.48768,-6.04327c0,0 -0.38897,-0.53484 0.14587,-0.9238c0.53484,-0.38897 0.9238,0.14586 0.9238,0.14586c2.10011,2.88769 4.7831,4.15998 7.96844,5.61855c2.71739,1.24429 5.26456,2.13499 8.278,2.14281c2.97673,0.15469 6.08932,0.39798 9.01369,-0.11857c1.49313,-0.26374 2.8667,-0.34372 4.12956,-1.30453c0.82159,-0.62508 1.48436,-1.601 2.16949,-2.37179l0.41538,-0.41699c0,0 0.46762,-0.46762 0.93525,0z" fill="#000000" stroke="none" stroke-width="0.5" stroke-linecap="butt"/><path d="M324.89052,145.0263c-0.13047,-0.78279 0.65232,-0.91325 0.65232,-0.91325l0.01598,0.09955c1.5583,-1.22965 2.87886,-2.66128 4.33253,-4.02137c0.7215,-0.67505 1.62072,-0.83165 2.34012,-1.44384c1.01254,-0.86165 2.27215,-2.38896 2.91235,-3.57277c0.85666,-1.58407 1.09201,-3.41719 1.43886,-5.15145c0.11664,-0.86488 0.43148,-2.38609 -0.07168,-3.18399c-0.33863,-0.53699 -1.28359,-0.82774 -1.82818,-1.02228c-2.24972,-0.80366 -6.07732,-0.72751 -7.7842,1.24543c0,0 -0.53088,0.58987 -1.12075,0.05898c-0.58987,-0.53088 -0.05898,-1.12075 -0.05898,-1.12075c2.22124,-2.40048 6.5945,-2.73074 9.49991,-1.67762c0.89937,0.32599 2.08208,0.78215 2.61994,1.64659c0.75904,1.2199 0.48636,2.9754 0.30958,4.31427c-0.38247,1.91233 -0.6653,3.90693 -1.61128,5.65112c-0.72732,1.34103 -2.16095,3.08015 -3.31501,4.05258c-0.69919,0.58914 -1.57097,0.70901 -2.23509,1.35212c-1.46491,1.41856 -2.85837,2.83574 -4.4366,4.11233l-0.74655,0.22664c0,0 -0.78278,0.13047 -0.91325,-0.65232z" fill="#000000" stroke="none" stroke-width="0.5" stroke-linecap="butt"/><g stroke="none" stroke-width="0.5" stroke-linecap="butt"><path d="M277.11145,161.00382c3.99666,1.07657 5.02315,5.41754 6.18227,9.1265c0.17199,0.62447 0.36203,1.41119 0.17694,2.00639c-0.21397,0.15127 -0.43038,0.29889 -0.65146,0.4384c-3.44518,1.30484 -6.74243,3.49884 -9.83863,5.50508c-2.34861,1.52184 -4.98245,2.58533 -7.34369,4.08767c-1.3756,0.92053 -2.95247,1.38612 -4.33925,2.28606c-2.15585,1.39902 -4.03753,2.85197 -6.35924,4.02037c-2.2057,1.11002 -4.76695,1.34629 -7.16961,1.72047c-0.62886,-0.00096 -1.60326,0.15324 -2.12364,-0.33118c-1.4937,-1.39048 -1.41641,-5.34492 -0.4284,-6.99776c1.11408,-1.86374 3.08762,-3.53244 4.9148,-4.66009c1.58983,-1.12373 3.22634,-2.57759 4.64547,-3.90333c2.78588,-2.60255 6.42962,-4.77589 9.63877,-6.8327c2.30525,-0.87066 4.31033,-2.62263 6.56992,-3.64289c1.68326,-0.76003 3.47182,-1.27019 5.11277,-2.14401c0.39849,-0.21219 0.71329,-0.44928 1.01297,-0.67899z" fill="#e6a075"/><path d="M283.84022,162.13151c0.29575,0.5915 -0.29575,0.88726 -0.29575,0.88726l-0.71113,0.30997c-0.24421,0.02714 -0.48841,0.05427 -0.73262,0.0814c0,0 -0.03033,0.00337 -0.07869,0.00214c-0.01521,0.00899 -0.02419,0.01349 -0.02419,0.01349l-0.67175,0.33544c-2.56853,1.07011 -4.89478,2.66777 -7.33744,3.99372c-1.7073,0.57349 -3.00597,1.58986 -4.6264,2.3546c-1.8181,0.85802 -3.66934,1.45588 -5.37156,2.55942c-2.09061,1.35533 -3.66634,3.06084 -5.5033,4.70978c-1.63712,1.90836 -4.09975,3.72035 -6.24244,4.99181c-2.14369,1.27206 -3.97181,2.23727 -5.11696,4.52882c0,0 -0.29575,0.5915 -0.88726,0.29575c-0.5915,-0.29575 -0.29575,-0.88726 -0.29575,-0.88726c2.32467,-4.64691 8.28472,-5.98664 11.59592,-9.853c1.90068,-1.71473 3.55916,-3.49325 5.73016,-4.89564c1.75442,-1.13329 3.66159,-1.77098 5.53629,-2.6503c1.63102,-0.76502 2.92823,-1.79651 4.65341,-2.36672c2.43005,-1.33298 4.75302,-2.91611 7.3149,-3.98366l0.63068,-0.31578c0,0 0.1355,-0.06776 0.30923,-0.07354c0.12668,-0.06114 0.2391,-0.07363 0.2391,-0.07363c0.24421,-0.02714 0.48841,-0.05427 0.73262,-0.0814l0.26569,-0.17844c0,0 0.59151,-0.29575 0.88726,0.29575z" fill="#961308"/><path d="M285.51895,166.55386c0.3505,0.5608 -0.2103,0.9113 -0.2103,0.9113l-0.75345,0.45916c-3.31483,0.73184 -5.6536,2.56573 -8.39399,4.2367c-1.58622,0.2937 -2.59967,1.37685 -4.04247,2.02364c-4.22044,1.89197 -7.82823,4.64717 -11.57772,7.32077c-1.12715,0.98818 -2.27426,1.85307 -3.6521,2.45076c-1.17442,0.50945 -2.64016,0.59297 -3.74808,1.26313c-0.50133,0.30324 -0.86698,0.79509 -1.35395,1.12088c-1.31542,0.88003 -2.42034,1.63645 -2.818,3.27287c0,0 -0.16039,0.64158 -0.80197,0.48118c-0.64158,-0.16039 -0.48118,-0.80197 -0.48118,-0.80197c1.38524,-5.41848 8.38543,-5.63685 12.03441,-8.82395c3.82812,-2.73889 7.53738,-5.58863 11.86601,-7.49436c1.46284,-0.64403 2.47835,-1.75763 4.09772,-2.04646c2.64238,-1.70004 5.1191,-3.55474 8.37478,-4.22909l0.54899,-0.35486c0,0 0.5608,-0.3505 0.9113,0.2103z" fill="#961308"/><path d="M278.84626,160.0767c-0.09834,0.02345 -0.19176,0.04993 -0.28099,0.0791c3.57959,1.62643 4.77223,5.76973 5.9735,9.61403c0.12284,0.47256 0.21761,0.93893 0.25436,1.38699c0.42437,-0.3045 0.85623,-0.59512 1.31202,-0.84349c0.84125,-0.45842 2.17073,-0.87535 2.67219,-1.77932c1.2206,-2.20041 -0.50183,-5.73242 -2.07869,-7.25711c-0.451,-0.43608 -1.6058,-0.59189 -2.17747,-0.8219c-1.89754,-0.40378 -3.74549,-0.379 -5.67491,-0.3783zM276.08115,161.70279c-1.64095,0.87382 -3.42564,1.38677 -5.1089,2.1468c-2.2596,1.02026 -4.2525,2.77588 -6.55775,3.64654c-3.20915,2.05681 -6.82542,4.20744 -9.61129,6.80999c-1.41913,1.32574 -3.05582,2.77102 -4.64566,3.89476c-1.82717,1.12764 -3.80204,2.79168 -4.91612,4.65542c-0.98801,1.65284 -1.06908,5.60059 0.42462,6.99107c0.52039,0.48443 1.49357,0.32877 2.12243,0.32973c2.40266,-0.37418 4.95948,-0.61439 7.16518,-1.72441c2.32171,-1.1684 4.19591,-2.62502 6.35176,-4.02404c1.38678,-0.89994 2.94953,-1.36594 4.32513,-2.28647c2.36124,-1.50234 4.97591,-2.54718 7.32452,-4.06902c3.09619,-2.00625 6.39284,-4.18901 9.83801,-5.49384c0.22108,-0.13952 0.43756,-0.2867 0.65153,-0.43797c0.18509,-0.59521 -0.00436,-1.37934 -0.17635,-2.00381c-1.15912,-3.70896 -2.17782,-8.03747 -6.17448,-9.11404c-0.29967,0.22971 -0.61415,0.46707 -1.01264,0.67927zM278.08035,158.93111c0.30919,-0.44614 0.82421,-0.18862 0.82421,-0.18862l-0.13295,0.01159c2.09472,0 4.0778,-0.00776 6.13511,0.43573c0.82177,0.3269 2.04007,0.52273 2.70663,1.13174c0.42414,0.38752 0.56823,1.00304 0.91868,1.45828c1.47491,1.91599 2.72938,5.00846 1.39833,7.40217c-0.66423,1.19452 -2.05236,1.67919 -3.18875,2.29077c-0.80377,0.43257 -1.53769,1.00717 -2.28675,1.55488c-0.04791,0.08383 -0.1013,0.16572 -0.16053,0.24552c4.19489,0.46404 8.54743,-1.79507 11.62377,-4.35251c3.27856,-2.01139 5.68419,-4.65356 6.64009,-8.35726c0.18527,-0.71783 0.93343,-2.8914 0.56716,-3.57131c-0.21476,-0.39865 -1.23277,-1.18412 -1.55255,-1.44888c-1.76781,-0.69425 -3.56628,-1.60974 -5.46094,-1.89875c-4.56418,-0.69621 -9.53613,0.11163 -13.996,1.08131c-2.04396,0.48107 -4.80044,1.27683 -5.92903,3.1679c-0.32436,0.54351 -0.90491,1.05124 -0.72481,1.62587c0.15903,-0.05712 0.30425,-0.04675 0.30425,-0.04675c0.37956,0.02819 0.74062,0.0763 1.08438,0.14291c0.37018,-0.26338 0.7478,-0.50637 1.2297,-0.6846zM273.68029,179.17928c-2.35235,1.52005 -4.96593,2.56788 -7.32781,4.07117c-1.37211,0.91155 -2.93104,1.37502 -4.30346,2.27204c-2.19737,1.43621 -4.13093,2.93367 -6.50973,4.11614c-2.36954,1.17787 -5.07085,1.46484 -7.64996,1.85727c-1.06944,0.00136 -2.20027,0.11111 -3.08728,-0.64709c-2.02385,-1.72994 -1.97574,-6.46687 -0.71501,-8.63808c1.19847,-2.06399 3.34713,-3.85338 5.34052,-5.1128c1.54168,-1.06638 3.09449,-2.4854 4.47135,-3.75701c2.89865,-2.67709 6.59246,-4.92131 9.92516,-7.02832c2.32694,-0.86611 4.35304,-2.64359 6.62935,-3.67963c1.55546,-0.70795 3.18381,-1.19419 4.71983,-1.95203l-0.78962,-0.35195c-0.57693,-1.32144 -0.01832,-1.97574 0.66944,-3.11643c1.35225,-2.24279 4.33252,-3.19036 6.76915,-3.77641c4.61263,-1.0026 9.75718,-1.83259 14.4757,-1.10118c2.06659,0.32033 4.02735,1.2895 5.94758,2.06943c0.70098,0.56992 1.71185,1.27557 2.11802,2.12249c0.41602,0.86746 -0.14838,2.58812 -0.31586,3.47713c-0.83397,4.42695 -3.54564,7.6379 -7.35757,9.99066c-3.68714,3.08169 -8.9739,5.49508 -13.91393,4.35033c-0.13048,-0.00059 -0.27515,-0.04361 -0.40893,-0.17641c-3.03279,1.29063 -5.94278,3.23749 -8.68691,5.01069z" fill="#000000"/><path d="M284.28237,173.29676c0.70754,-0.95333 0.57809,-2.20739 0.24057,-3.50574c-1.47097,-4.70737 -2.9386,-9.89157 -8.7821,-10.3255c0,0 -0.14528,-0.01014 -0.30431,0.04698c-0.1801,-0.57463 0.40152,-1.08546 0.72588,-1.62896c1.1286,-1.89107 3.89255,-2.69698 5.9365,-3.17805c4.45987,-0.96968 9.46392,-1.77891 14.02811,-1.0827c1.89467,0.28901 3.70028,1.21197 5.46809,1.90621c0.31978,0.26476 1.33951,1.05337 1.55427,1.45202c0.36628,0.67991 -0.38002,2.8591 -0.56529,3.57692c-0.9559,3.7037 -3.36719,6.3684 -6.64575,8.37979c-3.07635,2.55744 -7.46107,4.82307 -11.65597,4.35903z" fill="#b3c976"/></g><g><g stroke="none" stroke-width="0.5" stroke-linecap="butt"><path d="M290.67554,247.32597l-0.20381,0.11488c0.61821,-0.52444 1.13803,-1.0508 1.84156,-1.4485c2.10785,-1.34644 4.83872,-3.48969 7.44842,-3.38024c1.03634,0.04347 1.91792,0.67388 2.85069,1.03507c1.08726,0.42101 2.21343,0.84379 2.87304,1.81304c0.11753,0.19475 0.26926,0.27856 0.41061,0.30563c0.13732,0.03801 0.30845,0.03068 0.49781,-0.08832l0.47144,-0.25915c2.88554,-1.59865 6.14633,-1.87087 9.2676,-2.79241c0.86691,-0.20116 2.19056,-0.56071 3.05939,-0.33061c0.4571,0.12106 0.83344,1.25828 1.02805,1.60917c0.65964,1.18938 1.61513,2.65846 1.5301,4.07535c-0.01994,0.3324 -0.50334,0.96983 -0.62521,1.21668c-0.92415,1.87174 -2.17627,2.78589 -3.98683,3.78898c-5.87182,3.25311 -12.36744,7.06339 -19.21442,7.10946c-1.37987,-0.05805 -3.45642,-0.10243 -4.75223,-0.59933c-1.10329,-0.42308 -1.35186,-2.19255 -1.67241,-3.16895c-0.24443,-0.74459 -0.70089,-1.40982 -0.97244,-2.14495c-0.43631,-1.18118 -0.46388,-2.65757 -0.78061,-3.89571c-0.22735,-0.88875 -0.47831,-1.66634 0.09999,-2.37104c0.03593,0.00785 0.07447,0.01365 0.11583,0.01705c0.6591,0.05422 0.71344,-0.60607 0.71344,-0.60607z" fill="#e19c72"/><path d="M297.614,245.11004c0.62329,-0.22103 0.84431,0.40226 0.84431,0.40226l0.14501,0.43584c0.32642,0.58918 0.62909,1.37049 1.10908,1.85662c1.98236,2.00774 4.57486,1.07012 6.68707,-0.10009c2.36595,-1.31079 5.07131,-2.8192 7.83926,-2.9925c2.1029,-0.13167 4.22515,1.26138 5.99969,2.17364c0,0 0.58755,0.30354 0.284,0.89109c-0.30355,0.58755 -0.89109,0.284 -0.89109,0.284c-1.50893,-0.78299 -3.49876,-2.17062 -5.29573,-2.02963c-2.58984,0.20319 -5.07295,1.59921 -7.29517,2.83036c-2.64216,1.46381 -5.85186,2.33917 -8.27725,-0.13577c-0.56977,-0.58141 -0.92667,-1.43253 -1.31681,-2.13672l-0.23465,-0.63478c0,0 -0.22103,-0.62329 0.40226,-0.84431z" fill="#8f0700"/><path d="M317.89126,251.8021c-0.50439,0.42771 -0.9321,-0.07667 -0.9321,-0.07667l-0.14679,-0.22558c-1.32182,-0.80931 -3.3701,-2.40466 -4.98165,-2.52286c-0.78013,-0.05722 -1.77508,0.7761 -2.39742,1.12089c-1.98298,1.09861 -3.96595,2.19722 -5.94894,3.29584c-1.39025,0.77023 -2.74397,1.49843 -4.18947,2.10026c-0.71202,0.29644 -1.20077,0.91849 -2.10028,0.635c-0.93088,-0.29337 -1.18116,-0.96302 -1.58944,-1.68798c-1.26467,-2.24564 -1.04896,-4.84209 -2.00415,-7.09618c0,0 -0.24626,-0.61376 0.3675,-0.86002c0.61376,-0.24626 0.86002,0.3675 0.86002,0.3675c0.75639,1.96276 0.50791,4.40885 1.57158,6.29431c0.26125,0.46309 0.5827,1.49729 1.14551,1.70715c0.43936,0.16383 0.84234,-0.41357 1.27495,-0.59446c1.38583,-0.57947 2.68636,-1.28211 4.02281,-2.02253c1.98298,-1.09861 3.96595,-2.19722 5.94894,-3.29584c0.94752,-0.52495 1.95154,-1.33139 3.1014,-1.28508c1.85157,0.07457 4.0747,1.7907 5.60515,2.71347l0.46906,0.50069c0,0 0.42772,0.50439 -0.07667,0.9321z" fill="#8f0700"/><path d="M289.98847,247.93414c-0.04136,-0.0034 -0.0799,-0.00919 -0.11584,-0.01704c-0.5783,0.70471 -0.32733,1.47822 -0.09997,2.36697c0.31673,1.23814 0.34294,2.70786 0.77923,3.88904c0.27155,0.73514 0.72639,1.39666 0.97084,2.14125c0.32055,0.9764 0.56569,2.7409 1.66899,3.16397c1.29581,0.49689 3.36688,0.53649 4.74676,0.59454c6.84699,-0.04608 13.3029,-3.84229 19.17472,-7.0954c1.81056,-1.00309 3.06142,-1.90927 3.98558,-3.78101c0.12188,-0.24685 0.60534,-0.88234 0.62528,-1.21474c0.08502,-1.4169 -0.86908,-2.87916 -1.52872,-4.06853c-0.19461,-0.35089 -0.56976,-1.4852 -1.02685,-1.60626c-0.86883,-0.2301 -2.19146,0.13134 -3.05837,0.3325c-3.12128,0.92155 -6.37057,1.20422 -9.25611,2.80288l-0.46935,0.26003c-0.18936,0.11902 -0.35729,0.12731 -0.49461,0.08928c-0.14134,-0.02706 -0.28975,-0.11032 -0.40729,-0.30507c-0.65961,-0.96925 -1.77214,-1.39429 -2.8594,-1.81528c-0.93277,-0.36117 -1.80853,-0.99522 -2.84488,-1.03868c-2.60969,-0.10945 -5.33166,2.01965 -7.43949,3.3661c-0.70352,0.39771 -1.22276,0.92079 -1.84097,1.44523l0.20378,-0.11464c0,0 -0.05422,0.6591 -0.71332,0.60487zM289.64258,246.43513c0.67265,-0.57017 1.24829,-1.12487 2.01123,-1.5678c1.74345,-1.11318 3.79096,-2.54624 5.73739,-3.26139c2.57354,-0.94557 6.90687,0.61119 8.8135,2.68402l0.00833,-0.00461c2.99317,-1.65828 6.32675,-1.96911 9.56034,-2.92499c1.07506,-0.24865 2.78854,-0.68136 3.85317,-0.29425c0.76945,0.27979 1.01048,0.9243 1.36374,1.55267c0.89206,1.58677 2.23577,3.56419 2.05152,5.47658c-0.26664,2.76768 -3.13395,4.84587 -5.28763,6.03905c-6.09097,3.37452 -12.73598,7.21519 -19.84013,7.26087c-1.45116,-0.06516 -3.90608,-0.09383 -5.24034,-0.69998c-1.61994,-0.73593 -1.91973,-2.46916 -2.40957,-3.97433c-0.85292,-2.62078 -3.3081,-7.26052 -1.30521,-9.76689c0,0 0.24998,-0.29314 0.59207,-0.24115z" fill="#000000"/></g><g><path d="M295.34917,218.31017c0,0 10.42738,5.86569 12.19853,8.83216c1.8871,3.16066 2.15717,8.66662 2.16183,10.5552c0.00537,2.17702 -1.70011,4.23488 -1.70011,4.23488c0,0 -8.27742,4.57441 -12.52771,6.02099c-3.65176,1.24286 -11.45203,2.14046 -11.45203,2.14046c0,0 -1.25361,-8.46476 -2.79594,-11.66708c-1.22452,-2.54244 -5.72658,-6.02807 -5.72658,-6.02807z" fill="#82615a" stroke="#000000" stroke-width="3" stroke-linecap="round"/><path d="M276.5722,231.15397l0.02071,0.0169l0.02722,0.03644l0.03818,0.02474l0.0152,0.01629l0.00174,0.00077l0.00582,-0.00109l0.0137,0.00983l0.02931,0.01313l0.11502,0.09045l0.11888,0.08532l0.02077,0.02448l0.01325,0.01042l0.00058,0.00589l0.00542,0.00638l0.12589,0.06504l0.0121,0.01066l0.0155,0.00445l0.38149,0.22069l0.0052,0.00503l0.0069,0.00214l0.20672,0.12553l0.26765,0.0996l0.0039,0.00267l0.00468,0.00059l0.24721,0.09593l0.19918,0.05716l0.24381,0.04658l0.32973,0.04566l0.684,0.03606l0.00414,0.00127l0.00427,-0.00078l0.62343,0.04084l0.60761,0.03203l0.62237,-0.15798l0.00303,-0.00001l0.00269,-0.00141l0.83715,-0.20458l0.0188,0.0001l0.01708,-0.00782l0.86314,-0.1608l0.72564,-0.32334l0.01839,-0.00324l0.01532,-0.01068l0.99886,-0.38057l0.03903,-0.00467l0.03464,-0.01857l1.24387,-0.31384l1.19726,-0.46072l0.0103,-0.00127l0.00868,-0.00571l1.08828,-0.38101l0.82952,-0.33759l0.70647,-0.3914l0.90415,-0.58272l0.7712,-0.63525l0.01048,-0.005l0.00722,-0.00909l0.6062,-0.46546l0.02235,-0.00971l0.0165,-0.01795l0.3556,-0.23435l0.14744,-0.14709l0.00971,-0.00581l0.00615,-0.00949l0.21382,-0.19956l0.42413,-0.44446l0.01656,-0.01048l0.01066,-0.01644l0.33797,-0.31542l0.39924,-0.38445l0.35321,-0.40122l0.02135,-0.01473l0.01363,-0.02206l0.29554,-0.28783l0.00004,-0.00005l0.0119,-0.02057l0.0505,-0.11461l0.08105,-0.10446l0.02215,-0.1078l0.02793,-0.01756l0.01883,-0.05061l0.61049,-0.89001l0.01458,-0.07095l0.02667,-0.14959l0.00753,-0.01682l0.00382,-0.0186l0.00629,-0.00395l0.05964,-0.13306l0.02146,-0.02729l0.00958,-0.03337l0.06958,-0.12028l0.05126,-0.1786l0.0153,-0.02646l0.00381,-0.03034l0.10677,-0.27518l0.00121,-0.0017l-0.00553,-0.01534l-0.01878,-0.18519l-0.00271,-0.01018l-0.03463,-0.05603l-0.05851,-0.18361l-0.00265,-0.0417l-0.01739,-0.03801l-0.02189,-0.11749l0.00121,-0.01985l-0.00719,-0.01854l-0.01554,-0.12326l-0.06692,-0.17563l-0.00714,-0.05969l-0.02502,-0.05467l-0.00224,-0.01199l-0.13114,-0.2367l-0.01393,-0.05216l-0.02612,-0.02014l-0.01405,-0.13034l-0.03381,-0.12665l0.01713,-0.0282l-0.00579,-0.05368l0.00432,-0.0312l-0.50736,-0.91578l-0.08032,-0.05509l-0.04827,-0.05453l-0.06112,-0.0396l-0.14549,-0.15589l-0.10557,-0.06106l-0.05231,-0.05067l-0.06398,-0.03479l-0.12255,-0.1126l-0.12791,-0.07398l-0.01863,-0.01804l-0.0243,-0.00905l-0.0816,-0.05596l-0.15901,-0.06538l-0.07841,-0.05779l-0.08815,-0.04143l-0.05251,-0.04285l-0.2805,-0.0805l-0.05702,-0.03298l-0.06411,-0.01514l-0.305,-0.15757l-0.24529,-0.0704l-0.03223,-0.01864l-0.03685,-0.00539l-1.08513,-0.44622l-0.63413,-0.18199l-0.45864,-0.05664l-0.01022,-0.00394l-0.01091,0.00099l-0.42572,-0.06657l-0.02044,-0.00864l-0.02218,0.00054l-0.39923,-0.08958l-0.35714,-0.02938l-0.71115,-0.04871l-0.93086,0.07104l-0.99342,0.12526l-0.01426,-0.00172l-0.01359,0.00463l-0.7864,0.06548l-0.4971,0.10234l-0.70142,0.34969l-0.03515,0.00777l-0.02969,0.02034l-1.13576,0.42175l-4.36301,2.4172l-0.75069,0.49803l-0.6065,0.45899l-0.77713,0.66789l-0.18944,0.25538l-0.00005,0.00393l-0.00929,0.00867l-0.02923,0.03941l-0.10825,0.0889l-0.1024,0.09557l-0.04292,0.02378l-0.00982,0.00807l-0.0039,-0.00047l-0.02322,0.01287l-0.27318,0.44308l-0.04055,0.03958l-0.026,0.05034l-0.36779,0.41778l-0.20148,0.23626l-0.21544,0.26406l-0.14425,0.26016l-0.0119,0.01275l-0.00537,0.0166l-0.11221,0.17986l-0.00149,0.04325l-0.02717,0.09466l-0.00857,0.09811l-0.16575,0.48066l-0.0026,0.00399l-0.00048,0.00473l-0.11015,0.30551l-0.05774,0.50289l0.01936,0.22019l0.04871,0.13737l0.00173,0.01804l0.0092,0.01562l0.09872,0.33415l0.00228,0.05414l0.01961,0.0505l0.04197,0.33291l0.05294,0.14929l0.00686,0.07142l0.02598,0.06688l0.04197,0.33291l0.05294,0.14929l0.00686,0.07142l0.02597,0.06689l0.03498,0.27748l0.10311,0.18612l0.00867,0.03244l0.02036,0.0267l0.15008,0.3489l0.01495,0.09185l0.03368,0.08676l0.01984,0.15739l0.00762,0.02852l0.21242,0.38342c0.16004,0.0477 0.30226,0.15566 0.38959,0.31329c0.04404,0.0795 0.06997,0.16412 0.07916,0.24914zM274.56234,230.35169l-0.01376,-0.10918l-0.10012,-0.23271l-0.14885,-0.26866l-0.03231,-0.12101l-0.04534,-0.11675l-0.04197,-0.33291l-0.05294,-0.14929l-0.00686,-0.07142l-0.02597,-0.06689l-0.04197,-0.33291l-0.05294,-0.14929l-0.00686,-0.07142l-0.02597,-0.06689l-0.0442,-0.35062l-0.0785,-0.26574l-0.07092,-0.19997l-0.00804,-0.08366l-0.02745,-0.07944l-0.0326,-0.37078l0.01055,-0.06655l-0.00878,-0.06682l0.07418,-0.64595l0.02711,-0.07217l0.00778,-0.0767l0.13469,-0.37356l0.13192,-0.38258l0.00397,-0.11512l-0.00482,-0.00898l0.05223,-0.16152l0.04682,-0.16316l0.00902,-0.00475l0.19373,-0.31054l0.16463,-0.29691l0.04063,-0.04351l0.02533,-0.05388l0.25732,-0.31538l0.00592,-0.00442l0.00328,-0.00662l0.20952,-0.24569l0.00436,-0.00311l0.00246,-0.00476l0.33414,-0.37956l0.32776,-0.53163l0.00013,-0.01l0.12665,-0.11821l0.12397,-0.12102l0.00998,0.00033l0.09465,-0.05244l0.18671,-0.2517l0.05728,-0.04704l0.04282,-0.0605l0.84878,-0.72947l0.01879,-0.00942l0.01318,-0.01637l0.63926,-0.48377l0.01932,-0.00823l0.01416,-0.0155l0.7898,-0.52398l0.02541,-0.00901l0.0197,-0.01839l4.42968,-2.45414l0.0487,-0.01301l0.04159,-0.02848l1.14929,-0.42677l0.74696,-0.37238l0.08409,-0.01858l0.07761,-0.03731l0.62049,-0.12775l0.0403,0.00169l0.03819,-0.01299l0.81202,-0.06761l0.99569,-0.12553l0.01657,0.00199l0.01583,-0.00526l0.99484,-0.07592l0.04778,0.00814l0.04772,-0.00851l0.76344,0.05229l0.00443,0.00144l0.0046,-0.00075l0.40741,0.03351l0.04406,0.01495l0.0465,-0.00113l0.42286,0.09488l0.39374,0.06157l0.49956,0.0617l0.04894,0.01886l0.05243,0.00181l0.7192,0.2064l0.03223,0.01864l0.03685,0.00539l1.08513,0.44622l0.27302,0.07835l0.05702,0.03298l0.0641,0.01513l-0.12474,0.39566l0.01666,0.39401l0.32779,0.12103l0.36507,-0.67284l-0.80955,0.46271l0.993,-0.37647l0.12044,0.05661l0.05503,0.0449l0.00436,0.00252l0.00031,0.00129l0.02207,0.018l-1.21102,0.66985l1.40082,-0.57336l0.06593,0.02454l0.11843,0.08123l0.16876,0.09762l0.05231,0.05067l0.06398,0.03479l0.12255,0.1126l0.12791,0.07399l0.07024,0.06804l0.08207,0.05318l0.1631,0.17476l0.11361,0.07793l0.00743,0.0001l0.01296,0.01389l0.01519,0.01042l0.10072,0.11377l0.10368,0.11109l0.00893,0.01612l0.01259,0.01422l-0.00061,0.0074l0.60178,1.08621l0.01699,0.06364l0.03463,0.05603l0.04227,0.13262l0.00469,0.00361l0.00181,0.01676l0.00975,0.0306l0.00929,0.14603l0.01047,0.09709l0.08585,0.15496l0.02742,0.10271l0.04424,0.09666l0.01097,0.05886l0.07391,0.19399l0.00942,0.07877l0.02872,0.07396l0.02303,0.18264l0.01078,0.05791l0.02613,0.08198l0.02321,0.04189l0.03434,0.12859l0.04514,0.1252l0.00716,0.07065l0.0013,0.00486l-0.00069,0.00113l0.01591,0.15697l0.02653,0.09935l0.00118,0.07379l0.02317,0.03176l-0.0208,0.1167l0.00189,0.11853l-0.02795,0.02765l-0.01295,0.07266l-0.07035,0.15697l-0.08979,0.23141l-0.06544,0.22802l-0.04076,0.07047l-0.02246,0.07826l-0.09272,0.1603l0.00053,0.01264l-0.01087,0.05289l0.01436,0.0297l-0.04571,0.12287l-0.0264,0.12841l-0.02793,0.01756l-0.01883,0.05061l-0.62841,0.91613l-0.0157,0.03563l-0.02256,0.10979l-0.0357,0.02245l-0.03397,0.07709l-0.1209,0.15579l-0.04792,0.08283l-0.0726,0.13349l-0.01248,0.01357l-0.00951,0.01644l-0.00722,0.00177l-0.05166,0.05623l-0.01569,0.01034l-0.00988,0.01598l-0.29049,0.28291l-0.35445,0.40263l-0.0229,0.0158l-0.01476,0.02359l-0.4226,0.40695l-0.00461,0.00265l-0.00289,0.00446l-0.32774,0.30588l-0.42412,0.44445l-0.01657,0.01047l-0.01066,0.01644l-0.21977,0.20511l-0.18697,0.18654l-0.05769,0.03452l-0.04548,0.0495l-0.39152,0.25802l-0.57831,0.44404l-0.79225,0.65258l-0.03539,0.01684l-0.02682,0.02859l-0.95509,0.61555l-0.02131,0.00724l-0.01646,0.01536l-0.76031,0.42123l-0.03879,0.01036l-0.03241,0.02371l-0.88137,0.35869l-0.01668,0.00238l-0.01408,0.00926l-1.09426,0.3831l-1.22496,0.47139l-0.0401,0.00493l-0.03561,0.01909l-1.24494,0.31411l-0.94567,0.3603l-0.78028,0.34769l-0.07698,0.01355l-0.07108,0.03253l-0.92184,0.17172l-0.81645,0.19951l-0.71681,0.18196l-0.09968,0.00036l-0.09785,0.01906l-0.71207,-0.03754l-0.00414,-0.00127l-0.00427,0.00078l-0.62343,-0.04084l-0.70785,-0.03732l-0.0274,-0.00841l-0.02849,0.00307l-0.37435,-0.05183l-0.01611,-0.00648l-0.01733,0.00097l-0.28992,-0.0554l-0.02775,-0.01285l-0.03055,-0.00106l-0.25686,-0.07372l-0.02646,-0.0153l-0.03034,-0.00381l-0.27089,-0.10511l-0.32224,-0.11991l-0.05218,-0.03579l-0.06043,-0.01874l-0.25442,-0.15449l-0.36177,-0.20929l-0.22813,-0.11786l-0.09645,-0.08491l-0.1044,-0.07492l-0.02761,-0.03257l-0.03554,-0.01593l-0.10301,-0.081l-0.10998,-0.07126l-0.05338,-0.05719l-0.00156,-0.00123l-0.00005,-0.0005l-0.0207,-0.02218l-0.11779,-0.0961l-0.01006,-0.00157l-0.09727,-0.13946l-0.06041,-0.08089l-0.04755,-0.00063l-0.23256,-0.24917l-0.47617,-0.85949l-0.02101,-0.07865l-0.03946,-0.07122l-0.0402,-0.15055l-0.00072,-0.04549z" fill="#82615a" stroke="none" stroke-width="0.5" stroke-linecap="butt"/><path d="M276.56911,231.11289c-0.00919,-0.08502 -0.03546,-0.17015 -0.0795,-0.24964c-0.08733,-0.15763 -0.23015,-0.26656 -0.39019,-0.31425l-0.21295,-0.38433l-0.00765,-0.02858l-0.02001,-0.1577l-0.03379,-0.08696l-0.01504,-0.09204l-0.15049,-0.34972l-0.02039,-0.02677l-0.0087,-0.03252l-0.10332,-0.18657l-0.03524,-0.27808l-0.02603,-0.06704l-0.00692,-0.07157l-0.05308,-0.14964l-0.04224,-0.33366l-0.02603,-0.06704l-0.00691,-0.07158l-0.05306,-0.14965l-0.04221,-0.33369l-0.01965,-0.05064l-0.00233,-0.05426l-0.09892,-0.33499l-0.00921,-0.01566l-0.00175,-0.01809l-0.04879,-0.13771l-0.01947,-0.22073l0.05755,-0.50409l0.11006,-0.30624l0.00048,-0.00475l0.0026,-0.004l0.16564,-0.48185l0.00855,-0.09837l0.02715,-0.09491l0.00149,-0.04337l0.11219,-0.18033l0.00537,-0.01665l0.01191,-0.01278l0.14425,-0.26085l0.21545,-0.26478l0.2015,-0.23693l0.36788,-0.41905l0.02602,-0.05049l0.04056,-0.0397l0.27336,-0.44448l0.02323,-0.01292l0.0039,0.00047l0.00983,-0.0081l0.04294,-0.02387l0.10247,-0.09591l0.10831,-0.08922l0.02926,-0.03954l0.0093,-0.00871l0.00006,-0.00394l0.18964,-0.25626l0.77792,-0.67057l0.60734,-0.46107l0.75201,-0.50056l4.37847,-2.42916l1.14064,-0.42266l0.02982,-0.02035l0.03529,-0.00778l0.70425,-0.34977l0.49897,-0.10222l0.78925,-0.06504l0.01363,-0.00461l0.01431,0.00172l0.99662,-0.12436l0.93349,-0.06995l0.71304,0.0497l0.358,0.0299l0.40023,0.09024l0.02223,-0.00051l0.02048,0.00868l0.42665,0.06726l0.01093,-0.00098l0.01024,0.00395l0.45956,0.05738l0.6354,0.18313l1.08714,0.44837l0.03689,0.00544l0.0323,0.01872l0.24564,0.07083l0.30549,0.15823l0.06419,0.01524l0.05711,0.03311l0.28083,0.08098l0.05261,0.04298l0.08827,0.0416l0.07855,0.05798l0.1592,0.06568l0.08172,0.05617l0.02433,0.00909l0.01866,0.0181l0.12808,0.07427l0.12275,0.11293l0.06405,0.03493l0.0524,0.05082l0.10569,0.06129l0.14572,0.15632l0.06119,0.03973l0.04835,0.05468l0.08041,0.05528l0.50837,0.91805l-0.00429,0.03127l0.00583,0.05379l-0.0171,0.02825l0.03393,0.12695l0.01416,0.13062l0.02615,0.02021l0.01397,0.05229l0.13133,0.2373l0.00224,0.01201l0.02505,0.05479l0.00718,0.05982l0.06704,0.17607l0.01562,0.12355l0.00721,0.01858l-0.0012,0.01989l0.02196,0.11776l0.01741,0.03809l0.00268,0.0418l0.05863,0.18405l0.03466,0.05618l0.00272,0.0102l0.01887,0.18562l0.00554,0.01538l-0.0012,0.00171l-0.10666,0.27575l-0.0038,0.0304l-0.0153,0.02653l-0.05118,0.17901l-0.06954,0.12053l-0.00957,0.03345l-0.02144,0.02735l-0.0596,0.13336l-0.00629,0.00396l-0.00381,0.01864l-0.00754,0.01685l-0.02662,0.14996l-0.01456,0.07112l-0.61034,0.8922l-0.01883,0.05074l-0.02793,0.01761l-0.02215,0.1081l-0.08106,0.10473l-0.0505,0.11493l-0.0119,0.02063l-0.00004,0.00006l-0.29556,0.28864l-0.01363,0.02213l-0.02134,0.01477l-0.3533,0.40245l-0.39939,0.38573l-0.33816,0.31654l-0.01067,0.01651l-0.01658,0.01052l-0.4245,0.44612l-0.21406,0.20037l-0.00615,0.00953l-0.00971,0.00584l-0.14762,0.14769l-0.35599,0.23546l-0.01652,0.01802l-0.02237,0.00976l-0.60717,0.46768l-0.00724,0.00913l-0.0105,0.00502l-0.77299,0.63833l-0.9067,0.58592l-0.70884,0.39366l-0.83257,0.33979l-1.09285,0.38328l-0.00872,0.00572l-0.01034,0.00128l-1.20276,0.46214l-1.24927,0.31408l-0.03478,0.01856l-0.03919,0.00466l-1.00259,0.38004l-0.01536,0.01067l-0.01846,0.00322l-0.72785,0.32274l-0.86561,0.15988l-0.01713,0.0078l-0.01884,-0.00013l-0.8391,0.20363l-0.00269,0.00141l-0.00305,0.00001l-0.62361,0.15729l-0.60892,-0.03289l-0.62464,-0.04173l-0.00427,0.00077l-0.00416,-0.00127l-0.68517,-0.03702l-0.33028,-0.04614l-0.2442,-0.04697l-0.19953,-0.0575l-0.24764,-0.09636l-0.0047,-0.0006l-0.00391,-0.00268l-0.26809,-0.10007l-0.2071,-0.12595l-0.00691,-0.00216l-0.00521,-0.00505l-0.38214,-0.22147l-0.01552,-0.00447l-0.01213,-0.01069l-0.12608,-0.06529l-0.00543,-0.0064l-0.00059,-0.00591l-0.01328,-0.01045l-0.02081,-0.02455l-0.11909,-0.08559l-0.11523,-0.09072l-0.02934,-0.01318l-0.01372,-0.00987l-0.00583,0.00108l-0.00174,-0.00079l-0.01523,-0.01632l-0.03824,-0.02482l-0.02728,-0.03653l-0.02076,-0.01695z" fill="#82615a" stroke="none" stroke-width="0.5" stroke-linecap="butt"/><path d="M298.89943,219.28174c3.64154,2.79567 6.96257,5.05711 9.30683,9.11857c0.51996,0.90085 1.77345,1.72155 1.51364,2.72872c-0.15614,0.60532 -0.84596,0.96822 -1.23601,0.3452c-1.22737,-1.96044 -2.29097,-4.4458 -3.97864,-6.08914c-1.81317,-1.76553 -4.41847,-4.22789 -6.73722,-5.23688c-0.37616,-0.16368 -3.0905,-0.94849 -3.18289,-1.32656c-0.03764,-0.03971 -0.07092,-0.08478 -0.09867,-0.13486c-0.177,-0.31949 -0.0615,-0.72196 0.25799,-0.89896c0.25596,-0.14181 0.56519,-0.09586 0.76906,0.0923c1.05253,-0.06747 2.59151,0.79174 3.38591,1.40161z" fill="#000000" stroke="none" stroke-width="0.5" stroke-linecap="butt"/></g></g></g></g></svg>