<svg version="1.1" xmlns="http://www.w3.org/2000/svg" xmlns:xlink="http://www.w3.org/1999/xlink" width="488.36328" height="332.53361" viewBox="0,0,488.36328,332.53361"><g transform="translate(-36.20021,1.95446)"><g stroke-miterlimit="10"><path d="M281.74984,254.30361l24.30949,-1.47937l2.68119,65.27702l-29.49313,-10.91032z" fill="none" stroke="#000000" stroke-width="1.5" stroke-linecap="round"/><g stroke="#00ac16"><path d="M292.46786,195.36723c-0.76378,2.59624 -1.29078,12.78369 -2.50519,20.6925c-0.44232,2.88059 -0.87731,5.48013 -1.17925,7.45731c-0.16084,1.05319 -1.52188,1.34885 -0.08496,2.70273c4.01504,3.78299 6.62035,9.29747 6.90874,14.49041c0.30806,5.54713 -1.88435,10.74817 -3.17532,13.7553c-0.82518,1.92214 -5.66466,8.25383 -11.21661,10.79936c-1.66179,0.76192 -6.60903,-0.03863 -7.4861,0.13792c-7.31929,1.4734 -6.24205,-5.7106 -7.10504,-5.96448c-1.09219,-0.32131 -1.29531,-4.47981 -0.17925,-10.81256c0.36504,-2.07135 1.99779,-4.9897 2.30192,-7.27271c0.28094,-2.10896 -3.66289,0.80479 -6.72864,0.49269c-2.89012,-0.29421 -4.91506,-3.80078 -4.60058,-6.01922c0.29434,-2.07635 12.24612,-8.3618 12.70835,-10.72421c3.12543,-15.97369 5.50554,-30.34448 6.68159,-34.34212c1.0139,-3.44644 4.39698,-18.91854 6.45497,-23.55146c0.94961,-2.13775 2.05049,0.5305 2.87478,-0.0518c1.29084,-0.91187 2.71389,-0.03784 3.82087,-0.51542c0.60959,-0.26299 0.31015,-0.32188 0.97662,-0.12581c0.94805,0.2789 3.81097,-1.11131 4.18116,0.56661c0.80958,3.66954 -1.78106,12.50091 -2.24049,18.41001c-0.28875,3.71393 0.38128,7.19356 -0.40755,9.87495z" fill="#ffffff" stroke-width="0" stroke-linecap="butt"/><path d="M294.58985,171.01658c0,0 -1.79304,20.60071 -2.88869,30.1288c-0.99912,8.68872 -3.42237,24.75418 -3.42237,24.75418c0,0 8.43974,8.25172 7.37233,16.84784c-1.09907,8.85107 -2.53726,15.41959 -10.1475,20.07079c-5.89185,3.60096 -11.0939,5.15815 -16.69724,0.96897c-5.513,-4.12164 -2.68393,-15.00195 -1.17693,-19.5784c0.42364,-1.2865 5.68293,-11.66683 5.68293,-11.66683c0,0 -1.45836,4.50812 -4.56211,7.28407c-3.14531,2.81312 -7.95577,3.85787 -10.90294,-1.77175c-0.65338,-1.24807 -0.22552,-3.98316 1.45008,-5.5048c0.43555,-0.39553 11.49693,-6.98363 11.49693,-6.98363c0,0 -0.4729,-1.11381 -0.25231,-2.8736c0.5629,-4.49063 2.30763,-13.16995 3.30338,-18.15089c1.39456,-6.97593 5.09778,-21.4842 5.09778,-21.4842" fill="none" stroke-width="1.5" stroke-linecap="round"/></g><path d="M281.70367,262.16194c-0.10931,-10.52114 1.55391,-29.20353 3.19679,-53.83901c0.34539,-5.17932 4.59948,-27.37075 4.48881,-31.02344c-1.10684,-36.53095 -11.49388,-42.42845 -11.49388,-42.42845l68.94661,11.8621c0,0 3.30063,80.32768 3.30063,101.57855c0,7.56403 -0.76798,4.38133 -7.7204,5.04338c-3.56584,0.33956 -9.20412,1.60247 -14.47289,2.42688c-2.60974,0.40835 -5.56632,1.64663 -7.27262,0.7628c-1.33925,-0.6937 -11.23233,1.30459 -12.46033,1.26877c0,0 -10.28094,2.0039 -14.93225,2.76677c-4.12221,0.67609 -11.58047,1.58165 -11.58047,1.58165z" fill="#8256d8" stroke="none" stroke-width="0" stroke-linecap="butt"/><path d="M317.37306,279.17241c0,-0.41422 0.33578,-0.75 0.75,-0.75c0.41422,0 0.75,0.33578 0.75,0.75c0,0.41422 -0.33578,0.75 -0.75,0.75c-0.41422,0 -0.75,-0.33578 -0.75,-0.75z" fill="#ffea66" stroke="none" stroke-width="0.5" stroke-linecap="butt"/><path d="M238.26658,98.94481c0,-41.12098 33.92291,-74.45611 75.76895,-74.45611c20.54133,0 39.92368,7.65741 53.57133,20.70035c14.15484,13.52767 22.19762,32.8202 22.19762,53.75576c0,41.12098 -33.92291,74.45612 -75.76894,74.45612c-41.84604,0 -75.76895,-33.33514 -75.76895,-74.45612z" fill="#ffffff" stroke="#000000" stroke-width="1.5" stroke-linecap="butt"/><g stroke="none" stroke-width="0.5" stroke-linecap="butt"><path d="M289.56655,152.63844l0.10217,-0.50035c0.38991,-0.66828 0.74711,-1.30562 1.04449,-2.01976c1.12748,-3.58918 -1.24043,-11.71542 -4.75463,-13.33086c0,0 -0.19261,-0.08988 -0.3249,-0.27648c-1.29808,0.13834 -2.56975,0.32874 -3.7745,0.61811c-2.46926,0.59309 -5.28813,1.21215 -7.84124,1.21754c0,0 -0.75,0 -0.75,-0.75c0,-0.75 0.75,-0.75 0.75,-0.75c2.45438,0.00589 5.13926,-0.63317 7.51876,-1.18247c3.67025,-0.84725 7.86296,-0.8749 11.64725,-1.21677c8.25446,-0.00571 16.80253,-0.57793 24.90889,1.2154c7.67582,1.54406 16.26004,4.71111 21.89169,10.32243c1.31351,1.78041 3.16797,3.18012 4.70239,4.83568c0.00194,0.05662 0.00392,0.11269 0.00596,0.1682c1.07867,1.22377 1.95362,2.78144 0.45664,3.7747c-0.82061,0.54448 -2.46829,0.30351 -3.43321,0.45265l-0.51081,0.06415c0,0 -0.29181,0.03647 -0.53281,-0.11898c-4.01722,0.4331 -7.9623,0.465 -12.05552,0.465c-9.35354,-0.01926 -18.71281,-0.24 -28.07923,-0.24c-3.40459,0 -6.42502,-0.66484 -9.77719,-0.96219c-3.73014,-0.33087 -6.86449,-0.4075 -10.16869,-2.38469c0,0 -0.64312,-0.38587 -0.25725,-1.029c0.38587,-0.64312 1.029,-0.25724 1.029,-0.25724c2.69633,1.62249 5.28586,1.83267 8.22787,2.0685c-0.02513,-0.10563 -0.02513,-0.18358 -0.02513,-0.18358z" fill="#000000"/><path d="M320.46864,153.14193c-0.66682,-0.20252 -1.34994,-0.33192 -2.05026,-0.43143c-1.00736,-0.0777 -3.94324,0.23297 -4.60345,-0.70258c-1.03893,-1.47217 0.63435,-2.26278 1.43167,-2.99103c2.59449,-2.36975 5.16393,-2.63864 8.58015,-2.63864c0,0 0.46593,0 0.66331,0.36724c0.19882,0.01848 0.42309,0.12036 0.56868,0.43581c0.3143,0.68097 -0.36668,0.99526 -0.36668,0.99526c-1.00158,0.46167 -1.82896,1.07368 -2.64769,1.72887c0.07473,0.3895 0.16271,0.77672 0.26304,1.16056c0.415,0.04409 0.82862,0.06798 1.24309,0.08043c-0.02487,-0.38289 0.31606,-0.63859 0.31606,-0.63859l0.35949,-0.25449c0.49861,-0.24831 0.98739,-0.51992 1.45175,-0.82756c4.02519,-3.90398 11.92319,-3.00922 14.94498,1.70797c0,0 0.00382,0.00601 0.01013,0.01722c3.54177,2.2091 -2.03481,2.5436 -3.88778,2.5436c-3.95067,-0.00239 -8.90773,0.21476 -13.20854,-0.43009c-0.03676,0.06931 -3.06794,-0.12255 -3.06794,-0.12255zM320.754,151.03183c-0.00582,-0.02441 -0.01158,-0.04881 -0.01731,-0.07324c-0.04885,0.03832 -0.09796,0.07659 -0.14735,0.1148c0.02672,0.00851 0.05349,0.01695 0.08033,0.02534c0.02695,-0.02552 0.05525,-0.04768 0.08434,-0.0669z" fill="#c60000"/></g><path d="M289.88376,88.60777c0,14.1368 -9.90694,25.59695 -22.12777,25.59695c-12.22083,0 -22.12777,-11.46015 -22.12777,-25.59695c0,-14.1368 9.90694,-25.59695 22.12777,-25.59695c12.22083,0 22.12777,11.46015 22.12777,25.59695z" fill="#ffffff" stroke="#000000" stroke-width="1" stroke-linecap="butt"/><path d="M355.07879,94.29118c0,17.48775 -14.02083,31.66438 -31.31641,31.66438c-17.29558,0 -31.31642,-14.17663 -31.31642,-31.66438c0,-17.48775 14.02084,-31.66437 31.31642,-31.66437c17.29558,0 31.31641,14.17662 31.31641,31.66437z" fill="#ffffff" stroke="#000000" stroke-width="1" stroke-linecap="butt"/><path d="M297.82259,97.45592c0,0 1.20169,-6.51596 1.80359,-9.52543c0.5422,-2.71099 1.64743,-7.72965 1.64743,-7.72965" fill="none" stroke="#000000" stroke-width="1.5" stroke-linecap="round"/><path d="M253.41166,74.2607c0,0 -1.06053,5.0283 -1.68337,7.72191c-0.69141,2.99017 -2.28092,9.42254 -2.28092,9.42254" fill="none" stroke="#000000" stroke-width="1.5" stroke-linecap="round"/><path d="M502.60148,120.0043c0,0 3.18927,16.1772 4.28185,33.71812c1.86764,29.98428 6.31678,121.34932 6.31678,121.34932l-33.87464,-0.76409l0.2547,-63.67413l-13.75362,1.78288l0.50939,64.18353l-27.76192,6.36741l0.50939,-27.55439c0,0 1.59602,-58.02673 3.45864,-80.2384c1.00594,-11.99583 3.69525,-33.86675 5.84077,-45.05727c0.83731,-4.3672 2.67132,-6.89185 2.67132,-6.89185" fill="none" stroke="#00ffdb" stroke-width="1.5" stroke-linecap="round"/><path d="M344.06316,167.66781c0,0 3.18927,16.17721 4.28185,33.71812c1.86764,29.98429 1.73224,51.30778 1.73224,51.30778l-29.95284,4.09707l-12.96724,1.78288l-25.33859,3.75136c0,0 -0.52709,-17.27528 1.33553,-39.48695c1.00594,-11.99583 2.65683,-30.75146 5.36876,-42.6028" fill="none" stroke="#00ffdb" stroke-width="1.5" stroke-linecap="round"/><g stroke="#00ac16"><path d="M360.17873,190.28184c0,2.70626 2.36962,12.62829 3.43667,20.55832c0.38864,2.88832 0.70501,5.50494 0.97335,7.48696c0.14294,1.05577 -1.07933,1.72353 0.68128,2.61683c4.91949,2.49604 8.97523,7.05106 10.71749,11.9515c1.86109,5.23469 1.2257,10.84304 0.83591,14.09227c-0.24915,2.07689 -3.10491,9.51702 -7.71273,13.52599c-1.37919,1.19995 -6.35126,1.82819 -7.14284,2.2451c-6.60591,3.47921 -7.59999,-3.71676 -8.49955,-3.71676c-1.13848,0 -2.50698,-3.93213 -3.22358,-10.32241c-0.23439,-2.09017 0.50834,-5.35069 0.15578,-7.62673c-0.32569,-2.10252 -3.28685,1.80585 -6.31605,2.37168c-2.85566,0.53342 -5.78794,-2.25909 -6.11235,-4.47611c-0.30363,-2.07501 9.38834,-11.47808 9.16504,-13.8749c-1.50986,-16.2064 -3.28236,-30.66471 -3.28236,-34.83175c0,-3.59249 -1.12113,-19.3904 -0.45434,-24.4158c0.30768,-2.31885 2.11685,-0.06978 2.74329,-0.86104c0.981,-1.23911 2.59289,-0.80224 3.52007,-1.57282c0.51058,-0.42434 0.2067,-0.39632 0.90141,-0.39632c0.98822,0 3.3424,-2.1417 4.17109,-0.63647c1.81232,3.29188 1.81946,12.49538 3.04642,18.29392c0.77116,3.64444 2.39601,6.79351 2.39601,9.58853z" fill="#ffffff" stroke-width="0" stroke-linecap="butt"/><path d="M355.34203,166.32224c0,0 4.09396,20.26929 5.73195,29.71925c1.4937,8.61749 3.7031,24.71375 3.7031,24.71375c0,0 10.42551,5.53432 11.82757,14.08224c1.44364,8.80144 1.91774,15.50882 -4.07042,22.11877c-4.63604,5.11742 -9.18714,8.07947 -15.74498,5.64202c-6.45213,-2.39815 -6.8088,-13.6346 -6.65467,-18.45032c0.04333,-1.35377 2.15919,-12.79643 2.15919,-12.79643c0,0 -0.12676,4.73644 -2.32088,8.27551c-2.2235,3.58645 -6.54355,5.94637 -10.95974,1.37739c-0.97906,-1.01293 -1.34051,-3.75759 -0.16248,-5.69026c0.30622,-0.50238 9.05857,-9.94449 9.05857,-9.94449c0,0 -0.76803,-0.93506 -1.05307,-2.68558c-0.72737,-4.46695 -1.50312,-13.28584 -1.95362,-18.34531c-0.63094,-7.08593 -1.17291,-22.04955 -1.17291,-22.04955" fill="none" stroke-width="1.5" stroke-linecap="round"/></g><path d="M465.54836,90.96363c-0.56248,-0.39303 -1.70018,-1.45318 -0.83655,-3.18043c1.11804,-2.23607 3.3541,-1.11803 3.3541,-1.11803l1.20492,0.65033c1.87023,0.563 7.43705,1.56585 6.70774,5.12141c-1.15042,5.60863 -7.20562,3.35898 -9.28318,1.37462c-0.74127,-0.70801 -0.84921,-1.84179 -1.14703,-2.84791z" fill="#9966ff" stroke="none" stroke-width="0.5" stroke-linecap="butt"/><g><path d="M309.24638,320.60737c0,3.21722 -9.56747,5.16039 -21.09386,6.72992c-9.56553,1.30252 -20.88233,2.50858 -25.54123,2.50858c-7.17256,0 -16.4975,-1.293 -19.60119,-4.70107c-1.34155,-1.47311 0.0962,-4.31102 0.0962,-6.08772c0,-1.4598 2.3523,-6.26218 6.25784,-9.85556c2.63473,-2.42415 6.96189,-4.01649 8.00818,-4.73044c2.62767,-1.79302 13.64452,-3.22561 23.46821,-2.28968c3.85005,0.36681 9.92248,3.50307 11.61388,3.50307c10.27285,0 16.79197,9.03577 16.79197,14.9229z" fill="#ffffff" stroke="none" stroke-width="0" stroke-linecap="butt"/><path d="M308.70716,322.82753c0,0 -28.8798,7.84057 -52.95321,6.92767c-2.56244,-0.09717 -6.77146,-0.85661 -9.2428,-1.68034c-3.64321,-1.21433 -5.18562,-5.83134 -2.48318,-11.68598c2.99853,-6.49608 9.74125,-10.28723 15.21127,-12.43063c17.16905,-6.7276 38.94283,3.33111 33.83416,1.47418c-0.50943,-0.18517 0.75324,0.36834 0.75324,0.36834" fill="none" stroke="#000000" stroke-width="1.5" stroke-linecap="round"/></g><path d="M329.17434,255.54088l-33.60857,4.61159" fill="none" stroke="#000000" stroke-width="1.5" stroke-linecap="round"/><path d="M93.01619,262.72503l25.14922,-1.47937l2.77381,65.27702l-30.51192,-10.91032z" fill="none" stroke="#000000" stroke-width="1.5" stroke-linecap="round"/><path d="M323.97231,254.8042l24.30949,-1.47937l2.6812,65.27702l-29.49313,-10.91032z" fill="none" stroke="#000000" stroke-width="1.5" stroke-linecap="round"/><g><path d="M351.05981,318.92892c0,3.26383 -9.70607,5.23514 -21.39943,6.82741c-9.7041,1.32139 -21.18484,2.54493 -25.91124,2.54493c-7.27647,0 -16.73649,-1.31174 -19.88514,-4.76917c-1.36098,-1.49446 0.0976,-4.37347 0.0976,-6.17591c0,-1.48095 2.38638,-6.3529 6.34849,-9.99833c2.6729,-2.45927 7.06275,-4.07468 8.1242,-4.79897c2.66574,-1.81899 13.84218,-3.27234 23.80818,-2.32285c3.90582,0.37212 10.06623,3.55382 11.78213,3.55382c10.42167,0 17.03523,9.16666 17.03523,15.13908z" fill="#ffffff" stroke="none" stroke-width="0" stroke-linecap="butt"/><path d="M350.51279,321.18125c0,0 -29.29817,7.95415 -53.72032,7.02803c-2.59956,-0.09858 -6.86956,-0.86902 -9.37669,-1.70468c-3.69599,-1.23192 -5.26075,-5.91581 -2.51916,-11.85526c3.04197,-6.59019 9.88237,-10.43626 15.43162,-12.6107c17.41777,-6.82506 39.50698,3.37937 34.3243,1.49554c-0.51681,-0.18785 0.76416,0.37367 0.76416,0.37367" fill="none" stroke="#000000" stroke-width="1.5" stroke-linecap="round"/></g><text transform="translate(36.45021,19.54554) scale(0.5,0.5)" font-size="40" xml:space="preserve" fill="#9966ff" stroke="none" stroke-width="1" stroke-linecap="butt" font-family="Sans Serif" font-weight="normal" text-anchor="start"><tspan x="0" dy="0">TALESFROMTHEGUTTER-112024-N4LGAMES-GP-001</tspan></text></g></g></svg>