<svg version="1.1" xmlns="http://www.w3.org/2000/svg" xmlns:xlink="http://www.w3.org/1999/xlink" width="713.73967" height="394" viewBox="0,0,713.73967,394"><g transform="translate(21.22656,15.87108)"><g stroke-miterlimit="10"><path d="M-21.22656,378.12892v-394h685v394z" fill="#946d03" stroke="none" stroke-width="0" stroke-linecap="butt"/><text transform="translate(103.77344,214.37892) scale(1.46598,1.46598)" font-size="40" xml:space="preserve" fill="#000000" stroke="none" stroke-width="1" stroke-linecap="butt" font-family="Sans Serif" font-weight="normal" text-anchor="start"><tspan x="0" dy="0">click to play</tspan></text><g><g><g stroke="none" stroke-width="0.5" stroke-linecap="butt"><path d="M580.22481,304.83424c0,0 1.08356,0.65961 1.74202,-0.42195c0.0413,-0.06787 0.07575,-0.13408 0.10406,-0.19855c1.74252,-0.1016 2.66378,1.16286 3.78375,2.51597c1.56026,1.88508 3.81511,3.59081 5.1525,5.59684c0.83234,1.2485 1.34816,2.70458 2.22569,3.92176c1.15071,1.59614 3.61044,3.97415 3.0227,6.15894c-0.69027,2.56604 -2.96061,5.83117 -4.42504,8.03304c-7.78391,10.54936 -21.00016,16.31468 -32.65111,21.74174c-3.59254,1.67342 -6.41833,2.58239 -10.35735,1.90491c-0.51947,-0.08935 -2.05091,-0.05891 -2.58804,-0.40246c-2.28957,-1.46437 -3.48787,-4.59857 -4.58637,-6.95963c-0.32409,-0.69657 -1.66092,-2.56025 -1.33347,-3.40434c0.6224,-1.6044 2.67006,-3.24884 3.95801,-4.3645c4.94272,-3.79468 9.03719,-8.53677 14.76273,-11.20375l0.93229,-0.43802c0.39756,-0.15912 0.60168,-0.41585 0.6975,-0.67126c0.11731,-0.24933 0.15846,-0.57866 -0.01066,-0.98001c-0.75771,-2.11306 -0.14381,-4.33296 0.42905,-6.49061c0.49147,-1.85106 0.50841,-3.92615 1.60845,-5.57967c2.77013,-4.1639 9.16468,-5.97797 13.62369,-7.72492c1.40824,-0.6413 2.80874,-0.85324 4.3171,-1.2197l-0.40745,0.18614z" fill="#e19c72"/><path d="M568.97834,313.08109c1.04432,-0.71609 1.7604,0.32821 1.7604,0.32821l0.71852,1.07833c0.65086,1.39728 1.56661,2.90861 1.82502,4.44569c1.10001,6.54307 -3.87077,10.52668 -9.11339,12.96871c-4.40933,2.05389 -9.36785,4.32603 -12.59969,8.10703c-2.24241,2.62344 -2.3353,7.26738 -2.82269,10.48565c0,0 -0.19183,1.25163 -1.44345,1.05979c-1.2516,-0.19182 -1.05977,-1.44346 -1.05977,-1.44346c0.58642,-3.77514 0.82006,-8.63018 3.39266,-11.73782c3.38619,-4.09046 8.76906,-6.58008 13.46361,-8.76682c4.19107,-1.95222 8.56303,-4.91007 7.68738,-10.24094c-0.21204,-1.29074 -1.08079,-2.63944 -1.62535,-3.80852l-0.5115,-0.71548c0,0 -0.71608,-1.0443 0.32822,-1.76038z" fill="#8f0700"/><path d="M556.49908,352.01468c-1.23039,0.29916 -1.52955,-0.93123 -1.52955,-0.93123l-0.24684,-1.29025c0.29517,-3.40904 0.14224,-8.78422 2.11242,-11.73503c1.22352,-1.83249 3.60308,-2.47863 5.48318,-3.35439c3.93465,-1.83278 7.86929,-3.66555 11.80396,-5.49834c2.65183,-1.23523 5.20466,-2.45737 7.66288,-3.95034c0.7674,-0.46607 2.1153,-0.43962 2.35654,-1.30441c0.30902,-1.1078 -0.93017,-2.77046 -1.35289,-3.69656c-1.72114,-3.7707 -5.78835,-6.14131 -7.97532,-9.5233c0,0 -0.6729,-1.07266 0.39974,-1.74554c1.07264,-0.67288 1.74555,0.39972 1.74555,0.39972c2.41406,4.01796 6.67717,6.60868 8.72959,11.0963c0.66258,1.44875 1.41747,2.59057 0.82315,4.36232c-0.57428,1.71206 -2.08794,1.76808 -3.34895,2.53659c-2.56005,1.56018 -5.21242,2.83595 -7.97095,4.12088c-3.93466,1.83278 -7.8693,3.66555 -11.80395,5.49833c-1.23488,0.57521 -3.64585,1.17704 -4.43599,2.44936c-1.63224,2.62832 -1.46936,7.59672 -1.70521,10.55495l0.18391,0.48138c0,0 0.29918,1.23039 -0.93121,1.52955z" fill="#8f0700"/><path d="M581.9404,304.4555c-0.65846,1.08157 -1.74002,0.42311 -1.74002,0.42311l0.40704,-0.18639c-1.50836,0.36646 -2.90314,0.58118 -4.31137,1.22246c-4.45901,1.74694 -10.82161,3.56314 -13.59174,7.72704c-1.10006,1.65353 -1.10482,3.72369 -1.5963,5.57475c-0.57287,2.15763 -1.16797,4.35895 -0.41025,6.47201c0.16913,0.40137 0.13088,0.72491 0.01357,0.97424c-0.09581,0.25543 -0.29782,0.50613 -0.69538,0.66525l-0.93129,0.4338c-5.72553,2.66697 -9.82326,7.37947 -14.76597,11.17416c-1.28797,1.11566 -3.33742,2.75638 -3.95982,4.3608c-0.32744,0.84407 1.00625,2.70264 1.33034,3.39921c1.0985,2.36105 2.28783,5.48541 4.57739,6.94978c0.53714,0.34353 2.06565,0.31082 2.58512,0.40017c3.93902,0.67748 6.75106,-0.23851 10.3436,-1.91193c11.65095,-5.42706 24.80072,-11.14673 32.58462,-21.69611c1.46445,-2.20188 3.73604,-5.45312 4.42629,-8.01917c0.58773,-2.18479 -1.86811,-4.55193 -3.01884,-6.14807c-0.87751,-1.21719 -1.38941,-2.66659 -2.22175,-3.91508c-1.33737,-2.00604 -3.58346,-3.70212 -5.14372,-5.58718c-1.11996,-1.35311 -2.03491,-2.61297 -3.77743,-2.51139c-0.02833,0.06448 -0.06279,0.13068 -0.10409,0.19854zM580.54236,302.40257c0.30485,-0.58823 1.04029,-0.6451 1.04029,-0.6451c6.13673,-0.27789 10.55495,8.74976 13.652,13.02245c1.77871,2.45388 4.1246,4.87038 3.43933,8.20752c-0.56443,2.74861 -3.28529,6.58192 -4.81901,8.90216c-8.07295,10.94801 -21.50455,16.91035 -33.59033,22.53996c-4.27336,1.99055 -10.72083,4.08916 -15.30639,1.38444c-3.1685,-1.86888 -4.7166,-6.17675 -6.1686,-9.34532c-0.57501,-1.25476 -1.30138,-2.35394 -0.86786,-3.86045c0.59983,-2.08446 3.19991,-4.25004 4.79586,-5.63448c5.12237,-3.9299 9.35862,-8.7412 15.2977,-11.50765l0.01652,-0.0077c-1.06174,-5.28693 1.40905,-13.74983 5.77196,-16.66938c3.29977,-2.20812 7.82494,-3.76408 11.51234,-5.20959c1.5452,-0.68233 3.05244,-0.9488 4.69293,-1.34802z" fill="#000000"/></g><g><path d="M587.64634,267.77743c0,0 -1.88908,10.73681 -0.34939,15.916c1.93929,6.52344 11.06546,20.13069 11.06546,20.13069c0,0 -12.20732,8.77471 -18.98178,11.71716c-7.88484,3.42471 -25.50374,7.60476 -25.50374,7.60476c0,0 -5.06673,-0.71894 -7.86303,-3.81022c-2.42581,-2.68169 -9.13462,-10.83026 -10.53181,-17.7387c-1.31137,-6.48399 5.90715,-28.22438 5.90715,-28.22438z" fill="#82615a" stroke="#000000" stroke-width="3" stroke-linecap="round"/><path d="M584.50593,267.31324c-0.09647,-0.13228 -0.16876,-0.28557 -0.20874,-0.45493c-0.07928,-0.3358 -0.01686,-0.67193 0.14847,-0.94563l-0.19289,-0.81681l-0.02592,-0.05021l-0.1746,-0.24854l-0.06401,-0.1663l-0.09715,-0.14939l-0.2367,-0.6876l-0.00555,-0.06406l-0.02951,-0.05714l-0.0936,-0.39648l-0.30782,-0.43818l-0.04934,-0.12819l-0.08226,-0.11003l-0.11727,-0.27968l-0.36931,-0.52571l-0.04932,-0.1282l-0.08228,-0.11004l-0.11727,-0.27968l-0.36931,-0.52571l-0.03727,-0.09683l-0.06647,-0.07963l-0.2905,-0.60057l-0.00708,-0.03398l-0.02077,-0.02777l-0.1079,-0.25736l-0.25616,-0.3369l-0.72952,-0.63811l-0.54956,-0.29098l-0.00678,-0.00607l-0.00883,-0.00231l-0.85389,-0.46751l-0.1385,-0.12797l-0.16041,-0.09914l-0.05781,-0.05936l-0.39065,-0.1103l-0.02898,-0.0166l-0.03329,-0.00272l-0.53945,-0.18281l-0.6453,-0.09662l-0.58974,-0.07523l-1.05916,-0.11822l-0.10167,-0.03783l-0.10843,-0.00384l-0.9577,-0.27592l-0.04948,0.01168l-0.00492,0.00567l-0.0243,0.00124l-0.09144,0.02158l-0.26818,-0.00351l-0.26785,0.01347l-0.09218,-0.01819l-0.02434,-0.00032l-0.00514,-0.0055l-0.59729,-0.1178l-1.96126,0.05467l-1.45045,0.13086l-1.70498,0.26127l-9.29465,2.19474l-2.15233,0.86529l-0.06827,0.00943l-0.0598,0.03428l-1.44413,0.40798l-0.83607,0.49525l-1.19849,0.92009l-0.02521,0.01096l-0.018,0.0208l-1.56876,1.10203l-1.41031,1.09826l-0.94481,0.98495l-0.46814,0.50156l-0.45024,0.64111l-0.0321,0.02781l-0.01782,0.03855l-0.51742,0.64262l-0.0167,0.01266l-0.0094,0.01872l-0.57684,0.67097l-0.66403,1.07455l-0.96268,2.02981l-0.04525,0.05508l-0.02166,0.06795l-0.25685,0.41563l-0.22918,0.61607l-0.07132,0.104l-0.0383,0.12016l-0.29374,0.47533l-0.01922,0.12834l-0.07153,0.17224l-0.03666,0.18286l-0.14106,0.29742l-0.04352,0.18439l-0.02278,0.04411l-0.00316,0.04954l-0.08592,0.26956l-0.02859,0.31735l-0.04582,0.13171l-0.00888,0.13915l-0.0709,0.22247l-0.00535,0.40823l-0.03559,0.13482l0.00184,0.13944l-0.04284,0.18152l0.46067,1.9509l0.04631,0.03865l0.06095,0.08351l0.06059,0.01789l0.1152,0.223l0.14797,0.20275l-0.01107,0.06221l0.04744,0.09183l0.11906,0.50424l0.01226,0.01985l0.03498,0.10966l0.06677,0.09377l0.13141,0.33502l0.13673,0.19464l0.01368,0.03553l0.02727,0.02657l0.12031,0.19462l0.0243,0.07625l0.04995,0.06249l0.15359,0.33549l0.02311,0.12398l0.00926,0.01793l0.21193,0.28655l0.01193,0.02887l0.00388,0.00085l0.50569,0.25235l0.04448,0.03804l0.05577,0.01779l0.30266,0.18701l0.25348,0.08079l0.05655,0.03493l0.06554,0.01102l0.25586,0.11171l0.014,-0.00251l0.0294,0.02143l0.03232,0.01411l0.23046,0.17761l0.11204,0.08173l2.01124,0.47467l0.09186,0.04743l0.06218,-0.01107l0.17024,0.12419l0.24938,0.04359l0.21915,0.09733l0.04336,0.01383h0.00013l0.78942,0.02715l0.04772,0.0137l0.04922,-0.00662l1.01718,0.11352l1.0608,0.03047l0.88508,0.01159l0.03628,0.00959l0.03696,-0.00649l1.17333,0.08345l0.55997,0.00733l0.02095,0.00552l0.02124,-0.00428l0.39831,0.01851l0.80564,-0.12599l0.04647,0.00418l0.04417,-0.01504l1.45836,-0.12132l0.02195,0.00359l0.02129,-0.00643l1.9108,-0.09326l2.03149,-0.33895l1.50504,-0.35536l1.61004,-0.59011l2.03256,-0.86184l0.01966,-0.0031l0.01623,-0.01149l2.28965,-0.88927l2.16648,-1.15739l0.07301,-0.01829l0.06132,-0.04367l1.90531,-0.74731l0.03546,-0.00458l0.03025,-0.01909l1.44451,-0.47646l1.42997,-0.8839l0.03428,-0.01092l0.02651,-0.02435l1.44954,-0.78838l0.00563,-0.00146l0.00431,-0.00391l1.08523,-0.57774l0.81961,-0.82797l0.83066,-0.8608l0.00705,-0.0044l0.00424,-0.00713l0.92264,-0.93206l0.40836,-0.48937l0.28542,-0.38002l0.20857,-0.33753l0.22668,-0.4543l0.00588,-0.00688l0.00209,-0.00879l0.25093,-0.48585l0.13121,-0.44409l0.00703,-0.01193l0.00089,-0.01383l0.25627,-0.80401l0.01622,-0.02627l0.00341,-0.03067l0.0946,-0.25427l-0.00057,-0.016l-0.00675,-0.0091l0.00536,-0.03185l-0.00211,-0.06143l0.05852,-0.27399l0.04648,-0.27628l0.0246,-0.05634l0.00673,-0.03157l0.00964,-0.00597l0.00146,-0.00334l0.00057,-0.04263l0.02222,-0.08421l-0.00835,-0.08668l0.00757,-0.05063zM586.37965,263.74162l0.05755,0.06537l0.13693,0.26507l0.03582,0.15172l0.07154,0.13849l0.43236,1.831l-0.00854,0.65256l-0.06655,0.06213l0.01859,0.1924l0.04182,0.32287l-0.01223,0.01518l-0.0431,0.28784l-0.00076,0.05808l0.00058,0.00079l-0.00064,0.00376l-0.00196,0.14978l-0.06404,0.2426l-0.04162,0.24744l-0.02985,0.06833l0.00283,0.08171l-0.05141,0.24062l-0.02729,0.24451l-0.17141,0.46081l-0.24301,0.76245l-0.16148,0.54656l-0.06148,0.1044l-0.02783,0.11792l-0.30209,0.58492l-0.24842,0.49782l-0.03807,0.04447l-0.01777,0.05576l-0.26898,0.43526l-0.04193,0.04086l-0.02275,0.05396l-0.33939,0.45188l-0.02582,0.02094l-0.01447,0.02993l-0.46362,0.55556l-0.04431,0.03234l-0.02798,0.04719l-0.95482,0.96458l-0.83066,0.8608l-0.00705,0.0044l-0.00422,0.00712l-0.96048,0.9703l-0.16317,0.09903l-0.14171,0.12788l-1.2499,0.66539l-1.41368,0.76888l-1.52723,0.94401l-0.14258,0.04546l-0.12654,0.07996l-1.55329,0.51237l-1.80386,0.70751l-2.16836,1.1584l-0.07504,0.01884l-0.06318,0.04466l-2.34262,0.90985l-2.04374,0.8666l-0.03188,0.00503l-0.02669,0.01811l-1.7107,0.627l-0.07645,0.00815l-0.0683,0.0353l-1.61974,0.38245l-0.0431,-0.00056l-0.03951,0.0172l-2.14596,0.35803l-0.07482,-0.00596l-0.07181,0.02173l-1.96292,0.09581l-1.39124,0.11572l-0.887,0.1387l-0.12821,-0.01155l-0.12619,0.02538l-0.50513,-0.02348l-0.57554,-0.00753l-0.03628,-0.00959l-0.03695,0.0065l-1.17333,-0.08345l-0.85828,-0.01123l-0.00984,-0.00262l-0.00994,0.0022l-1.12286,-0.03227l-0.0513,-0.0144l-0.05278,0.00712l-1.02074,-0.11391l-0.77592,-0.02669l-0.03459,-0.00991l-0.03556,0.00556l-0.1456,-0.01312l-0.01249,0.00679l-0.03464,-0.01103l-0.03514,-0.00317l-0.27477,-0.09561l-0.17458,-0.05564l-0.37194,-0.06501l-0.14741,-0.06548l-0.0795,0.01416l-0.17336,-0.12648l-0.06814,-0.03025l-2.07024,-0.48859l-0.09187,-0.04744l-0.06217,0.01109l-0.20279,-0.14794l-0.22301,-0.11518l-0.01789,-0.06057l-0.08352,-0.06094l-0.0155,-0.01859l-0.33782,-0.10767l-0.1326,-0.08193l-0.14853,-0.04733l-0.38639,-0.23879l-0.42527,-0.21221l-0.30184,-0.13178l-0.11193,-0.08626l-0.07522,-0.00317l-0.14999,-0.17036l-0.17976,-0.13856l-0.00808,-0.07485l-0.09337,-0.10608l-0.09037,-0.17492l-0.17963,-0.24288l-0.00243,-0.00073l-0.00441,-0.00857l-0.08087,-0.10932l-0.09729,-0.23553l-0.11696,-0.22638l-0.02108,-0.08924l-0.06858,-0.14981l-0.0593,-0.09592l-0.2026,-0.28843l-0.05457,-0.14177l-0.08811,-0.12373l-0.14514,-0.37005l-0.06027,-0.09752l-0.06184,-0.19393l-0.09342,-0.18083l-0.07796,-0.33012l-0.11021,-0.15104l-0.17491,-0.21884l-0.0256,-0.05592l-0.01904,-0.02609l0.00198,-0.01117l-0.11093,-0.24233l-0.02309,-0.12398l-0.0579,-0.11206l-0.54638,-2.31397l-0.0104,-0.00969l-0.00048,-0.03636l-0.0081,-0.03435l0.0038,-0.29094l-0.00383,-0.29091l0.00811,-0.03434l0.00048,-0.03638l0.01039,-0.0097l0.06058,-0.25674l0.00601,-0.45765l0.04778,-0.18106l0.01191,-0.18688l0.08591,-0.26957l0.02861,-0.31736l0.04583,-0.13169l0.00885,-0.13916l0.11335,-0.35567l0.06318,-0.26763l0.06181,-0.1197l2.7231,-0.99188l-2.57848,0.6107l0.00807,-0.05392l-0.00121,-0.00223l0.00293,-0.00918l0.02014,-0.13447l0.09774,-0.23533l1.89174,-0.74557l-1.74289,0.38712l1.3838,0.48306l0.30852,-0.59366l-0.48386,-0.57967l-0.68633,-0.3999l0.07132,-0.104l0.0383,-0.12016l0.28589,-0.46266l0.96269,-2.02979l0.04528,-0.0551l0.02165,-0.06792l0.75312,-1.21875l0.07195,-0.0701l0.04504,-0.08977l0.62831,-0.73083l0.47855,-0.59435l0.47691,-0.67904l0.06735,-0.05828l0.04316,-0.07794l0.53404,-0.57221l0.00748,-0.00484l0.00441,-0.00776l1.01429,-1.05734l0.07858,-0.04938l0.05722,-0.0731l1.50724,-1.17374l0.02921,-0.01293l0.02092,-0.02415l1.57235,-1.10454l1.23754,-0.95004l0.07083,-0.03078l0.05493,-0.05429l1.04362,-0.61818l0.15802,-0.04712l0.14307,-0.08198l1.5379,-0.43446l2.17796,-0.8756l0.09559,-0.01322l0.08574,-0.04429l9.43669,-2.22827l0.05161,0.00069l0.04759,-0.01995l1.79385,-0.27487l0.04003,0.00372l0.03797,-0.01321l1.52877,-0.13794l0.03975,0.00622l0.03875,-0.01085l2.14205,-0.05969l0.13858,0.03056l0.14173,-0.00711l0.58871,0.11612l0.20164,-0.0476l0.01372,-0.01334l0.3315,0.0118l0.33168,0.00434l0.01306,0.01398l1.14909,0.33106l0.96223,0.10739l0.00961,0.00359l0.01018,-0.00122l0.6133,0.07824l0.01319,0.00514l0.01409,-0.00135l0.77074,0.11542l0.10529,0.0437l0.1136,0.00931l0.61562,0.20862l0.67441,0.19045l0.01889,-0.00489l0.27649,0.17087l0.28202,0.16156l0.00471,0.01895l0.15389,0.15798l0.67965,0.37211l0.67196,0.35577l0.10981,0.09865l0.13136,0.06734l0.93702,0.81961l0.07361,0.10597l0.10068,0.0807l0.43137,0.56729l0.06342,0.14791l0.09635,0.12889l0.15708,0.37464l0.23102,0.4776l0.38897,0.55368l0.04935,0.12821l0.08226,0.11003l0.11727,0.2797l0.3693,0.52569l0.04935,0.12821l0.08225,0.11001l0.11727,0.27968l0.3693,0.52569l0.08613,0.22382l0.11008,0.21305l0.13514,0.57235l0.1579,0.45865l0.12111,0.1724z" fill="#82615a" stroke="none" stroke-width="0.5" stroke-linecap="butt"/><path d="M584.51405,267.396l-0.00758,0.05076l0.0084,0.08691l-0.02221,0.08442l-0.00054,0.04273l-0.00146,0.00336l-0.00964,0.00597l-0.00673,0.03167l-0.0246,0.05647l-0.0464,0.27694l-0.05848,0.27463l0.00214,0.06159l-0.00534,0.03193l0.00677,0.00914l0.00056,0.01607l-0.09453,0.25488l-0.00343,0.03077l-0.01623,0.02632l-0.25617,0.80595l-0.00088,0.01384l-0.00701,0.01197l-0.13119,0.4452l-0.25094,0.48706l-0.00208,0.00883l-0.00588,0.00688l-0.22673,0.45548l-0.20863,0.33844l-0.28548,0.38106l-0.40851,0.49077l-0.92305,0.93493l-0.00423,0.00715l-0.00705,0.0044l-0.83122,0.86364l-0.82037,0.83083l-1.08609,0.58034l-0.00431,0.00391l-0.00563,0.00146l-1.45109,0.79222l-0.02654,0.02447l-0.03431,0.011l-1.43229,0.88836l-1.44688,0.48021l-0.0303,0.0192l-0.03552,0.00465l-1.90991,0.75286l-0.06152,0.04387l-0.07319,0.0185l-2.17446,1.16403l-2.29928,0.89435l-0.01629,0.01152l-0.01973,0.00313l-2.04197,0.86454l-1.61721,0.5909l-1.5113,0.35524l-2.03923,0.33765l-1.91729,0.0912l-0.02133,0.00641l-0.02202,-0.0036l-1.46257,0.1194l-0.04428,0.01499l-0.04661,-0.00425l-0.80762,0.1249l-0.39937,-0.01911l-0.02128,0.00425l-0.021,-0.00558l-0.56131,-0.00817l-1.17602,-0.08533l-0.03704,0.00646l-0.03637,-0.00965l-0.88681,-0.01294l-1.06266,-0.0321l-1.01888,-0.11514l-0.04927,0.00656l-0.04782,-0.01378l-0.79051,-0.02826h-0.00013l-0.04343,-0.01393l-0.21958,-0.09779l-0.24973,-0.04399l-0.17062,-0.12461l-0.06224,0.01104l-0.09203,-0.04762l-2.01383,-0.47797l-0.11224,-0.08202l-0.23087,-0.17816l-0.03237,-0.01418l-0.02941,-0.02151l-0.01401,0.00249l-0.25619,-0.11219l-0.06561,-0.01111l-0.05665,-0.03506l-0.25376,-0.08121l-0.30307,-0.1877l-0.05583,-0.01787l-0.04456,-0.03817l-0.50629,-0.25332l-0.00389,-0.00087l-0.01197,-0.02892l-0.21234,-0.28727l-0.00928,-0.01796l-0.02325,-0.12425l-0.154,-0.33624l-0.05004,-0.06268l-0.02439,-0.0764l-0.12056,-0.19511l-0.02732,-0.02663l-0.01372,-0.03562l-0.137,-0.19517l-0.13176,-0.33579l-0.06687,-0.094l-0.03509,-0.10993l-0.01229,-0.0199l-0.11956,-0.50536l-0.04756,-0.09208l0.01103,-0.0623l-0.1482,-0.2033l-0.11541,-0.22356l-0.06061,-0.01798l-0.06102,-0.08374l-0.04636,-0.03877l-0.46216,-1.95542l0.04274,-0.18187l-0.00192,-0.13976l0.03549,-0.13511l0.0051,-0.40917l0.0708,-0.22297l0.00879,-0.13949l0.04576,-0.13198l0.02846,-0.31809l0.08579,-0.27015l0.00312,-0.04967l0.02277,-0.04421l0.04345,-0.18482l0.14096,-0.29809l0.03659,-0.18332l0.07148,-0.17264l0.01919,-0.12866l0.29358,-0.47644l0.03826,-0.12043l0.0713,-0.10427l0.22903,-0.61761l0.25679,-0.41672l0.02164,-0.06813l0.04526,-0.05524l0.96274,-2.03543l0.66434,-1.07782l0.57719,-0.67316l0.0094,-0.01881l0.01673,-0.01269l0.51785,-0.64482l0.01783,-0.03868l0.03214,-0.0279l0.4508,-0.64331l0.4687,-0.50348l0.94621,-0.98875l1.41265,-1.10319l1.57214,-1.10742l0.01806,-0.0209l0.02527,-0.01101l1.20197,-0.92437l0.83859,-0.49783l1.44824,-0.4115l0.06004,-0.03443l0.06846,-0.00956l2.16041,-0.8703l9.33198,-2.19772l1.71013,-0.25938l1.45432,-0.12901l1.9658,-0.0519l0.59872,0.11883l0.00516,0.0055l0.02439,0.00036l0.09239,0.01832l0.26836,-0.0131l0.2687,0.0039l0.09158,-0.02147l0.02436,-0.00121l0.00492,-0.00567l0.04954,-0.01165l0.95977,0.27764l0.1086,0.00401l0.10192,0.03801l1.06092,0.11987l0.59064,0.07616l0.64626,0.09763l0.54032,0.18377l0.03331,0.00277l0.02906,0.01667l0.39121,0.11097l0.05795,0.05952l0.16068,0.0995l0.1388,0.12834l0.85528,0.46936l0.00883,0.00231l0.00679,0.00611l0.55036,0.29212l0.73075,0.64007l0.25669,0.33777l0.10826,0.25794l0.02082,0.02788l0.00713,0.03404l0.29129,0.60199l0.06658,0.07986l0.03737,0.09705l0.36998,0.52711l0.11758,0.28036l0.0824,0.11034l0.04947,0.12851l0.3699,0.52712l0.11754,0.28036l0.08236,0.11034l0.04947,0.12851l0.30824,0.43936l0.09392,0.39739l0.02956,0.05729l0.0056,0.06418l0.23722,0.6893l0.09724,0.14977l0.06411,0.1667l0.17476,0.2492l0.02596,0.05034l0.19329,0.81877c-0.16532,0.2737 -0.22735,0.61199 -0.14806,0.94778c0.03999,0.16934 0.11242,0.3238 0.20891,0.45607z" fill="#82615a" stroke="none" stroke-width="0.5" stroke-linecap="butt"/><path d="M537.61062,279.32181c0.34001,-1.88724 1.41377,-5.08665 2.99186,-6.34668c0.04651,-0.52915 0.42544,-0.99252 0.97072,-1.12128c0.6806,-0.16072 1.36263,0.26074 1.52333,0.94135c0.02519,0.10668 0.03607,0.21339 0.0339,0.31815c0.35605,0.65463 -2.47878,5.2625 -2.8009,5.97888c-1.98559,4.41596 -2.50533,11.2601 -2.80026,16.09675c-0.27452,4.50188 1.41964,9.39298 2.2057,13.75126c0.2498,1.38506 -1.1949,1.75935 -2.19575,1.10286c-1.66528,-1.09232 -0.9464,-3.86949 -1.36998,-5.81549c-1.90968,-8.77346 -0.11717,-16.25476 1.44137,-24.90575z" fill="#000000" stroke="none" stroke-width="0.5" stroke-linecap="butt"/></g></g><g stroke="none" stroke-width="0.5" stroke-linecap="butt"><path d="M463.96181,210.64659c5.94778,-5.21454 13.73453,-2.31662 20.69036,-0.28781c1.14627,0.37833 2.56178,0.89717 3.27972,1.81114c0.00327,0.49696 -0.00169,0.99398 -0.02413,1.48995c-1.68857,6.82279 -1.84905,14.33804 -2.08287,21.33873c-0.17737,5.31037 -1.3667,10.59514 -1.58763,15.90521c-0.05894,3.14074 -1.03453,6.12632 -1.13717,9.26334c-0.15958,4.87669 0.05817,9.3749 -0.63459,14.27415c-0.65814,4.65443 -3.04346,8.96176 -5.04618,13.16137c-0.67647,0.99611 -1.48487,2.70181 -2.78946,3.02189c-3.74462,0.91873 -9.75134,-3.32636 -11.23615,-6.61602c-1.67429,-3.7094 -2.12567,-8.57819 -1.90097,-12.65085c-0.024,-3.69226 -0.5063,-7.80269 -1.02466,-11.43488c-1.01757,-7.13033 -0.45334,-15.17337 -0.17614,-22.40589c1.13359,-4.56276 0.58783,-9.56838 1.44204,-14.2147c0.63634,-3.46124 1.7705,-6.82892 2.1862,-10.3417c0.10097,-0.85304 0.07377,-1.59933 0.04168,-2.31395z" fill="#e6a075"/><path d="M472.92092,201.15334c1.22831,0.14771 1.04887,1.39389 1.04887,1.39389l-0.28596,1.45069c-0.22036,0.41549 -0.44069,0.83098 -0.66103,1.24646c0,0 -0.02737,0.0516 -0.08117,0.12701c-0.00248,0.0335 -0.0052,0.05242 -0.0052,0.05242l-0.20448,1.4148c-1.10904,5.18814 -1.14562,10.5421 -1.7256,15.79738c-0.9494,3.30486 -0.77819,6.42356 -1.33984,9.79008c-0.63017,3.77718 -1.69656,7.33569 -1.82425,11.18509c-0.15683,4.72772 0.77824,9.00413 1.34581,13.63574c1.1816,4.58523 1.32865,10.37886 0.98678,15.10171c-0.34203,4.72506 -0.8179,8.62988 1.48184,12.83455c0,0 0.59343,1.08558 -0.49691,1.71511c-1.09036,0.62954 -1.68379,-0.45605 -1.68379,-0.45605c-4.66084,-8.53034 -0.32664,-19.37697 -2.72655,-28.65776c-0.60047,-4.80125 -1.55916,-9.28498 -1.38852,-14.18921c0.13791,-3.96319 1.20298,-7.65191 1.86112,-11.54103c0.57258,-3.38358 0.37648,-6.51572 1.35015,-9.84553c0.5556,-5.24259 0.61105,-10.57621 1.7169,-15.75112l0.19067,-1.32918c0,0 0.0411,-0.28547 0.21866,-0.56696c0.04181,-0.26462 0.14325,-0.45586 0.14325,-0.45586c0.22036,-0.41549 0.4407,-0.83096 0.66103,-1.24646l0.01041,-0.60728c0,0 0.17946,-1.24618 1.4078,-1.09846z" fill="#961308"/><path d="M464.39624,206.9294c-0.06942,0.18036 -0.12894,0.35609 -0.17979,0.52797c6.34688,-3.98003 14.00755,-1.55161 21.21704,0.55147c0.85958,0.29789 1.67953,0.63382 2.40895,1.04267c-0.01341,-0.9903 0.00258,-1.97799 0.10934,-2.95962c0.19705,-1.81176 0.98201,-4.35435 0.12816,-6.09184c-2.07838,-4.22928 -9.36637,-5.18043 -13.4069,-4.26977c-1.15565,0.26046 -2.63514,1.92902 -3.60294,2.59565c-2.65857,2.58769 -4.60395,5.54354 -6.67385,8.60345zM463.93239,213.00877c-0.41571,3.51278 -1.54141,6.87725 -2.17777,10.33849c-0.85421,4.64636 -0.28976,9.63645 -1.42335,14.19921c-0.27719,7.2325 -0.84688,15.20834 0.17066,22.33866c0.51835,3.63222 0.98726,7.73399 1.01129,11.42626c-0.22472,4.07266 0.21809,8.93867 1.89236,12.64809c1.48481,3.28965 7.47719,7.53378 11.22178,6.61504c1.30456,-0.32009 2.10943,-2.02539 2.78591,-3.02148c2.00272,-4.19961 4.37722,-8.50401 5.03537,-13.15846c0.69277,-4.89923 0.46134,-9.3894 0.62092,-14.26613c0.10265,-3.13699 1.06244,-6.1006 1.12139,-9.24135c0.22094,-5.3101 1.41843,-10.54502 1.59579,-15.85541c0.2338,-7.0007 0.41097,-14.50325 2.09951,-21.32604c0.02244,-0.49597 0.02816,-0.99266 0.02488,-1.48962c-0.71792,-0.91399 -2.12881,-1.43108 -3.27508,-1.8094c-6.95583,-2.02881 -14.71504,-4.92613 -20.66281,0.28843c0.03207,0.71463 0.06006,1.46071 -0.04089,2.31374zM461.80994,206.94945c-0.35519,-0.95534 0.59421,-1.50346 0.59421,-1.50346l-0.12486,0.22287c2.24843,-3.32129 4.36508,-6.47365 7.25628,-9.27326c1.38549,-0.96216 2.99474,-2.68966 4.64808,-3.11163c1.05202,-0.26849 2.15455,0.14471 3.23178,0.06367c4.53367,-0.34109 10.64248,0.89381 12.9,5.49974c1.12655,2.29847 0.38295,5.00469 0.10499,7.44406c-0.19658,1.72539 -0.0995,3.48809 -0.06006,5.24674c0.07767,0.16334 0.14645,0.33338 0.20578,0.51048c5.21729,-6.16745 6.41022,-15.42373 5.77392,-22.96759c0.42164,-7.29524 -1.06508,-13.86397 -5.74261,-19.24074c-0.90657,-1.0421 -3.45074,-4.4943 -4.89092,-4.62239c-0.84445,-0.07508 -3.14673,0.72016 -3.89769,0.95117c-2.96664,2.07918 -6.30689,3.97631 -8.78564,6.67911c-5.9712,6.51092 -10.06388,15.23638 -13.3577,23.31862c-1.45311,3.7423 -3.18639,8.94244 -1.4856,12.70334c0.48883,1.08091 0.64757,2.53073 1.72579,2.84422c0.08274,-0.31171 0.25457,-0.53114 0.25457,-0.53114c0.45081,-0.5724 0.91246,-1.09475 1.38401,-1.57034c-0.00827,-0.8615 0.02287,-1.71359 0.26566,-2.66347zM488.26852,235.03502c-0.18413,5.31444 -1.37585,10.55077 -1.596,15.86284c-0.06905,3.12584 -1.02864,6.08076 -1.12036,9.19197c-0.14685,4.98127 0.08375,9.60816 -0.64862,14.6126c-0.72953,4.98496 -3.18712,9.5672 -5.35111,14.0656c-1.14582,1.69708 -2.19062,3.60449 -4.3103,4.22045c-4.83642,1.40543 -12.07946,-3.60917 -14.06982,-7.87164c-1.89205,-4.05197 -2.34137,-9.32426 -2.14117,-13.79782c0.01261,-3.55613 -0.50589,-7.49751 -0.98624,-11.00627c-1.0113,-7.38686 -0.5025,-15.58318 -0.17,-23.06392c1.16388,-4.59241 0.60136,-9.65793 1.44923,-14.34721c0.57936,-3.20429 1.5784,-6.29304 2.06008,-9.51853l-1.38954,0.88509c-2.65424,-0.46287 -3.06224,-2.03069 -4.08064,-4.31035c-2.00234,-4.48221 -0.26264,-10.19542 1.45027,-14.66977c3.40709,-8.35878 7.65095,-17.38098 13.84202,-24.09993c2.71153,-2.94276 6.30863,-5.04125 9.5708,-7.27278c1.63005,-0.51726 3.80179,-1.38441 5.54197,-1.14549c1.78241,0.24473 3.82635,2.93342 5.01563,4.12576c5.92219,5.93744 7.9563,13.58439 7.48787,22.08117c0.78805,9.05883 -1.17008,19.95722 -8.23546,26.59647c-0.14095,0.20627 -0.36249,0.3908 -0.7106,0.46447c-1.2678,6.15413 -1.39318,12.79768 -1.60799,18.99721z" fill="#000000"/><path d="M462.51602,211.07214c0.12187,0.98795 0.58303,2.16702 0.87235,3.20129c0.06798,0.24303 -0.27738,0.79069 -0.54451,1.18462c-2.4041,-0.88596 -4.68527,-0.89245 -6.4762,-4.38138c-2.55972,-4.98672 0.98267,-12.55443 0.84492,-17.87205c-0.02573,-0.99295 -2.55268,-11.01795 -2.49721,-11.0846c2.86264,-3.43828 7.8591,-6.2127 12.46923,-6.25458c9.62479,-0.08745 11.48537,14.5885 10.75759,21.89498c-0.18771,1.88475 -0.74099,3.43681 -0.49727,5.3283c0.08961,0.69543 0.14501,1.42766 0.2034,2.11178c0.03417,0.40034 0.61057,1.24979 0.21354,1.18796c-6.84297,-1.0656 -8.24294,1.89218 -13.52714,1.86442c-0.90517,-0.00474 -4.4188,0.35075 -4.40775,1.90485c0.00635,0.89658 1.08588,1.03467 2.58902,0.91439z" fill="#b3c976"/><path d="M463.38357,214.32388c-0.28932,-1.03427 -0.75418,-2.21384 -0.87604,-3.20177c-1.50314,0.12028 -2.55729,-0.11547 -2.56367,-1.01206c-0.01109,-1.55409 3.48886,-1.91241 4.39404,-1.90765c5.28419,0.02774 6.64261,-2.91259 13.48559,-1.84701c0.39703,0.06184 -0.18092,-0.78573 -0.21508,-1.1861c-0.05838,-0.68413 -0.11688,-1.41196 -0.20648,-2.10739c-0.24372,-1.89149 0.30268,-3.42585 0.49041,-5.31062c0.72778,-7.30648 -1.08821,-21.92287 -10.71299,-21.83542c-4.61014,0.0419 -9.57008,2.80576 -12.43272,6.24403c-0.05549,0.06666 2.48901,10.06534 2.51472,11.0583c0.13776,5.31761 -3.42868,12.82761 -0.86893,17.81433c1.79093,3.48893 4.05311,3.48926 6.45723,4.37521c0.26712,-0.39393 0.60193,-0.84084 0.53396,-1.0839zM472.4359,208.45387c-1.11178,0.40398 -4.303,1.54552 -7.18152,2.20692c0.52975,2.23619 0.91016,6.11953 -0.62236,6.81017c-0.06073,0.15327 -0.15258,0.29716 -0.27562,0.42196c-0.00432,0.00437 -0.00865,0.00873 -0.01304,0.01304c-2.99294,2.9733 -9.50368,-3.92425 -10.28623,-5.87532c-2.50574,-6.24731 0.75528,-13.68316 0.55303,-20.19158c-0.09587,-3.08578 -3.66562,-7.68841 -2.31144,-10.65883c2.30682,-5.06004 10.97009,-8.18319 16.12332,-7.75138c12.34194,1.03417 12.66598,18.68809 11.4588,27.49405c-0.33442,2.43949 1.95478,7.11652 -0.2348,8.72015c-0.20907,0.15313 -0.52467,-0.00909 -0.77292,-0.08341c-2.38868,-0.71518 -3.86787,-2.03942 -6.43719,-1.10583z" fill="#000000"/></g><g stroke="none" stroke-width="0.5" stroke-linecap="butt"><path d="M429.81244,52.58718c0,0 -0.2143,-0.15806 -0.43021,-0.43729c-0.55688,-0.23936 -0.9144,-0.60154 -0.9144,-0.60154c-4.26003,-4.339 -12.88237,-9.48675 -12.21422,-16.76765c0.50269,-5.47806 7.08243,-9.0934 12.05962,-7.6536c2.93339,0.84856 5.71955,3.40396 7.93396,5.87137c1.79701,-3.70374 5.78787,-7.0255 9.67837,-3.86376c1.32662,1.07813 1.93292,2.63182 2.24612,4.29366c1.84837,-2.08075 4.13758,-3.6997 7.10626,-4.21321c4.33194,-0.74929 6.8662,2.03632 6.2542,6.30595c-0.07337,0.51184 -0.20819,1.00893 -0.37252,1.49912c2.65866,-0.45135 5.32078,-0.22147 7.64009,1.73891c4.17589,3.52965 7.26064,13.59029 1.50418,17.2091c-3.11365,1.95739 -5.54975,0.31427 -8.75521,0.19525c-4.54849,-0.16888 -9.21198,-0.05296 -13.77124,-0.07034c-5.43138,-0.15106 -10.8082,-0.15128 -15.96704,-2.05795l-1.998,-1.44808zM466.16765,41.83981c-2.12381,-1.86549 -5.1798,-0.8152 -7.4554,0.00314c-0.36519,0.21723 -0.84865,0.35293 -1.43119,0.17674c-0.38411,-0.07134 -0.79396,-0.26318 -1.10956,-0.69911c-0.3603,-0.39977 -0.46224,-0.84068 -0.45169,-1.23122c-0.05306,-0.63707 0.20758,-1.09531 0.5161,-1.40872c0.47694,-1.21829 2.36558,-5.14241 0.91385,-5.75797c-0.85697,-0.36335 -1.74684,0.65079 -2.58675,1.05206c-3.19701,1.5274 -4.13552,2.6857 -5.8517,5.6957c-0.10502,0.36404 -0.33956,0.73238 -0.80361,1.02557c-0.30548,0.23555 -0.72229,0.4327 -1.24023,0.39189c-0.51954,-0.00004 -0.91957,-0.22937 -1.20558,-0.4882c-0.55103,-0.41217 -0.73324,-0.91367 -0.75525,-1.36405l-0.04412,-0.1382c-0.26935,-2.37411 0.02606,-4.89047 -1.44864,-6.9519c-0.47424,-0.66291 -0.90092,-0.13026 -1.33829,0.2333c-1.5351,1.27603 -2.4237,1.95897 -2.52191,3.95085c0,0 -0.05527,0.52728 -0.37905,1.01409c0.07642,0.76099 -0.10854,1.81599 -1.4604,2.44569c-2.29563,1.06931 -3.36495,-1.22632 -3.36495,-1.22632l-0.03921,-0.26325c-1.84316,-2.28925 -4.43166,-5.2585 -7.29583,-6.33475c-1.75379,-0.65902 -5.44937,1.09058 -5.51159,3.21663c-0.15053,5.14342 7.76357,9.77751 10.76968,12.8083c0,0 0.76884,0.77884 0.78368,1.81797l0.87032,0.65678c4.48199,1.59788 9.41539,1.44689 14.11526,1.5769c4.60197,0.01855 9.32821,-0.11239 13.91851,0.07533c1.66418,0.06804 4.68555,1.44181 6.32906,0.45804c0.86964,-0.52056 0.84968,-1.6547 1.01804,-2.47874c0.54513,-2.66796 -0.83201,-6.40535 -2.93954,-8.25656z" fill="#000000"/><path d="M458.6617,41.84585c2.27561,-0.81833 5.4328,-1.87338 7.55659,-0.00788c2.10755,1.85122 3.48228,5.60591 2.93715,8.27387c-0.16838,0.82403 -0.15037,1.96334 -1.02001,2.48388c-1.64349,0.98376 -4.66756,-0.3848 -6.33175,-0.45286c-4.59031,-0.18772 -9.34882,-0.03321 -13.9508,-0.05178c-4.69989,-0.13001 -9.68686,-0.00052 -14.16885,-1.59841l-0.87215,-0.65981c-0.01485,-1.03914 -0.78665,-1.82415 -0.78665,-1.82415c-3.0061,-3.03079 -10.92159,-7.69828 -10.77106,-12.84171c0.06222,-2.12607 3.76214,-3.88575 5.51592,-3.22675c2.86419,1.07627 5.54431,4.08792 7.38746,6.37719l0.03953,0.26235c0,0 0.97359,2.26254 3.26922,1.19322c1.35186,-0.6297 1.54481,-1.69946 1.46841,-2.46046c0.32375,-0.48682 0.38295,-1.01852 0.38295,-1.01852c0.0982,-1.99189 1.00513,-2.68665 2.54022,-3.96267c0.43735,-0.36355 0.87008,-0.89805 1.34432,-0.23513c1.4747,2.06143 1.20514,4.67569 1.47447,7.04981l0.0158,0.04095c0.02203,0.45038 0.21282,0.95019 0.76386,1.36235c0.286,0.25881 0.71941,0.49618 1.23895,0.49622c0.51796,0.04082 0.94551,-0.14685 1.251,-0.38238c0.46404,-0.29321 0.62349,-0.59362 0.72853,-0.95767c1.71617,-3.01001 2.72756,-4.23869 5.92457,-5.76608c0.83989,-0.40126 1.73214,-1.41279 2.58912,-1.04942c1.45175,0.61555 -0.42816,4.55472 -0.90508,5.77302c-0.30852,0.31341 -0.56751,0.77701 -0.51445,1.41408c-0.01055,0.39055 0.09253,0.83762 0.45283,1.23737c0.31559,0.43593 0.72576,0.63139 1.10987,0.70273c0.58254,0.17619 0.96484,0.04584 1.33002,-0.17138z" fill="#7c3e1e"/></g><g stroke="none" stroke-width="0.5" stroke-linecap="butt"><path d="M673.94194,261.29824c0,0 1.08356,0.65961 1.74202,-0.42195c0.04132,-0.06787 0.07577,-0.13408 0.10408,-0.19855c1.7425,-0.10159 2.66378,1.16286 3.78375,2.51597c1.56026,1.88506 3.81513,3.59078 5.1525,5.59682c0.83235,1.24851 1.34816,2.70458 2.22569,3.92176c1.1507,1.59614 3.61041,3.97416 3.0227,6.15896c-0.69027,2.56604 -2.96061,5.83117 -4.42504,8.03304c-7.78388,10.54937 -21.00016,16.31468 -32.65111,21.74174c-3.59254,1.67342 -6.41833,2.58239 -10.35735,1.90491c-0.51947,-0.08935 -2.05091,-0.05891 -2.58804,-0.40246c-2.28956,-1.46437 -3.48788,-4.59856 -4.58638,-6.95962c-0.32408,-0.69656 -1.66094,-2.56024 -1.33349,-3.40433c0.6224,-1.6044 2.67006,-3.24883 3.95803,-4.36449c4.9427,-3.79467 9.03718,-8.53676 14.76271,-11.20374l0.93229,-0.43802c0.39755,-0.15914 0.60166,-0.41584 0.69749,-0.67128c0.1173,-0.24934 0.15845,-0.57868 -0.01069,-0.98002c-0.75772,-2.11306 -0.14379,-4.33295 0.42907,-6.4906c0.49146,-1.85106 0.5084,-3.92613 1.60845,-5.57967c2.77014,-4.16391 9.16466,-5.97796 13.62369,-7.72492c1.40824,-0.6413 2.80873,-0.85326 4.3171,-1.2197l-0.40744,0.18616z" fill="#e19c72"/><path d="M662.69545,269.54514c1.0443,-0.71608 1.76038,0.32822 1.76038,0.32822l0.71852,1.07833c0.65086,1.39728 1.56663,2.9086 1.82504,4.44568c1.1,6.54307 -3.87078,10.52668 -9.1134,12.96871c-4.40935,2.0539 -9.36784,4.32605 -12.59968,8.10705c-2.24243,2.62345 -2.33533,7.26737 -2.82269,10.48565c0,0 -0.19182,1.2516 -1.44346,1.05977c-1.25161,-0.19184 -1.05977,-1.44346 -1.05977,-1.44346c0.58642,-3.77513 0.82008,-8.63018 3.39268,-11.73782c3.38619,-4.09046 8.76905,-6.5801 13.4636,-8.76684c4.19107,-1.95222 8.56303,-4.91007 7.68738,-10.24094c-0.21202,-1.29075 -1.0808,-2.63946 -1.62535,-3.80852l-0.51148,-0.71547c0,0 -0.71608,-1.0443 0.32822,-1.76038z" fill="#8f0700"/><path d="M650.21622,308.47869c-1.23039,0.29916 -1.52955,-0.93123 -1.52955,-0.93123l-0.24686,-1.29024c0.29517,-3.40904 0.14224,-8.78422 2.11242,-11.73503c1.22351,-1.83251 3.60308,-2.47866 5.48317,-3.35441c3.93467,-1.83279 7.86931,-3.66556 11.80396,-5.49834c2.65181,-1.23522 5.20465,-2.45739 7.66287,-3.95036c0.76738,-0.46606 2.11531,-0.4396 2.35654,-1.30441c0.30902,-1.1078 -0.93016,-2.77044 -1.35289,-3.69656c-1.72116,-3.7707 -5.78836,-6.14128 -7.97532,-9.5233c0,0 -0.67289,-1.07264 0.39974,-1.74554c1.07264,-0.67289 1.74554,0.39974 1.74554,0.39974c2.41407,4.01797 6.67717,6.60868 8.72959,11.0963c0.66258,1.44875 1.41747,2.59057 0.82315,4.36232c-0.57428,1.71206 -2.08795,1.76811 -3.34896,2.53662c-2.56005,1.56017 -5.21239,2.83591 -7.97094,4.12085c-3.93467,1.83279 -7.86931,3.66556 -11.80396,5.49834c-1.23486,0.5752 -3.64583,1.17702 -4.43598,2.44937c-1.63226,2.62832 -1.46937,7.59674 -1.70523,10.55495l0.18393,0.48138c0,0 0.29915,1.23037 -0.93123,1.52955z" fill="#8f0700"/><path d="M675.65756,260.91952c-0.65846,1.08157 -1.74002,0.42311 -1.74002,0.42311l0.40704,-0.18639c-1.50836,0.36644 -2.90312,0.58117 -4.31137,1.22246c-4.45902,1.74693 -10.82161,3.56314 -13.59174,7.72704c-1.10006,1.65356 -1.10483,3.72371 -1.59631,5.57476c-0.57288,2.15763 -1.16797,4.35895 -0.41025,6.47201c0.16913,0.40135 0.13087,0.72492 0.01356,0.97425c-0.09581,0.25545 -0.2978,0.50612 -0.69538,0.66525l-0.93129,0.4338c-5.72555,2.66698 -9.82327,7.37949 -14.76597,11.17416c-1.28795,1.11566 -3.33741,2.75636 -3.95981,4.36078c-0.32743,0.84409 1.00626,2.70265 1.33034,3.39921c1.0985,2.36104 2.28782,5.48539 4.57739,6.94978c0.53712,0.34354 2.06563,0.31083 2.58512,0.40017c3.93902,0.67748 6.75106,-0.23851 10.3436,-1.91193c11.65095,-5.42706 24.80072,-11.14673 32.58462,-21.69611c1.46443,-2.20187 3.73601,-5.45313 4.42629,-8.01917c0.58773,-2.18481 -1.86813,-4.55192 -3.01884,-6.14807c-0.87751,-1.21718 -1.38941,-2.66658 -2.22176,-3.91509c-1.33739,-2.00603 -3.58346,-3.70212 -5.14372,-5.58718c-1.11995,-1.35312 -2.0349,-2.613 -3.77742,-2.5114c-0.02832,0.06447 -0.06278,0.13067 -0.1041,0.19854zM674.2595,258.86654c0.30484,-0.58823 1.04028,-0.64508 1.04028,-0.64508c6.13673,-0.27789 10.55495,8.74976 13.652,13.02245c1.77871,2.45388 4.1246,4.87038 3.43933,8.20752c-0.56442,2.74863 -3.28529,6.58192 -4.81901,8.90216c-8.07296,10.94801 -21.50456,16.91038 -33.59034,22.53999c-4.27335,1.99055 -10.72081,4.08916 -15.3064,1.38443c-3.16852,-1.86887 -4.7166,-6.17675 -6.16859,-9.3453c-0.575,-1.25477 -1.3014,-2.35393 -0.86788,-3.86044c0.59984,-2.08444 3.19991,-4.25004 4.79586,-5.63448c5.12236,-3.92989 9.35863,-8.7412 15.29771,-11.50765l0.01652,-0.0077c-1.06174,-5.28693 1.40905,-13.74983 5.77196,-16.66938c3.29977,-2.20812 7.82494,-3.76408 11.51234,-5.20959c1.54519,-0.68235 3.05245,-0.94879 4.69293,-1.34802z" fill="#000000"/></g><path d="M417.60852,71.8153c0,0 -4.11749,-14.95281 20.96103,-24.3198c2.40787,-0.89937 13.13882,-0.77725 24.14568,1.85669c12.7554,3.05237 26.7966,9.18323 43.24397,16.31786c9.74249,4.22615 46.36205,25.07133 84.3243,48.66759c13.722,8.5292 33.51861,18.7688 43.97135,26.80908c27.01511,20.7801 33.98534,36.65028 35.78101,43.24344c0.32395,1.18946 13.80943,45.97169 -32.33676,74.94039c-66.01683,41.44269 -105.07275,35.30335 -115.91956,32.26035c-1.01058,-0.2835 -32.78509,-4.96087 -46.95206,-36.38122c-6.8663,-15.22846 -4.41366,-29.37042 -4.01194,-41.31597c0.04386,-1.30378 1.03701,-5.35434 -0.21863,-5.8863c-4.54438,-1.92533 -7.8766,-6.53371 -9.67682,-10.54552c-1.88991,-4.21167 -6.64883,-12.37356 -3.96452,-19.48784c0.27499,-0.72877 1.02602,-0.48612 1.63382,-0.63733c1.01259,-0.25191 2.08358,-0.61826 3.23769,-1.21151c5.29916,-2.72391 18.40904,-9.12601 18.31925,-9.82847c-0.04507,-0.35259 -15.94304,11.24517 -30.53662,12.89315c-15.58733,1.7602 -30.11477,-6.92131 -36.16764,-24.08243c-0.86352,-2.44831 1.15107,-27.69411 2.10222,-38.69252c0.19695,-2.27736 1.93753,-5.97111 1.75263,-6.44116c-6.31927,-16.06462 -2.23264,-30.63874 -2.23264,-30.63874c0,0 0.4762,-0.98146 1.34196,-1.77457c0.67606,-0.61933 1.79295,-1.03853 1.77141,-1.34548c-0.06057,-0.86359 -0.5692,-4.39967 -0.5692,-4.39967z" fill="#b3c976" stroke="#000000" stroke-width="2" stroke-linecap="round"/><path d="M551.27631,92.56979c0,0 -16.63702,71.48832 -81.58836,84.94687c-1.68058,0.34824 -12.10667,2.76229 -12.97119,1.89431c-0.95378,-0.95762 7.72014,-5.21662 7.22998,-4.99819c-34.05783,15.17772 -51.11134,-20.27085 -51.00161,-21.72438c0.68236,-9.03902 2.75089,-36.51278 2.73667,-37.2079c-0.15537,-7.59776 -0.68338,-46.54997 4.55832,-56.20321c21.6049,-39.78813 131.1569,31.12278 131.1569,31.12278" fill="#e19c71" stroke="#000000" stroke-width="0.5" stroke-linecap="round"/><path d="M491.85355,58.45718l6.92707,15.35179l-12.00333,4.02435c0,0 -4.56109,-10.28469 -7.20266,-14.71959c-2.34409,-3.93542 -7.86121,-10.57087 -7.86121,-10.57087c0,0 -0.92805,-1.05937 0.1172,-1.32702c0.24229,-0.06204 1.70337,0.13578 2.03819,0.15148c1.80121,0.08443 4.52914,1.59102 6.04937,2.02124c3.71088,1.05017 11.93534,5.06862 11.93534,5.06862z" fill="#7c3e1e" stroke="#000000" stroke-width="1" stroke-linecap="round"/><path d="M487.20466,61.35599c1.17035,-0.52686 2.55378,-1.21041 3.89737,-1.55018c0.19382,-0.25951 0.45281,-0.47615 0.767,-0.6225c1.01429,-0.47246 2.21953,-0.03322 2.69198,0.98106c0.31397,0.67406 0.22533,1.43243 -0.16716,2.00403c-0.15346,1.83959 -4.86055,2.48917 -6.81862,3.38914c-4.52436,2.07948 -9.04834,4.16068 -13.54114,6.30752c-3.46102,1.65381 -6.7925,3.26158 -10.37703,4.73781c-2.06844,0.85183 -3.18957,-1.18461 -2.52224,-3.01574c0.76421,-2.09696 5.38595,-2.56103 7.5101,-3.49006c6.23898,-2.72874 12.34065,-5.94132 18.55976,-8.74107z" fill="#000000" stroke="none" stroke-width="0.5" stroke-linecap="butt"/><path d="M471.17449,209.15903c0,0 1.1079,-5.33424 1.76305,-7.58174c0.54356,-1.86472 1.89594,-4.97052 1.89594,-4.97052" fill="none" stroke="#000000" stroke-width="2" stroke-linecap="round"/><path d="M551.28726,91.90987c0,0 -3.92013,30.12978 -18.01169,44.31376c-42.6474,42.92715 -76.57613,44.77091 -76.57613,44.77091" fill="none" stroke="#000000" stroke-width="1" stroke-linecap="round"/><path d="M477.00951,260.19172c0,0 11.5335,-20.39885 42.89084,-27.71705c35.1044,-8.1927 84.54374,-20.86604 101.82395,-29.59975c23.33753,-11.7952 37.66848,-36.4918 37.66848,-36.4918c0,0 5.74078,5.62713 6.14311,8.06164c0.24492,1.48205 -1.77692,2.98833 -3.38339,4.61392c-2.4227,2.45152 -5.00685,5.00486 -6.24357,6.80753c-5.56021,8.10461 -11.26862,12.78901 -17.91056,20.41098c-16.56944,19.01424 -37.27782,30.68112 -63.34019,43.61102c-1.50872,0.7485 -6.34964,4.77115 -7.9372,5.43568c-62.75606,26.26812 -15.18046,4.2217 -25.00052,9.71158c-23.72495,13.26337 -52.93093,9.88927 -52.93093,9.88927z" fill="#e19c72" stroke="#000000" stroke-width="1" stroke-linecap="round"/><path d="M404.6546,105.04541c-3.24651,-6.96969 0.9016,-15.77787 9.26506,-19.67361c2.07253,-0.96539 3.61326,-1.68317 6.01772,-2.5457c6.03237,-2.16391 12.56201,2.86905 15.00401,8.1116c2.2224,4.77112 2.11507,10.38167 -1.57303,14.71022c-1.69954,1.99465 -5.05379,3.73448 -7.69204,4.96339c-8.36346,3.89574 -17.77522,1.4038 -21.02173,-5.56589z" fill="#5fbeb6" stroke="#278986" stroke-width="1" stroke-linecap="butt"/><path d="M405.84147,105.02702c-3.10618,-6.66844 -1.21369,-14.12873 4.22698,-16.66302c5.44069,-2.5343 12.36929,0.8171 15.47547,7.48553c3.10619,6.66844 1.21369,14.12871 -4.22698,16.663c-5.44069,2.5343 -12.36928,-0.81708 -15.47546,-7.48551z" fill="#77ece3" stroke="#278986" stroke-width="1" stroke-linecap="butt"/><path d="M431.83837,93.92797c-3.68388,-7.90864 0.70296,-17.75432 9.79828,-21.99096c2.25389,-1.04988 3.92944,-1.83046 6.54896,-2.75848c6.57191,-2.32823 13.81885,3.45839 16.58983,9.40721c2.5218,5.41386 2.50555,11.73109 -1.4581,16.5397c-1.82652,2.21588 -5.47107,4.11484 -8.34019,5.45129c-9.09531,4.23664 -19.45489,1.2599 -23.13877,-6.64874z" fill="#5fbeb6" stroke="#278986" stroke-width="1" stroke-linecap="butt"/><path d="M437.61625,74.3565c6.78996,-3.1628 15.12465,0.34948 18.61605,7.8449c3.49139,7.49541 0.81737,16.1356 -5.97259,19.29839c-6.78996,3.1628 -15.12465,-0.34948 -18.61605,-7.8449c-3.49139,-7.49541 -0.81737,-16.1356 5.97259,-19.29839z" fill="#77ece3" stroke="#278986" stroke-width="1" stroke-linecap="butt"/><path d="M519.16399,116.97192c-0.50714,0.23623 -1.10976,0.01661 -1.34599,-0.49053c-0.23623,-0.50714 -0.01661,-1.10976 0.49053,-1.34599c0.50714,-0.23623 1.10976,-0.01661 1.34599,0.49053c0.23623,0.50714 0.01661,1.10976 -0.49053,1.34599z" fill="#000000" stroke="none" stroke-width="0.5" stroke-linecap="butt"/><path d="M516.07769,126.19436c-0.50714,0.23623 -1.10976,0.01661 -1.34599,-0.49053c-0.23624,-0.50716 -0.01661,-1.10976 0.49053,-1.34599c0.50714,-0.23623 1.10976,-0.01661 1.34599,0.49053c0.23624,0.50716 0.01661,1.10976 -0.49053,1.34599z" fill="#000000" stroke="none" stroke-width="0.5" stroke-linecap="butt"/><path d="M524.82123,130.84593c-0.50714,0.23623 -1.10976,0.01661 -1.34599,-0.49053c-0.23624,-0.50716 -0.01661,-1.10976 0.49053,-1.34599c0.50714,-0.23623 1.10976,-0.01661 1.34599,0.49053c0.23624,0.50716 0.01661,1.10976 -0.49053,1.34599z" fill="#000000" stroke="none" stroke-width="0.5" stroke-linecap="butt"/><path d="M506.15807,142.35797c-0.50714,0.23623 -1.10976,0.01661 -1.34599,-0.49053c-0.23624,-0.50716 -0.01661,-1.10976 0.49053,-1.34599c0.50714,-0.23623 1.10976,-0.01661 1.34599,0.49053c0.23624,0.50716 0.01661,1.10976 -0.49053,1.34599z" fill="#000000" stroke="none" stroke-width="0.5" stroke-linecap="butt"/><path d="M497.77026,154.31829c-0.50714,0.23623 -1.10976,0.01661 -1.34599,-0.49053c-0.23624,-0.50716 -0.01661,-1.10976 0.49053,-1.34599c0.50714,-0.23623 1.10976,-0.01661 1.34599,0.49053c0.23624,0.50716 0.01661,1.10976 -0.49053,1.34599z" fill="#000000" stroke="none" stroke-width="0.5" stroke-linecap="butt"/><path d="M486.21051,151.11273c-0.50714,0.23623 -1.10976,0.01661 -1.34599,-0.49053c-0.23624,-0.50716 -0.01661,-1.10976 0.49053,-1.34599c0.50714,-0.23623 1.10976,-0.01661 1.34599,0.49053c0.23624,0.50716 0.01661,1.10976 -0.49053,1.34599z" fill="#000000" stroke="none" stroke-width="0.5" stroke-linecap="butt"/><path d="M482.28103,157.3724c-0.50714,0.23623 -1.10976,0.01661 -1.34599,-0.49053c-0.23624,-0.50716 -0.01661,-1.10976 0.49053,-1.34599c0.50714,-0.23623 1.10976,-0.01661 1.34599,0.49053c0.23624,0.50716 0.01661,1.10976 -0.49053,1.34599z" fill="#000000" stroke="none" stroke-width="0.5" stroke-linecap="butt"/><path d="M466.56653,156.77324c-0.50714,0.23623 -1.10976,0.01661 -1.34599,-0.49053c-0.23624,-0.50716 -0.01661,-1.10976 0.49053,-1.34599c0.50714,-0.23623 1.10976,-0.01661 1.34599,0.49053c0.23624,0.50716 0.01661,1.10976 -0.49053,1.34599z" fill="#000000" stroke="none" stroke-width="0.5" stroke-linecap="butt"/><path d="M460.05653,163.83226c-0.50714,0.23623 -1.10976,0.01661 -1.34599,-0.49053c-0.23624,-0.50716 -0.01661,-1.10976 0.49053,-1.34599c0.50714,-0.23623 1.10976,-0.01661 1.34599,0.49053c0.23624,0.50716 0.01661,1.10976 -0.49053,1.34599z" fill="#000000" stroke="none" stroke-width="0.5" stroke-linecap="butt"/><path d="M440.65527,164.82712c-0.63392,0.29528 -1.38718,0.02077 -1.68247,-0.61316c-0.29528,-0.63392 -0.02077,-1.38718 0.61316,-1.68247c0.63392,-0.29528 1.38718,-0.02077 1.68247,0.61316c0.29528,0.63392 0.02077,1.38718 -0.61316,1.68247z" fill="#000000" stroke="none" stroke-width="0.5" stroke-linecap="butt"/><path d="M446.35448,171.2994c-0.63392,0.29528 -1.38718,0.02077 -1.68247,-0.61316c-0.29528,-0.63392 -0.02077,-1.38718 0.61316,-1.68247c0.63392,-0.29528 1.38718,-0.02077 1.68247,0.61316c0.29528,0.63392 0.02077,1.38718 -0.61316,1.68247z" fill="#000000" stroke="none" stroke-width="0.5" stroke-linecap="butt"/><path d="M452.99743,163.37314c-0.63392,0.29528 -1.38718,0.02077 -1.68247,-0.61316c-0.29528,-0.63392 -0.02077,-1.38718 0.61316,-1.68247c0.63392,-0.29528 1.38718,-0.02077 1.68247,0.61316c0.29528,0.63392 0.02077,1.38718 -0.61316,1.68247z" fill="#000000" stroke="none" stroke-width="0.5" stroke-linecap="butt"/><path d="M517.05864,250.6118c0.88702,-0.90364 1.79065,-0.01664 1.79065,-0.01664l0.58466,0.57412c0.59199,0.60285 0.88433,1.48898 1.55714,2.00007c0.433,0.32892 1.06481,-0.27681 1.53704,-0.54635c2.09932,-1.19829 3.24677,-3.06982 4.76023,-4.87607c0,0 0.81401,-0.9699 1.78392,-0.15587c0.96991,0.81403 0.15587,1.78392 0.15587,1.78392c-1.96687,2.33923 -5.53512,7.88387 -9.42586,6.03048c-0.98662,-0.47 -1.40051,-1.68168 -2.17061,-2.45706l-0.55642,-0.54596c0,0 -0.90363,-0.887 -0.01664,-1.79065z" fill="#000000" stroke="none" stroke-width="0.5" stroke-linecap="butt"/><path d="M513.46205,254.46912c1.14781,-0.53466 1.68247,0.61316 1.68247,0.61316l0.1976,0.54606c0.8621,1.0048 2.7237,2.76986 4.12815,2.93637c0.84348,0.09999 2.5267,-1.05188 3.20971,-1.37003c3.24497,-1.51153 5.15001,-2.89572 7.73664,-5.29034c1.10224,-1.0204 1.94916,-1.29265 2.34144,-2.76618c0,0 0.37648,-1.20896 1.58545,-0.83248c1.20896,0.37648 0.83248,1.58545 0.83248,1.58545c-1.53474,4.51665 -7.37105,7.71004 -11.4267,9.59918c-1.27943,0.59597 -3.00918,1.74414 -4.49164,1.59792c-2.1104,-0.20814 -4.48869,-2.30847 -5.81618,-3.78628l-0.59261,-1.15037c0,0 -0.53466,-1.14781 0.61316,-1.68247z" fill="#000000" stroke="none" stroke-width="0.5" stroke-linecap="butt"/><path d="M474.88907,117.31333c0,0 -8.12137,10.07525 -12.96295,13.11074c-28.68822,17.98639 -39.3345,5.97188 -39.3345,5.97188c0,0 -4.40213,-3.49981 -3.79212,-6.92987c0.52237,-2.93726 5.64126,-5.89459 10.02321,-5.76115c16.14416,0.4916 33.43065,-14.76248 40.04039,-24.16444c1.61903,-2.30297 5.88361,2.86211 7.0825,8.59535c0.87072,4.16387 -1.05655,9.1775 -1.05655,9.1775z" fill="#dc6d2c" stroke="#a60e03" stroke-width="2" stroke-linecap="round"/><path d="M467.58448,109.31328c-1.66405,-3.57243 2.89417,-9.22004 10.1811,-12.61432c7.28693,-3.39428 14.54313,-3.24986 16.20717,0.32255c1.66404,3.57241 4.49733,23.93611 -2.7896,27.33039c-7.28692,3.39427 -21.93464,-11.46621 -23.59868,-15.03862z" fill="#e19c72" stroke="none" stroke-width="0" stroke-linecap="butt"/><path d="M469.45254,111.07238c3.68611,0.62829 -4.78628,7.50648 -5.00599,7.67521c-7.36394,5.65523 -15.95158,12.58235 -24.9805,15.31936c-1.65082,0.50043 -12.15526,1.1453 -12.04744,-2.74201c0.02673,-0.9642 0.99624,-1.41006 1.7444,-1.20082c3.52833,0.98679 5.19273,3.47679 9.52468,1.53066c10.11223,-4.54289 21.42064,-11.23877 28.91401,-19.50569c0.01719,-0.45981 0.28523,-0.8939 0.731,-1.10154c0.37097,-0.1728 0.78281,-0.15046 1.11983,0.02483z" fill="#a60e03" stroke="none" stroke-width="0.5" stroke-linecap="butt"/><path d="M446.80925,63.82202c-1.97628,1.03567 -9.32772,-0.89556 -12.46618,0.03666c-2.38779,0.70925 -5.28821,1.84026 -6.02191,4.48417c-0.48588,1.75085 0.82727,8.64378 -1.91718,7.17507c-2.82157,-1.50999 0.45311,-9.93838 1.59817,-11.46062c2.25354,-2.99588 9.42205,-3.50568 12.92896,-3.27348c0.51996,0.03444 5.54786,0.09126 5.94871,0.84018c0.20032,0.12535 0.36789,0.30813 0.47509,0.53828c0.26258,0.56371 0.07459,1.22177 -0.41599,1.56827c-0.03779,0.03511 -0.08074,0.06583 -0.12967,0.09147z" fill="#000000" stroke="none" stroke-width="0.5" stroke-linecap="butt"/><path d="M406.75467,73.53132c-4.38095,4.99898 -0.64952,8.89856 -1.64481,11.43628c-0.37921,0.96686 -0.95909,1.49688 -2.14839,0.92348c-1.48093,-0.71401 -1.08196,-5.63456 -0.89925,-6.95082c0.81057,-5.83921 5.10766,-11.65204 11.95147,-10.91c2.70163,0.29292 4.69832,1.50677 6.83355,3.12938c0.29731,0.22594 2.37282,1.89206 1.17205,2.53473c-0.12533,0.20032 -0.30811,0.3679 -0.53827,0.47511c-0.63392,0.29528 -1.38719,0.02075 -1.68247,-0.61316c-0.00979,-0.021 -0.01895,-0.04212 -0.0275,-0.06338c-4.46742,-2.03658 -8.18595,-5.47354 -13.01638,0.03838z" fill="#000000" stroke="none" stroke-width="0.5" stroke-linecap="butt"/><path d="M487.94259,274.52601c0,0 3.39473,-0.02868 10.93019,0.26308c1.2953,0.05015 4.27266,-0.61676 5.70516,-0.49405c22.67575,1.94243 72.11544,-21.2887 115.54519,-51.9534c20.84622,-14.71899 45.15657,-46.65788 45.15657,-46.65788c0,0 2.06074,3.21939 3.31243,7.78859c2.21547,8.08742 3.92304,21.1422 1.64812,33.33038c-7.91608,42.41149 -71.08998,62.63998 -71.08998,62.63998c0,0 -15.38743,7.44559 -32.2785,11.4904c-12.46252,2.98435 -26.02165,2.97382 -33.39012,2.64804c-19.4702,-0.86081 -45.53907,-19.05514 -45.53907,-19.05514z" fill="#82615a" stroke="#000000" stroke-width="0.5" stroke-linecap="round"/><path d="M664.74659,221.18045c-0.12128,-0.10999 -0.2231,-0.24546 -0.29657,-0.4032c-0.14569,-0.31276 -0.15266,-0.65457 -0.04623,-0.95609l-0.35438,-0.76079l-0.03558,-0.04392l-0.22134,-0.20801l-0.09638,-0.14987l-0.12538,-0.12661l-0.37114,-0.62537l-0.0184,-0.0616l-0.04047,-0.04997l-0.17202,-0.36929l-0.39022,-0.36672l-0.07431,-0.11554l-0.10285,-0.09108l-0.17151,-0.25012l-0.46817,-0.43997l-0.07429,-0.11555l-0.10285,-0.09108l-0.17151,-0.25012l-0.46817,-0.43997l-0.0561,-0.08725l-0.08125,-0.06451l-0.40617,-0.52924l-0.01382,-0.03184l-0.02599,-0.023l-0.15782,-0.23016l-0.31911,-0.27801l-0.84368,-0.47706l-0.59711,-0.17359l-0.00786,-0.0046l-0.00911,-0.00047l-0.93091,-0.28479l-0.16156,-0.09725l-0.17717,-0.06457l-0.06864,-0.04641l-0.40488,-0.02886l-0.03175,-0.01039l-0.03314,0.00407l-0.5653,-0.0697l-0.65152,0.03614l-0.59274,0.04583l-1.06114,0.09885l-0.10723,-0.01644l-0.10696,0.0182l-0.99374,-0.07613l-0.04608,0.02146l-0.00366,0.00656l-0.02356,0.00611l-0.08517,0.03967l-0.26332,0.0509l-0.25957,0.06747l-0.09395,0.00086l-0.02389,0.00462l-0.00614,-0.00434l-0.6088,0.00565l-1.90948,0.45092l-1.39384,0.42204l-1.61669,0.60132l-8.65715,4.03254l-1.93235,1.28344l-0.06494,0.02307l-0.05162,0.04567l-1.33152,0.69213l-0.71839,0.65438l-0.9872,1.14385l-0.02247,0.01583l-0.0134,0.02401l-1.31294,1.39703l-1.15852,1.36124l-0.72564,1.15595l-0.3568,0.58605l-0.31101,0.71904l-0.02581,0.03374l-0.00965,0.04137l-0.37647,0.73413l-0.01382,0.01577l-0.00541,0.02026l-0.42893,0.77392l-0.43253,1.18683l-0.53143,2.18275l-0.03316,0.06312l-0.00744,0.07091l-0.16731,0.45909l-0.09959,0.64973l-0.04877,0.11631l-0.01316,0.12543l-0.19132,0.52498l0.00719,0.12957l-0.03515,0.18315l0.00116,0.1865l-0.07787,0.31984l-0.00527,0.18939l-0.01336,0.04781l0.00695,0.04917l-0.02953,0.28137l0.03629,0.31657l-0.01819,0.13825l0.01953,0.13806l-0.02437,0.23223l0.07748,0.40087l-0.00753,0.13924l0.03005,0.13616l-0.00518,0.18641l0.84641,1.8171l0.05318,0.02846l0.07659,0.06943l0.06296,0.00525l0.15801,0.19501l0.18597,0.16857l0.00176,0.06314l0.06507,0.08033l0.21877,0.46967l0.01604,0.01697l0.05646,0.10031l0.08437,0.07829l0.19656,0.30144l0.17334,0.1629l0.0206,0.03202l0.0321,0.02049l0.15725,0.16624l0.03926,0.06973l0.06158,0.05107l0.21838,0.29741l0.04774,0.11673l0.01271,0.01567l0.26558,0.23767l0.01753,0.02584l0.00399,0.00004l0.54633,0.14465l0.05127,0.02827l0.05821,0.00611l0.33427,0.12182l0.2646,0.02775l0.06246,0.02276l0.06643,-0.00249l0.2732,0.05754l0.01321,-0.00529l0.03311,0.01504l0.03453,0.00728l0.26165,0.12722l0.12628,0.05735l2.06569,0.05729l0.09957,0.02784l0.05865,-0.02345l0.19186,0.08713l0.25303,-0.00784l0.23434,0.05091l0.04526,0.00475l0.00012,-0.00001l0.77855,-0.13337l0.0495,0.00375l0.04685,-0.01646l1.01908,-0.09493l1.04496,-0.1851l0.86907,-0.16799l0.03746,0.00202l0.03487,-0.01384l1.16591,-0.15604l0.54984,-0.10628l0.02162,0.00117l0.01994,-0.00848l0.39382,-0.0626l0.76339,-0.28661l0.04638,-0.00532l0.04021,-0.02367l1.40351,-0.4143l0.0222,-0.00094l0.01954,-0.0106l1.85225,-0.47851l1.92068,-0.74353l1.40179,-0.65296l1.45707,-0.90409l1.81578,-1.25582l0.01862,-0.007l0.01358,-0.01452l2.06195,-1.33478l1.88704,-1.57239l0.06777,-0.03271l0.05119,-0.05517l1.71437,-1.11787l0.0338,-0.01169l0.02574,-0.02483l1.318,-0.7593l1.22122,-1.15529l0.03134,-0.01764l0.02101,-0.02922l1.25973,-1.06574l0.00522,-0.00258l0.00344,-0.00468l0.94566,-0.78568l0.63482,-0.97686l0.63901,-1.01127l0.00601,-0.00574l0.0027,-0.00785l0.71464,-1.09967l0.30073,-0.56196l0.2025,-0.42996l0.13586,-0.37279l0.12993,-0.49081l0.00436,-0.00792l0.00026,-0.00906l0.14727,-0.52659l0.0385,-0.46146l0.00446,-0.0131l-0.00193,-0.01372l0.08802,-0.83926l0.01057,-0.029l-0.00287,-0.03075l0.0411,-0.26818l-0.00377,-0.01558l-0.00847,-0.00752l-0.00121,-0.03226l-0.01452,-0.05973l0.00181,-0.28016l-0.01048,-0.27997l0.01268,-0.06017l0.00021,-0.03229l0.00824,-0.00779l0.00077,-0.00357l-0.0081,-0.04187l0.00471,-0.08698l-0.02576,-0.0832l-0.00283,-0.05111zM665.85781,217.30311l0.06961,0.05236l0.18781,0.23183l0.06583,0.14132l0.09811,0.12112l0.79439,1.70541l0.12384,0.64074l-0.05258,0.07434l0.0572,0.18464l0.10636,0.3077l-0.0089,0.01735l0.01611,0.29062l0.01102,0.05703l0.00072,0.00064l0.00014,0.0038l0.02842,0.14708l-0.01355,0.25055l0.00938,0.25072l-0.01537,0.07298l0.01932,0.07944l-0.00159,0.24603l0.02282,0.24497l-0.0745,0.48598l-0.08347,0.79588l-0.04739,0.56794l-0.03906,0.11468l-0.00337,0.1211l-0.17732,0.63399l-0.1424,0.53782l-0.02827,0.05127l-0.00611,0.05821l-0.1752,0.48074l-0.03277,0.04849l-0.01135,0.05744l-0.24079,0.51129l-0.02102,0.02574l-0.00812,0.03223l-0.34143,0.63799l-0.03685,0.04065l-0.01784,0.05189l-0.73955,1.13801l-0.63901,1.01127l-0.00601,0.00574l-0.0027,0.00785l-0.74396,1.14479l-0.13973,0.13004l-0.11284,0.15393l-1.08915,0.90488l-1.22857,1.03939l-1.30426,1.23387l-0.13043,0.07341l-0.10769,0.10392l-1.41726,0.81647l-1.62308,1.05834l-1.88867,1.57375l-0.06967,0.03363l-0.05281,0.05654l-2.10968,1.36564l-1.82574,1.26273l-0.03019,0.01136l-0.02247,0.02314l-1.54816,0.96061l-0.07321,0.02348l-0.05973,0.0484l-1.50862,0.70272l-0.04232,0.00818l-0.03522,0.02483l-2.02889,0.78542l-0.07447,0.00932l-0.06594,0.03583l-1.90279,0.49157l-1.33893,0.39522l-0.8405,0.31555l-0.12787,0.01466l-0.11843,0.05043l-0.49943,0.07937l-0.56513,0.10924l-0.03746,-0.00202l-0.03488,0.01386l-1.16589,0.15603l-0.84277,0.1629l-0.01016,-0.00055l-0.0093,0.00416l-1.1061,0.19592l-0.05314,-0.00372l-0.05026,0.01767l-1.02266,0.09527l-0.76524,0.1311l-0.03588,-0.0027l-0.03369,0.01265l-0.14525,0.01665l-0.01087,0.00918l-0.03616,-0.0038l-0.03506,0.00404l-0.28846,-0.03795l-0.18223,-0.0191l-0.37739,0.01171l-0.15762,-0.03424l-0.07498,0.02998l-0.1954,-0.08873l-0.07285,-0.01583l-2.12631,-0.05898l-0.09957,-0.02784l-0.05865,0.02345l-0.22855,-0.10377l-0.24173,-0.06762l-0.02981,-0.05569l-0.09414,-0.04275l-0.01897,-0.01505l-0.35263,-0.037l-0.14646,-0.05338l-0.15503,-0.01627l-0.42675,-0.15552l-0.45944,-0.12164l-0.32228,-0.06788l-0.12709,-0.06179l-0.0743,0.01213l-0.1814,-0.13644l-0.20412,-0.09925l-0.02307,-0.07165l-0.11293,-0.08495l-0.12394,-0.15298l-0.22511,-0.20146l-0.00253,-0.00022l-0.00606,-0.00748l-0.10133,-0.09066l-0.143,-0.21091l-0.16042,-0.19801l-0.03872,-0.08312l-0.09749,-0.1328l-0.07751,-0.08193l-0.25683,-0.24139l-0.08216,-0.12777l-0.11135,-0.10332l-0.21711,-0.33296l-0.07878,-0.08328l-0.09984,-0.17737l-0.12814,-0.15815l-0.14322,-0.30747l-0.13853,-0.12558l-0.21563,-0.17888l-0.03639,-0.04956l-0.02391,-0.02168l-0.00031,-0.01132l-0.15773,-0.21483l-0.04774,-0.11673l-0.0794,-0.09799l-1.00393,-2.15527l-0.01215,-0.0074l-0.00784,-0.03551l-0.0149,-0.03199l-0.05523,-0.28566l-0.0627,-0.2841l0.00098,-0.03527l-0.00692,-0.03571l0.00821,-0.01162l0.00731,-0.26368l-0.08686,-0.44939l0.01011,-0.18697l-0.02623,-0.1854l0.02952,-0.28139l-0.03629,-0.31657l0.01819,-0.13825l-0.01953,-0.13806l0.03894,-0.37126l0.00763,-0.27487l0.03627,-0.12973l2.46564,-1.52307l-2.40125,1.1205l-0.00301,-0.05444l-0.00164,-0.00194l0.001,-0.00959l-0.00752,-0.13578l0.04802,-0.25025l1.70143,-1.11342l-1.6283,0.73224l1.45298,0.19266l0.18183,-0.64385l-0.59128,-0.46961l-0.75312,-0.25253l0.04878,-0.11629l0.01316,-0.12543l0.18622,-0.51099l0.53143,-2.18275l0.03316,-0.06312l0.00744,-0.07091l0.49055,-1.34604l0.05627,-0.08322l0.02592,-0.09703l0.46718,-0.84298l0.34819,-0.67899l0.32942,-0.7616l0.05412,-0.07073l0.02649,-0.08506l0.40702,-0.66854l0.00635,-0.00627l0.00276,-0.00849l0.77899,-1.24093l0.06694,-0.0643l0.04121,-0.08316l1.23814,-1.45481l0.02598,-0.01859l0.01558,-0.0279l1.31592,-1.40023l1.01935,-1.18111l0.06313,-0.04449l0.04277,-0.0643l0.89672,-0.81683l0.14519,-0.07815l0.12349,-0.10927l1.41795,-0.73708l1.95534,-1.29874l0.09094,-0.03231l0.07499,-0.06074l8.78944,-4.09416l0.05067,-0.00979l0.04257,-0.02919l1.70093,-0.63264l0.03996,-0.00446l0.03451,-0.02064l1.4691,-0.44485l0.04019,-0.00197l0.03575,-0.01847l2.08552,-0.49249l0.1419,0.00185l0.13735,-0.0357l0.60002,-0.00558l0.18781,-0.08748l0.01073,-0.01583l0.32702,-0.05563l0.32568,-0.06295l0.01563,0.01106l1.19233,0.09135l0.96405,-0.08981l0.01014,0.00155l0.00973,-0.00324l0.61641,-0.04766l0.01395,0.00237l0.01351,-0.00418l0.77815,-0.04316l0.11195,0.02146l0.11314,-0.0139l0.64514,0.07954l0.69903,0.04984l0.01751,-0.00862l0.30537,0.11129l0.30891,0.10106l0.00846,0.01758l0.18271,0.12352l0.74095,0.22669l0.7301,0.21224l0.12751,0.07435l0.14228,0.03932l1.08368,0.61276l0.09356,0.08886l0.11492,0.05863l0.53736,0.46813l0.09208,0.13198l0.12048,0.10669l0.22974,0.33505l0.32301,0.42088l0.49308,0.46339l0.07431,0.11554l0.10285,0.09108l0.17151,0.25012l0.46817,0.43997l0.07431,0.11554l0.10285,0.09108l0.17151,0.25012l0.46817,0.43997l0.1297,0.20171l0.15097,0.18634l0.24831,0.53309l0.24754,0.41715l0.15354,0.14429z" fill="#82615a" stroke="none" stroke-width="0.5" stroke-linecap="butt"/><g><path d="M667.91583,220.99854c0,0 0.32566,10.89688 2.88283,15.65666c3.22088,5.99515 14.9149,17.47097 14.9149,17.47097c0,0 -10.17612,11.0662 -16.21386,15.32029c-7.02737,4.95134 -23.4338,12.61469 -23.4338,12.61469c0,0 -5.1073,0.32262 -8.47196,-2.13793c-2.91886,-2.13454 -11.13961,-8.75469 -13.90764,-15.23673c-2.59797,-6.08377 0.06566,-28.83583 0.06566,-28.83583z" fill="#82615a" stroke="#000000" stroke-width="3" stroke-linecap="round"/><path d="M664.74659,221.18045c-0.12128,-0.10999 -0.2231,-0.24546 -0.29657,-0.4032c-0.14569,-0.31276 -0.15266,-0.65457 -0.04623,-0.95609l-0.35438,-0.76079l-0.03558,-0.04392l-0.22134,-0.20801l-0.09638,-0.14987l-0.12538,-0.12661l-0.37114,-0.62537l-0.0184,-0.0616l-0.04047,-0.04997l-0.17202,-0.36929l-0.39022,-0.36672l-0.07431,-0.11554l-0.10285,-0.09108l-0.17151,-0.25012l-0.46817,-0.43997l-0.07429,-0.11555l-0.10285,-0.09108l-0.17151,-0.25012l-0.46817,-0.43997l-0.0561,-0.08725l-0.08125,-0.06451l-0.40617,-0.52924l-0.01382,-0.03184l-0.02599,-0.023l-0.15782,-0.23016l-0.31911,-0.27801l-0.84368,-0.47706l-0.59711,-0.17359l-0.00786,-0.0046l-0.00911,-0.00047l-0.93091,-0.28479l-0.16156,-0.09725l-0.17717,-0.06457l-0.06864,-0.04641l-0.40488,-0.02886l-0.03175,-0.01039l-0.03314,0.00407l-0.5653,-0.0697l-0.65152,0.03614l-0.59274,0.04583l-1.06114,0.09885l-0.10723,-0.01644l-0.10696,0.0182l-0.99374,-0.07613l-0.04608,0.02146l-0.00366,0.00656l-0.02356,0.00611l-0.08517,0.03967l-0.26332,0.0509l-0.25957,0.06747l-0.09395,0.00086l-0.02389,0.00462l-0.00614,-0.00434l-0.6088,0.00565l-1.90948,0.45092l-1.39384,0.42204l-1.61669,0.60132l-8.65715,4.03254l-1.93235,1.28344l-0.06494,0.02307l-0.05162,0.04567l-1.33152,0.69213l-0.71839,0.65438l-0.9872,1.14385l-0.02247,0.01583l-0.0134,0.02401l-1.31294,1.39703l-1.15852,1.36124l-0.72564,1.15595l-0.3568,0.58605l-0.31101,0.71904l-0.02581,0.03374l-0.00965,0.04137l-0.37647,0.73413l-0.01382,0.01577l-0.00541,0.02026l-0.42893,0.77392l-0.43253,1.18683l-0.53143,2.18275l-0.03316,0.06312l-0.00744,0.07091l-0.16731,0.45909l-0.09959,0.64973l-0.04877,0.11631l-0.01316,0.12543l-0.19132,0.52498l0.00719,0.12957l-0.03515,0.18315l0.00116,0.1865l-0.07787,0.31984l-0.00527,0.18939l-0.01336,0.04781l0.00695,0.04917l-0.02953,0.28137l0.03629,0.31657l-0.01819,0.13825l0.01953,0.13806l-0.02437,0.23223l0.07748,0.40087l-0.00753,0.13924l0.03005,0.13616l-0.00518,0.18641l0.84641,1.8171l0.05318,0.02846l0.07659,0.06943l0.06296,0.00525l0.15801,0.19501l0.18597,0.16857l0.00176,0.06314l0.06507,0.08033l0.21877,0.46967l0.01604,0.01697l0.05646,0.10031l0.08437,0.07829l0.19656,0.30144l0.17334,0.1629l0.0206,0.03202l0.0321,0.02049l0.15725,0.16624l0.03926,0.06973l0.06158,0.05107l0.21838,0.29741l0.04774,0.11673l0.01271,0.01567l0.26558,0.23767l0.01753,0.02584l0.00399,0.00004l0.54633,0.14465l0.05127,0.02827l0.05821,0.00611l0.33427,0.12182l0.2646,0.02775l0.06246,0.02276l0.06643,-0.00249l0.2732,0.05754l0.01321,-0.00529l0.03311,0.01504l0.03453,0.00728l0.26165,0.12722l0.12628,0.05735l2.06569,0.05729l0.09957,0.02784l0.05865,-0.02345l0.19186,0.08713l0.25303,-0.00784l0.23434,0.05091l0.04526,0.00475l0.00012,-0.00001l0.77855,-0.13337l0.0495,0.00375l0.04685,-0.01646l1.01908,-0.09493l1.04496,-0.1851l0.86907,-0.16799l0.03746,0.00202l0.03487,-0.01384l1.16591,-0.15604l0.54984,-0.10628l0.02162,0.00117l0.01994,-0.00848l0.39382,-0.0626l0.76339,-0.28661l0.04638,-0.00532l0.04021,-0.02367l1.40351,-0.4143l0.0222,-0.00094l0.01954,-0.0106l1.85225,-0.47851l1.92068,-0.74353l1.40179,-0.65296l1.45707,-0.90409l1.81578,-1.25582l0.01862,-0.007l0.01358,-0.01452l2.06195,-1.33478l1.88704,-1.57239l0.06777,-0.03271l0.05119,-0.05517l1.71437,-1.11787l0.0338,-0.01169l0.02574,-0.02483l1.318,-0.7593l1.22122,-1.15529l0.03134,-0.01764l0.02101,-0.02922l1.25973,-1.06574l0.00522,-0.00258l0.00344,-0.00468l0.94566,-0.78568l0.63482,-0.97686l0.63901,-1.01127l0.00601,-0.00574l0.0027,-0.00785l0.71464,-1.09967l0.30073,-0.56196l0.2025,-0.42996l0.13586,-0.37279l0.12993,-0.49081l0.00436,-0.00792l0.00026,-0.00906l0.14727,-0.52659l0.0385,-0.46146l0.00446,-0.0131l-0.00193,-0.01372l0.08802,-0.83926l0.01057,-0.029l-0.00287,-0.03075l0.0411,-0.26818l-0.00377,-0.01558l-0.00847,-0.00752l-0.00121,-0.03226l-0.01452,-0.05973l0.00181,-0.28016l-0.01048,-0.27997l0.01268,-0.06017l0.00021,-0.03229l0.00824,-0.00779l0.00077,-0.00357l-0.0081,-0.04187l0.00471,-0.08698l-0.02576,-0.0832l-0.00283,-0.05111zM665.85781,217.30311l0.06961,0.05236l0.18781,0.23183l0.06583,0.14132l0.09811,0.12112l0.79439,1.70541l0.12384,0.64074l-0.05258,0.07434l0.0572,0.18464l0.10636,0.3077l-0.0089,0.01735l0.01611,0.29062l0.01102,0.05703l0.00072,0.00064l0.00014,0.0038l0.02842,0.14708l-0.01355,0.25055l0.00938,0.25072l-0.01537,0.07298l0.01932,0.07944l-0.00159,0.24603l0.02282,0.24497l-0.0745,0.48598l-0.08347,0.79588l-0.04739,0.56794l-0.03906,0.11468l-0.00337,0.1211l-0.17732,0.63399l-0.1424,0.53782l-0.02827,0.05127l-0.00611,0.05821l-0.1752,0.48074l-0.03277,0.04849l-0.01135,0.05744l-0.24079,0.51129l-0.02102,0.02574l-0.00812,0.03223l-0.34143,0.63799l-0.03685,0.04065l-0.01784,0.05189l-0.73955,1.13801l-0.63901,1.01127l-0.00601,0.00574l-0.0027,0.00785l-0.74396,1.14479l-0.13973,0.13004l-0.11284,0.15393l-1.08915,0.90488l-1.22857,1.03939l-1.30426,1.23387l-0.13043,0.07341l-0.10769,0.10392l-1.41726,0.81647l-1.62308,1.05834l-1.88867,1.57375l-0.06967,0.03363l-0.05281,0.05654l-2.10968,1.36564l-1.82574,1.26273l-0.03019,0.01136l-0.02247,0.02314l-1.54816,0.96061l-0.07321,0.02348l-0.05973,0.0484l-1.50862,0.70272l-0.04232,0.00818l-0.03522,0.02483l-2.02889,0.78542l-0.07447,0.00932l-0.06594,0.03583l-1.90279,0.49157l-1.33893,0.39522l-0.8405,0.31555l-0.12787,0.01466l-0.11843,0.05043l-0.49943,0.07937l-0.56513,0.10924l-0.03746,-0.00202l-0.03488,0.01386l-1.16589,0.15603l-0.84277,0.1629l-0.01016,-0.00055l-0.0093,0.00416l-1.1061,0.19592l-0.05314,-0.00372l-0.05026,0.01767l-1.02266,0.09527l-0.76524,0.1311l-0.03588,-0.0027l-0.03369,0.01265l-0.14525,0.01665l-0.01087,0.00918l-0.03616,-0.0038l-0.03506,0.00404l-0.28846,-0.03795l-0.18223,-0.0191l-0.37739,0.01171l-0.15762,-0.03424l-0.07498,0.02998l-0.1954,-0.08873l-0.07285,-0.01583l-2.12631,-0.05898l-0.09957,-0.02784l-0.05865,0.02345l-0.22855,-0.10377l-0.24173,-0.06762l-0.02981,-0.05569l-0.09414,-0.04275l-0.01897,-0.01505l-0.35263,-0.037l-0.14646,-0.05338l-0.15503,-0.01627l-0.42675,-0.15552l-0.45944,-0.12164l-0.32228,-0.06788l-0.12709,-0.06179l-0.0743,0.01213l-0.1814,-0.13644l-0.20412,-0.09925l-0.02307,-0.07165l-0.11293,-0.08495l-0.12394,-0.15298l-0.22511,-0.20146l-0.00253,-0.00022l-0.00606,-0.00748l-0.10133,-0.09066l-0.143,-0.21091l-0.16042,-0.19801l-0.03872,-0.08312l-0.09749,-0.1328l-0.07751,-0.08193l-0.25683,-0.24139l-0.08216,-0.12777l-0.11135,-0.10332l-0.21711,-0.33296l-0.07878,-0.08328l-0.09984,-0.17737l-0.12814,-0.15815l-0.14322,-0.30747l-0.13853,-0.12558l-0.21563,-0.17888l-0.03639,-0.04956l-0.02391,-0.02168l-0.00031,-0.01132l-0.15773,-0.21483l-0.04774,-0.11673l-0.0794,-0.09799l-1.00393,-2.15527l-0.01215,-0.0074l-0.00784,-0.03551l-0.0149,-0.03199l-0.05523,-0.28566l-0.0627,-0.2841l0.00098,-0.03527l-0.00692,-0.03571l0.00821,-0.01162l0.00731,-0.26368l-0.08686,-0.44939l0.01011,-0.18697l-0.02623,-0.1854l0.02952,-0.28139l-0.03629,-0.31657l0.01819,-0.13825l-0.01953,-0.13806l0.03894,-0.37126l0.00763,-0.27487l0.03627,-0.12973l2.46564,-1.52307l-2.40125,1.1205l-0.00301,-0.05444l-0.00164,-0.00194l0.001,-0.00959l-0.00752,-0.13578l0.04802,-0.25025l1.70143,-1.11342l-1.6283,0.73224l1.45298,0.19266l0.18183,-0.64385l-0.59128,-0.46961l-0.75312,-0.25253l0.04878,-0.11629l0.01316,-0.12543l0.18622,-0.51099l0.53143,-2.18275l0.03316,-0.06312l0.00744,-0.07091l0.49055,-1.34604l0.05627,-0.08322l0.02592,-0.09703l0.46718,-0.84298l0.34819,-0.67899l0.32942,-0.7616l0.05412,-0.07073l0.02649,-0.08506l0.40702,-0.66854l0.00635,-0.00627l0.00276,-0.00849l0.77899,-1.24093l0.06694,-0.0643l0.04121,-0.08316l1.23814,-1.45481l0.02598,-0.01859l0.01558,-0.0279l1.31592,-1.40023l1.01935,-1.18111l0.06313,-0.04449l0.04277,-0.0643l0.89672,-0.81683l0.14519,-0.07815l0.12349,-0.10927l1.41795,-0.73708l1.95534,-1.29874l0.09094,-0.03231l0.07499,-0.06074l8.78944,-4.09416l0.05067,-0.00979l0.04257,-0.02919l1.70093,-0.63264l0.03996,-0.00446l0.03451,-0.02064l1.4691,-0.44485l0.04019,-0.00197l0.03575,-0.01847l2.08552,-0.49249l0.1419,0.00185l0.13735,-0.0357l0.60002,-0.00558l0.18781,-0.08748l0.01073,-0.01583l0.32702,-0.05563l0.32568,-0.06295l0.01563,0.01106l1.19233,0.09135l0.96405,-0.08981l0.01014,0.00155l0.00973,-0.00324l0.61641,-0.04766l0.01395,0.00237l0.01351,-0.00418l0.77815,-0.04316l0.11195,0.02146l0.11314,-0.0139l0.64514,0.07954l0.69903,0.04984l0.01751,-0.00862l0.30537,0.11129l0.30891,0.10106l0.00846,0.01758l0.18271,0.12352l0.74095,0.22669l0.7301,0.21224l0.12751,0.07435l0.14228,0.03932l1.08368,0.61276l0.09356,0.08886l0.11492,0.05863l0.53736,0.46813l0.09208,0.13198l0.12048,0.10669l0.22974,0.33505l0.32301,0.42088l0.49308,0.46339l0.07431,0.11554l0.10285,0.09108l0.17151,0.25012l0.46817,0.43997l0.07431,0.11554l0.10285,0.09108l0.17151,0.25012l0.46817,0.43997l0.1297,0.20171l0.15097,0.18634l0.24831,0.53309l0.24754,0.41715l0.15354,0.14429z" fill="#82615a" stroke="none" stroke-width="0.5" stroke-linecap="butt"/><path d="M664.77112,221.25965l0.00287,0.05124l0.02584,0.0834l-0.00464,0.08716l0.00812,0.04197l-0.00074,0.00358l-0.00823,0.00781l-0.00018,0.03236l-0.01265,0.06028l0.01067,0.2806l-0.00162,0.28079l0.01456,0.05988l0.00123,0.03234l0.00848,0.00756l0.00379,0.01562l-0.04092,0.26875l0.00289,0.03082l-0.01056,0.02906l-0.08754,0.84114l0.00195,0.01375l-0.00444,0.01314l-0.03827,0.46254l-0.14705,0.5278l-0.00025,0.00907l-0.00437,0.00795l-0.12975,0.49197l-0.13573,0.3737l-0.20235,0.43101l-0.30059,0.56335l-0.71447,1.10257l-0.00271,0.00787l-0.006,0.00575l-0.639,1.01414l-0.63498,0.97984l-0.94597,0.78837l-0.00345,0.00471l-0.00522,0.00258l-1.26047,1.06982l-0.02103,0.02931l-0.03136,0.01774l-1.22258,1.16015l-1.31957,0.76341l-0.02578,0.02496l-0.03383,0.01177l-1.71776,1.12424l-0.05136,0.05544l-0.06792,0.03295l-1.89349,1.58049l-2.07035,1.34169l-0.01364,0.01457l-0.01868,0.00705l-1.82444,1.26035l-1.46393,0.90633l-1.40797,0.65408l-1.92851,0.74386l-1.85904,0.47781l-0.0196,0.01061l-0.0223,0.00092l-1.40804,0.41328l-0.04032,0.02364l-0.04651,0.00527l-0.76556,0.28595l-0.39495,0.0622l-0.01997,0.00846l-0.02168,-0.0012l-0.55134,0.10573l-1.1689,0.15475l-0.03496,0.01382l-0.03757,-0.00208l-0.87102,0.16702l-1.04712,0.18388l-1.02109,0.09369l-0.04692,0.0164l-0.04962,-0.00382l-0.77984,0.13249h-0.00013l-0.04535,-0.00481l-0.23483,-0.05127l-0.25347,0.00753l-0.19232,-0.08747l-0.05874,0.02341l-0.09977,-0.028l-2.06891,-0.05999l-0.12651,-0.05756l-0.26217,-0.12769l-0.03458,-0.00732l-0.03316,-0.0151l-0.01322,0.00527l-0.27361,-0.05794l-0.0665,0.0024l-0.06257,-0.02286l-0.26495,-0.0281l-0.33481,-0.12239l-0.05831,-0.00619l-0.05136,-0.02836l-0.54709,-0.14547l-0.004,-0.00006l-0.01758,-0.0259l-0.26614,-0.2383l-0.01272,-0.0157l-0.04795,-0.11695l-0.21892,-0.29808l-0.06169,-0.05123l-0.03937,-0.06987l-0.15759,-0.16665l-0.03215,-0.02055l-0.02065,-0.0321l-0.1737,-0.16335l-0.19709,-0.30213l-0.08454,-0.07851l-0.05662,-0.10051l-0.01607,-0.017l-0.21948,-0.47064l-0.06522,-0.08053l-0.00183,-0.06325l-0.1863,-0.16905l-0.15833,-0.19554l-0.063,-0.00534l-0.07672,-0.06962l-0.05325,-0.02857l-0.8488,-1.82123l0.00499,-0.18677l-0.03021,-0.13645l0.00741,-0.1395l-0.07789,-0.40171l0.02416,-0.23268l-0.01966,-0.13838l0.01807,-0.13851l-0.03659,-0.31726l0.02928,-0.28196l-0.007,-0.04927l0.01334,-0.04791l0.00508,-0.18979l0.07764,-0.32047l-0.00129,-0.18692l0.03501,-0.18353l-0.00729,-0.12987l0.19096,-0.52603l0.01306,-0.12572l0.0487,-0.11655l0.09912,-0.65122l0.16702,-0.46011l0.00739,-0.0711l0.03312,-0.06325l0.53035,-2.18829l0.43218,-1.19007l0.42881,-0.77617l0.00541,-0.02031l0.01382,-0.01582l0.37645,-0.73636l0.00963,-0.04149l0.02582,-0.03385l0.31111,-0.72132l0.35696,-0.58798l0.72623,-1.15998l1.15981,-1.36655l1.31516,-1.40301l0.01345,-0.02409l0.0225,-0.01591l0.98973,-1.14874l0.72032,-0.65741l1.33483,-0.69642l0.0518,-0.04588l0.0651,-0.02325l1.93925,-1.28998l8.69309,-4.043l1.6221,-0.6005l1.398,-0.421l1.91452,-0.44913l0.61038,-0.00497l0.00617,0.00435l0.02395,-0.00459l0.09419,-0.00076l0.26014,-0.06721l0.26392,-0.05061l0.08533,-0.0396l0.02361,-0.0061l0.00366,-0.00656l0.04617,-0.02142l0.99611,0.07741l0.10716,-0.01808l0.10748,0.01658l1.0632,-0.09757l0.59382,-0.0451l0.65266,-0.03533l0.56636,0.07049l0.0332,-0.00404l0.03182,0.01044l0.40559,0.02942l0.06882,0.04654l0.17752,0.06487l0.16193,0.09756l0.93263,0.28631l0.00912,0.00048l0.00789,0.0046l0.59813,0.17455l0.84531,0.47871l0.31983,0.27877l0.15826,0.23065l0.02604,0.02308l0.01387,0.0319l0.40724,0.5305l0.08139,0.06472l0.05627,0.08747l0.46911,0.44122l0.17194,0.25073l0.10304,0.09133l0.07448,0.11582l0.46903,0.44124l0.17191,0.25074l0.10302,0.09134l0.07448,0.11582l0.39086,0.36779l0.17249,0.37013l0.04055,0.0501l0.01849,0.06173l0.37196,0.62694l0.12557,0.12696l0.09657,0.15027l0.22163,0.20862l0.03564,0.04404l0.35519,0.76262c-0.10643,0.30152 -0.09865,0.64536 0.04704,0.95812c0.07347,0.15772 0.17569,0.29429 0.29697,0.40428z" fill="#82615a" stroke="none" stroke-width="0.5" stroke-linecap="butt"/><path d="M621.25719,242.44195c-0.04946,-1.91696 0.35376,-5.2676 1.6438,-6.82125c-0.06169,-0.52761 0.21549,-1.05815 0.72337,-1.29472c0.63392,-0.29528 1.38718,-0.02077 1.68247,0.61316c0.04629,0.09936 0.07858,0.20166 0.09767,0.30467c0.48129,0.56891 -1.36107,5.65559 -1.53134,6.42237c-1.04963,4.72669 -0.17179,11.53415 0.51943,16.33023c0.64339,4.46414 3.29345,8.91047 4.9463,13.01909c0.52528,1.3057 -0.81362,1.96498 -1.92673,1.5249c-1.85206,-0.73223 -1.71082,-3.59747 -2.51992,-5.41727c-3.64779,-8.20454 -3.40835,-15.89386 -3.63504,-24.68119z" fill="#000000" stroke="none" stroke-width="0.5" stroke-linecap="butt"/></g><path d="M496.2096,189.03493c0.43358,-1.18969 1.62326,-0.75612 1.62326,-0.75612l1.05808,0.38792c1.81231,0.78391 3.75164,1.94193 5.68299,2.36262c2.96866,0.64664 5.41735,-0.32504 8.22212,-1.07443c5.49328,-1.46772 10.69894,-4.40642 15.74042,-7.08151c5.22394,-2.44985 8.92482,-6.0551 12.63527,-10.41168c4.34941,-5.10682 7.97752,-9.48418 9.28795,-16.19406c0,0 0.24271,-1.24274 1.48547,-1.00003c1.24275,0.2427 1.00004,1.48546 1.00004,1.48546c-1.40046,7.17031 -5.20959,11.89951 -9.84579,17.35101c-3.92145,4.61108 -7.90351,8.43739 -13.43087,11.03462c-7.16638,3.80527 -17.07902,10.23931 -25.61377,8.36929c-2.11054,-0.46242 -4.19012,-1.66092 -6.16924,-2.51695l-0.91985,-0.33291c0,0 -1.1897,-0.43357 -0.75612,-1.62326z" fill="#000000" stroke="none" stroke-width="0.5" stroke-linecap="butt"/><path d="M503.49219,127.32233c0.40641,1.46412 -1.0577,1.87053 -1.0577,1.87053l-1.47898,0.2102c-3.77133,-0.93975 -7.33563,-2.2729 -11.02506,-3.55068c-1.67261,-0.57929 -3.28262,-0.08254 -4.97247,-0.5398c-2.78922,-0.75477 -6.68352,-2.61422 -9.03007,-4.35375c-3.05201,-2.26249 -5.15548,-5.49575 -7.36537,-8.50566c-1.38926,-2.18088 -3.28181,-5.00736 -2.95064,-7.73833c0.23466,-1.9352 1.91864,-3.68312 3.21607,-4.97604c4.19135,-4.17678 12.04878,-7.13922 17.84478,-4.76865c0,0 1.39833,0.5946 0.80373,1.99291c-0.5946,1.39833 -1.99291,0.80373 -1.99291,0.80373c-4.5576,-2.04436 -11.26252,0.91797 -14.5175,4.13167c-0.78794,0.77793 -2.19299,2.04654 -2.34659,3.25234c-0.22823,1.79166 1.54807,4.17741 2.44975,5.58423c2.00411,2.72964 3.89462,5.72101 6.66215,7.77781c2.06823,1.53709 5.48925,3.1696 7.94328,3.84651c1.74356,0.48093 3.43089,0.02573 5.22892,0.61407c3.62264,1.18539 7.0721,2.60255 10.77089,3.47695l-0.05275,-0.1857c0,0 1.46412,-0.40643 1.87053,1.0577z" fill="#000000" stroke="none" stroke-width="0.5" stroke-linecap="butt"/><g stroke="none" stroke-width="0.5" stroke-linecap="butt"><path d="M586.333,168.26988c-0.29108,0.66178 -0.58902,1.35505 -0.80261,2.19266c-0.87963,3.44925 -1.01576,7.00779 -1.66451,10.48402c-0.87089,4.66646 -3.21839,9.19202 -3.79027,13.87543c-2.36736,6.90367 -4.75398,14.66863 -8.32875,21.03301c-1.82099,3.24203 -3.78149,6.9466 -5.14918,10.41432c-1.26711,3.91097 -3.47407,8.34005 -6.43436,11.25915c-2.62532,2.58879 -9.94544,4.52952 -13.21049,2.38311c-1.13749,-0.74777 -1.29348,-2.63023 -1.58102,-3.79947c-0.39584,-4.63897 -1.12027,-9.51027 -0.05795,-14.11728c1.11818,-4.8493 2.96559,-9.00947 4.5881,-13.6551c1.04372,-2.98836 1.19313,-6.1329 2.28022,-9.10982c1.72136,-5.0746 2.50256,-10.45681 4.26593,-15.51677c2.32461,-6.6706 4.90712,-13.80048 5.76855,-20.80145c0.15904,-0.47461 0.33528,-0.9442 0.5194,-1.41093c1.02297,-0.61472 2.57262,-0.61876 3.81229,-0.58263c7.42537,0.47055 15.96602,0.40718 19.7846,7.35174z" fill="#e6a075"/><path d="M581.17781,156.26681c1.23458,0.28132 0.95328,1.51591 0.95328,1.51591l-0.21117,0.57527c0.06051,0.46656 0.12102,0.9331 0.18151,1.39966c0,0 0.02786,0.21477 -0.0283,0.47818c0.0682,0.32578 0.00374,0.6086 0.00374,0.6086l-0.30075,1.31656c-0.82147,5.2502 -2.7105,10.29033 -4.08556,15.41595c-0.27663,3.46794 -1.60573,6.34947 -2.28749,9.73081c-0.78364,3.88652 -1.10307,7.72362 -2.41375,11.50183c-1.62189,4.67532 -4.17628,8.5683 -6.50197,12.88276c-5.68674,7.91578 -5.47027,19.61025 -13.05712,26.04578c0,0 -0.96582,0.8189 -1.7847,-0.1469c-0.8189,-0.96582 0.1469,-1.7847 0.1469,-1.7847c3.7419,-3.1713 4.70644,-7.01022 6.09834,-11.57552c1.39123,-4.56318 3.64246,-9.96707 6.44806,-13.87931c2.23226,-4.16606 4.68847,-7.87195 6.25936,-12.37636c1.27905,-3.66759 1.54984,-7.38257 2.31957,-11.15414c0.68604,-3.3615 1.98635,-6.23887 2.27721,-9.67506c1.35627,-5.1459 3.27083,-10.19871 4.09403,-15.46245l0.31866,-1.40189c0,0 0.00429,-0.01874 0.0141,-0.05111c-0.02426,-0.08939 -0.03178,-0.14734 -0.03178,-0.14734c-0.06051,-0.46656 -0.12102,-0.9331 -0.18151,-1.39966l0.25338,-1.46356c0,0 0.28132,-1.23458 1.51591,-0.95328z" fill="#961308"/><path d="M572.18935,155.15397c1.20236,0.3971 0.80527,1.59946 0.80527,1.59946l-0.41057,1.18237c0.22516,6.362 -2.0991,11.81151 -4.06042,17.49886c0.19866,3.14327 -1.41116,5.53817 -1.94431,8.5517c-1.57763,8.91724 -5.19258,17.11145 -8.54733,25.47634c-4.26984,8.23537 -1.49497,21.35494 -10.94385,26.39375c0,0 -1.12045,0.58991 -1.71032,-0.53055c-0.58991,-1.12045 0.53055,-1.71032 0.53055,-1.71032c2.86303,-1.48326 3.76788,-3.88215 4.80698,-6.72873c0.38468,-1.0538 1.13336,-1.95741 1.46957,-3.02768c0.74302,-2.36527 0.23232,-5.12949 0.64621,-7.54542c0.48559,-2.83439 1.57302,-5.36102 2.89882,-7.90657c3.26905,-8.18898 6.75424,-16.15148 8.35545,-24.86123c0.54739,-2.97753 2.10151,-5.35475 1.92698,-8.43857c1.86271,-5.85644 4.21097,-11.0399 4.06586,-17.53804l0.51165,-1.61007c0,0 0.3971,-1.20236 1.59946,-0.80527z" fill="#961308"/><path d="M587.26908,164.62182c-0.87548,-3.58904 -1.66913,-7.03748 -3.28244,-10.38341c-0.6876,-0.95878 -1.50217,-3.03591 -2.51822,-3.6766c-3.55249,-2.24011 -10.90473,-3.83881 -14.44281,-0.56859c-1.4535,1.34349 -1.62484,4.00578 -2.09523,5.77882c-0.25485,0.96065 -0.59915,1.89596 -0.97268,2.82366c0.85008,-0.13526 1.76059,-0.17092 2.69538,-0.15717c7.69627,0.48744 15.94476,0.82294 20.59655,6.74188c0.01372,-0.17923 0.02051,-0.36503 0.01944,-0.55859zM585.5011,170.50384c0.21361,-0.83761 0.5122,-1.5304 0.80328,-2.19218c-3.81857,-6.94457 -12.33251,-6.87238 -19.75789,-7.34291c-1.23967,-0.03613 -2.78424,-0.03218 -3.80722,0.58256c-0.18413,0.46672 -0.35951,0.93624 -0.51855,1.41086c-0.86144,7.00094 -3.42329,14.12461 -5.74794,20.79518c-1.76337,5.05998 -2.51861,10.39805 -4.23996,15.47264c-1.08709,2.97692 -1.24369,6.09539 -2.2874,9.08375c-1.62251,4.64563 -3.48014,8.79354 -4.59833,13.64286c-1.06233,4.60702 -0.34725,9.47186 0.0486,14.11083c0.28756,1.16924 0.44026,3.0501 1.57778,3.79788c3.26506,2.14644 10.57102,0.20169 13.19633,-2.38708c2.96028,-2.9191 5.15798,-7.34854 6.42508,-11.25949c1.3677,-3.46773 3.31217,-7.16873 5.13316,-10.41076c3.57479,-6.36437 5.93164,-14.06791 8.299,-20.97158c0.57186,-4.68342 2.9317,-9.188 3.80257,-13.85447c0.64875,-3.47623 0.79183,-7.02884 1.67146,-10.47809zM589.74791,165.52582c-0.1125,0.97732 -0.39287,1.79011 -0.71454,2.59833c0.28011,0.60913 0.53366,1.25883 0.75858,1.95201c0,0 0.08529,0.26539 0.05131,0.58715c1.15064,0.07386 1.83122,-1.23668 2.69474,-2.08697c3.00454,-2.95851 3.23204,-8.44716 3.19801,-12.46753c-0.22305,-8.736 -0.97983,-18.35092 -4.34883,-26.5239c-1.39854,-3.39272 -3.91861,-6.32185 -6.01324,-9.29449c-0.63779,-0.47447 -2.56135,-2.01103 -3.40043,-2.22933c-1.43106,-0.37231 -5.13392,2.00699 -6.38489,2.67779c-6.4545,3.461 -10.27577,9.13612 -12.52709,16.14825c-3.35888,6.88414 -5.58292,16.00643 -2.81357,23.59805c0.1215,-0.14642 0.24955,-0.28294 0.38371,-0.41015c0.67835,-1.64214 1.4136,-3.26834 1.85292,-4.95992c0.62113,-2.39159 0.89183,-5.19375 2.81179,-6.97203c3.84744,-3.56349 10.16948,-2.63546 14.40345,-0.7628c1.00598,0.44497 2.21632,0.43327 3.12985,1.04607c1.43566,0.96306 2.35353,3.14009 3.33499,4.52004c1.75978,3.62504 2.6465,7.31709 3.59838,11.21327l-0.03886,-0.25256c0,0 0.71303,0.84091 0.02371,1.61874zM554.08582,182.91104c2.05115,-5.90985 4.34995,-12.20712 5.37236,-18.43458c-0.3078,-0.18846 -0.45356,-0.43801 -0.51395,-0.68043c-4.37408,-8.66824 -2.2876,-19.59829 1.76883,-27.85674c2.64392,-8.15933 7.38403,-14.66214 15.23918,-18.22502c1.57745,-0.7155 4.5214,-2.54718 6.32392,-2.16758c1.75984,0.37061 3.53171,1.93016 4.91029,2.975c2.32325,3.21721 5.01691,6.4238 6.55183,10.12209c3.50462,8.44406 4.29862,18.39008 4.52986,27.42516c0.0172,4.79845 -0.39097,10.77234 -3.94807,14.30669c-1.80914,1.79759 -2.7723,3.13393 -5.49234,2.66133l-1.01344,-1.30876c-0.71159,3.20136 -0.87605,6.45105 -1.48599,9.6659c-0.89262,4.70473 -3.27803,9.28099 -3.83158,14.00268c-2.40458,7.15627 -4.90028,15.04657 -8.56246,21.65458c-1.73953,3.13881 -3.67327,6.67185 -4.95616,10.02396c-1.43668,4.28001 -3.78854,9.08965 -7.08295,12.25672c-3.46553,3.33159 -12.25436,5.57365 -16.39172,2.5954c-1.81334,-1.3053 -2.12307,-3.45851 -2.60652,-5.44829c-0.44208,-4.97546 -1.13585,-10.13029 -0.02178,-15.07288c1.11841,-4.9619 3.02503,-9.23877 4.69785,-13.97853c1.04479,-2.96033 1.19844,-6.07053 2.2704,-9.03688c1.72283,-5.07623 2.48412,-10.41364 4.24245,-15.47974z" fill="#000000"/><path d="M560.20953,160.51814c-2.76935,-7.59164 -0.54779,-16.77675 2.81108,-23.66091c2.25133,-7.01214 6.11192,-12.70802 12.56641,-16.16903c1.25096,-0.67078 4.96511,-3.04917 6.39618,-2.67685c0.83907,0.2183 2.76929,1.75663 3.40705,2.23111c2.0946,2.97265 4.63182,5.91167 6.03035,9.30441c3.36901,8.17301 4.13778,17.84825 4.36084,26.58424c0.03402,4.02035 -0.20896,9.5275 -3.2135,12.48604c-0.86351,0.85027 -1.54936,2.16422 -2.70001,2.09036c0.03399,-0.32175 -0.0509,-0.58736 -0.0509,-0.58736c-3.46252,-10.67171 -13.77202,-11.04569 -23.19617,-11.64256c-2.56831,-0.03779 -4.95968,0.29131 -6.41135,2.04054z" fill="#b3c976"/></g></g><text transform="translate(27.77344,328.37891) scale(1.13092,1.43174)" font-size="40" xml:space="preserve" fill="#000000" stroke="none" stroke-width="1" stroke-linecap="butt" font-family="Sans Serif" font-weight="normal" text-anchor="start"><tspan x="0" dy="0">SaberFart: The Game!</tspan></text><text transform="translate(511.30635,20.50781) scale(0.39166,0.39166)" font-size="40" xml:space="preserve" fill="#000000" stroke="none" stroke-width="1" stroke-linecap="butt" font-family="Sans Serif" font-weight="normal" text-anchor="start"><tspan x="0" dy="0">TFTG-rba-reskin</tspan><tspan x="0" dy="46.150000000000006px">2024-12-09</tspan><tspan x="0" dy="46.150000000000006px">N4LGames</tspan><tspan x="0" dy="46.150000000000006px">build:003</tspan><tspan x="0" dy="46.150000000000006px">FPS:60</tspan></text></g></g></svg>