<svg version="1.1" xmlns="http://www.w3.org/2000/svg" xmlns:xlink="http://www.w3.org/1999/xlink" width="153.59996" height="181.53294" viewBox="0,0,153.59996,181.53294"><g transform="translate(-243.20002,-79.86234)"><g stroke-miterlimit="10"><g><g stroke="none" stroke-width="0.5" stroke-linecap="butt"><path d="M303.01139,244.05535c0,0 0.03202,0.66175 0.69258,0.62981c0.04145,-0.002 0.08017,-0.00649 0.11634,-0.01313c0.55418,0.72382 0.27712,1.4925 0.0199,2.37307c-0.35834,1.22674 -0.43573,2.70136 -0.91166,3.86714c-0.29621,0.72555 -0.77486,1.37499 -1.04429,2.11091c-0.35332,0.96503 -0.66147,2.7251 -1.77842,3.11069c-1.31185,0.45287 -3.38871,0.42713 -4.76976,0.43857c-6.84152,-0.27716 -13.20482,-4.30453 -18.96349,-7.75399c-1.77567,-1.06363 -2.99621,-2.01952 -3.85666,-3.92139c-0.11347,-0.25082 -0.57508,-0.9042 -0.58379,-1.23709c-0.03715,-1.41895 0.96739,-2.85494 1.6668,-4.02137c0.20634,-0.34412 0.62086,-1.46799 1.08178,-1.57355c0.8761,-0.20064 2.18686,0.20338 3.04649,0.43369c3.08839,1.02639 6.33813,1.40851 9.16807,3.10366l0.46242,0.27492c0.18524,0.12532 0.35603,0.13843 0.49455,0.10507c0.14218,-0.02228 0.29665,-0.10092 0.42069,-0.29159c0.69195,-0.94644 1.83175,-1.33097 2.9326,-1.71504c0.94444,-0.32949 1.84679,-0.92979 2.88401,-0.93825c2.6119,-0.02129 5.26888,2.21292 7.33007,3.62974c0.68971,0.42123 1.19146,0.96483 1.79162,1.50984l-0.19981,-0.12169z" fill="#e19c72"/><path d="M296.15175,241.60651c0.61547,0.24194 0.37353,0.85741 0.37353,0.85741l-0.25594,0.62649c-0.41369,0.69063 -0.79912,1.52922 -1.38819,2.09106c-2.50754,2.39166 -5.68586,1.40847 -8.27711,-0.1437c-2.17939,-1.30547 -4.61397,-2.78451 -7.19547,-3.07501c-1.79118,-0.20156 -3.82672,1.11811 -5.36122,1.84972c0,0 -0.59746,0.28355 -0.881,-0.31391c-0.28355,-0.59746 0.31391,-0.881 0.31391,-0.881c1.80433,-0.85184 3.97239,-2.17245 6.06965,-1.96988c2.76053,0.26663 5.41342,1.86552 7.73378,3.25542c2.07151,1.24084 4.63088,2.26544 6.67988,0.32575c0.49612,-0.46965 0.82499,-1.24029 1.17111,-1.81812l0.15963,-0.43071c0,0 0.24194,-0.61547 0.85741,-0.37353z" fill="#8f0700"/><path d="M275.66013,247.61026c-0.48965,-0.44449 -0.04516,-0.93416 -0.04516,-0.93416l0.4857,-0.48456c1.56072,-0.87059 3.84051,-2.5107 5.69354,-2.52273c1.15077,-0.00747 2.12699,0.83241 3.05625,1.38904c1.94476,1.16492 3.88953,2.32984 5.83429,3.49476c1.31071,0.78512 2.58677,1.53125 3.95225,2.15717c0.42626,0.19539 0.80952,0.78607 1.25416,0.63716c0.56957,-0.19075 0.92575,-1.2135 1.20248,-1.66751c1.1267,-1.84848 0.96092,-4.30156 1.78314,-6.23767c0,0 0.26684,-0.60509 0.87194,-0.33826c0.60509,0.26684 0.33826,0.87194 0.33826,0.87194c-1.03073,2.22054 -0.90279,4.82281 -2.24254,7.02448c-0.43251,0.71077 -0.70526,1.37159 -1.64551,1.63337c-0.90857,0.25297 -1.37605,-0.38522 -2.07765,-0.70553c-1.42436,-0.65027 -2.75274,-1.42376 -4.11619,-2.24047c-1.94476,-1.16492 -3.88953,-2.32984 -5.83429,-3.49476c-0.61035,-0.36561 -1.5766,-1.23204 -2.35822,-1.20118c-1.61462,0.06374 -3.71558,1.58904 -5.06397,2.35327l-0.15432,0.2205c0,0 -0.44449,0.48965 -0.93416,0.04516z" fill="#8f0700"/><path d="M303.67761,244.68639c-0.66055,0.03195 -0.6925,-0.6286 -0.6925,-0.6286l0.1998,0.12145c-0.60016,-0.54501 -1.10145,-1.08532 -1.79114,-1.50655c-2.06119,-1.41682 -4.70974,-3.6366 -7.32163,-3.6153c-1.03722,0.00846 -1.93389,0.61259 -2.87831,0.94207c-1.10086,0.38405 -2.2271,0.77129 -2.91905,1.71773c-0.12405,0.19066 -0.27518,0.26887 -0.41736,0.29114c-0.13853,0.03337 -0.30608,0.01941 -0.49132,-0.10593l-0.46031,-0.27573c-2.82994,-1.69515 -6.06784,-2.08734 -9.15623,-3.11372c-0.85963,-0.23031 -2.1693,-0.63619 -3.04541,-0.43554c-0.46091,0.10556 -0.87414,1.22656 -1.08048,1.57068c-0.69941,1.16643 -1.70232,2.59565 -1.66518,4.01461c0.00871,0.33288 0.47044,0.98433 0.58392,1.23515c0.86045,1.90187 2.08001,2.84976 3.85568,3.91339c5.75866,3.44946 12.08276,7.46143 18.92429,7.7386c1.38105,-0.01145 3.45227,0.01889 4.76412,-0.43398c1.11695,-0.38559 1.42152,-2.1408 1.77484,-3.10583c0.26943,-0.73591 0.74634,-1.3817 1.04255,-2.10725c0.47592,-1.16578 0.55171,-2.63377 0.91006,-3.86052c0.25723,-0.88056 0.53417,-1.64516 -0.02002,-2.36899c-0.03618,0.00663 -0.0749,0.01112 -0.11635,0.01312zM304.15601,243.48064c0.34365,-0.04042 0.58359,0.26099 0.58359,0.26099c1.91715,2.57254 -0.69325,7.12676 -1.63414,9.71726c-0.54038,1.48777 -0.89849,3.2099 -2.54235,3.89073c-1.35396,0.56077 -3.80845,0.50656 -5.26098,0.5227c-7.09858,-0.28546 -13.61015,-4.34824 -19.58374,-7.92644c-2.11217,-1.2652 -4.9077,-3.43898 -5.08076,-6.21409c-0.11957,-1.91752 1.29011,-3.84845 2.23522,-5.40421c0.37427,-0.61608 0.63692,-1.25208 1.41538,-1.50574c1.0771,-0.35096 2.775,0.13934 3.84105,0.42414c3.19948,1.06448 6.52068,1.48766 9.45616,3.24603l0.00817,0.00489c1.9755,-2.00729 6.35892,-3.41688 8.89907,-2.38499c1.92118,0.78045 3.91915,2.28181 5.62403,3.4532c0.74755,0.46844 1.30414,1.04225 1.95716,1.6348z" fill="#000000"/></g><g><path d="M321.21038,236.41388c0,0 -5.19646,2.32701 -6.98542,4.50945c-2.25329,2.74887 -5.4656,10.68012 -5.4656,10.68012c0,0 -7.36933,-2.70981 -10.62555,-4.77791c-3.78993,-2.40709 -10.75684,-8.80264 -10.75684,-8.80264c0,0 -1.17274,-2.4017 -0.65469,-4.51619c0.44942,-1.83432 2.00889,-7.12173 4.58742,-9.74891c2.4201,-2.46578 13.93578,-5.71009 13.93578,-5.71009z" fill="#82615a" stroke="#000000" stroke-width="3" stroke-linecap="round"/><path d="M320.49152,234.91977c0.02895,-0.08046 0.07408,-0.1566 0.13561,-0.22348c0.12201,-0.13263 0.28565,-0.20406 0.45243,-0.21271l0.29676,-0.3226l0.01412,-0.02592l0.05636,-0.14828l0.05317,-0.07637l0.03617,-0.08575l0.22805,-0.30372l0.02608,-0.02116l0.01606,-0.02949l0.14405,-0.15658l0.09936,-0.26143l0.04099,-0.05888l0.0235,-0.06779l0.08661,-0.13261l0.11921,-0.31365l0.04099,-0.05888l0.0235,-0.06779l0.08661,-0.13261l0.11921,-0.31365l0.03096,-0.04446l0.01498,-0.05207l0.17465,-0.30148l0.01262,-0.01301l0.00593,-0.01712l0.0797,-0.12203l0.07069,-0.20943l0.06234,-0.50234l-0.03509,-0.32287l0.00065,-0.00472l-0.00159,-0.00449l-0.04786,-0.50617l0.01479,-0.09737l-0.0041,-0.0984l0.00874,-0.04238l-0.06669,-0.20124l-0.00131,-0.01739l-0.00857,-0.01519l-0.07891,-0.28682l-0.14717,-0.30737l-0.14015,-0.27707l-0.25903,-0.49266l-0.01342,-0.05505l-0.03009,-0.04802l-0.16112,-0.49496l-0.01954,-0.01798l-0.00389,-0.00047l-0.00765,-0.01015l-0.03611,-0.03323l-0.07701,-0.117l-0.08426,-0.11189l-0.01913,-0.04519l-0.00699,-0.01061l0.00088,-0.00384l-0.12395,-0.29281l-0.59793,-0.83216l-0.48132,-0.58895l-0.61225,-0.66084l-3.67083,-3.37694l-1.00445,-0.67743l-0.02407,-0.02676l-0.03232,-0.01583l-0.59931,-0.50507l-0.459,-0.21655l-0.74885,-0.24888l-0.01212,-0.0077l-0.01427,-0.00169l-0.93596,-0.35574l-0.88793,-0.28831l-0.70261,-0.12019l-0.354,-0.05558l-0.4091,-0.00698l-0.02142,-0.00574l-0.0219,0.00358l-0.42941,-0.03559l-0.01036,-0.00353l-0.01085,0.00142l-0.45908,-0.053l-0.65915,0.02748l-1.15971,0.17804l-0.03708,-0.00344l-0.03572,0.01053l-0.25497,0.01063l-0.33354,0.08129l-0.06587,-0.00038l-0.06318,0.01863l-0.29158,0.01216l-0.06113,0.02927l-0.09543,0.0195l-0.08982,0.03769l-0.16993,0.0261l-0.09249,0.03517l-0.02574,0.00307l-0.02236,0.01315l-0.14173,0.04178l-0.14562,0.08056l-0.07038,0.01875l-0.06278,0.03691l-0.11697,0.03448l-0.17812,0.11723l-0.06873,0.02409l-0.05976,0.04163l-0.09104,0.03463l-0.7088,0.77049l-0.00315,0.03134l-0.01827,0.0508l0.01001,0.03144l-0.0627,0.11512l-0.04436,0.12336l-0.03014,0.01342l-0.02583,0.04742l-0.1832,0.19914l-0.00499,0.01112l-0.03718,0.04724l-0.021,0.05633l-0.10641,0.15493l-0.04414,0.11612l-0.01136,0.01632l-0.0035,0.01958l-0.04895,0.10902l-0.02586,0.03284l-0.0124,0.03991l-0.10012,0.16465l-0.04685,0.0463l-0.00504,0.00925l-0.06188,0.17556l-0.00899,0.0136l0.00078,0.00193l0.03895,0.29258l-0.00343,0.03039l0.00864,0.02933l0.00774,0.18565l0.03929,0.13328l0.00145,0.03469l0.01442,0.03158l0.02661,0.14336l0.00518,0.00532l-0.00067,0.01898l0.00336,0.01811l-0.00932,0.15167l-0.00254,0.07239l0.38366,1.00878l0.00638,0.05362l0.023,0.02365l-0.00386,0.10999l0.05417,0.12061l0.02207,0.12329l0.00671,0.02279l0.00003,0.00007l0.21942,0.34934l0.00805,0.02464l0.01727,0.01934l0.24876,0.47314l0.29744,0.46768l0.25416,0.38616l0.00649,0.01849l0.01363,0.01409l0.30749,0.53186l0.1608,0.24431l0.00375,0.01067l0.00807,0.00793l0.10864,0.17768l0.29039,0.31152l0.0118,0.02132l0.01944,0.0147l0.47951,0.59516l0.00488,0.01054l0.00902,0.00732l0.59986,0.79904l0.74144,0.77931l0.59439,0.54681l0.72665,0.5235l0.9679,0.62664l0.00709,0.00759l0.00972,0.00366l1.05504,0.72979l1.13493,0.59802l0.0293,0.02621l0.03683,0.01374l0.8811,0.60516l0.01237,0.01399l0.01711,0.00748l0.62905,0.48518l0.80097,0.35959l0.01476,0.01163l0.01828,0.00433l0.7654,0.39602l0.00228,0.00201l0.00295,0.00073l0.56763,0.30015l0.59807,0.11201l0.6155,0.10717l0.00397,0.00176l0.00433,-0.00025l0.67325,0.12608l0.33121,0.0333l0.24792,0.01216l0.20704,-0.00863l0.26285,-0.03499l0.0047,0.00053l0.00442,-0.00168l0.28358,-0.03375l0.23047,-0.0733l0.00721,-0.00045l0.00624,-0.00366l0.42275,-0.12461l0.01611,-0.00068l0.01427,-0.0075l0.13767,-0.03356l0.00676,-0.00493l0.00195,-0.00559l0.01534,-0.00702l0.02595,-0.0189l0.13563,-0.05492l0.13309,-0.06081l0.03157,-0.00586l0.01563,-0.00633l0.0054,0.00242l0.00187,-0.00035l0.01861,-0.01225l0.04293,-0.01505l0.03504,-0.02901l0.02412,-0.01155zM322.5849,234.68425l-0.01142,0.04404l-0.07453,0.13684l-0.05513,0.05992l-0.03894,0.07149l-0.66524,0.72313l-0.2847,0.18738l-0.04636,-0.01059l-0.07777,0.06438l-0.12738,0.11263l-0.01015,-0.00084l-0.1371,0.06565l-0.02534,0.01668l-0.00016,0.00048l-0.00181,0.00083l-0.06535,0.04301l-0.12367,0.04334l-0.11919,0.05445l-0.0383,0.00711l-0.03451,0.02515l-0.11911,0.04822l-0.11373,0.0598l-0.24947,0.06081l-0.40089,0.11818l-0.28365,0.09021l-0.06315,0.00398l-0.05914,0.02249l-0.34142,0.04063l-0.28803,0.03834l-0.03038,-0.00344l-0.02932,0.00864l-0.267,0.01113l-0.02995,-0.00617l-0.02998,0.00596l-0.29481,-0.01446l-0.01661,-0.00502l-0.01718,0.0025l-0.37602,-0.03782l-0.02696,-0.00969l-0.0286,0.00172l-0.69673,-0.13047l-0.6155,-0.10717l-0.00397,-0.00176l-0.00432,0.00026l-0.70087,-0.13125l-0.09061,-0.04157l-0.0968,-0.02384l-0.65377,-0.34569l-0.74648,-0.38623l-0.85546,-0.38405l-0.06141,-0.04835l-0.07162,-0.0313l-0.67643,-0.52172l-0.83417,-0.57293l-1.13591,-0.59854l-0.03012,-0.02694l-0.03782,-0.01424l-1.07945,-0.74668l-0.97321,-0.63009l-0.01151,-0.01231l-0.01565,-0.00624l-0.77208,-0.55622l-0.02592,-0.03067l-0.03527,-0.0192l-0.63969,-0.58848l-0.01238,-0.0188l-0.019,-0.01206l-0.78322,-0.82321l-0.01933,-0.0341l-0.03043,-0.02471l-0.61623,-0.82083l-0.45742,-0.56777l-0.31972,-0.34298l-0.03254,-0.05882l-0.04792,-0.04713l-0.13777,-0.22533l-0.16527,-0.25111l-0.00648,-0.01849l-0.01363,-0.01408l-0.30749,-0.53186l-0.24647,-0.37448l-0.00175,-0.00501l-0.00386,-0.00366l-0.31484,-0.49504l-0.00879,-0.0264l-0.01854,-0.02074l-0.24963,-0.4748l-0.21567,-0.34338l-0.00584,-0.01786l-0.01282,-0.01375l-0.03696,-0.06681l-0.0066,-0.00342l-0.00537,-0.01822l-0.00893,-0.01613l-0.03911,-0.14683l-0.02706,-0.09179l-0.0808,-0.17989l-0.01485,-0.08293l-0.0294,-0.03024l0.00393,-0.11201l-0.00687,-0.03833l-0.39491,-1.03839l-0.00638,-0.05362l-0.02301,-0.02364l0.00459,-0.13101l-0.01549,-0.13017l0.02095,-0.02548l0.0019,-0.05396l0.0035,-0.01215l-0.05236,-0.17763l-0.00339,-0.08134l-0.02302,-0.07809l-0.00989,-0.23702l-0.03276,-0.24605l-0.0314,-0.16912l0.00453,-0.07366l-0.02065,-0.03346l0.02976,-0.11476l0.00727,-0.11832l0.03,-0.02541l0.01853,-0.07144l0.04918,-0.0903l0.05245,-0.1488l-0.0004,-0.00126l0.0024,-0.00442l0.0236,-0.06698l0.07337,-0.11104l0.06366,-0.11688l0.03242,-0.03525l0.0447,-0.07352l0.02412,-0.05373l0.06541,-0.17207l0.04533,-0.06511l0.02771,-0.07434l0.11753,-0.17113l0.02452,-0.05462l0.06577,-0.08353l0.05085,-0.09336l0.11994,-0.13038l0.03305,-0.09189l0.04342,-0.13973l0.01668,-0.02744l0.00571,-0.01587l0.00541,-0.00241l0.07231,-0.11893l0.04686,-0.04629l0.0315,-0.05784l0.84072,-0.91388l0.00114,-0.00734l0.01558,-0.01086l0.01248,-0.01356l0.12693,-0.08354l0.12469,-0.08684l0.01722,-0.00655l0.01587,-0.01045l0.00725,0.00166l0.12877,-0.04898l0.19968,-0.13142l0.09229,-0.03235l0.0843,-0.04959l0.14174,-0.04178l0.14562,-0.08056l0.07037,-0.01874l0.06277,-0.03692l0.18701,-0.05513l0.13423,-0.05105l0.06986,-0.00831l1.22634,0.8872l-1.01914,-0.93628l0.02568,-0.0123l0.00061,-0.00117l0.00483,-0.00142l0.06405,-0.03066l0.13039,-0.02664l0.87638,0.59979l-0.67777,-0.64038l0.1963,0.7399l0.34708,-0.04041l0.109,-0.37899l-0.02803,-0.41391l0.06586,0.00039l0.06318,-0.01863l0.2838,-0.01184l1.15971,-0.17804l0.03708,0.00344l0.03572,-0.01053l0.74758,-0.03117l0.05138,0.01059l0.05201,-0.0068l0.50004,0.05772l0.39716,0.03292l0.43331,0.00741l0.04492,0.01205l0.04635,-0.00414l0.40384,0.0634l0.00429,0.00181l0.00464,-0.00035l0.75427,0.12903l0.04437,0.01953l0.04835,0.00334l0.94896,0.30813l0.01415,0.00885l0.01657,0.00198l0.93809,0.35655l0.77324,0.257l0.03405,0.02162l0.03957,0.00785l0.57294,0.27031l0.06665,0.05454l0.07734,0.03787l0.63822,0.53786l1.01641,0.68549l0.03371,0.03747l0.04426,0.02411l3.72692,3.42855l0.01482,0.02251l0.02256,0.01474l0.64415,0.69529l0.01011,0.0184l0.01683,0.01255l0.50731,0.62075l0.00895,0.01901l0.01604,0.01358l0.65305,0.90888l0.02735,0.06888l0.04458,0.05921l0.12217,0.2886l0.07963,0.07326l0.00978,0.00202l0.09198,0.14682l0.09524,0.14471l-0.00223,0.00975l0.19331,0.59388l0.23533,0.44758l0.00127,0.0052l0.00351,0.00405l0.14575,0.28813l0.00164,0.00721l0.00471,0.0057l0.17578,0.36711l0.01192,0.05833l0.02924,0.05186l0.09005,0.32734l0.11513,0.34743l0.00765,0.00674l0.00707,0.16961l0.01271,0.16927l-0.00681,0.00759l-0.02326,0.11281l0.03809,0.4029l0.0429,0.39479l-0.0105,0.07637l0.00935,0.07652l-0.08008,0.64524l-0.02427,0.06286l-0.00542,0.06717l-0.11902,0.35266l-0.04539,0.07074l-0.02753,0.07941l-0.11602,0.17764l-0.1389,0.23976l-0.12556,0.33034l-0.04099,0.05888l-0.0235,0.06779l-0.08661,0.13261l-0.11921,0.31365l-0.04099,0.05888l-0.0235,0.06779l-0.08661,0.13261l-0.11921,0.31365l-0.07157,0.10279l-0.0599,0.10999l-0.20795,0.22604l-0.15211,0.20259l-0.03909,0.10286z" fill="#82615a" stroke="none" stroke-width="0.5" stroke-linecap="butt"/><path d="M320.45817,234.94747l-0.02416,0.01159l-0.03513,0.02908l-0.04301,0.01512l-0.01864,0.01228l-0.00187,0.00035l-0.0054,-0.00242l-0.01567,0.00636l-0.03163,0.0059l-0.13335,0.06103l-0.13589,0.05512l-0.02601,0.01896l-0.01537,0.00704l-0.00196,0.0056l-0.00679,0.00495l-0.13791,0.03375l-0.01431,0.00753l-0.01614,0.00069l-0.42356,0.12521l-0.00625,0.00367l-0.00723,0.00047l-0.23095,0.07363l-0.28411,0.0341l-0.00443,0.00169l-0.0047,-0.00053l-0.26337,0.03532l-0.20746,0.00888l-0.24839,-0.01188l-0.33185,-0.03295l-0.67461,-0.12542l-0.00434,0.00026l-0.00397,-0.00176l-0.61689,-0.10659l-0.59953,-0.11149l-0.56901,-0.29976l-0.00295,-0.00072l-0.00228,-0.00201l-0.76752,-0.39557l-0.01835,-0.00432l-0.0148,-0.01162l-0.80359,-0.35928l-0.63135,-0.48512l-0.01718,-0.00748l-0.01243,-0.01399l-0.88486,-0.60552l-0.03699,-0.01375l-0.02943,-0.02623l-1.14014,-0.59952l-1.06004,-0.73247l-0.00976,-0.00368l-0.00713,-0.00762l-0.97182,-0.62993l-0.72909,-0.52636l-0.59617,-0.54956l-0.74315,-0.78301l-0.60086,-0.80246l-0.00902,-0.00735l-0.00489,-0.01058l-0.47991,-0.59754l-0.01945,-0.01476l-0.01181,-0.02141l-0.29051,-0.31269l-0.10868,-0.17831l-0.00807,-0.00796l-0.00374,-0.0107l-0.16083,-0.24515l-0.30747,-0.53356l-0.01363,-0.01413l-0.00648,-0.01855l-0.25407,-0.3873l-0.29729,-0.46896l-0.24856,-0.47434l-0.01726,-0.01939l-0.00804,-0.02472l-0.21926,-0.35014l-0.00003,-0.00007l-0.00671,-0.02286l-0.02201,-0.12359l-0.05412,-0.12088l0.00393,-0.11027l-0.02299,-0.02369l-0.00636,-0.05374l-0.383,-1.01086l0.0026,-0.07255l0.00945,-0.15201l-0.00335,-0.01815l0.00069,-0.01902l-0.00517,-0.00534l-0.0265,-0.14364l-0.01441,-0.03163l-0.00142,-0.03476l-0.03919,-0.13352l-0.00757,-0.18603l-0.00862,-0.02938l0.00346,-0.03045l-0.0387,-0.29313l-0.00076,-0.00194l0.00901,-0.01365l0.06205,-0.17595l0.00505,-0.00927l0.04691,-0.04644l0.10033,-0.16506l0.01245,-0.04l0.0259,-0.03292l0.04908,-0.10927l0.00352,-0.01961l0.01139,-0.01636l0.04428,-0.11639l0.10663,-0.15531l0.02107,-0.05645l0.03726,-0.04735l0.00501,-0.01114l0.18354,-0.19969l0.02589,-0.04753l0.03017,-0.01347l0.04452,-0.12362l0.06289,-0.11538l-0.00997,-0.03148l0.01835,-0.05091l0.00319,-0.0314l0.71032,-0.77246l0.09117,-0.03478l0.05988,-0.04176l0.06883,-0.02421l0.17844,-0.1176l0.11716,-0.03467l0.0629,-0.03705l0.07048,-0.01885l0.1459,-0.08084l0.14196,-0.042l0.02239,-0.0132l0.02579,-0.0031l0.09265,-0.03533l0.17019,-0.02633l0.08999,-0.03785l0.09558,-0.01965l0.06125,-0.02938l0.29201,-0.01255l0.0633,-0.01872l0.06597,0.00031l0.33417,-0.08181l0.25541,-0.01097l0.0358,-0.01059l0.03714,0.0034l1.16216,-0.17967l0.66065,-0.0283l0.46014,0.05249l0.01088,-0.00143l0.01039,0.00352l0.4305,0.03514l0.02196,-0.00361l0.02148,0.00573l0.41021,0.00658l0.35498,0.05528l0.70467,0.11967l0.89074,0.28788l0.93929,0.35562l0.01431,0.0017l0.01216,0.00769l0.75172,0.24913l0.46085,0.21689l0.60203,0.50582l0.03246,0.01588l0.02418,0.02681l1.00898,0.67947l3.68304,3.39221l0.61294,0.66362l0.48164,0.59116l0.59807,0.83495l0.12393,0.29372l-0.00087,0.00384l0.00699,0.01065l0.01912,0.04533l0.08425,0.11222l0.07698,0.11735l0.03611,0.03332l0.00765,0.01018l0.00389,0.00047l0.01954,0.01802l0.16097,0.49637l0.03006,0.04814l0.0134,0.0552l0.25882,0.49391l0.14001,0.27773l0.14701,0.30808l0.07874,0.28748l0.00856,0.01522l0.00129,0.01744l0.06656,0.20168l-0.00877,0.04249l0.00403,0.09863l-0.01486,0.09761l0.04747,0.50731l0.00159,0.00449l-0.00065,0.00473l0.03482,0.32355l-0.06282,0.50346l-0.07091,0.20993l-0.07985,0.12235l-0.00596,0.01717l-0.01263,0.01305l-0.17504,0.30225l-0.01504,0.05218l-0.03102,0.04459l-0.11962,0.31436l-0.08681,0.13294l-0.02358,0.06794l-0.0411,0.05903l-0.11965,0.31432l-0.08683,0.13293l-0.02359,0.06793l-0.0411,0.05903l-0.09976,0.26195l-0.14436,0.15699l-0.01611,0.02955l-0.02613,0.02122l-0.22864,0.30443l-0.03629,0.08591l-0.05332,0.07655l-0.0566,0.14855l-0.01417,0.02597l-0.29749,0.32335c-0.16677,0.00866 -0.33124,0.08088 -0.45324,0.2135c-0.06152,0.06688 -0.10712,0.14343 -0.13607,0.22389z" fill="#82615a" stroke="none" stroke-width="0.5" stroke-linecap="butt"/><path d="M301.56626,218.15561c0.91573,-0.40558 2.61378,-0.87807 3.6208,-0.56457c0.24246,-0.13483 0.55381,-0.10664 0.76916,0.09147c0.2688,0.24727 0.28623,0.66563 0.03896,0.93443c-0.03877,0.04213 -0.08172,0.07809 -0.12766,0.10782c-0.17885,0.34567 -3.00169,0.46898 -3.40582,0.53945c-2.49117,0.4344 -5.6032,2.21375 -7.78124,3.50247c-2.02728,1.19954 -3.64643,3.36442 -5.30106,4.98056c-0.52583,0.51361 -1.11075,-0.00157 -1.11991,-0.62664c-0.01524,-1.04002 1.3963,-1.54236 2.11384,-2.29537c3.23502,-3.39493 6.99531,-4.81041 11.19293,-6.6696z" fill="#000000" stroke="none" stroke-width="0.5" stroke-linecap="butt"/></g></g><g stroke="none" stroke-width="0.5" stroke-linecap="butt"><path d="M272.2559,176.80915c4.12026,0.30011 5.89759,4.25875 7.69351,7.58967c0.27959,0.56504 0.60564,1.28174 0.52896,1.88388c-0.18363,0.18343 -0.3703,0.36383 -0.56299,0.53734c-3.15669,1.87368 -6.01061,4.56958 -8.70006,7.04954c-2.04008,1.88117 -4.44169,3.37658 -6.49763,5.24144c-1.18972,1.12968 -2.65784,1.86156 -3.8622,2.97362c-1.87226,1.72877 -3.4654,3.4591 -5.54155,4.99784c-1.97241,1.46185 -4.44901,2.15405 -6.74527,2.94905c-0.61851,0.11364 -1.54932,0.4384 -2.14671,0.07056c-1.71472,-1.05583 -2.33834,-4.8464 -1.65928,-6.60484c0.7657,-1.98282 2.411,-3.93592 4.0081,-5.34566c1.36443,-1.36276 2.71634,-3.0493 3.87717,-4.57389c2.27882,-2.99291 5.47709,-5.73218 8.26866,-8.28101c2.11264,-1.2514 3.77422,-3.28978 5.8155,-4.67573c1.52063,-1.03245 3.18901,-1.84545 4.64791,-2.97886c0.35428,-0.27523 0.62187,-0.55899 0.87589,-0.83295z" fill="#e6a075"/><path d="M279.07162,176.66039c0.39545,0.51101 -0.13383,0.9012 -0.13383,0.9012l-0.64439,0.42556c-0.23532,0.0704 -0.47064,0.1408 -0.70596,0.21119c0,0 -0.02923,0.00874 -0.077,0.01638c-0.01336,0.01136 -0.0214,0.01729 -0.0214,0.01729l-0.60117,0.44271c-2.33623,1.48984 -4.3409,3.43935 -6.50811,5.15058c-1.57727,0.85868 -2.6744,2.06588 -4.13242,3.09138c-1.63588,1.15059 -3.35037,2.05877 -4.82887,3.42272c-1.81585,1.67517 -3.06348,3.59096 -4.57797,5.50031c-1.2721,2.12071 -3.37295,4.29974 -5.25484,5.9043c-1.88277,1.60531 -3.50954,2.86009 -4.23011,5.25713c0,0 -0.18616,0.61875 -0.82009,0.44406c-0.63393,-0.1747 -0.44777,-0.79346 -0.44777,-0.79346c1.46365,-4.86126 7.08695,-7.22637 9.65871,-11.52191c1.56551,-1.9838 2.88159,-3.98439 4.76815,-5.71914c1.52456,-1.40188 3.287,-2.35828 4.97477,-3.53952c1.46838,-1.0277 2.56139,-2.24908 4.15683,-3.10788c2.15356,-1.71565 4.15758,-3.65068 6.48772,-5.13686l0.56426,-0.41645c0,0 0.12124,-0.08939 0.29104,-0.12656c0.11375,-0.08147 0.22207,-0.11387 0.22207,-0.11387c0.23532,-0.0704 0.47064,-0.14079 0.70596,-0.21119l0.22968,-0.2188c0,0 0.52929,-0.39019 0.92474,0.12082z" fill="#961308"/><path d="M273.79767,175.60774c-0.09254,0.04031 -0.17972,0.08261 -0.26229,0.12672c3.80745,0.9012 5.71318,4.6408 7.57448,8.09329c0.20439,0.42892 0.38009,0.85705 0.49549,1.27825c0.3634,-0.3681 0.73661,-0.72431 1.14084,-1.04453c0.74608,-0.59103 1.97955,-1.23137 2.31268,-2.18601c0.81089,-2.32373 -1.50762,-5.38305 -3.32784,-6.5519c-0.52061,-0.3343 -1.68366,-0.27275 -2.28646,-0.38827c-1.93723,-0.03996 -3.74988,0.32033 -5.64689,0.67245zM271.36652,177.66434c-1.4589,1.13341 -3.12298,1.94837 -4.64362,2.98082c-2.04129,1.38596 -3.69025,3.4256 -5.80289,4.677c-2.79156,2.54883 -5.96684,5.26142 -8.24566,8.25432c-1.16084,1.5246 -2.51444,3.20298 -3.87887,4.56575c-1.5971,1.40973 -3.24452,3.35862 -4.01023,5.34144c-0.67906,1.75844 -0.06034,5.54332 1.65438,6.59914c0.59739,0.36783 1.52675,0.04191 2.14526,-0.07173c2.29626,-0.795 4.76781,-1.49016 6.74022,-2.95201c2.07615,-1.53873 3.66129,-3.2712 5.53356,-4.99998c1.20436,-1.11206 2.65851,-1.84175 3.84824,-2.97143c2.05595,-1.86486 4.44201,-3.33896 6.48209,-5.22014c2.68944,-2.47997 5.54476,-5.16502 8.70144,-7.0387c0.19269,-0.17351 0.37951,-0.3535 0.56314,-0.53694c0.07669,-0.60214 -0.24832,-1.31648 -0.52791,-1.88152c-1.79592,-3.33092 -3.56338,-7.27909 -7.68364,-7.57919c-0.25402,0.27396 -0.52124,0.55793 -0.87552,0.83316zM272.8419,174.65321c0.22508,-0.48239 0.77705,-0.33027 0.77705,-0.33027l-0.12867,0.03528c2.05968,-0.38157 4.00821,-0.75021 6.10956,-0.70143c0.86586,0.1625 2.09842,0.1276 2.86158,0.58779c0.4856,0.29283 0.73618,0.85439 1.16131,1.22532c1.78921,1.5611 3.56982,4.2859 2.68453,6.81436c-0.44178,1.26176 -1.72094,1.97748 -2.73011,2.76854c-0.71379,0.55952 -1.33378,1.24195 -1.9734,1.90146c-0.03227,0.08878 -0.07028,0.17671 -0.1144,0.26371c4.20681,-0.32098 8.08683,-3.27127 10.65925,-6.27401c2.86785,-2.5181 4.76577,-5.47958 5.05042,-9.19074c0.05517,-0.71928 0.40626,-2.93132 -0.07417,-3.51392c-0.2817,-0.34159 -1.42164,-0.90627 -1.78291,-1.10087c-1.86106,-0.34099 -3.79141,-0.88768 -5.70551,-0.81856c-4.61099,0.16652 -9.35683,1.84369 -13.57053,3.58214c-1.92465,0.83174 -4.49423,2.09381 -5.26937,4.10537c-0.22278,0.57814 -0.70379,1.16878 -0.42504,1.68474c0.14626,-0.08352 0.29088,-0.10007 0.29088,-0.10007c0.37819,-0.04222 0.74173,-0.06205 1.09152,-0.06105c0.31738,-0.31896 0.6457,-0.61981 1.08801,-0.8778zM272.09778,194.79174c-2.04407,1.88015 -4.42854,3.35691 -6.48494,5.22279c-1.18788,1.12047 -2.63873,1.84705 -3.82949,2.95371c-1.9065,1.77185 -3.54278,3.55414 -5.67258,5.11672c-2.12151,1.5565 -4.72686,2.32262 -7.19338,3.1672c-1.05131,0.19611 -2.14381,0.5069 -3.15012,-0.0556c-2.29606,-1.28344 -3.08681,-5.81598 -2.2313,-8.11914c0.81326,-2.18942 2.60939,-4.2897 4.34661,-5.85555c1.32722,-1.29923 2.603,-2.93724 3.73185,-4.40244c2.37652,-3.08464 5.61147,-5.90073 8.51564,-8.52c2.13478,-1.25101 3.8125,-3.31758 5.86743,-4.72164c1.40418,-0.95943 2.91926,-1.72041 4.29551,-2.72394l-0.83868,-0.19227c-0.80107,-1.15689 -0.36756,-1.8835 0.10688,-3.09814c0.93283,-2.38819 3.69559,-3.836 5.98777,-4.83953c4.35807,-1.79771 9.26971,-3.52747 14.03869,-3.68849c2.0887,-0.07053 4.18812,0.49786 6.2142,0.89291c0.79007,0.41659 1.90888,0.90635 2.45809,1.64117c0.56253,0.75265 0.31199,2.49869 0.3046,3.3782c-0.0368,4.37965 -2.13502,7.94006 -5.46692,10.88133c-3.08023,3.61466 -7.85156,6.88247 -12.91148,6.68909c-0.1284,0.02321 -0.27826,0.00848 -0.4333,-0.09398c-2.75371,1.78499 -5.27057,4.17433 -7.65507,6.3676z" fill="#000000"/><path d="M271.56748,176.42745c-0.32275,0.40757 -0.59218,1.01141 -0.87076,1.49825c-0.06546,0.1144 -0.39578,0.18676 -0.64024,0.23185c-0.552,-1.21899 -1.38602,-2.06978 -0.74508,-4.01514c0.9161,-2.78048 5.02958,-4.23781 6.95681,-6.23884c0.35987,-0.37365 3.16183,-4.98932 3.20696,-4.99312c2.32841,-0.19602 5.19231,0.64498 6.89827,2.34423c3.56161,3.5476 -1.21448,9.62077 -4.19877,12.02914c-0.76982,0.62126 -1.54993,0.98457 -2.16405,1.76876c-0.22579,0.28832 -0.47781,0.57741 -0.71084,0.84997c-0.13637,0.1595 -0.24095,0.68535 -0.36353,0.51501c-2.11277,-2.93577 -3.72616,-2.37193 -5.65337,-4.34742c-0.33013,-0.33839 -1.75068,-1.51484 -2.32463,-0.94089c-0.33112,0.33111 0.01335,0.78324 0.60923,1.29819z" fill="#b3c976"/><path d="M270.67622,177.94243c0.27858,-0.48684 0.54684,-1.09224 0.86959,-1.4998c-0.59589,-0.51496 -0.89473,-0.99346 -0.56361,-1.32458c0.57394,-0.57395 1.99052,0.59637 2.32065,0.93477c1.92722,1.97548 3.51888,1.40258 5.63166,4.33835c0.12258,0.17033 0.22589,-0.35539 0.36227,-0.5149c0.23303,-0.27256 0.48228,-0.56119 0.70807,-0.84951c0.61412,-0.78419 1.38513,-1.14357 2.15495,-1.76483c2.98429,-2.40837 7.75458,-8.44312 4.19297,-11.99072c-1.70597,-1.69925 -4.55255,-2.53054 -6.88096,-2.33452c-0.04514,0.0038 -2.83089,4.61634 -3.19076,4.98999c-1.92723,2.00103 -6.02805,3.42826 -6.94415,6.20875c-0.64094,1.94536 0.18841,2.78684 0.74041,4.00583c0.24445,-0.0451 0.53344,-0.08444 0.59891,-0.19884zM276.17858,179.15684c-0.5579,-0.26537 -2.15258,-1.03369 -3.45403,-1.86176c-0.63745,1.01697 -1.94226,2.58234 -2.76105,2.2656c-0.07927,0.03361 -0.16647,0.05221 -0.258,0.05221c-0.00321,0 -0.00642,-0.00002 -0.00963,-0.00007c-2.20325,-0.02293 -2.02517,-4.97352 -1.58646,-5.97996c1.40474,-3.22261 5.366,-4.73625 7.71247,-7.19789c1.11251,-1.16711 1.51542,-4.18241 3.11672,-4.76791c2.72777,-0.99739 7.06587,1.07951 8.79479,3.15444c4.14074,4.96943 -2.30632,11.56306 -6.02408,14.34293c-1.02992,0.7701 -1.93004,3.33641 -3.32931,3.11006c-0.13361,-0.02161 -0.189,-0.19847 -0.25238,-0.31805c-0.60985,-1.15063 -0.65971,-2.18633 -1.94902,-2.7996z" fill="#000000"/></g><path d="M281.50467,180.57793c0.44386,0.47171 -0.04555,0.9086 -0.04555,0.9086l-0.65961,0.57575c-3.12989,1.30273 -5.10508,3.48013 -7.50399,5.57509c-1.50772,0.56942 -2.31258,1.78844 -3.61682,2.66894c-3.8151,2.57562 -6.87508,5.86403 -10.08882,9.10032c-0.93346,1.14904 -1.90836,2.18395 -3.1574,3.00574c-1.06464,0.70046 -2.49108,1.04722 -3.4619,1.88903c-0.4393,0.38092 -0.71181,0.91723 -1.133,1.31707c-1.13771,1.08005 -2.09032,2.0037 -2.19181,3.63892c0,0 -0.0442,0.64193 -0.70342,0.60562c-0.65922,-0.03631 -0.61501,-0.67823 -0.61501,-0.67823c0.40342,-5.42698 7.24786,-6.91067 10.27192,-10.61904c3.27951,-3.31296 6.42252,-6.71014 10.34157,-9.3186c1.32443,-0.88152 2.12593,-2.12998 3.6671,-2.7008c2.2974,-2.10487 4.40455,-4.32727 7.48646,-5.56432l0.47702,-0.4389c0,0 0.48941,-0.43688 0.93326,0.03484z" fill="#961308" stroke="none" stroke-width="0.5" stroke-linecap="butt"/><g stroke="none" stroke-width="0.5" stroke-linecap="butt"><path d="M296.70818,93.39585c0,0 -0.0666,-0.12209 -0.10724,-0.3019c-0.21086,-0.23613 -0.30025,-0.48644 -0.30025,-0.48644c-1.05997,-2.99367 -4.00685,-7.33224 -2.08489,-10.63191c1.44605,-2.48263 5.35839,-2.74324 7.39724,-0.96399c1.20163,1.04863 1.95716,2.87286 2.4614,4.52935c1.66754,-1.35718 4.28948,-2.04972 5.43412,0.30511c0.39031,0.80298 0.33472,1.67225 0.11652,2.52809c1.33394,-0.57748 2.77475,-0.83911 4.29346,-0.42755c2.21612,0.60057 2.80162,2.47824 1.57031,4.36466c-0.14761,0.22614 -0.32106,0.43175 -0.50696,0.62758c1.35823,0.37262 2.56787,1.06852 3.23359,2.5081c1.19862,2.59195 0.4404,8.03525 -3.08294,8.47906c-1.90576,0.24005 -2.69674,-1.07508 -4.18806,-1.83832c-2.11616,-1.08302 -4.34957,-2.05656 -6.50424,-3.07023c-2.53808,-1.26928 -5.08359,-2.45512 -7.10548,-4.49546l-0.62658,-1.12618zM316.29002,96.32501c-0.59409,-1.35154 -2.27251,-1.52823 -3.53032,-1.64263c-0.2208,0.02231 -0.47961,-0.02006 -0.71655,-0.23194c-0.16612,-0.11848 -0.31785,-0.29969 -0.37113,-0.57567c-0.08242,-0.26872 -0.03345,-0.49994 0.05767,-0.68251c0.11537,-0.31331 0.33982,-0.47278 0.555,-0.55312c0.49446,-0.4716 2.25398,-1.91291 1.70243,-2.52448c-0.32559,-0.36101 -0.97053,-0.07712 -1.45666,-0.07237c-1.8504,0.01809 -2.55016,0.3595 -4.02644,1.40607c-0.13,0.14919 -0.32227,0.27185 -0.60662,0.30832c-0.19657,0.04415 -0.43738,0.04557 -0.67359,-0.08797c-0.24596,-0.11459 -0.38477,-0.31138 -0.4631,-0.49699c-0.16998,-0.31665 -0.14565,-0.59426 -0.05675,-0.81234l0.00959,-0.07516c0.39604,-1.18338 1.09082,-2.30956 0.84725,-3.61072c-0.07833,-0.41843 -0.3978,-0.26035 -0.68504,-0.18468c-1.00816,0.26558 -1.57946,0.39295 -2.06522,1.31431c0,0 -0.14245,0.23744 -0.40309,0.39651c-0.13164,0.37713 -0.45186,0.83581 -1.23074,0.83581c-1.32264,0 -1.32264,-1.32264 -1.32264,-1.32264l0.03949,-0.13328c-0.36777,-1.49027 -0.93845,-3.46684 -2.0571,-4.608c-0.68497,-0.69876 -2.82041,-0.68542 -3.31872,0.3074c-1.20553,2.40187 1.51932,6.34107 2.27414,8.43887c0,0 0.19224,0.53828 -0.02989,1.03351l0.2672,0.50287c1.76954,1.74489 4.13847,2.76135 6.33487,3.85935c2.17463,1.02364 4.44106,2.00391 6.57286,3.10507c0.77287,0.39921 1.90033,1.71589 2.89537,1.61258c0.52651,-0.05467 0.76717,-0.59601 1.0286,-0.94901c0.84644,-1.14288 1.01865,-3.21598 0.42912,-4.55717z" fill="#000000"/><path d="M312.73511,94.67261c1.25781,0.11441 2.98519,0.31116 3.57927,1.6627c0.58954,1.3412 0.41237,3.42196 -0.43407,4.56484c-0.26144,0.35299 -0.50416,0.89635 -1.03067,0.95101c-0.99503,0.10331 -2.12492,-1.2115 -2.89779,-1.61072c-2.1318,-1.10116 -4.41871,-2.07739 -6.59334,-3.10104c-2.19641,-1.098 -4.58596,-2.13646 -6.3555,-3.88135l-0.2674,-0.50471c0.22213,-0.49524 0.02985,-1.03709 0.02985,-1.03709c-0.75482,-2.0978 -3.47296,-6.05312 -2.26743,-8.45499c0.49831,-0.99283 2.63803,-1.00999 3.323,-0.31124c1.11865,1.14117 1.72336,3.15802 2.09112,4.6483l-0.03914,0.13292c0,0 -0.03802,1.28586 1.28462,1.28586c0.77888,0 1.10614,-0.46391 1.23779,-0.84104c0.26063,-0.15908 0.40591,-0.39775 0.40591,-0.39775c0.48576,-0.92137 1.06834,-1.05029 2.0765,-1.31587c0.28723,-0.07567 0.60997,-0.23329 0.6883,0.18514c0.24357,1.30116 -0.46056,2.47939 -0.85661,3.66277l-0.00155,0.02287c-0.08889,0.21808 -0.10879,0.49678 0.0612,0.81343c0.07833,0.1856 0.23117,0.39356 0.47713,0.50815c0.23622,0.13355 0.48002,0.13899 0.67659,0.09485c0.28435,-0.03648 0.42609,-0.14354 0.5561,-0.29273c1.47628,-1.04657 2.22606,-1.40523 4.07646,-1.42332c0.48612,-0.00475 1.13161,-0.28688 1.4572,0.07414c0.55156,0.61157 -1.20714,2.06193 -1.7016,2.53354c-0.21518,0.08034 -0.44003,0.24271 -0.5554,0.55602c-0.09112,0.18257 -0.14091,0.41696 -0.05849,0.68567c0.05328,0.27598 0.20436,0.45897 0.37048,0.57745c0.23694,0.21188 0.44668,0.23448 0.66747,0.21217z" fill="#7c3e1e"/></g><path d="M286.69012,99.80777c0,0 1.34814,-7.98716 15.2868,-6.89131c1.3383,0.10521 6.39175,2.52949 11.0219,6.20379c5.36569,4.258 10.66123,10.25701 16.87457,17.26186c3.68043,4.14928 16.4204,22.09366 29.18935,41.63659c4.61552,7.06407 11.72977,16.27751 14.90534,22.38915c8.20726,15.79553 8.00739,24.84611 7.40355,28.36352c-0.10894,0.63457 -3.60016,24.80984 -31.83564,28.34809c-40.39373,5.06183 -57.53018,-6.45761 -61.99435,-10.29028c-0.41592,-0.35708 -14.42752,-9.57863 -14.20559,-27.57824c0.10756,-8.72385 4.3874,-14.87824 7.2119,-20.44506c0.30828,-0.60758 1.67173,-2.30623 1.19458,-2.83498c-1.72687,-1.91367 -2.28818,-4.83027 -2.25575,-7.12659c0.03404,-2.41072 -0.41907,-7.32429 2.42066,-10.10046c0.2909,-0.28438 0.59295,-0.00388 0.91405,0.05857c0.53495,0.10404 1.12278,0.16678 1.8,0.14043c3.10949,-0.12098 10.72797,-0.26086 10.84037,-0.61323c0.05642,-0.17687 -10.02781,1.80796 -17.30031,-0.63011c-7.76772,-2.60409 -12.73097,-9.91789 -11.81211,-19.37734c0.1311,-1.34954 6.65225,-12.85745 9.528,-17.8547c0.59546,-1.03474 2.23408,-2.39964 2.2502,-2.66295c0.55093,-8.99908 5.69966,-14.99773 5.69966,-14.99773c0,0 0.44189,-0.35964 1.02667,-0.5442c0.45665,-0.14412 1.07787,-0.09628 1.13536,-0.24635c0.16177,-0.42221 0.70077,-2.20847 0.70077,-2.20847z" fill="#b3c976" stroke="#000000" stroke-width="2" stroke-linecap="round"/><path d="M345.39589,139.11097c0,0 -23.6416,30.17598 -57.35964,22.22418c-0.87244,-0.20575 -6.34085,-1.36209 -6.55873,-1.96367c-0.24037,-0.6637 4.80537,-0.76722 4.52514,-0.7719c-19.47118,-0.32504 -19.7275,-20.8683 -19.35501,-21.53225c2.3164,-4.12889 9.35441,-16.67969 9.50097,-17.01192c1.60195,-3.63129 9.94198,-22.18897 14.55237,-25.60319c19.00281,-14.07253 55.23052,43.65815 55.23052,43.65815" fill="#e19c71" stroke="#000000" stroke-width="0.5" stroke-linecap="round"/><path d="M324.78596,109.85664l-0.10598,8.79564l-6.57024,-0.7418c0,0 0.10868,-5.87495 -0.16391,-8.55711c-0.2419,-2.38009 -1.39059,-6.7382 -1.39059,-6.7382c0,0 -0.20575,-0.7062 0.34813,-0.60241c0.12839,0.02406 0.77649,0.43992 0.93154,0.52119c0.83413,0.43719 1.79338,1.75204 2.41823,2.29097c1.52526,1.31553 4.53281,5.03171 4.53281,5.03171z" fill="#7c3e1e" stroke="#000000" stroke-width="1" stroke-linecap="round"/><path d="M321.94576,110.20382c0.67027,0.00866 1.47597,-0.00987 2.187,0.12557c0.14899,-0.08012 0.31938,-0.12557 0.5004,-0.12557c0.58439,0 1.05812,0.47374 1.05812,1.05812c0,0.38836 -0.20921,0.72785 -0.52108,0.91191c-0.47833,0.83708 -2.85007,0.10657 -3.97555,0.10084c-2.60056,-0.01325 -5.20132,-0.0256 -7.80179,0c-2.00327,0.01972 -3.93506,0.04621 -5.95764,-0.04538c-1.16712,-0.05286 -1.24881,-1.26422 -0.52906,-1.98397c0.82424,-0.82424 3.11466,-0.02473 4.32518,0.00387c3.55549,0.08399 7.15268,-0.09137 10.71443,-0.04538z" fill="#000000" stroke="none" stroke-width="0.5" stroke-linecap="butt"/><path d="M281.76203,176.64349c0,0 1.70086,-2.28108 2.50666,-3.20064c0.66856,-0.76295 1.99373,-1.9351 1.99373,-1.9351" fill="none" stroke="#000000" stroke-width="2" stroke-linecap="round"/><path d="M345.54659,138.80095c0,0 -8.50034,13.39992 -18.29969,17.00751c-29.65725,10.91821 -46.12681,4.30891 -46.12681,4.30891" fill="none" stroke="#000000" stroke-width="1" stroke-linecap="round"/><path d="M273.27043,202.09081c0,0 9.95883,-7.11403 26.41827,-3.66357c18.42627,3.86277 44.62727,8.7655 54.7343,8.44143c13.6499,-0.43768 25.8809,-8.96949 25.8809,-8.96949c0,0 1.47694,3.93006 1.13054,5.17136c-0.21088,0.75566 -1.50026,1.02291 -2.6193,1.43825c-1.68761,0.62636 -3.47411,1.26532 -4.45715,1.84603c-4.41967,2.61081 -8.15525,3.5697 -12.98061,5.71346c-12.03766,5.34795 -24.41454,6.30468 -39.6047,6.67866c-0.87934,0.02165 -4.05829,0.85855 -4.95644,0.82306c-35.50358,-1.40322 -8.11792,-1.34901 -13.97772,-0.91551c-14.15709,1.04732 -27.24007,-6.99079 -27.24007,-6.99079z" fill="#e19c72" stroke="#000000" stroke-width="1" stroke-linecap="round"/><path d="M281.95413,105.41238c1.1941,0 2.08182,-0.00005 3.41038,0.12185c3.33312,0.30583 5.31456,4.12856 5.31456,7.14908c0,2.7489 -1.28809,5.38145 -3.98872,6.6174c-1.24449,0.56954 -3.21618,0.65353 -4.73622,0.65353c-4.81865,0 -8.72494,-3.25531 -8.72494,-7.27093c0,-4.01562 3.90629,-7.27093 8.72494,-7.27093z" fill="#5fbeb6" stroke="#278986" stroke-width="1" stroke-linecap="butt"/><path d="M279.47099,105.97969c3.13468,0 5.67583,3.1146 5.67583,6.95665c0,3.84205 -2.54116,6.95664 -5.67583,6.95664c-3.13468,0 -5.67583,-3.11459 -5.67583,-6.95664c0,-3.84205 2.54116,-6.95665 5.67583,-6.95665z" fill="#77ece3" stroke="#278986" stroke-width="1" stroke-linecap="butt"/><path d="M288.55057,113.4147c0,-4.5566 4.24811,-8.25045 9.48842,-8.25045c1.29859,0 2.26399,-0.00005 3.70881,0.13827c3.62479,0.34702 5.77962,4.68474 5.77962,8.11218c0,3.11922 -1.40081,6.10642 -4.33776,7.50888c-1.35339,0.64627 -3.49761,0.74158 -5.15067,0.74158c-5.24031,0 -9.48842,-3.69385 -9.48842,-8.25045z" fill="#5fbeb6" stroke="#278986" stroke-width="1" stroke-linecap="butt"/><path d="M295.60204,105.42311c3.91207,0 7.08343,3.50085 7.08343,7.81937c0,4.31852 -3.17136,7.81937 -7.08343,7.81937c-3.91207,0 -7.08343,-3.50085 -7.08343,-7.81937c0,-4.31852 3.17136,-7.81937 7.08343,-7.81937z" fill="#77ece3" stroke="#278986" stroke-width="1" stroke-linecap="butt"/><path d="M324.81154,143.5821c-0.29219,0 -0.52906,-0.23687 -0.52906,-0.52906c0,-0.29219 0.23687,-0.52906 0.52906,-0.52906c0.29219,0 0.52906,0.23687 0.52906,0.52906c0,0.29219 -0.23687,0.52906 -0.52906,0.52906z" fill="#000000" stroke="none" stroke-width="0.5" stroke-linecap="butt"/><path d="M321.31659,147.26769c-0.29219,0 -0.52906,-0.23687 -0.52906,-0.52906c0,-0.2922 0.23687,-0.52906 0.52906,-0.52906c0.29219,0 0.52906,0.23687 0.52906,0.52906c0,0.2922 -0.23687,0.52906 -0.52906,0.52906z" fill="#000000" stroke="none" stroke-width="0.5" stroke-linecap="butt"/><path d="M324.43027,151.39808c-0.29219,0 -0.52906,-0.23687 -0.52906,-0.52906c0,-0.2922 0.23687,-0.52906 0.52906,-0.52906c0.29219,0 0.52906,0.23687 0.52906,0.52906c0,0.2922 -0.23687,0.52906 -0.52906,0.52906z" fill="#000000" stroke="none" stroke-width="0.5" stroke-linecap="butt"/><path d="M313.05581,152.73252c-0.29219,0 -0.52906,-0.23687 -0.52906,-0.52906c0,-0.2922 0.23687,-0.52906 0.52906,-0.52906c0.29219,0 0.52906,0.23687 0.52906,0.52906c0,0.2922 -0.23687,0.52906 -0.52906,0.52906z" fill="#000000" stroke="none" stroke-width="0.5" stroke-linecap="butt"/><path d="M306.44718,156.54519c-0.29219,0 -0.52906,-0.23687 -0.52906,-0.52906c0,-0.2922 0.23687,-0.52906 0.52906,-0.52906c0.29219,0 0.52906,0.23687 0.52906,0.52906c0,0.2922 -0.23687,0.52906 -0.52906,0.52906z" fill="#000000" stroke="none" stroke-width="0.5" stroke-linecap="butt"/><path d="M301.68133,152.47834c-0.29219,0 -0.52906,-0.23687 -0.52906,-0.52906c0,-0.2922 0.23687,-0.52906 0.52906,-0.52906c0.29219,0 0.52906,0.23687 0.52906,0.52906c0,0.2922 -0.23687,0.52906 -0.52906,0.52906z" fill="#000000" stroke="none" stroke-width="0.5" stroke-linecap="butt"/><path d="M298.44056,154.57531c-0.29219,0 -0.52906,-0.23687 -0.52906,-0.52906c0,-0.2922 0.23687,-0.52906 0.52906,-0.52906c0.29219,0 0.52906,0.23687 0.52906,0.52906c0,0.2922 -0.23687,0.52906 -0.52906,0.52906z" fill="#000000" stroke="none" stroke-width="0.5" stroke-linecap="butt"/><path d="M291.13294,150.82618c-0.29219,0 -0.52906,-0.23687 -0.52906,-0.52906c0,-0.2922 0.23687,-0.52906 0.52906,-0.52906c0.29219,0 0.52906,0.23687 0.52906,0.52906c0,0.2922 -0.23687,0.52906 -0.52906,0.52906z" fill="#000000" stroke="none" stroke-width="0.5" stroke-linecap="butt"/><path d="M286.49419,152.73252c-0.29219,0 -0.52906,-0.23687 -0.52906,-0.52906c0,-0.2922 0.23687,-0.52906 0.52906,-0.52906c0.29219,0 0.52906,0.23687 0.52906,0.52906c0,0.2922 -0.23687,0.52906 -0.52906,0.52906z" fill="#000000" stroke="none" stroke-width="0.5" stroke-linecap="butt"/><path d="M277.08961,148.92502c-0.36524,0 -0.66132,-0.29608 -0.66132,-0.66132c0,-0.36524 0.29608,-0.66132 0.66132,-0.66132c0.36524,0 0.66132,0.29608 0.66132,0.66132c0,0.36524 -0.29608,0.66132 -0.66132,0.66132z" fill="#000000" stroke="none" stroke-width="0.5" stroke-linecap="butt"/><path d="M278.36049,153.24604c-0.36524,0 -0.66132,-0.29608 -0.66132,-0.66132c0,-0.36524 0.29608,-0.66132 0.66132,-0.66132c0.36524,0 0.66132,0.29608 0.66132,0.66132c0,0.36524 -0.29608,0.66132 -0.66132,0.66132z" fill="#000000" stroke="none" stroke-width="0.5" stroke-linecap="butt"/><path d="M283.25343,150.95844c-0.36524,0 -0.66132,-0.29608 -0.66132,-0.66132c0,-0.36524 0.29608,-0.66132 0.66132,-0.66132c0.36524,0 0.66132,0.29608 0.66132,0.66132c0,0.36524 -0.29608,0.66132 -0.66132,0.66132z" fill="#000000" stroke="none" stroke-width="0.5" stroke-linecap="butt"/><path d="M294.34362,206.38726c0.61922,-0.2322 0.85142,0.38701 0.85142,0.38701l0.15019,0.40074c0.14732,0.41596 0.09031,0.89995 0.29613,1.29029c0.13246,0.25121 0.56516,0.10377 0.84817,0.0803c1.25814,-0.10435 2.2141,-0.73735 3.32895,-1.25873c0,0 0.59927,-0.27967 0.87894,0.31961c0.27967,0.59928 -0.31961,0.87894 -0.31961,0.87894c-1.44704,0.67372 -4.35911,2.51184 -5.79239,0.77637c-0.36345,-0.44009 -0.29219,-1.10501 -0.48579,-1.64193l-0.14303,-0.38118c0,0 -0.2322,-0.61921 0.38701,-0.85142z" fill="#000000" stroke="none" stroke-width="0.5" stroke-linecap="butt"/><path d="M291.79022,207.4203c0.66132,0 0.66132,0.66132 0.66132,0.66132l-0.02687,0.3021c0.18656,0.66582 0.67866,1.91199 1.30685,2.30054c0.37728,0.23335 1.42819,0.05921 1.82171,0.05921c1.86961,0 3.07677,-0.23521 4.82944,-0.79848c0.74686,-0.24002 1.20786,-0.18214 1.71853,-0.79325c0,0 0.44485,-0.48934 0.93419,-0.04449c0.48934,0.44485 0.04449,0.93419 0.04449,0.93419c-1.72264,1.79988 -5.18997,2.02467 -7.52665,2.02467c-0.73715,0 -1.80927,0.16213 -2.47887,-0.23402c-0.95323,-0.56394 -1.61601,-2.08278 -1.91859,-3.07517l-0.02687,-0.67531c0,0 0,-0.66132 0.66132,-0.66132z" fill="#000000" stroke="none" stroke-width="0.5" stroke-linecap="butt"/><path d="M303.77506,127.86163c0,0 2.01807,1.9486 2.52409,4.11193c0.69674,2.97869 -0.18321,6.36446 -1.45758,5.6312c-5.20265,-2.99357 -16.75057,-6.40321 -24.28533,-2.61025c-2.04513,1.02951 -5.12075,0.75827 -6.0158,-0.51713c-1.04522,-1.48938 0.26709,-4.11709 0.26709,-4.11709c0,0 2.39077,-8.03585 19.93919,-5.84703c2.96157,0.3694 9.02835,3.34837 9.02835,3.34837z" fill="#dc6d2c" stroke="#a60e03" stroke-width="2" stroke-linecap="round"/><path d="M309.68292,124.85476c4.1984,0 7.60187,1.66856 7.60187,3.72682c0,2.05826 -3.14937,12.32391 -7.34777,12.32391c-4.19839,0 -7.85596,-10.26565 -7.85596,-12.32391c0,-2.05827 3.40346,-3.72682 7.60186,-3.72682z" fill="#e19c72" stroke="none" stroke-width="0" stroke-linecap="butt"/><path d="M302.22459,131.4405c-0.1209,0.15731 -0.31095,0.25871 -0.52469,0.25871c-0.25683,0 -0.47946,-0.1464 -0.589,-0.3603c-5.37068,-2.26134 -12.20107,-2.93758 -17.99036,-2.85831c-2.48006,0.03395 -2.71893,1.57984 -4.17174,2.82511c-0.30806,0.26405 -0.86538,0.26677 -1.09067,-0.18382c-0.9083,-1.8166 4.20705,-3.82781 5.09896,-3.95494c4.87817,-0.69533 10.47145,0.69039 15.20491,1.74381c0.14123,0.03143 5.66916,1.4194 4.06259,2.52974z" fill="#a60e03" stroke="none" stroke-width="0.5" stroke-linecap="butt"/><path d="M302.359,99.45233c0.30867,0.05586 0.54279,0.32595 0.54279,0.65073c0,0.1326 -0.03902,0.25609 -0.10622,0.35961c-0.02462,0.44296 -2.39246,1.57865 -2.63103,1.70962c-1.60908,0.8833 -5.11531,2.22279 -6.84288,1.30141c-0.8778,-0.46816 -4.28683,-3.73628 -3.284,-5.07339c0.97542,-1.30056 1.87381,2.25236 2.48995,2.97412c0.93041,1.08991 2.55298,0.98575 3.83985,0.79496c1.69143,-0.25077 4.74595,-2.78627 5.90998,-2.73177c0.02882,0.00135 0.05593,0.00642 0.08156,0.01471z" fill="#000000" stroke="none" stroke-width="0.5" stroke-linecap="butt"/><path d="M287.34398,98.98081c-0.00064,-0.01195 -0.00096,-0.02397 -0.00096,-0.03607c0,-0.36523 0.29608,-0.66132 0.66132,-0.66132c0.13261,0 0.2561,0.03903 0.35961,0.10623c0.71021,0.03946 0.09502,1.28596 0.00409,1.45849c-0.65306,1.23907 -1.33067,2.25407 -2.54511,2.98853c-3.07644,1.86055 -6.39271,0.05619 -8.06416,-2.52953c-0.37677,-0.58287 -1.65077,-2.82443 -1.10711,-3.48905c0.4366,-0.53374 0.82802,-0.41069 1.22077,-0.03657c1.03084,0.98195 0.12422,3.65102 3.30071,5.05158c3.50241,1.54428 4.50494,-0.90292 6.17084,-2.85229z" fill="#000000" stroke="none" stroke-width="0.5" stroke-linecap="butt"/><path d="M275.28541,211.28816c0,0 1.6135,0.73505 5.11669,2.53495c0.60218,0.30939 2.15883,0.65024 2.80996,1.02424c10.30708,5.92022 38.83652,5.82463 66.15996,0.88439c13.11521,-2.3713 31.6679,-12.13112 31.6679,-12.13112c0,0 0.26566,1.97861 -0.14938,4.41785c-0.73462,4.31742 -2.80513,10.87454 -6.56997,16.14314c-13.1006,18.33327 -47.4701,13.97855 -47.4701,13.97855c0,0 -8.92686,0.13164 -17.81563,-1.67835c-6.55829,-1.33543 -12.9753,-4.33057 -16.39193,-6.10975c-9.02799,-4.70124 -17.3575,-19.06391 -17.3575,-19.06391z" fill="#82615a" stroke="#000000" stroke-width="0.5" stroke-linecap="round"/><path d="M370.7543,225.02265c-0.03316,-0.07882 -0.05149,-0.16541 -0.05149,-0.25629c0,-0.1802 0.07208,-0.34356 0.18896,-0.46284v-0.43833l-0.00716,-0.02864l-0.05892,-0.14729l-0.01258,-0.09221l-0.03144,-0.08759l-0.0378,-0.37792l0.00487,-0.03322l-0.00814,-0.03258v-0.21277l-0.10387,-0.25967l-0.0097,-0.07109l-0.02861,-0.0658l-0.02604,-0.15624l-0.12462,-0.31154l-0.00969,-0.07109l-0.02861,-0.0658l-0.02604,-0.15624l-0.12462,-0.31154l-0.00732,-0.05368l-0.02424,-0.04846l-0.07558,-0.34013l0.00048,-0.01812l-0.00723,-0.01662l-0.02396,-0.14377l-0.08977,-0.20199l-0.29422,-0.41191l-0.24441,-0.21386l-0.00271,-0.00391l-0.00421,-0.00223l-0.37792,-0.34012l-0.05504,-0.08167l-0.06964,-0.06964l-0.02226,-0.03711l-0.18532,-0.10295l-0.01274,-0.01192l-0.01659,-0.00538l-0.25226,-0.15766l-0.31642,-0.12657l-0.29073,-0.10902l-0.52418,-0.18721l-0.04714,-0.03143l-0.05465,-0.01497l-0.45368,-0.25519h-0.02655l-0.00318,0.0023l-0.0125,-0.0023h-0.04907l-0.13589,-0.03397l-0.13777,-0.0253l-0.04467,-0.02031l-0.01233,-0.00308l-0.00195,-0.00341l-0.28947,-0.13158l-1.00345,-0.20761l-0.75296,-0.10757l-0.898,-0.07184h-4.98786l-1.19787,0.18149l-0.03583,-0.0034l-0.03451,0.01024l-0.78302,0.03404l-0.48442,0.15138l-0.71962,0.32383l-0.01413,0.00254l-0.01164,0.00841l-0.92967,0.37186l-0.84867,0.38897l-0.59846,0.38724l-0.29816,0.19877l-0.30581,0.27183l-0.01966,0.01028l-0.01369,0.01746l-0.34013,0.26454l-0.01002,0.00442l-0.00703,0.0084l-0.37374,0.27181l-0.4665,0.4665l-0.73295,0.91619l-0.02962,0.02257l-0.01916,0.03193l-0.18045,0.18045l-0.19043,0.28564l-0.04874,0.04431l-0.03389,0.05648l-0.20635,0.20635l-0.02517,0.06293l-0.05703,0.07896l-0.04058,0.08855l-0.1074,0.13425l-0.04426,0.0885l-0.01687,0.01969l-0.00755,0.02481l-0.07603,0.1267l-0.05263,0.15788l-0.0391,0.06144l-0.0212,0.06967l-0.06275,0.10457l-0.05172,0.20687l-0.03427,0.06426l-0.0158,0.07109l-0.04356,0.08711v1.04693l0.0189,0.0252l0.02095,0.04976l0.02865,0.01637l0.0318,0.12717l0.05087,0.12082l-0.01309,0.03028l0.01309,0.05238v0.2706l0.00385,0.01157l0.00461,0.05994l0.02268,0.05567l0.02658,0.18606l0.04614,0.11535l0.00269,0.0197l0.01068,0.01678l0.03779,0.11338l0.00321,0.04167l0.01789,0.03776l0.0378,0.18896l-0.00314,0.06579l0.00256,0.01022l0.07332,0.17109l0.0026,0.0161l0.00188,0.0009l0.22675,0.18896l0.01804,0.02469l0.02621,0.01573l0.13139,0.13139l0.11915,0.07149l0.02455,0.02455l0.032,0.01347l0.11665,0.08749l0.00742,0.00041l0.01236,0.01442l0.01474,0.01106l0.09582,0.11793l0.04714,0.055l0.96533,0.48266l0.041,0.03514l0.03294,0.00183l0.07162,0.08356l0.12152,0.05209l0.09972,0.07578l0.02038,0.01223l0.00006,0.00002l0.398,0.10855l0.02261,0.01269l0.02581,0.00254l0.5034,0.17979l0.53554,0.14281l0.44849,0.11212l0.01729,0.00922l0.01956,0.00114l0.58639,0.18324l0.28375,0.07094l0.00998,0.00532l0.01131,0.00038l0.20025,0.05721l0.42462,0.03266l0.02313,0.00771l0.02426,-0.00234l0.75583,0.11337l0.01072,0.00445l0.01159,-0.00071l0.98244,0.18193l1.07328,0.07155h0.80765l0.8892,-0.1067l1.13659,-0.19412l0.01036,0.00079l0.00963,-0.00388l1.27055,-0.17721l1.24014,-0.32828l0.0393,-0.00054l0.0364,-0.01483l1.05816,-0.15117l0.01858,0.00192l0.01766,-0.00608l0.79143,-0.06882l0.83294,-0.27764l0.01873,-0.00144l0.01639,-0.0092l0.83142,-0.22675l0.00304,-0.00007l0.00266,-0.00146l0.62097,-0.16342l0.51597,-0.32248l0.52554,-0.33785l0.00411,-0.00139l0.00301,-0.00312l0.58084,-0.36302l0.2663,-0.19973l0.19069,-0.1589l0.14653,-0.14653l0.16975,-0.20371l0.00381,-0.00279l0.00212,-0.00423l0.18585,-0.21683l0.11999,-0.20998l0.005,-0.00522l0.00211,-0.00692l0.22675,-0.37792l0.0114,-0.0114l0.00542,-0.01519l0.0786,-0.1179l0.00165,-0.00821l-0.00235,-0.00543l0.00654,-0.01554l0.0063,-0.03148l0.06264,-0.13224l0.05678,-0.13486l0.01927,-0.02569l0.00722,-0.01524l0.00562,-0.00187l0.00115,-0.00152l0.0054,-0.02161l0.02141,-0.04014l0.00615,-0.04507l0.00993,-0.02482zM372.13541,223.43205l0.02141,0.04014l0.03779,0.15117v0.08142l0.01974,0.07898v0.98258l-0.08267,0.33066l-0.04129,0.0236l-0.01364,0.10003l-0.0175,0.16913l-0.00804,0.00625l-0.05646,0.14114l-0.00736,0.02943l0.0002,0.00046l-0.00077,0.00183l-0.01898,0.0759l-0.06167,0.11563l-0.05085,0.12077l-0.02337,0.03116l-0.00837,0.04187l-0.05501,0.11613l-0.04322,0.12101l-0.14244,0.21365l-0.21503,0.35839l-0.14768,0.25843l-0.04378,0.04568l-0.0283,0.05659l-0.22376,0.26105l-0.18602,0.22322l-0.02469,0.01804l-0.01573,0.02621l-0.18896,0.18896l-0.02621,0.01573l-0.01804,0.02469l-0.22675,0.18896l-0.01563,0.00755l-0.01095,0.01347l-0.30234,0.22675l-0.02641,0.01112l-0.01989,0.02063l-0.60109,0.37568l-0.52554,0.33785l-0.00411,0.00139l-0.00301,0.00312l-0.60467,0.37792l-0.09483,0.03075l-0.08737,0.04799l-0.71519,0.18821l-0.81086,0.22115l-0.88958,0.29653l-0.07794,0.00599l-0.0739,0.02545l-0.85103,0.074l-1.00181,0.14312l-1.24121,0.32856l-0.0404,0.00056l-0.03747,0.01512l-1.29995,0.1813l-1.14283,0.19519l-0.0168,-0.00128l-0.01574,0.006l-0.94479,0.11337l-0.03984,-0.00503l-0.03895,0.00974h-0.8692l-0.02184,-0.00546l-0.02215,0.00399l-1.13375,-0.07558l-0.03731,-0.01201l-0.03912,0.00242l-1.00925,-0.18689l-0.72105,-0.10816l-0.46751,-0.03596l-0.06377,-0.02126l-0.06719,-0.00224l-0.25395,-0.07256l-0.29164,-0.07291l-0.01729,-0.00922l-0.01957,-0.00113l-0.58638,-0.18324l-0.43492,-0.10873l-0.00469,-0.0025l-0.00532,-0.00008l-0.56687,-0.15117l-0.02434,-0.01348l-0.02769,-0.00272l-0.50517,-0.18042l-0.3912,-0.10669l-0.01639,-0.00919l-0.01874,-0.00144l-0.07244,-0.02415l-0.00717,0.00195l-0.01628,-0.00977l-0.01749,-0.00582l-0.1282,-0.08158l-0.08206,-0.04923l-0.18125,-0.07768l-0.06707,-0.05097l-0.04211,-0.00234l-0.07294,-0.0851l-0.031,-0.02356l-0.99366,-0.49683l-0.041,-0.03514l-0.03294,-0.00183l-0.08532,-0.09953l-0.09953,-0.08532l-0.00183,-0.03294l-0.03514,-0.041l-0.00566,-0.01131l-0.15879,-0.09528l-0.05757,-0.05757l-0.06981,-0.04189l-0.16774,-0.16774l-0.19069,-0.15891l-0.13761,-0.10321l-0.04654,-0.05728l-0.03785,-0.01064l-0.05579,-0.1046l-0.07475,-0.092l0.00488,-0.03901l-0.03473,-0.06512l-0.02494,-0.09976l-0.06215,-0.14502l-0.00115,-0.00066l-0.00122,-0.00488l-0.02798,-0.06527l-0.02119,-0.13139l-0.03228,-0.12912v-0.04789l-0.01687,-0.08437l-0.01863,-0.05588l-0.06836,-0.17092l-0.01072,-0.07861l-0.02993,-0.07347l-0.02936,-0.20551l-0.01893,-0.0568l-0.00815,-0.10599l-0.02579,-0.10313v-0.17715l-0.03789,-0.09l-0.06264,-0.13224l-0.0063,-0.03149l-0.00654,-0.01554l0.00235,-0.00543l-0.0273,-0.13649l0.00314,-0.06579l-0.01598,-0.0639v-1.24177l-0.00412,-0.00618l0.00412,-0.01854v-0.01843l0.03685,-0.14742l0.03297,-0.14833l0.00824,-0.01648l0.0046,-0.01843l0.00645,-0.00369l0.06161,-0.12322l0.05798,-0.23191l0.04602,-0.08629l0.02847,-0.09356l0.07603,-0.12671l0.05263,-0.15788l0.0391,-0.06144l0.0212,-0.06967l0.10031,-0.16718l0.06423,-0.12845l0.04578,-0.05342l1.50319,-0.17733l-1.38393,0.00094l0.01058,-0.02644l-0.00035,-0.00128l0.00259,-0.00432l0.02638,-0.06594l0.07792,-0.10789l1.05105,-0.15192l-0.93237,-0.01242l0.6454,0.41163l0.22807,-0.26472l-0.17637,-0.35272l-0.30086,-0.28564l0.04874,-0.0443l0.03389,-0.05648l0.20085,-0.20085l0.73295,-0.91619l0.02962,-0.02257l0.01916,-0.03193l0.52908,-0.52908l0.04499,-0.02699l0.03367,-0.04022l0.40708,-0.29607l0.31458,-0.24467l0.32391,-0.28792l0.04122,-0.02155l0.0313,-0.03443l0.34013,-0.22675l0.00439,-0.00157l0.00318,-0.00341l0.64246,-0.41571l0.04587,-0.01568l0.03785,-0.03028l0.907,-0.41571l0.0164,-0.00307l0.01353,-0.00977l0.93179,-0.37272l0.74306,-0.33438l0.0397,-0.00714l0.03443,-0.02101l0.60467,-0.18896l0.08597,-0.00498l0.08256,-0.0245l0.83385,-0.03626l1.21213,-0.18366l0.05018,0.00476l0.0489,-0.01222h5.06408l0.02615,0.00654l0.02659,-0.00443l0.94479,0.07559l0.0199,0.0067l0.02089,-0.00216l0.79362,0.11337l0.01946,0.00793l0.021,-0.00086l1.09596,0.22675l0.06677,0.03217l0.0729,0.01339l0.2853,0.12968h0.10821l0.00857,-0.00513l0.16709,0.04578l0.16807,0.04202l0.00496,0.00868l0.54434,0.30619l0.47622,0.17008l0.00446,0.00297l0.00532,0.00061l0.30234,0.11337l0.00608,0.0042l0.00732,0.001l0.37792,0.15117l0.04827,0.03485l0.05663,0.01837l0.28789,0.17993l0.31995,0.17775l0.01019,-0.00022l0.12003,0.12003l0.12396,0.11597l0.00013,0.01019l0.05926,0.09877l0.3008,0.27072l0.29885,0.26149l0.04397,0.06332l0.05869,0.04999l0.37792,0.52908l0.0247,0.0627l0.04148,0.0531l0.15117,0.34013l0.01449,0.08279l0.03351,0.07708l0.03488,0.20929l0.06011,0.27049l0.13125,0.32812l0.0097,0.07109l0.02861,0.0658l0.02604,0.15624l0.12462,0.31154l0.0097,0.07109l0.02861,0.0658l0.02604,0.15624l0.12462,0.31154l0.01692,0.1241l0.03038,0.12151v0.30714l0.0252,0.25208l0.04087,0.10217z" fill="#82615a" stroke="none" stroke-width="0.5" stroke-linecap="butt"/><path d="M298.05236,172.637c0.46763,-0.46762 0.93525,0 0.93525,0l0.41538,0.41699c0.68513,0.77079 1.3479,1.74671 2.16949,2.37179c1.26286,0.96081 2.63643,1.04079 4.12956,1.30453c2.92437,0.51655 6.03696,0.27326 9.01369,0.11857c3.01344,-0.00782 5.56061,-0.89852 8.278,-2.14281c3.18534,-1.45857 5.86833,-2.73086 7.96844,-5.61855c0,0 0.38896,-0.53483 0.9238,-0.14586c0.53484,0.38896 0.14587,0.9238 0.14587,0.9238c-2.24427,3.08582 -5.09055,4.48476 -8.48768,6.04327c-2.87341,1.31825 -5.60245,2.2516 -8.79204,2.26228c-4.23196,0.22116 -10.3438,1.08124 -13.97204,-1.68623c-0.89722,-0.68436 -1.61746,-1.71037 -2.36566,-2.55209l-0.36207,-0.36046c0,0 -0.46763,-0.46763 0,-0.93525z" fill="#000000" stroke="none" stroke-width="0.5" stroke-linecap="butt"/><path d="M315.10946,145.02627c-0.13047,0.78279 -0.91325,0.65232 -0.91325,0.65232l-0.74655,-0.22664c-1.57823,-1.27659 -2.97169,-2.69377 -4.4366,-4.11233c-0.66412,-0.64311 -1.5359,-0.76298 -2.23509,-1.35212c-1.15406,-0.97243 -2.58769,-2.71155 -3.31501,-4.05258c-0.94598,-1.74419 -1.22881,-3.73879 -1.61128,-5.65112c-0.17678,-1.33887 -0.44946,-3.09437 0.30958,-4.31427c0.53786,-0.86444 1.72057,-1.3206 2.61994,-1.64659c2.90541,-1.05312 7.27867,-0.72286 9.49991,1.67762c0,0 0.53089,0.58987 -0.05898,1.12075c-0.58987,0.53089 -1.12075,-0.05898 -1.12075,-0.05898c-1.70688,-1.97294 -5.53448,-2.04909 -7.7842,-1.24543c-0.54459,0.19454 -1.48955,0.48529 -1.82818,1.02228c-0.50316,0.7979 -0.18832,2.31911 -0.07168,3.18399c0.34685,1.73426 0.5822,3.56738 1.43886,5.15145c0.6402,1.18381 1.89981,2.71112 2.91235,3.57277c0.7194,0.61219 1.61862,0.76879 2.34012,1.44384c1.45367,1.36009 2.77423,2.79172 4.33253,4.02137l0.01598,-0.09955c0,0 0.78279,0.13046 0.65232,0.91325z" fill="#000000" stroke="none" stroke-width="0.5" stroke-linecap="butt"/><g stroke="none" stroke-width="0.5" stroke-linecap="butt"><path d="M362.88856,161.00381c0.29968,0.22971 0.61448,0.4668 1.01297,0.67899c1.64095,0.87382 3.42951,1.38398 5.11277,2.14401c2.25959,1.02026 4.26467,2.77223 6.56992,3.64289c3.20915,2.05681 6.85289,4.23015 9.63877,6.8327c1.41913,1.32574 3.05564,2.7796 4.64547,3.90333c1.82718,1.12765 3.80072,2.79635 4.9148,4.66009c0.98801,1.65284 1.0653,5.60728 -0.4284,6.99776c-0.52038,0.48442 -1.49478,0.33022 -2.12364,0.33118c-2.40266,-0.37418 -4.96391,-0.61045 -7.16961,-1.72047c-2.32171,-1.1684 -4.20339,-2.62135 -6.35924,-4.02037c-1.38678,-0.89994 -2.96365,-1.36553 -4.33925,-2.28606c-2.36124,-1.50234 -4.99508,-2.56583 -7.34369,-4.08767c-3.0962,-2.00624 -6.39345,-4.20024 -9.83863,-5.50508c-0.22108,-0.13951 -0.43749,-0.28713 -0.65146,-0.4384c-0.18509,-0.5952 0.00495,-1.38192 0.17694,-2.00639c1.15912,-3.70896 2.18561,-8.04993 6.18227,-9.1265z" fill="#e6a075"/><path d="M356.15976,162.13149c0.29575,-0.5915 0.88726,-0.29575 0.88726,-0.29575l0.26569,0.17844c0.24421,0.02713 0.48841,0.05426 0.73262,0.0814c0,0 0.11242,0.01249 0.2391,0.07363c0.17373,0.00578 0.30923,0.07354 0.30923,0.07354l0.63068,0.31578c2.56188,1.06755 4.88485,2.65068 7.3149,3.98366c1.72518,0.57021 3.02239,1.6017 4.65341,2.36672c1.8747,0.87932 3.78187,1.51701 5.53629,2.6503c2.171,1.40239 3.82948,3.18091 5.73016,4.89564c3.3112,3.86636 9.27125,5.20609 11.59592,9.853c0,0 0.29575,0.59151 -0.29575,0.88726c-0.59151,0.29575 -0.88726,-0.29575 -0.88726,-0.29575c-1.14515,-2.29155 -2.97327,-3.25676 -5.11696,-4.52882c-2.14269,-1.27146 -4.60532,-3.08345 -6.24244,-4.99181c-1.83696,-1.64894 -3.41269,-3.35445 -5.5033,-4.70978c-1.70222,-1.10354 -3.55346,-1.7014 -5.37156,-2.55942c-1.62043,-0.76474 -2.9191,-1.78111 -4.6264,-2.3546c-2.44266,-1.32595 -4.76891,-2.92361 -7.33744,-3.99372l-0.67175,-0.33544c0,0 -0.00898,-0.0045 -0.02419,-0.01349c-0.04836,0.00123 -0.07869,-0.00214 -0.07869,-0.00214c-0.24421,-0.02713 -0.48841,-0.05426 -0.73262,-0.0814l-0.71113,-0.30997c0,0 -0.5915,-0.29576 -0.29575,-0.88726z" fill="#961308"/><path d="M355.39235,166.34356l0.54899,0.35486c3.25568,0.67435 5.7324,2.52905 8.37478,4.22909c1.61937,0.28883 2.63488,1.40243 4.09772,2.04646c4.32863,1.90573 8.03789,4.75547 11.86601,7.49436c3.64898,3.1871 10.64917,3.40547 12.03441,8.82395c0,0 0.1604,0.64158 -0.48118,0.80197c-0.64158,0.1604 -0.80197,-0.48118 -0.80197,-0.48118c-0.39766,-1.63642 -1.50258,-2.39284 -2.818,-3.27287c-0.48697,-0.32579 -0.85262,-0.81764 -1.35395,-1.12088c-1.10792,-0.67016 -2.57366,-0.75368 -3.74808,-1.26313c-1.37784,-0.59769 -2.52495,-1.46258 -3.6521,-2.45076c-3.74949,-2.6736 -7.35728,-5.4288 -11.57772,-7.32077c-1.4428,-0.64679 -2.45625,-1.72994 -4.04247,-2.02364c-2.74039,-1.67097 -5.07916,-3.50486 -8.39399,-4.2367l-0.75345,-0.45916c0,0 -0.5608,-0.3505 -0.2103,-0.9113c0.3505,-0.5608 0.9113,-0.2103 0.9113,-0.2103z" fill="#961308"/><path d="M361.15373,160.0767c-1.92942,-0.0007 -3.77737,-0.02548 -5.67491,0.3783c-0.57167,0.23001 -1.72647,0.38582 -2.17747,0.8219c-1.57686,1.52469 -3.29929,5.0567 -2.07869,7.25711c0.50146,0.90397 1.83094,1.3209 2.67219,1.77932c0.45579,0.24837 0.88765,0.53899 1.31202,0.84349c0.03675,-0.44806 0.13152,-0.91443 0.25436,-1.38699c1.20127,-3.8443 2.39391,-7.9876 5.9735,-9.61403c-0.08923,-0.02917 -0.18265,-0.05565 -0.28099,-0.0791zM363.91886,161.70277c-0.39849,-0.2122 -0.71297,-0.44956 -1.01264,-0.67927c-3.99666,1.07657 -5.01536,5.40508 -6.17448,9.11404c-0.17199,0.62447 -0.36144,1.4086 -0.17635,2.00381c0.21397,0.15127 0.43045,0.29845 0.65153,0.43797c3.44517,1.30483 6.74182,3.48759 9.83801,5.49384c2.34861,1.52184 4.96328,2.56668 7.32452,4.06902c1.3756,0.92053 2.93835,1.38653 4.32513,2.28647c2.15585,1.39902 4.03005,2.85564 6.35176,4.02404c2.2057,1.11002 4.76252,1.35023 7.16518,1.72441c0.62886,-0.00096 1.60204,0.1547 2.12243,-0.32973c1.4937,-1.39048 1.41263,-5.33823 0.42462,-6.99107c-1.11408,-1.86374 -3.08895,-3.52778 -4.91612,-4.65542c-1.58984,-1.12374 -3.22653,-2.56902 -4.64566,-3.89476c-2.78587,-2.60255 -6.40214,-4.75318 -9.61129,-6.80999c-2.30525,-0.87066 -4.29815,-2.62628 -6.55775,-3.64654c-1.68326,-0.76003 -3.46795,-1.27298 -5.1089,-2.1468zM361.91965,158.9311c0.4819,0.17823 0.85952,0.42122 1.2297,0.6846c0.34376,-0.06661 0.70482,-0.11472 1.08438,-0.14291c0,0 0.14522,-0.01037 0.30425,0.04675c0.1801,-0.57463 -0.40045,-1.08236 -0.72481,-1.62587c-1.12859,-1.89107 -3.88507,-2.68683 -5.92903,-3.1679c-4.45987,-0.96968 -9.43182,-1.77752 -13.996,-1.08131c-1.89466,0.28901 -3.69313,1.2045 -5.46094,1.89875c-0.31978,0.26476 -1.33779,1.05023 -1.55255,1.44888c-0.36627,0.67991 0.38189,2.85348 0.56716,3.57131c0.9559,3.7037 3.36153,6.34587 6.64009,8.35726c3.07634,2.55744 7.42888,4.81655 11.62377,4.35251c-0.05923,-0.0798 -0.11262,-0.16169 -0.16053,-0.24552c-0.74906,-0.54771 -1.48298,-1.12231 -2.28675,-1.55488c-1.13639,-0.61158 -2.52452,-1.09625 -3.18875,-2.29077c-1.33105,-2.39371 -0.07658,-5.48618 1.39833,-7.40217c0.35045,-0.45524 0.49454,-1.07076 0.91868,-1.45828c0.66656,-0.60901 1.88486,-0.80484 2.70663,-1.13174c2.05731,-0.44349 4.04039,-0.43573 6.13511,-0.43573l-0.13295,-0.01159c0,0 0.51502,-0.25752 0.82421,0.18862zM366.31968,179.17929c-2.74413,-1.7732 -5.65412,-3.72006 -8.68691,-5.01069c-0.13378,0.1328 -0.27845,0.17582 -0.40893,0.17641c-4.94003,1.14475 -10.22679,-1.26864 -13.91393,-4.35033c-3.81193,-2.35276 -6.5236,-5.56371 -7.35757,-9.99066c-0.16748,-0.88901 -0.73188,-2.60967 -0.31586,-3.47713c0.40617,-0.84692 1.41704,-1.55257 2.11802,-2.12249c1.92023,-0.77993 3.88099,-1.7491 5.94758,-2.06943c4.71852,-0.73141 9.86307,0.09858 14.4757,1.10118c2.43663,0.58605 5.4169,1.53362 6.76915,3.77641c0.68776,1.14069 1.24637,1.79499 0.66944,3.11643l-0.78962,0.35195c1.53602,0.75784 3.16437,1.24408 4.71983,1.95203c2.27631,1.03604 4.30241,2.81352 6.62935,3.67963c3.3327,2.10701 7.02651,4.35123 9.92516,7.02832c1.37686,1.27161 2.92967,2.69063 4.47135,3.75701c1.99339,1.25942 4.14205,3.04881 5.34052,5.1128c1.26073,2.17121 1.30884,6.90814 -0.71501,8.63808c-0.88701,0.7582 -2.01784,0.64845 -3.08728,0.64709c-2.57911,-0.39243 -5.28042,-0.6794 -7.64996,-1.85727c-2.3788,-1.18247 -4.31236,-2.67993 -6.50973,-4.11614c-1.37242,-0.89702 -2.93135,-1.36049 -4.30346,-2.27204c-2.36188,-1.50329 -4.97546,-2.55112 -7.32781,-4.07117z" fill="#000000"/><path d="M344.06166,168.93773c-3.27856,-2.01139 -5.68985,-4.67609 -6.64575,-8.37979c-0.18527,-0.71782 -0.93157,-2.89701 -0.56529,-3.57692c0.21476,-0.39865 1.23449,-1.18726 1.55427,-1.45202c1.76781,-0.69424 3.57342,-1.6172 5.46809,-1.90621c4.56419,-0.69621 9.56824,0.11302 14.02811,1.0827c2.04395,0.48107 4.8079,1.28698 5.9365,3.17805c0.32436,0.5435 0.90598,1.05433 0.72588,1.62896c-0.15903,-0.05712 -0.30431,-0.04698 -0.30431,-0.04698c-5.8435,0.43393 -7.31113,5.61813 -8.7821,10.3255c-0.33752,1.29835 -0.46697,2.55241 0.24057,3.50574c-4.1949,0.46404 -8.57962,-1.80159 -11.65597,-4.35903z" fill="#b3c976"/></g><g><g stroke="none" stroke-width="0.5" stroke-linecap="butt"><path d="M349.32445,247.326c0,0 0.05434,0.66029 0.71344,0.60607c0.04136,-0.0034 0.0799,-0.0092 0.11583,-0.01705c0.5783,0.7047 0.32734,1.48229 0.09999,2.37104c-0.31673,1.23814 -0.3443,2.71453 -0.78061,3.89571c-0.27155,0.73513 -0.72801,1.40036 -0.97244,2.14495c-0.32055,0.9764 -0.56912,2.74587 -1.67241,3.16895c-1.29581,0.4969 -3.37236,0.54128 -4.75223,0.59933c-6.84698,-0.04607 -13.3426,-3.85635 -19.21442,-7.10946c-1.81056,-1.00309 -3.06268,-1.91724 -3.98683,-3.78898c-0.12187,-0.24685 -0.60527,-0.88428 -0.62521,-1.21668c-0.08503,-1.41689 0.87046,-2.88597 1.5301,-4.07535c0.19461,-0.35089 0.57095,-1.48811 1.02805,-1.60917c0.86883,-0.2301 2.19248,0.12945 3.05939,0.33061c3.12127,0.92154 6.38206,1.19376 9.2676,2.79241l0.47144,0.25915c0.18936,0.119 0.36049,0.12633 0.49781,0.08832c0.14135,-0.02707 0.29308,-0.11088 0.41061,-0.30563c0.65961,-0.96925 1.78578,-1.39203 2.87304,-1.81304c0.93277,-0.36119 1.81435,-0.9916 2.85069,-1.03507c2.6097,-0.10945 5.34057,2.0338 7.44842,3.38024c0.70353,0.3977 1.22335,0.92406 1.84156,1.4485l-0.20381,-0.11488z" fill="#e19c72"/><path d="M342.38602,245.11005c0.62329,0.22102 0.40226,0.84431 0.40226,0.84431l-0.23465,0.63478c-0.39014,0.70419 -0.74704,1.55531 -1.31681,2.13672c-2.42539,2.47494 -5.63509,1.59958 -8.27725,0.13577c-2.22222,-1.23115 -4.70533,-2.62717 -7.29517,-2.83036c-1.79697,-0.14099 -3.7868,1.24664 -5.29573,2.02963c0,0 -0.58754,0.30355 -0.89109,-0.284c-0.30355,-0.58755 0.284,-0.89109 0.284,-0.89109c1.77454,-0.91226 3.89679,-2.30531 5.99969,-2.17364c2.76795,0.1733 5.47331,1.68171 7.83926,2.9925c2.11221,1.17021 4.70471,2.10783 6.68707,0.10009c0.47999,-0.48613 0.78266,-1.26744 1.10908,-1.85662l0.14501,-0.43584c0,0 0.22102,-0.62329 0.84431,-0.40226z" fill="#8f0700"/><path d="M322.10873,251.80211c-0.50439,-0.42771 -0.07667,-0.9321 -0.07667,-0.9321l0.46906,-0.50069c1.53045,-0.92277 3.75358,-2.6389 5.60515,-2.71347c1.14986,-0.04631 2.15388,0.76013 3.1014,1.28508c1.98299,1.09862 3.96596,2.19723 5.94894,3.29584c1.33645,0.74042 2.63698,1.44306 4.02281,2.02253c0.43261,0.18089 0.83559,0.75829 1.27495,0.59446c0.56281,-0.20986 0.88426,-1.24406 1.14551,-1.70715c1.06367,-1.88546 0.81519,-4.33155 1.57158,-6.29431c0,0 0.24626,-0.61376 0.86002,-0.3675c0.61376,0.24626 0.3675,0.86002 0.3675,0.86002c-0.95519,2.25409 -0.73948,4.85054 -2.00415,7.09618c-0.40828,0.72496 -0.65856,1.39461 -1.58944,1.68798c-0.89951,0.28349 -1.38826,-0.33856 -2.10028,-0.635c-1.4455,-0.60183 -2.79922,-1.33003 -4.18947,-2.10026c-1.98299,-1.09862 -3.96596,-2.19723 -5.94894,-3.29584c-0.62234,-0.34479 -1.61729,-1.17811 -2.39742,-1.12089c-1.61155,0.1182 -3.65983,1.71355 -4.98165,2.52286l-0.14679,0.22558c0,0 -0.42771,0.50438 -0.9321,0.07667z" fill="#8f0700"/><path d="M350.01152,247.93415c-0.6591,0.05423 -0.71332,-0.60487 -0.71332,-0.60487l0.20378,0.11464c-0.61821,-0.52444 -1.13745,-1.04752 -1.84097,-1.44523c-2.10783,-1.34645 -4.8298,-3.47555 -7.43949,-3.3661c-1.03635,0.04346 -1.91211,0.67751 -2.84488,1.03868c-1.08726,0.42099 -2.19979,0.84603 -2.8594,1.81528c-0.11754,0.19475 -0.26595,0.27801 -0.40729,0.30507c-0.13732,0.03803 -0.30525,0.02974 -0.49461,-0.08928l-0.46935,-0.26003c-2.88554,-1.59866 -6.13483,-1.88133 -9.25611,-2.80288c-0.86691,-0.20116 -2.18954,-0.5626 -3.05837,-0.3325c-0.45709,0.12106 -0.83224,1.25537 -1.02685,1.60626c-0.65964,1.18937 -1.61374,2.65163 -1.52872,4.06853c0.01994,0.3324 0.5034,0.96789 0.62528,1.21474c0.92416,1.87174 2.17502,2.77792 3.98558,3.78101c5.87182,3.25311 12.32773,7.04932 19.17472,7.0954c1.37988,-0.05805 3.45095,-0.09765 4.74676,-0.59454c1.1033,-0.42307 1.34844,-2.18757 1.66899,-3.16397c0.24445,-0.74459 0.69929,-1.40611 0.97084,-2.14125c0.43629,-1.18118 0.4625,-2.6509 0.77923,-3.88904c0.22736,-0.88875 0.47833,-1.66226 -0.09997,-2.36697c-0.03594,0.00785 -0.07448,0.01364 -0.11584,0.01704zM350.44901,246.71293c0.34209,-0.05199 0.59207,0.24115 0.59207,0.24115c2.00289,2.50637 -0.45229,7.14611 -1.30521,9.76689c-0.48984,1.50517 -0.78963,3.2384 -2.40957,3.97433c-1.33426,0.60615 -3.78918,0.63482 -5.24034,0.69998c-7.10415,-0.04568 -13.74916,-3.88635 -19.84013,-7.26087c-2.15368,-1.19318 -5.02099,-3.27137 -5.28763,-6.03905c-0.18425,-1.91239 1.15946,-3.88981 2.05152,-5.47658c0.35326,-0.62837 0.59429,-1.27288 1.36374,-1.55267c1.06463,-0.38711 2.77811,0.0456 3.85317,0.29425c3.23359,0.95588 6.56717,1.26671 9.56034,2.92499l0.00833,0.00461c1.90663,-2.07283 6.23996,-3.62959 8.8135,-2.68402c1.94643,0.71515 3.99394,2.14821 5.73739,3.26139c0.76294,0.44293 1.33858,0.99763 2.01123,1.5678z" fill="#000000"/></g><g><path d="M364.49284,232.39871c0,0 -4.50206,3.48563 -5.72658,6.02807c-1.54233,3.20232 -2.79594,11.66708 -2.79594,11.66708c0,0 -7.80027,-0.8976 -11.45203,-2.14046c-4.25029,-1.44658 -12.52771,-6.02099 -12.52771,-6.02099c0,0 -1.70548,-2.05786 -1.70011,-4.23488c0.00466,-1.88858 0.27473,-7.39454 2.16183,-10.5552c1.77115,-2.96647 12.19853,-8.83216 12.19853,-8.83216z" fill="#82615a" stroke="#000000" stroke-width="3" stroke-linecap="round"/><path d="M363.44233,231.11613c0.00919,-0.08502 0.03512,-0.16964 0.07916,-0.24914c0.08733,-0.15763 0.22955,-0.26559 0.38959,-0.31329l0.21242,-0.38342l0.00762,-0.02852l0.01984,-0.15739l0.03368,-0.08676l0.01495,-0.09185l0.15008,-0.3489l0.02036,-0.0267l0.00867,-0.03244l0.10311,-0.18612l0.03498,-0.27748l0.02597,-0.06689l0.00686,-0.07142l0.05294,-0.14929l0.04197,-0.33291l0.02598,-0.06688l0.00686,-0.07142l0.05294,-0.14929l0.04197,-0.33291l0.01961,-0.0505l0.00228,-0.05414l0.09872,-0.33415l0.0092,-0.01562l0.00173,-0.01804l0.04871,-0.13737l0.01936,-0.22019l-0.05774,-0.50289l-0.11015,-0.30551l-0.00048,-0.00473l-0.0026,-0.00399l-0.16575,-0.48066l-0.00857,-0.09811l-0.02717,-0.09466l-0.00149,-0.04325l-0.11221,-0.17986l-0.00537,-0.0166l-0.0119,-0.01275l-0.14425,-0.26016l-0.21544,-0.26406l-0.20148,-0.23626l-0.36779,-0.41778l-0.026,-0.05034l-0.04055,-0.03958l-0.27318,-0.44308l-0.02322,-0.01287l-0.0039,0.00047l-0.00982,-0.00807l-0.04292,-0.02378l-0.1024,-0.09557l-0.10825,-0.0889l-0.02923,-0.03941l-0.00929,-0.00867l-0.00005,-0.00393l-0.18944,-0.25538l-0.77713,-0.66789l-0.6065,-0.45899l-0.75069,-0.49803l-4.36301,-2.4172l-1.13576,-0.42175l-0.02969,-0.02034l-0.03515,-0.00777l-0.70142,-0.34969l-0.4971,-0.10234l-0.7864,-0.06548l-0.01359,-0.00463l-0.01426,0.00172l-0.99342,-0.12526l-0.93086,-0.07104l-0.71115,0.04871l-0.35714,0.02938l-0.39923,0.08958l-0.02218,-0.00054l-0.02044,0.00864l-0.42572,0.06657l-0.01091,-0.00099l-0.01022,0.00394l-0.45864,0.05664l-0.63413,0.18199l-1.08513,0.44622l-0.03685,0.00539l-0.03223,0.01864l-0.24529,0.0704l-0.305,0.15757l-0.06411,0.01514l-0.05702,0.03298l-0.2805,0.0805l-0.05251,0.04285l-0.08815,0.04143l-0.07841,0.05779l-0.15901,0.06538l-0.0816,0.05596l-0.0243,0.00905l-0.01863,0.01804l-0.12791,0.07398l-0.12255,0.1126l-0.06398,0.03479l-0.05231,0.05067l-0.10557,0.06106l-0.14549,0.15589l-0.06112,0.0396l-0.04827,0.05453l-0.08032,0.05509l-0.50736,0.91578l0.00432,0.0312l-0.00579,0.05368l0.01713,0.0282l-0.03381,0.12665l-0.01405,0.13034l-0.02612,0.02014l-0.01393,0.05216l-0.13114,0.2367l-0.00224,0.01199l-0.02502,0.05467l-0.00714,0.05969l-0.06692,0.17563l-0.01554,0.12326l-0.00719,0.01854l0.00121,0.01985l-0.02189,0.11749l-0.01739,0.03801l-0.00265,0.0417l-0.05851,0.18361l-0.03463,0.05603l-0.00271,0.01018l-0.01878,0.18519l-0.00553,0.01534l0.00121,0.0017l0.10677,0.27518l0.00381,0.03034l0.0153,0.02646l0.05126,0.1786l0.06958,0.12028l0.00958,0.03337l0.02146,0.02729l0.05964,0.13306l0.00629,0.00395l0.00382,0.0186l0.00753,0.01682l0.02667,0.14959l0.01458,0.07095l0.61049,0.89001l0.01883,0.05061l0.02793,0.01756l0.02215,0.1078l0.08105,0.10446l0.0505,0.11461l0.0119,0.02057l0.00004,0.00005l0.29554,0.28783l0.01363,0.02206l0.02135,0.01473l0.35321,0.40122l0.39924,0.38445l0.33797,0.31542l0.01066,0.01644l0.01656,0.01048l0.42413,0.44446l0.21382,0.19956l0.00615,0.00949l0.00971,0.00581l0.14744,0.14709l0.3556,0.23435l0.0165,0.01795l0.02235,0.00971l0.6062,0.46546l0.00722,0.00909l0.01048,0.005l0.7712,0.63525l0.90415,0.58272l0.70647,0.3914l0.82952,0.33759l1.08828,0.38101l0.00868,0.00571l0.0103,0.00127l1.19726,0.46072l1.24387,0.31384l0.03464,0.01857l0.03903,0.00467l0.99886,0.38057l0.01532,0.01068l0.01839,0.00324l0.72564,0.32334l0.86314,0.1608l0.01708,0.00782l0.0188,-0.0001l0.83715,0.20458l0.00269,0.00141l0.00303,0.00001l0.62237,0.15798l0.60761,-0.03203l0.62343,-0.04084l0.00427,0.00078l0.00414,-0.00127l0.684,-0.03606l0.32973,-0.04566l0.24381,-0.04658l0.19918,-0.05716l0.24721,-0.09593l0.00468,-0.00059l0.0039,-0.00267l0.26765,-0.0996l0.20672,-0.12553l0.0069,-0.00214l0.0052,-0.00503l0.38149,-0.22069l0.0155,-0.00445l0.0121,-0.01066l0.12589,-0.06504l0.00542,-0.00638l0.00058,-0.00589l0.01325,-0.01042l0.02077,-0.02448l0.11888,-0.08532l0.11502,-0.09045l0.02931,-0.01313l0.0137,-0.00983l0.00582,0.00109l0.00174,-0.00077l0.0152,-0.01629l0.03818,-0.02474l0.02722,-0.03644l0.02071,-0.0169zM365.42124,230.39399l-0.00072,0.04549l-0.0402,0.15055l-0.03946,0.07122l-0.02101,0.07865l-0.47617,0.85949l-0.23256,0.24917l-0.04755,0.00063l-0.06041,0.08089l-0.09727,0.13946l-0.01006,0.00157l-0.11779,0.0961l-0.0207,0.02218l-0.00005,0.0005l-0.00156,0.00123l-0.05338,0.05719l-0.10998,0.07126l-0.10301,0.081l-0.03554,0.01593l-0.02761,0.03257l-0.1044,0.07492l-0.09645,0.08491l-0.22813,0.11786l-0.36177,0.20929l-0.25442,0.15449l-0.06043,0.01874l-0.05218,0.03579l-0.32224,0.11991l-0.27089,0.10511l-0.03034,0.00381l-0.02646,0.0153l-0.25686,0.07372l-0.03055,0.00106l-0.02775,0.01285l-0.28992,0.0554l-0.01733,-0.00097l-0.01611,0.00648l-0.37435,0.05183l-0.02849,-0.00307l-0.0274,0.00841l-0.70785,0.03732l-0.62343,0.04084l-0.00427,-0.00078l-0.00414,0.00127l-0.71207,0.03754l-0.09785,-0.01906l-0.09968,-0.00036l-0.71681,-0.18196l-0.81645,-0.19951l-0.92184,-0.17172l-0.07108,-0.03253l-0.07698,-0.01355l-0.78028,-0.34769l-0.94567,-0.3603l-1.24494,-0.31411l-0.03561,-0.01909l-0.0401,-0.00493l-1.22496,-0.47139l-1.09426,-0.3831l-0.01408,-0.00926l-0.01668,-0.00238l-0.88137,-0.35869l-0.03241,-0.02371l-0.03879,-0.01036l-0.76031,-0.42123l-0.01646,-0.01536l-0.02131,-0.00724l-0.95509,-0.61555l-0.02682,-0.02859l-0.03539,-0.01684l-0.79225,-0.65258l-0.57831,-0.44404l-0.39152,-0.25802l-0.04548,-0.0495l-0.05769,-0.03452l-0.18697,-0.18654l-0.21977,-0.20511l-0.01066,-0.01644l-0.01657,-0.01047l-0.42412,-0.44445l-0.32774,-0.30588l-0.00289,-0.00446l-0.00461,-0.00265l-0.4226,-0.40695l-0.01476,-0.02359l-0.0229,-0.0158l-0.35445,-0.40263l-0.29049,-0.28291l-0.00988,-0.01598l-0.01569,-0.01034l-0.05166,-0.05623l-0.00722,-0.00177l-0.00951,-0.01644l-0.01248,-0.01357l-0.0726,-0.13349l-0.04792,-0.08283l-0.1209,-0.15579l-0.03397,-0.07709l-0.0357,-0.02245l-0.02256,-0.10979l-0.0157,-0.03563l-0.62841,-0.91613l-0.01883,-0.05061l-0.02793,-0.01756l-0.0264,-0.12841l-0.04571,-0.12287l0.01436,-0.0297l-0.01087,-0.05289l0.00053,-0.01264l-0.09272,-0.1603l-0.02246,-0.07826l-0.04076,-0.07047l-0.06544,-0.22802l-0.08979,-0.23141l-0.07035,-0.15697l-0.01295,-0.07266l-0.02795,-0.02765l0.00189,-0.11853l-0.0208,-0.1167l0.02317,-0.03176l0.00118,-0.07379l0.02653,-0.09935l0.01591,-0.15697l-0.00069,-0.00113l0.0013,-0.00486l0.00716,-0.07065l0.04514,-0.1252l0.03434,-0.12859l0.02321,-0.04189l0.02613,-0.08198l0.01078,-0.05791l0.02303,-0.18264l0.02872,-0.07396l0.00942,-0.07877l0.07391,-0.19399l0.01097,-0.05886l0.04424,-0.09666l0.02742,-0.10271l0.08585,-0.15496l0.01047,-0.09709l0.00929,-0.14603l0.00975,-0.0306l0.00181,-0.01676l0.00469,-0.00361l0.04227,-0.13262l0.03463,-0.05603l0.01699,-0.06364l0.60178,-1.08621l-0.00061,-0.0074l0.01259,-0.01422l0.00893,-0.01612l0.10368,-0.11109l0.10072,-0.11377l0.01519,-0.01042l0.01296,-0.01389l0.00743,-0.0001l0.11361,-0.07793l0.1631,-0.17476l0.08207,-0.05318l0.07024,-0.06804l0.12791,-0.07399l0.12255,-0.1126l0.06398,-0.03479l0.05231,-0.05067l0.16876,-0.09762l0.11843,-0.08123l0.06593,-0.02454l1.40082,0.57336l-1.21102,-0.66985l0.02207,-0.018l0.00031,-0.00129l0.00436,-0.00252l0.05503,-0.0449l0.12044,-0.05661l0.993,0.37647l-0.80955,-0.46271l0.36507,0.67284l0.32779,-0.12103l0.01666,-0.39401l-0.12474,-0.39566l0.0641,-0.01513l0.05702,-0.03298l0.27302,-0.07835l1.08513,-0.44622l0.03685,-0.00539l0.03223,-0.01864l0.7192,-0.2064l0.05243,-0.00181l0.04894,-0.01886l0.49956,-0.0617l0.39374,-0.06157l0.42286,-0.09488l0.0465,0.00113l0.04406,-0.01495l0.40741,-0.03351l0.0046,0.00075l0.00443,-0.00144l0.76344,-0.05229l0.04772,0.00851l0.04778,-0.00814l0.99484,0.07592l0.01583,0.00526l0.01657,-0.00199l0.99569,0.12553l0.81202,0.06761l0.03819,0.01299l0.0403,-0.00169l0.62049,0.12775l0.07761,0.03731l0.08409,0.01858l0.74696,0.37238l1.14929,0.42677l0.04159,0.02848l0.0487,0.01301l4.42968,2.45414l0.0197,0.01839l0.02541,0.00901l0.7898,0.52398l0.01416,0.0155l0.01932,0.00823l0.63926,0.48377l0.01318,0.01637l0.01879,0.00942l0.84878,0.72947l0.04282,0.0605l0.05728,0.04704l0.18671,0.2517l0.09465,0.05244l0.00998,-0.00033l0.12397,0.12102l0.12665,0.11821l0.00013,0.01l0.32776,0.53163l0.33414,0.37956l0.00246,0.00476l0.00436,0.00311l0.20952,0.24569l0.00328,0.00662l0.00592,0.00442l0.25732,0.31538l0.02533,0.05388l0.04063,0.04351l0.16463,0.29691l0.19373,0.31054l0.00902,0.00475l0.04682,0.16316l0.05223,0.16152l-0.00482,0.00898l0.00397,0.11512l0.13192,0.38258l0.13469,0.37356l0.00778,0.0767l0.02711,0.07217l0.07418,0.64595l-0.00878,0.06682l0.01055,0.06655l-0.0326,0.37078l-0.02745,0.07944l-0.00804,0.08366l-0.07092,0.19997l-0.0785,0.26574l-0.0442,0.35062l-0.02597,0.06689l-0.00686,0.07142l-0.05294,0.14929l-0.04197,0.33291l-0.02597,0.06689l-0.00686,0.07142l-0.05294,0.14929l-0.04197,0.33291l-0.04534,0.11675l-0.03231,0.12101l-0.14885,0.26866l-0.10012,0.23271l-0.01376,0.10918z" fill="#82615a" stroke="none" stroke-width="0.5" stroke-linecap="butt"/><path d="M363.4163,231.15079l-0.02076,0.01695l-0.02728,0.03653l-0.03824,0.02482l-0.01523,0.01632l-0.00174,0.00079l-0.00583,-0.00108l-0.01372,0.00987l-0.02934,0.01318l-0.11523,0.09072l-0.11909,0.08559l-0.02081,0.02455l-0.01328,0.01045l-0.00059,0.00591l-0.00543,0.0064l-0.12608,0.06529l-0.01213,0.01069l-0.01552,0.00447l-0.38214,0.22147l-0.00521,0.00505l-0.00691,0.00216l-0.2071,0.12595l-0.26809,0.10007l-0.00391,0.00268l-0.0047,0.0006l-0.24764,0.09636l-0.19953,0.0575l-0.2442,0.04697l-0.33028,0.04614l-0.68517,0.03702l-0.00416,0.00127l-0.00427,-0.00077l-0.62464,0.04173l-0.60892,0.03289l-0.62361,-0.15729l-0.00305,-0.00001l-0.00269,-0.00141l-0.8391,-0.20363l-0.01884,0.00013l-0.01713,-0.0078l-0.86561,-0.15988l-0.72785,-0.32274l-0.01846,-0.00322l-0.01536,-0.01067l-1.00259,-0.38004l-0.03919,-0.00466l-0.03478,-0.01856l-1.24927,-0.31408l-1.20276,-0.46214l-0.01034,-0.00128l-0.00872,-0.00572l-1.09285,-0.38328l-0.83257,-0.33979l-0.70884,-0.39366l-0.9067,-0.58592l-0.77299,-0.63833l-0.0105,-0.00502l-0.00724,-0.00913l-0.60717,-0.46768l-0.02237,-0.00976l-0.01652,-0.01802l-0.35599,-0.23546l-0.14762,-0.14769l-0.00971,-0.00584l-0.00615,-0.00953l-0.21406,-0.20037l-0.4245,-0.44612l-0.01658,-0.01052l-0.01067,-0.01651l-0.33816,-0.31654l-0.39939,-0.38573l-0.3533,-0.40245l-0.02134,-0.01477l-0.01363,-0.02213l-0.29556,-0.28864l-0.00004,-0.00006l-0.0119,-0.02063l-0.0505,-0.11493l-0.08106,-0.10473l-0.02215,-0.1081l-0.02793,-0.01761l-0.01883,-0.05074l-0.61034,-0.8922l-0.01456,-0.07112l-0.02662,-0.14996l-0.00754,-0.01685l-0.00381,-0.01864l-0.00629,-0.00396l-0.0596,-0.13336l-0.02144,-0.02735l-0.00957,-0.03345l-0.06954,-0.12053l-0.05118,-0.17901l-0.0153,-0.02653l-0.0038,-0.0304l-0.10666,-0.27575l-0.0012,-0.00171l0.00554,-0.01538l0.01887,-0.18562l0.00272,-0.0102l0.03466,-0.05618l0.05863,-0.18405l0.00268,-0.0418l0.01741,-0.03809l0.02196,-0.11776l-0.0012,-0.01989l0.00721,-0.01858l0.01562,-0.12355l0.06704,-0.17607l0.00718,-0.05982l0.02505,-0.05479l0.00224,-0.01201l0.13133,-0.2373l0.01397,-0.05229l0.02615,-0.02021l0.01416,-0.13062l0.03393,-0.12695l-0.0171,-0.02825l0.00583,-0.05379l-0.00429,-0.03127l0.50837,-0.91805l0.08041,-0.05528l0.04835,-0.05468l0.06119,-0.03973l0.14572,-0.15632l0.10569,-0.06129l0.0524,-0.05082l0.06405,-0.03493l0.12275,-0.11293l0.12808,-0.07427l0.01866,-0.0181l0.02433,-0.00909l0.08172,-0.05617l0.1592,-0.06568l0.07855,-0.05798l0.08827,-0.0416l0.05261,-0.04298l0.28083,-0.08098l0.05711,-0.03311l0.06419,-0.01524l0.30549,-0.15823l0.24564,-0.07083l0.0323,-0.01872l0.03689,-0.00544l1.08714,-0.44837l0.6354,-0.18313l0.45956,-0.05738l0.01024,-0.00395l0.01093,0.00098l0.42665,-0.06726l0.02048,-0.00868l0.02223,0.00051l0.40023,-0.09024l0.358,-0.0299l0.71304,-0.0497l0.93349,0.06995l0.99662,0.12436l0.01431,-0.00172l0.01363,0.00461l0.78925,0.06504l0.49897,0.10222l0.70425,0.34977l0.03529,0.00778l0.02982,0.02035l1.14064,0.42266l4.37847,2.42916l0.75201,0.50056l0.60734,0.46107l0.77792,0.67057l0.18964,0.25626l0.00006,0.00394l0.0093,0.00871l0.02926,0.03954l0.10831,0.08922l0.10247,0.09591l0.04294,0.02387l0.00983,0.0081l0.0039,-0.00047l0.02323,0.01292l0.27336,0.44448l0.04056,0.0397l0.02602,0.05049l0.36788,0.41905l0.2015,0.23693l0.21545,0.26478l0.14425,0.26085l0.01191,0.01278l0.00537,0.01665l0.11219,0.18033l0.00149,0.04337l0.02715,0.09491l0.00855,0.09837l0.16564,0.48185l0.0026,0.004l0.00048,0.00475l0.11006,0.30624l0.05755,0.50409l-0.01947,0.22073l-0.04879,0.13771l-0.00175,0.01809l-0.00921,0.01566l-0.09892,0.33499l-0.00233,0.05426l-0.01965,0.05064l-0.04221,0.33369l-0.05306,0.14965l-0.00691,0.07158l-0.02603,0.06704l-0.04224,0.33366l-0.05308,0.14964l-0.00692,0.07157l-0.02603,0.06704l-0.03524,0.27808l-0.10332,0.18657l-0.0087,0.03252l-0.02039,0.02677l-0.15049,0.34972l-0.01504,0.09204l-0.03379,0.08696l-0.02001,0.1577l-0.00765,0.02858l-0.21295,0.38433c-0.16004,0.04769 -0.30286,0.15662 -0.39019,0.31425c-0.04404,0.07949 -0.07031,0.16462 -0.0795,0.24964z" fill="#82615a" stroke="none" stroke-width="0.5" stroke-linecap="butt"/><path d="M344.48648,217.88013c0.20387,-0.18816 0.5131,-0.23411 0.76906,-0.0923c0.31949,0.177 0.43499,0.57947 0.25799,0.89896c-0.02775,0.05008 -0.06103,0.09515 -0.09867,0.13486c-0.09239,0.37807 -2.80673,1.16288 -3.18289,1.32656c-2.31875,1.00899 -4.92405,3.47135 -6.73722,5.23688c-1.68767,1.64334 -2.75127,4.1287 -3.97864,6.08914c-0.39005,0.62302 -1.07987,0.26012 -1.23601,-0.3452c-0.25981,-1.00717 0.99368,-1.82787 1.51364,-2.72872c2.34426,-4.06146 5.66529,-6.3229 9.30683,-9.11857c0.7944,-0.60987 2.33338,-1.46908 3.38591,-1.40161z" fill="#000000" stroke="none" stroke-width="0.5" stroke-linecap="butt"/></g></g></g></g></svg>