<svg version="1.1" xmlns="http://www.w3.org/2000/svg" xmlns:xlink="http://www.w3.org/1999/xlink" width="122.09569" height="185.26029" viewBox="0,0,122.09569,185.26029"><g transform="translate(-257.62837,-87.36985)"><g stroke-miterlimit="10"><g><g stroke="none" stroke-width="0.5" stroke-linecap="butt"><path d="M327.70894,253.49527l-0.23395,0.00173c0.79492,-0.15914 1.5047,-0.36765 2.31283,-0.37459c2.49629,-0.15627 5.92373,-0.7076 8.15345,0.65284c0.88544,0.54024 1.35107,1.51892 1.99196,2.28689c0.74703,0.89517 1.52722,1.81076 1.63448,2.97825c0.00844,0.22731 0.10055,0.37415 0.21107,0.46632c0.10169,0.09979 0.25494,0.17632 0.47825,0.16398l0.53797,0.00178c3.2988,0 6.28301,1.34212 9.45988,2.04864c0.85579,0.24416 2.18786,0.57113 2.83634,1.19345c0.34117,0.32741 0.11926,1.50454 0.11944,1.90579c0.00061,1.36005 0.12447,3.10814 -0.63655,4.30633c-0.17853,0.2811 -0.91028,0.60441 -1.13651,0.76127c-1.71546,1.1894 -3.25373,1.38223 -5.32359,1.38223c-6.71275,0 -14.24116,0.18505 -20.25273,-3.0928c-1.17888,-0.71949 -2.97378,-1.76464 -3.86646,-2.82726c-0.76006,-0.90474 -0.11996,-2.573 0.07283,-3.58243c0.14703,-0.76977 0.07013,-1.57288 0.18886,-2.34751c0.19078,-1.24465 0.88214,-2.54945 1.20511,-3.78599c0.23183,-0.88759 0.38914,-1.68939 1.23651,-2.02556c0.02762,0.02428 0.05853,0.04803 0.09305,0.07105c0.55025,0.36684 0.91778,-0.1844 0.91778,-0.1844z" fill="#e19c72"/><path d="M334.85208,254.91944c0.65232,0.10872 0.5436,0.76104 0.5436,0.76104l-0.08438,0.45153c0,0.67357 -0.11387,1.50367 0.07039,2.16151c0.76104,2.71691 3.48315,3.15312 5.89786,3.15312c2.70479,0 5.80224,-0.0084 8.30743,1.18141c1.90327,0.90393 3.08455,3.15094 4.1947,4.80889c0,0 0.36684,0.55026 -0.18341,0.91709c-0.55025,0.36684 -0.91709,-0.18342 -0.91709,-0.18342c-0.94046,-1.41615 -2.00855,-3.59426 -3.64872,-4.34177c-2.36387,-1.07734 -5.21246,-1.05956 -7.75292,-1.05956c-3.02056,0 -6.25238,-0.78978 -7.17452,-4.13006c-0.21663,-0.78469 -0.11637,-1.70215 -0.11637,-2.5072l0.10237,-0.66897c0,0 0.10872,-0.65232 0.76105,-0.5436z" fill="#8f0700"/><path d="M349.34602,270.59987c-0.64848,0.1297 -0.77817,-0.51878 -0.77817,-0.51878l-0.01909,-0.26846c-0.76403,-1.34851 -1.78258,-3.73663 -3.13495,-4.62101c-0.65466,-0.42811 -1.92881,-0.18135 -2.64029,-0.18135c-2.26697,0 -4.53393,0 -6.8009,0c-1.58934,0 -3.1264,-0.01907 -4.68247,-0.19315c-0.76648,-0.08575 -1.49545,0.22153 -2.14489,-0.46237c-0.67209,-0.70774 -0.5665,-1.41479 -0.5723,-2.24679c-0.01796,-2.5772 1.42901,-4.74386 1.68584,-7.17846c0,0 0.08204,-0.6562 0.73825,-0.57418c0.65621,0.08202 0.57419,0.73824 0.57419,0.73824c-0.28956,2.08343 -1.69233,4.10268 -1.67563,6.26741c0.0041,0.53167 -0.21591,1.5921 0.17469,2.04842c0.30492,0.35622 0.93723,0.04645 1.40332,0.09787c1.49304,0.16472 2.97115,0.18035 4.49901,0.18035c2.26698,0 4.53394,0 6.80091,0c1.08323,0 2.35228,-0.21885 3.33565,0.37889c1.58348,0.96253 2.69645,3.54104 3.58798,5.0899l0.16767,0.66528c0,0 0.1297,0.64848 -0.51878,0.77818z" fill="#8f0700"/><path d="M326.72017,253.62326c-0.84737,0.33618 -1.0027,1.13441 -1.23453,2.022c-0.32297,1.23653 -1.01231,2.53483 -1.20308,3.77948c-0.11873,0.77463 -0.04145,1.57371 -0.18847,2.34348c-0.1928,1.00943 -0.83346,2.67169 -0.0734,3.57643c0.89267,1.06263 2.6851,2.10093 3.86399,2.82042c6.01157,3.27786 13.49844,3.08586 20.21119,3.08586c2.06986,0 3.60317,-0.18647 5.31863,-1.37587c0.22623,-0.15686 0.95709,-0.47845 1.13563,-0.75954c0.76102,-1.19819 0.63508,-2.93964 0.63447,-4.29969c-0.00018,-0.40125 0.22137,-1.57527 -0.11979,-1.90267c-0.64848,-0.62233 -1.98058,-0.94714 -2.83638,-1.1913c-3.17687,-0.70653 -6.1561,-2.03392 -9.45489,-2.03392h-0.53657c-0.22331,0.01234 -0.37423,-0.0618 -0.47592,-0.1616c-0.11052,-0.09217 -0.19998,-0.23691 -0.20842,-0.46423c-0.10726,-1.16749 -0.87445,-2.07843 -1.62148,-2.97359c-0.64089,-0.76797 -1.09967,-1.747 -1.98512,-2.28724c-2.22972,-1.36044 -5.6425,-0.81716 -8.13879,-0.66089c-0.80812,0.00695 -1.51581,0.21288 -2.31073,0.37202l0.23381,-0.00152c0,0 -0.36684,0.55025 -0.91709,0.18341c-0.03452,-0.02302 -0.06543,-0.04676 -0.09306,-0.07104zM327.2371,252.21544c0.8647,-0.17277 1.63704,-0.379 2.51906,-0.39672c2.06451,-0.12882 4.55,-0.3901 6.59917,-0.07239c2.70938,0.42007 5.74543,3.88181 6.40868,6.61895h0.00952c3.42183,0 6.48843,1.34362 9.78017,2.07454c1.06088,0.30349 2.76941,0.75536 3.51307,1.60993c0.53747,0.61763 0.43598,1.2982 0.44046,2.01905c0.01133,1.82031 0.22841,4.20119 -0.85952,5.78472c-1.57449,2.29174 -5.08973,2.72003 -7.55185,2.72003c-6.96328,0 -14.63709,0.13926 -20.87342,-3.26358c-1.23779,-0.76025 -3.37128,-1.97504 -4.24464,-3.15185c-1.06036,-1.42879 -0.48264,-3.09017 -0.18169,-4.64417c0.524,-2.70581 0.62489,-7.95413 3.5915,-9.17588c0,0 0.36072,-0.13526 0.63477,0.076z" fill="#000000"/></g><g><path d="M339.1569,230.03608c0,0 8.21182,8.70073 9.02087,12.05965c0.86202,3.5788 -0.51717,8.91607 -1.07424,10.72062c-0.64215,2.08017 -2.88236,3.53789 -2.88236,3.53789c0,0 -9.26317,1.90647 -13.75135,2.02392c-3.85614,0.1009 -11.57054,-1.36129 -11.57054,-1.36129c0,0 1.31986,-8.45468 0.79939,-11.97075c-0.41321,-2.79154 -3.67532,-7.4581 -3.67532,-7.4581z" fill="#82615a" stroke="#000000" stroke-width="3" stroke-linecap="round"/><path d="M317.41019,236.71622l0.01475,0.0223l0.01516,0.04288l0.02909,0.03497l0.00967,0.02006l0.00143,0.00126l0.00588,0.0007l0.01015,0.01346l0.02407,0.02125l0.08293,0.12055l0.08813,0.11681l0.01255,0.02955l0.00956,0.0139l-0.00119,0.0058l0.00326,0.0077l0.10086,0.09952l0.00838,0.01377l0.01347,0.00886l0.29863,0.32413l0.00347,0.00635l0.00596,0.0041l0.16005,0.18131l0.22594,0.17468l0.00293,0.0037l0.0043,0.00196l0.2075,0.16509l0.17318,0.1138l0.21893,0.11697l0.30125,0.14163l0.64235,0.2378l0.00358,0.00244l0.00431,0.00053l0.58309,0.22435l0.57062,0.21124l0.64119,0.0342l0.0029,0.0009l0.00299,-0.00055l0.86012,0.05358l0.01792,0.00568l0.01864,-0.00239l0.87192,0.10312l0.78895,-0.09298l0.01853,0.00237l0.0178,-0.00565l1.06684,-0.06637l0.03866,0.00715l0.0386,-0.00744l1.28092,0.07018l1.2801,-0.08392l0.01022,0.00186l0.00999,-0.00287l1.15234,-0.04021l0.89238,-0.07568l0.7909,-0.16366l1.03652,-0.28753l0.9252,-0.37723l0.0115,-0.00165l0.0096,-0.00654l0.71719,-0.26417l0.02423,-0.00262l0.02108,-0.01223l0.4092,-0.11802l0.18449,-0.0966l0.011,-0.00266l0.0087,-0.00723l0.26349,-0.12696l0.53709,-0.29826l0.01893,-0.00508l0.01506,-0.01254l0.41647,-0.20067l0.4955,-0.24836l0.45653,-0.27806l0.02476,-0.00772l0.01957,-0.01701l0.36775,-0.18694l0.00006,-0.00003l0.01748,-0.01611l0.08229,-0.09441l0.10845,-0.07563l0.05321,-0.09634l0.03188,-0.00847l0.03303,-0.04271l0.84751,-0.66826l0.03502,-0.0634l0.06994,-0.13491l0.01219,-0.01381l0.00919,-0.01663l0.00718,-0.0019l0.0965,-0.10931l0.0286,-0.01967l0.01907,-0.02901l0.10219,-0.09415l0.10205,-0.15528l0.02248,-0.02072l0.01267,-0.02782l0.18376,-0.23099l0.00165,-0.00126l-0.00072,-0.0163l0.03714,-0.1824l0.00043,-0.01053l-0.0164,-0.06379l-0.00127,-0.1927l0.00987,-0.0406l-0.00531,-0.04146l0.01404,-0.11867l0.00705,-0.01859l-0.00136,-0.01984l0.02181,-0.1223l-0.01167,-0.18759l0.01093,-0.05912l-0.00762,-0.05963l0.00143,-0.0121l-0.05483,-0.26498l0.00221,-0.05394l-0.01896,-0.02701l0.02534,-0.12862l0.00536,-0.13098l0.02474,-0.02183l0.01044,-0.05298l0.0134,-0.02851l-0.21213,-1.02521l-0.06031,-0.07649l-0.02988,-0.06642l-0.04658,-0.05598l-0.09256,-0.19209l-0.08263,-0.08969l-0.03489,-0.06392l-0.05074,-0.05225l-0.08352,-0.14394l-0.10012,-0.10867l-0.01242,-0.02276l-0.02051,-0.01586l-0.06127,-0.0777l-0.13237,-0.1097l-0.05768,-0.07849l-0.07185,-0.06577l-0.0374,-0.05652l-0.24389,-0.16026l-0.04463,-0.04844l-0.0567,-0.03351l-0.24436,-0.24113l-0.21326,-0.14013l-0.02524,-0.02739l-0.03357,-0.0161l-0.90339,-0.74868l-0.55134,-0.36229l-0.42106,-0.19045l-0.00858,-0.00679l-0.0107,-0.00231l-0.38668,-0.19013l-0.01694,-0.01432l-0.02133,-0.00609l-0.35454,-0.20423l-0.33224,-0.13422l-0.66451,-0.25795l-0.90988,-0.20894l-0.98573,-0.17578l-0.01311,-0.00588l-0.01435,0.00037l-0.77031,-0.1713l-0.50504,-0.05009l-0.77367,0.12532l-0.03587,-0.00304l-0.0344,0.01059l-1.2098,0.06499l-4.88439,1.01066l-0.86481,0.2523l-0.71555,0.25791l-0.94058,0.40663l-0.2568,0.18749l-0.00122,0.00374l-0.01145,0.00552l-0.03963,0.02894l-0.12978,0.05269l-0.12619,0.0608l-0.04805,0.00995l-0.01178,0.00477l-0.00358,-0.0016l-0.026,0.00538l-0.39256,0.34183l-0.05049,0.02573l-0.03979,0.04033l-0.47537,0.28954l-0.26261,0.16567l-0.2842,0.18805l-0.21508,0.20551l-0.01516,0.00863l-0.01006,0.01425l-0.16062,0.13837l-0.01428,0.04085l-0.05408,0.08231l-0.03735,0.09113l-0.30116,0.40964l-0.00367,0.00304l-0.00187,0.00437l-0.19601,0.25895l-0.20466,0.46298l-0.04698,0.21599l0.00567,0.14564l-0.00371,0.01773l0.00414,0.01765l-0.00509,0.34839l-0.01391,0.05236l0.00371,0.05406l-0.05891,0.33033l0.00616,0.15827l-0.01469,0.07024l0.00492,0.07157l-0.05891,0.33033l0.00616,0.15827l-0.01468,0.07023l0.00491,0.07157l-0.0491,0.27533l0.04312,0.20835l-0.00137,0.03356l0.0115,0.03155l0.03957,0.37773l-0.01305,0.09215l0.00637,0.09285l-0.02785,0.15617l-0.0012,0.02949l0.08881,0.42924c0.13863,0.09312 0.24231,0.23849 0.27883,0.41495c0.01842,0.089 0.018,0.17751 0.0015,0.26141zM315.7299,235.35269l0.01932,-0.10833l-0.02639,-0.25196l-0.06224,-0.30077l0.00513,-0.12514l-0.00858,-0.12496l0.05891,-0.33032l-0.00616,-0.15827l0.01468,-0.07022l-0.00491,-0.07158l0.05891,-0.33032l-0.00616,-0.15828l0.01468,-0.07023l-0.00491,-0.07158l0.06205,-0.34791l0.00405,-0.27706l-0.00825,-0.21201l0.01719,-0.08227l-0.00259,-0.08401l0.07912,-0.3637l0.02987,-0.06041l0.01148,-0.0664l0.26287,-0.59467l0.04734,-0.06085l0.03023,-0.07092l0.23967,-0.31662l0.23971,-0.32605l0.03802,-0.10873l-0.00195,-0.01001l0.09789,-0.13868l0.09322,-0.14187l0.01002,-0.00185l0.27729,-0.23889l0.24545,-0.23453l0.05173,-0.02946l0.04021,-0.04391l0.33944,-0.22461l0.00697,-0.00247l0.00511,-0.00534l0.2731,-0.17229l0.00509,-0.00167l0.00376,-0.00382l0.43187,-0.26304l0.47101,-0.41014l0.0031,-0.0095l0.15607,-0.0752l0.15434,-0.07869l0.00944,0.00329l0.10596,-0.02193l0.25311,-0.1848l0.06867,-0.02789l0.05887,-0.04503l1.02728,-0.44412l0.02074,-0.00341l0.01745,-0.01171l0.75419,-0.27183l0.02089,-0.00212l0.01813,-0.01059l0.90988,-0.26546l0.02693,-0.00105l0.02428,-0.01171l4.95903,-1.02611l0.05036,0.00206l0.04817,-0.01482l1.22421,-0.06576l0.8239,-0.13346l0.08581,0.00726l0.0852,-0.01254l0.63041,0.06252l0.03798,0.01359l0.04032,-0.00105l0.7954,0.17687l0.98798,0.17618l0.01523,0.00682l0.01668,-0.00032l0.97242,0.2233l0.04321,0.02199l0.04809,0.00605l0.71337,0.2769l0.0038,0.0027l0.00461,0.00064l0.37902,0.15313l0.03762,0.02738l0.04474,0.01274l0.37553,0.21631l0.35763,0.17585l0.45863,0.20744l0.04112,0.03257l0.04952,0.01732l0.62532,0.41091l0.02523,0.02738l0.03359,0.0161l0.90339,0.74867l0.23738,0.15599l0.04463,0.04844l0.0567,0.03351l-0.23674,0.34068l-0.10124,0.38114l0.27698,0.21302l0.54861,-0.53386l-0.91051,0.20108l1.06003,-0.0642l0.09817,0.08986l0.03919,0.05922l0.00341,0.0037l-0.00008,0.00132l0.01571,0.02375l-1.35541,0.2795l1.50794,-0.13093l0.05566,0.04304l0.08893,0.11277l0.1321,0.14339l0.03488,0.06393l0.05074,0.05224l0.08353,0.14394l0.10012,0.10868l0.04685,0.08585l0.06255,0.07518l0.10377,0.21534l0.0853,0.10819l0.00706,0.0023l0.00825,0.01712l0.01141,0.01447l0.06234,0.13857l0.06596,0.1369l0.00374,0.01805l0.00779,0.01732l-0.00279,0.00688l0.25162,1.216l-0.0027,0.06582l0.01641,0.06379l0.00092,0.13919l0.0034,0.00485l-0.00326,0.01655l0.00021,0.03212l-0.03455,0.14218l-0.01887,0.09581l0.03589,0.17348l-0.00435,0.10621l0.01349,0.10545l-0.00703,0.05946l0.01289,0.2072l-0.01443,0.07801l0.00543,0.07915l-0.03231,0.18123l-0.00692,0.05849l0.00057,0.08605l0.0097,0.0469l-0.00545,0.13297l0.00588,0.13296l-0.01418,0.06959l-0.0002,0.00503l-0.00099,0.00088l-0.03148,0.1546l-0.00421,0.10274l-0.02081,0.07081l0.01268,0.03722l-0.05455,0.10524l-0.03344,0.11373l-0.03491,0.01809l-0.03397,0.06552l-0.11384,0.12895l-0.15454,0.19425l-0.13027,0.19826l-0.05988,0.05516l-0.04471,0.06803l-0.13619,0.12547l-0.00324,0.01222l-0.0261,0.04727l0.00489,0.03262l-0.08018,0.10371l-0.06338,0.11476l-0.03188,0.00846l-0.03303,0.04272l-0.87237,0.68786l-0.02559,0.02935l-0.05418,0.09811l-0.04076,0.01083l-0.05535,0.06351l-0.16175,0.1128l-0.07038,0.06484l-0.109,0.10586l-0.01594,0.00925l-0.01397,0.01286l-0.00741,-0.00046l-0.06604,0.03832l-0.01806,0.00521l-0.01419,0.01232l-0.36146,0.18375l-0.45813,0.27903l-0.02656,0.00827l-0.02111,0.01813l-0.52448,0.2629l-0.00519,0.00115l-0.00408,0.00341l-0.40386,0.19459l-0.53709,0.29826l-0.01893,0.00507l-0.01506,0.01254l-0.27082,0.13049l-0.23397,0.12251l-0.06534,0.01581l-0.05815,0.03374l-0.45052,0.12994l-0.68418,0.25202l-0.95044,0.38752l-0.03879,0.00555l-0.03411,0.01932l-1.09492,0.30374l-0.0225,0.00057l-0.02028,0.00977l-0.85118,0.17613l-0.04012,-0.00165l-0.03799,0.013l-0.94817,0.08041l-0.01663,-0.00269l-0.0162,0.00465l-1.15868,0.04042l-1.30972,0.08586l-0.03976,-0.00721l-0.03968,0.00763l-1.28203,-0.07024l-1.01003,0.06284l-0.84837,0.09997l-0.07754,-0.00995l-0.07753,0.00992l-0.93122,-0.11013l-0.83884,-0.05226l-0.73848,-0.03938l-0.09529,-0.02929l-0.09909,-0.0109l-0.6687,-0.24756l-0.00357,-0.00244l-0.00431,-0.00053l-0.58309,-0.22435l-0.66476,-0.2461l-0.02365,-0.01617l-0.02811,-0.00554l-0.34201,-0.16078l-0.01345,-0.01098l-0.01684,-0.00422l-0.26033,-0.13909l-0.02267,-0.02053l-0.02886,-0.0101l-0.22333,-0.14675l-0.02071,-0.02248l-0.02783,-0.01266l-0.22739,-0.1809l-0.27201,-0.2103l-0.03918,-0.04969l-0.05213,-0.03587l-0.19698,-0.22315l-0.28319,-0.30738l-0.18277,-0.18036l-0.06684,-0.10974l-0.0774,-0.10258l-0.01668,-0.03931l-0.0292,-0.02577l-0.07427,-0.10797l-0.08382,-0.10073l-0.03396,-0.07048l-0.00113,-0.00164l0.0001,-0.0005l-0.01317,-0.02733l-0.08388,-0.12677l-0.00914,-0.00449l-0.0514,-0.16208l-0.03363,-0.09519l-0.04521,-0.01474l-0.14795,-0.30706l-0.19909,-0.9622l0.00333,-0.08134l-0.0165,-0.07973l0.00637,-0.15569l0.01283,-0.04364z" fill="#82615a" stroke="none" stroke-width="0.5" stroke-linecap="butt"/><path d="M317.41954,236.67602c0.01651,-0.0839 0.01674,-0.173 -0.00167,-0.26199c-0.03651,-0.17646 -0.14048,-0.32294 -0.27911,-0.41606l-0.08905,-0.43026l0.00119,-0.02956l0.02778,-0.15652l-0.00641,-0.09306l0.01301,-0.09235l-0.0397,-0.37865l-0.0115,-0.03162l0.00136,-0.03364l-0.04317,-0.20885l0.04904,-0.27598l-0.00492,-0.07175l0.01466,-0.0704l-0.00618,-0.15865l0.05888,-0.33113l-0.00492,-0.07175l0.01468,-0.07041l-0.00616,-0.15866l0.05892,-0.33114l-0.00371,-0.05419l0.01391,-0.05249l0.00515,-0.34924l-0.00413,-0.01769l0.00371,-0.01779l-0.00563,-0.14599l0.04704,-0.21652l0.20481,-0.46418l0.19614,-0.25967l0.00187,-0.00439l0.00367,-0.00304l0.30141,-0.41082l0.03741,-0.09137l0.05413,-0.08254l0.01431,-0.04096l0.16074,-0.13881l0.01008,-0.0143l0.01516,-0.00866l0.21528,-0.20616l0.28443,-0.18874l0.26283,-0.16631l0.47584,-0.29071l0.03987,-0.04047l0.05053,-0.02585l0.39316,-0.3431l0.02602,-0.00541l0.00358,0.0016l0.0118,-0.0048l0.04809,-0.01003l0.12635,-0.0611l0.12994,-0.05298l0.0397,-0.02905l0.01147,-0.00555l0.00123,-0.00374l0.25725,-0.18829l0.94212,-0.40894l0.71697,-0.25964l0.86683,-0.25433l4.90272,-1.01748l1.21473,-0.0644l0.03452,-0.01057l0.03602,0.00306l0.77639,-0.12456l0.5068,0.05076l0.7729,0.17256l0.01439,-0.00036l0.01316,0.00591l0.98852,0.17759l0.91208,0.21076l0.66601,0.25944l0.33293,0.135l0.35529,0.20515l0.02137,0.00612l0.01697,0.01438l0.38737,0.19108l0.01072,0.00232l0.0086,0.00683l0.42171,0.19141l0.55221,0.36377l0.90466,0.75133l0.03361,0.01617l0.02527,0.02748l0.21347,0.14066l0.24463,0.24189l0.05675,0.03364l0.04467,0.04858l0.24406,0.16082l0.03746,0.05668l0.07191,0.06597l0.05775,0.07872l0.13247,0.11004l0.06133,0.07792l0.02053,0.01591l0.01243,0.02283l0.10019,0.10898l0.08362,0.14432l0.05077,0.05239l0.03492,0.0641l0.08269,0.08995l0.09265,0.19259l0.0466,0.05614l0.02991,0.06659l0.06034,0.07668l0.21242,1.02768l-0.0134,0.02858l-0.01042,0.0531l-0.02473,0.02188l-0.00534,0.13129l-0.02533,0.12893l0.01896,0.02706l-0.00221,0.05408l0.05484,0.26562l-0.00143,0.01213l0.00763,0.05978l-0.01093,0.05925l0.01167,0.18803l-0.02182,0.12261l0.00136,0.01989l-0.00706,0.01863l-0.01405,0.11896l0.0053,0.04155l-0.00987,0.04071l0.00124,0.19315l0.01639,0.06395l-0.00043,0.01055l-0.03718,0.18283l0.00071,0.01633l-0.00165,0.00127l-0.18383,0.23158l-0.01268,0.0279l-0.02249,0.02077l-0.10209,0.1557l-0.10223,0.09441l-0.01909,0.02909l-0.02861,0.01973l-0.09655,0.10961l-0.00718,0.00191l-0.00918,0.01667l-0.0122,0.01385l-0.07001,0.13526l-0.03505,0.06358l-0.84801,0.67039l-0.03307,0.04284l-0.0319,0.0085l-0.0533,0.09662l-0.10853,0.0759l-0.08239,0.09472l-0.01749,0.01617l-0.00006,0.00003l-0.36802,0.18771l-0.0196,0.01707l-0.02477,0.00776l-0.45698,0.2792l-0.49602,0.24954l-0.41699,0.20169l-0.01509,0.01259l-0.01896,0.00511l-0.53795,0.29974l-0.26394,0.12765l-0.00871,0.00727l-0.01101,0.00268l-0.18486,0.09712l-0.4099,0.11897l-0.02113,0.01229l-0.02427,0.00267l-0.71876,0.26601l-0.00963,0.00656l-0.01151,0.00167l-0.92782,0.37964l-1.0399,0.28985l-0.79384,0.1651l-0.89595,0.07689l-1.15739,0.04101l-0.01003,0.00287l-0.01025,-0.00186l-1.28578,0.08364l-1.28616,-0.07156l-0.03873,0.00738l-0.0388,-0.0072l-1.07024,0.06476l-0.01784,0.00563l-0.01858,-0.00241l-0.7909,0.09173l-0.874,-0.10472l-0.01867,0.00236l-0.01796,-0.00573l-0.8617,-0.05506l-0.00299,0.00055l-0.0029,-0.0009l-0.64217,-0.03524l-0.57161,-0.21243l-0.58398,-0.22557l-0.00431,-0.00053l-0.00358,-0.00245l-0.64318,-0.23907l-0.30163,-0.14226l-0.21919,-0.11745l-0.17341,-0.11422l-0.20779,-0.16564l-0.0043,-0.00196l-0.00293,-0.00372l-0.22621,-0.17525l-0.16029,-0.18184l-0.00596,-0.00412l-0.00347,-0.00636l-0.29901,-0.32507l-0.01349,-0.00888l-0.00841,-0.01381l-0.10096,-0.09982l-0.00328,-0.00773l0.00119,-0.00582l-0.00957,-0.01394l-0.01257,-0.02963l-0.08825,-0.11712l-0.08304,-0.12088l-0.0241,-0.02131l-0.01017,-0.01351l-0.00588,-0.0007l-0.00143,-0.00127l-0.00968,-0.02011l-0.02913,-0.03507l-0.01519,-0.043l-0.01478,-0.02236z" fill="#82615a" stroke="none" stroke-width="0.5" stroke-linecap="butt"/><path d="M342.25775,232.01931c2.64564,3.75196 5.1441,6.89855 6.17478,11.47333c0.22861,1.01471 1.18139,2.17098 0.63388,3.05536c-0.32906,0.53152 -1.09557,0.67291 -1.28275,-0.03791c-0.58897,-2.2367 -0.86552,-4.92591 -1.98827,-6.99671c-1.20624,-2.22479 -2.96162,-5.35041 -4.8755,-7.00319c-0.31048,-0.26812 -2.66874,-1.82448 -2.64454,-2.21292c-0.02413,-0.04912 -0.04251,-0.10204 -0.05411,-0.1581c-0.07401,-0.35766 0.15594,-0.7076 0.5136,-0.7816c0.28655,-0.05929 0.56813,0.07652 0.70684,0.31678c1.02499,0.24853 2.2389,1.52644 2.81606,2.34494z" fill="#000000" stroke="none" stroke-width="0.5" stroke-linecap="butt"/></g></g><g stroke="none" stroke-width="0.5" stroke-linecap="butt"><path d="M361.98071,183.26467c0.1424,0.3454 0.2941,0.70472 0.53002,1.08631c0.97147,1.57139 2.25108,2.91565 3.31564,4.41398c1.42905,2.01134 2.27454,4.50152 3.81743,6.41169c1.7262,3.36298 3.76703,7.04639 4.85771,10.64652c0.55559,1.83391 1.23371,3.88628 2.03659,5.63961c1.00451,1.87858 1.86451,4.28316 1.88987,6.40854c0.0225,1.88487 -1.88512,5.21928 -3.86055,5.61011c-0.68822,0.13616 -1.4471,-0.4931 -1.98703,-0.81551c-1.87428,-1.54658 -3.95345,-3.05978 -5.29146,-5.1182c-1.40839,-2.16669 -2.29728,-4.34431 -3.44827,-6.6179c-0.74039,-1.46253 -1.86067,-2.66086 -2.58119,-4.13479c-1.27561,-2.46524 -3.00411,-4.70494 -4.25916,-7.17993c-1.65454,-3.26279 -3.38783,-6.78536 -5.69186,-9.64312c-0.12,-0.22986 -0.23195,-0.46407 -0.34,-0.70007c0.13834,-0.59103 0.69407,-1.14882 1.15332,-1.58072c2.84571,-2.49445 5.89314,-5.58361 9.85896,-4.42652z" fill="#e6a075"/><path d="M355.6457,180.74599c0.54896,-0.34082 0.90874,0.20959 0.90874,0.20959l0.13885,0.28521c0.19594,0.14812 0.39188,0.29623 0.58783,0.44434c0,0 0.0902,0.06817 0.16835,0.18423c0.14614,0.09411 0.22855,0.2202 0.22855,0.2202l0.38339,0.58723c1.66475,2.2061 2.86721,4.71898 4.28638,7.07847c1.19528,1.36172 1.79316,2.88782 2.81041,4.36345c1.16924,1.6961 2.48694,3.20758 3.42622,5.05347c1.1623,2.28419 1.69721,4.61835 2.47173,7.02384c0.91047,4.92307 5.35439,9.10241 5.02897,14.16879c0,0 -0.04155,0.64482 -0.69659,0.58723c-0.65503,-0.05759 -0.61348,-0.70241 -0.61348,-0.70241c0.16153,-2.49778 -0.92488,-4.24151 -2.12881,-6.40308c-1.20337,-2.16056 -2.4114,-4.93588 -2.86316,-7.36725c-0.75269,-2.31792 -1.25306,-4.54872 -2.3699,-6.75239c-0.90935,-1.79427 -2.19896,-3.24382 -3.33027,-4.89309c-1.00831,-1.46996 -1.61501,-2.98421 -2.7933,-4.33947c-1.43351,-2.36012 -2.63152,-4.88679 -4.3007,-7.09845l-0.40881,-0.62472c0,0 -0.00546,-0.00836 -0.01402,-0.02367c-0.0421,-0.02384 -0.06644,-0.04223 -0.06644,-0.04223c-0.19594,-0.14811 -0.39188,-0.29623 -0.58783,-0.44434l-0.4553,-0.62374c0,0 -0.35977,-0.55041 0.18918,-0.89122z" fill="#961308"/><path d="M360.95532,181.60063c-1.65475,-0.99219 -3.2276,-1.96258 -5.05691,-2.60139c-0.6052,-0.10218 -1.6736,-0.56586 -2.27816,-0.43432c-2.11374,0.45991 -5.35436,2.51741 -5.40566,4.97803c-0.02108,1.01088 0.91126,2.04152 1.40409,2.85581c0.26702,0.44119 0.4924,0.90527 0.70444,1.37707c0.25517,-0.35442 0.56928,-0.69428 0.91054,-1.02487c2.94942,-2.58555 6.0407,-5.42463 9.92322,-4.94001c-0.06198,-0.07016 -0.12891,-0.14023 -0.20155,-0.21031zM362.51562,184.37652c-0.23591,-0.38159 -0.38719,-0.74098 -0.5296,-1.08638c-3.96582,-1.1571 -7.00034,1.9257 -9.84605,4.42015c-0.45925,0.43189 -1.01318,0.98784 -1.15151,1.57887c0.10804,0.236 0.22028,0.46989 0.34028,0.69975c2.30402,2.85776 4.04241,6.37064 5.69694,9.63344c1.25505,2.475 2.97642,4.6893 4.25204,7.15455c0.72053,1.47393 1.82848,2.66534 2.56887,4.12786c1.151,2.27361 2.03164,4.45044 3.44003,6.61712c1.33802,2.05843 3.41142,3.57263 5.2857,5.11921c0.53993,0.3224 1.29705,0.95225 1.98526,0.8161c1.97542,-0.39082 3.87646,-3.72161 3.85396,-5.60648c-0.02537,-2.12538 -0.88882,-4.52676 -1.89334,-6.40533c-0.80287,-1.75334 -1.48542,-3.79866 -2.04102,-5.63258c-1.09069,-3.60012 -3.11929,-7.25051 -4.84548,-10.61348c-1.54289,-1.91017 -2.37611,-4.39712 -3.80517,-6.40848c-1.06457,-1.49833 -2.33947,-2.84293 -3.31094,-4.41432zM362.18419,181.03978c0.32442,0.39616 0.52707,0.7927 0.71314,1.20239c0.32813,0.12117 0.66188,0.26666 1.00154,0.43824c0,0 0.12974,0.06599 0.23765,0.19532c0.44133,-0.38619 0.19676,-1.10759 0.18982,-1.72713c-0.02417,-2.1556 -1.99153,-4.23528 -3.50476,-5.68656c-3.34175,-3.10002 -7.20356,-6.32839 -11.46635,-8.09406c-1.76956,-0.73296 -3.76931,-0.89451 -5.63233,-1.22464c-0.40647,0.05624 -1.67182,0.18746 -2.05505,0.40923c-0.65358,0.37824 -1.09677,2.57368 -1.29616,3.26697c-1.02877,3.57706 -0.28405,7.01477 1.52436,10.37559c1.36238,3.71183 3.96841,7.83098 7.79853,9.6003c-0.01097,-0.09693 -0.0159,-0.1926 -0.01515,-0.28706c-0.36916,-0.8413 -0.71192,-1.69723 -1.18548,-2.47073c-0.66954,-1.09358 -1.61838,-2.21081 -1.59191,-3.54741c0.05305,-2.67844 2.67283,-4.61024 4.89444,-5.44855c0.52787,-0.19919 0.95872,-0.63795 1.51599,-0.74284c0.8758,-0.16483 2.01863,0.29814 2.88675,0.44812c1.98618,0.68784 3.68345,1.71349 5.48036,2.79006l-0.10826,-0.07798c0,0 0.57035,0.05013 0.61287,0.58075zM355.85143,200.17119c-1.46886,-2.88769 -2.9933,-6.00531 -4.95067,-8.63929c-0.18105,0.04189 -0.32663,0.00338 -0.43885,-0.06319c-4.80911,-1.58513 -8.13954,-6.31296 -9.76417,-10.77549c-2.09554,-3.91935 -2.81888,-7.98824 -1.32449,-12.10522c0.3001,-0.82676 0.67484,-2.55042 1.46472,-3.05935c0.77117,-0.49687 1.99057,-0.56526 2.87636,-0.67984c2.03653,0.33708 4.20229,0.53732 6.13497,1.33255c4.41276,1.81567 8.41158,5.15119 11.86794,8.35715c1.79766,1.74056 3.88121,4.06173 3.92168,6.62532c0.02058,1.30385 0.17317,2.13608 -0.98136,2.94055l-0.85304,-0.1126c0.93935,1.42083 2.09348,2.66283 3.0744,4.05208c1.43552,2.03308 2.28629,4.55531 3.85006,6.47284c1.80712,3.4683 3.85551,7.2365 5.00573,10.9567c0.54636,1.76709 1.17007,3.74741 1.96026,5.42822c1.08132,2.07378 2.03128,4.66894 2.02909,7.00452c-0.00231,2.45692 -2.32555,6.42828 -4.9252,6.82946c-1.13936,0.17583 -2.05464,-0.49679 -2.97136,-1.04756c-2.01652,-1.65247 -4.19053,-3.27989 -5.63523,-5.47905c-1.45034,-2.20776 -2.36152,-4.44913 -3.52955,-6.77504c-0.72953,-1.45272 -1.83547,-2.64006 -2.55749,-4.10471c-1.27568,-2.46636 -2.99463,-4.6826 -4.25378,-7.15802z" fill="#000000"/><path d="M362.75908,183.14729c0.73816,-0.27454 1.21879,-0.57798 1.02408,-1.00385c-0.33749,-0.7382 -2.07935,-0.13165 -2.50684,0.07021c-2.49559,1.17845 -3.81065,0.08687 -6.81534,2.10042c-0.17433,0.11683 -0.08877,-0.41244 -0.16088,-0.60951c-0.12322,-0.33676 -0.25847,-0.69564 -0.36941,-1.04464c-0.30174,-0.94924 -0.90595,-1.56202 -1.41046,-2.41293c-1.95583,-3.29863 -4.31141,-10.65701 0.26456,-12.73813c2.19182,-0.99683 5.16914,-0.78518 7.28264,0.21132c0.04096,0.01932 1.0554,5.32274 1.26219,5.79851c1.10746,2.54791 4.45343,5.34952 4.34128,8.27488c-0.07848,2.04672 -1.15703,2.55285 -2.09983,3.50246c-0.21334,-0.12759 -0.49762,-0.31071 -0.51903,-0.44076c-0.09111,-0.55346 -0.1328,-1.21337 -0.29297,-1.70797z" fill="#b3c976"/><path d="M363.06541,184.87809c0.02142,0.13006 0.27849,0.26781 0.49182,0.3954c0.94281,-0.94961 2.01373,-1.44864 2.09221,-3.49536c0.11216,-2.92537 -3.23246,-5.69435 -4.33992,-8.24226c-0.2068,-0.47577 -1.20713,-5.7706 -1.2481,-5.78992c-2.1135,-0.9965 -5.0712,-1.2112 -7.26303,-0.21438c-4.57597,2.08112 -2.21241,9.40147 -0.25658,12.7001c0.50452,0.85091 1.10157,1.45683 1.40331,2.40607c0.11094,0.349 0.24375,0.70648 0.36698,1.04324c0.07212,0.19708 -0.01459,0.7258 0.15974,0.60897c3.0047,-2.01354 4.29624,-0.92106 6.79183,-2.0995c0.42749,-0.20187 2.1635,-0.80406 2.50097,-0.06586c0.1947,0.42588 -0.25238,0.76996 -0.99054,1.0445c0.16017,0.49459 0.20022,1.15555 0.29133,1.70901zM357.48525,184.09531c-1.42228,0.12461 -1.83055,1.07775 -2.80371,1.94311c-0.10114,0.08993 -0.21478,0.23633 -0.34753,0.20994c-1.39026,-0.27635 -1.33789,-2.99544 -2.03419,-4.07662c-2.51347,-3.90281 -6.25322,-12.33221 -0.63821,-15.54355c2.34448,-1.34086 7.13469,-1.77274 9.34269,0.11413c1.29617,1.10766 0.62114,4.07392 1.25625,5.55597c1.33953,3.1259 4.52321,5.92713 4.71461,9.43739c0.05978,1.09627 -1.50152,5.79759 -3.57417,5.04996c-0.00303,-0.00107 -0.00604,-0.00218 -0.00905,-0.0033c-0.08577,-0.03195 -0.16099,-0.07982 -0.22354,-0.13899c-0.87785,0.01099 -1.55413,-1.9114 -1.79647,-3.08691c-1.50864,0.32166 -3.27121,0.48497 -3.88665,0.53889z" fill="#000000"/></g><g stroke="none" stroke-width="0.5" stroke-linecap="butt"><path d="M343.29182,100.90333l-0.62658,1.12618c-2.02189,2.04034 -4.5674,3.22618 -7.10548,4.49546c-2.15467,1.01367 -4.38808,1.98721 -6.50424,3.07023c-1.49132,0.76324 -2.2823,2.07837 -4.18806,1.83832c-3.52334,-0.44381 -4.28156,-5.88711 -3.08294,-8.47906c0.66572,-1.43958 1.87536,-2.13548 3.23359,-2.5081c-0.1859,-0.19583 -0.35935,-0.40144 -0.50696,-0.62758c-1.23131,-1.88642 -0.64581,-3.76409 1.57031,-4.36466c1.51871,-0.41156 2.95952,-0.14993 4.29346,0.42755c-0.2182,-0.85584 -0.27379,-1.72511 0.11652,-2.52809c1.14464,-2.35483 3.76658,-1.66229 5.43412,-0.30511c0.50424,-1.65649 1.25977,-3.48072 2.4614,-4.52935c2.03885,-1.77925 5.95119,-1.51864 7.39724,0.96399c1.92196,3.29967 -1.02492,7.63824 -2.08489,10.63191c0,0 -0.08939,0.25031 -0.30025,0.48644c-0.04064,0.17981 -0.10724,0.3019 -0.10724,0.3019zM323.70999,103.83251c-0.58953,1.34119 -0.41732,3.41429 0.42912,4.55717c0.26143,0.353 0.50209,0.89434 1.0286,0.94901c0.99504,0.10331 2.1225,-1.21337 2.89537,-1.61258c2.1318,-1.10116 4.39823,-2.08143 6.57286,-3.10507c2.1964,-1.098 4.56533,-2.11446 6.33487,-3.85935l0.2672,-0.50287c-0.22213,-0.49523 -0.02989,-1.03351 -0.02989,-1.03351c0.75482,-2.0978 3.47967,-6.037 2.27414,-8.43887c-0.49831,-0.99282 -2.63375,-1.00616 -3.31872,-0.3074c-1.11865,1.14116 -1.68933,3.11773 -2.0571,4.608l0.03949,0.13328c0,0 0,1.32264 -1.32264,1.32264c-0.77888,0 -1.0991,-0.45868 -1.23074,-0.83581c-0.26064,-0.15907 -0.40309,-0.39651 -0.40309,-0.39651c-0.48576,-0.92136 -1.05706,-1.04873 -2.06522,-1.31431c-0.28724,-0.07567 -0.60671,-0.23375 -0.68504,0.18468c-0.24357,1.30116 0.45121,2.42734 0.84725,3.61072l0.00959,0.07516c0.0889,0.21808 0.11323,0.49569 -0.05675,0.81234c-0.07833,0.18561 -0.21714,0.3824 -0.4631,0.49699c-0.23621,0.13354 -0.47702,0.13212 -0.67359,0.08797c-0.28435,-0.03647 -0.47662,-0.15913 -0.60662,-0.30832c-1.47628,-1.04657 -2.17604,-1.38798 -4.02644,-1.40607c-0.48613,-0.00475 -1.13107,-0.28864 -1.45666,0.07237c-0.55155,0.61157 1.20797,2.05288 1.70243,2.52448c0.21518,0.08034 0.43963,0.23981 0.555,0.55312c0.09112,0.18257 0.14009,0.41379 0.05767,0.68251c-0.05328,0.27598 -0.20501,0.45719 -0.37113,0.57567c-0.23694,0.21188 -0.49575,0.25425 -0.71655,0.23194c-1.25781,0.1144 -2.93623,0.29109 -3.53032,1.64263z" fill="#000000"/><path d="M327.26489,102.1801c0.22079,0.02231 0.43053,-0.00029 0.66747,-0.21217c0.16612,-0.11848 0.3172,-0.30147 0.37048,-0.57745c0.08242,-0.26871 0.03263,-0.5031 -0.05849,-0.68567c-0.11537,-0.31331 -0.34022,-0.47568 -0.5554,-0.55602c-0.49446,-0.47161 -2.25316,-1.92197 -1.7016,-2.53354c0.32559,-0.36102 0.97108,-0.07889 1.4572,-0.07414c1.8504,0.01809 2.60018,0.37675 4.07646,1.42332c0.13001,0.14919 0.27175,0.25625 0.5561,0.29273c0.19657,0.04414 0.44037,0.0387 0.67659,-0.09485c0.24596,-0.11459 0.3988,-0.32255 0.47713,-0.50815c0.16999,-0.31665 0.15009,-0.59535 0.0612,-0.81343l-0.00155,-0.02287c-0.39605,-1.18338 -1.10018,-2.36161 -0.85661,-3.66277c0.07833,-0.41843 0.40107,-0.26081 0.6883,-0.18514c1.00816,0.26558 1.59074,0.3945 2.0765,1.31587c0,0 0.14528,0.23867 0.40591,0.39775c0.13165,0.37713 0.45891,0.84104 1.23779,0.84104c1.32264,0 1.28462,-1.28586 1.28462,-1.28586l-0.03914,-0.13292c0.36776,-1.49028 0.97247,-3.50713 2.09112,-4.6483c0.68497,-0.69875 2.82469,-0.68159 3.323,0.31124c1.20553,2.40187 -1.51261,6.35719 -2.26743,8.45499c0,0 -0.19228,0.54185 0.02985,1.03709l-0.2674,0.50471c-1.76954,1.74489 -4.15909,2.78335 -6.3555,3.88135c-2.17463,1.02365 -4.46154,1.99988 -6.59334,3.10104c-0.77287,0.39922 -1.90276,1.71403 -2.89779,1.61072c-0.52651,-0.05466 -0.76923,-0.59802 -1.03067,-0.95101c-0.84644,-1.14288 -1.02361,-3.22364 -0.43407,-4.56484c0.59408,-1.35154 2.32146,-1.54829 3.57927,-1.6627z" fill="#7c3e1e"/></g><g stroke="none" stroke-width="0.5" stroke-linecap="butt"><path d="M273.73937,253.55107l-0.23395,0.00172c0.79492,-0.15915 1.5047,-0.36765 2.31283,-0.37459c2.4963,-0.15627 5.92372,-0.7076 8.15345,0.65284c0.88545,0.54025 1.35108,1.51892 1.99196,2.28689c0.74703,0.89517 1.52723,1.81075 1.63449,2.97824c0.00843,0.22731 0.10054,0.37415 0.21106,0.46633c0.1017,0.0998 0.25494,0.17632 0.47825,0.16399l0.53797,0.00178c3.29879,0 6.28301,1.34212 9.45987,2.04864c0.8558,0.24416 2.18787,0.57112 2.83635,1.19344c0.34117,0.32741 0.11925,1.50455 0.11943,1.90579c0.00061,1.36005 0.12446,3.10814 -0.63656,4.30633c-0.17853,0.2811 -0.91028,0.60441 -1.13651,0.76127c-1.71546,1.1894 -3.25373,1.38223 -5.32359,1.38223c-6.71275,0 -14.24117,0.18506 -20.25273,-3.0928c-1.17888,-0.71949 -2.97378,-1.76464 -3.86646,-2.82726c-0.76005,-0.90475 -0.11996,-2.57301 0.07283,-3.58244c0.14703,-0.76977 0.07013,-1.57287 0.18886,-2.34751c0.19077,-1.24465 0.88214,-2.54945 1.20511,-3.78598c0.23183,-0.88759 0.38915,-1.68939 1.23651,-2.02556c0.02762,0.02428 0.05853,0.04803 0.09306,0.07105c0.55025,0.36684 0.91778,-0.1844 0.91778,-0.1844z" fill="#e19c72"/><path d="M280.8825,254.97524c0.65232,0.10872 0.5436,0.76104 0.5436,0.76104l-0.08437,0.45152c0,0.67356 -0.11388,1.50367 0.07039,2.16151c0.76104,2.71691 3.48315,3.15312 5.89786,3.15312c2.70479,0 5.80224,-0.00839 8.30743,1.18142c1.90327,0.90393 3.08456,3.15094 4.19471,4.80889c0,0 0.36684,0.55025 -0.18341,0.91709c-0.55026,0.36684 -0.91709,-0.18341 -0.91709,-0.18341c-0.94045,-1.41616 -2.00854,-3.59426 -3.64872,-4.34177c-2.36387,-1.07734 -5.21245,-1.05957 -7.75292,-1.05957c-3.02056,0 -6.25238,-0.78978 -7.17453,-4.13006c-0.21663,-0.78469 -0.11636,-1.70215 -0.11636,-2.5072l0.10237,-0.66897c0,0 0.10872,-0.65232 0.76104,-0.5436z" fill="#8f0700"/><path d="M295.37647,270.65566c-0.64848,0.12969 -0.77818,-0.51878 -0.77818,-0.51878l-0.01908,-0.26846c-0.76403,-1.3485 -1.78258,-3.73663 -3.13496,-4.62101c-0.65467,-0.42812 -1.92882,-0.18136 -2.64029,-0.18136c-2.26697,0 -4.53393,0 -6.80091,0c-1.58935,0 -3.12639,-0.01906 -4.68246,-0.19314c-0.76648,-0.08575 -1.49546,0.22152 -2.1449,-0.46238c-0.67209,-0.70774 -0.5665,-1.41479 -0.5723,-2.24679c-0.01796,-2.5772 1.42901,-4.74385 1.68584,-7.17846c0,0 0.08203,-0.65621 0.73824,-0.57419c0.65621,0.08203 0.57419,0.73824 0.57419,0.73824c-0.28955,2.08344 -1.69232,4.10268 -1.67563,6.26741c0.0041,0.53168 -0.21591,1.5921 0.17469,2.04842c0.30492,0.35623 0.93724,0.04645 1.40332,0.09787c1.49304,0.16472 2.97116,0.18036 4.49901,0.18036c2.26697,0 4.53393,0 6.80091,0c1.08322,0 2.35228,-0.21885 3.33565,0.3789c1.58348,0.96253 2.69645,3.54104 3.58798,5.0899l0.16766,0.66528c0,0 0.1297,0.64848 -0.51878,0.77818z" fill="#8f0700"/><path d="M272.84364,253.75009c-0.03453,-0.02302 -0.06544,-0.04676 -0.09307,-0.07104c-0.84737,0.33617 -1.0027,1.13441 -1.23452,2.022c-0.32297,1.23653 -1.0123,2.53483 -1.20308,3.77948c-0.11873,0.77464 -0.04145,1.57372 -0.18847,2.34349c-0.19279,1.00943 -0.83346,2.67168 -0.0734,3.57643c0.89268,1.06262 2.68511,2.10093 3.86399,2.82042c6.01157,3.27786 13.49844,3.08586 20.21119,3.08586c2.06986,0 3.60317,-0.18647 5.31863,-1.37587c0.22624,-0.15686 0.9571,-0.47845 1.13563,-0.75954c0.76102,-1.1982 0.63508,-2.93965 0.63447,-4.29969c-0.00018,-0.40124 0.22137,-1.57526 -0.11979,-1.90267c-0.64848,-0.62233 -1.98058,-0.94713 -2.83637,-1.19129c-3.17686,-0.70652 -6.15609,-2.03392 -9.45489,-2.03392h-0.53657c-0.22332,0.01234 -0.37423,-0.06179 -0.47592,-0.1616c-0.11052,-0.09217 -0.19999,-0.23692 -0.20843,-0.46423c-0.10726,-1.16749 -0.87444,-2.07843 -1.62148,-2.97359c-0.64089,-0.76796 -1.09967,-1.74699 -1.98513,-2.28724c-2.22972,-1.36044 -5.6425,-0.81717 -8.13879,-0.66089c-0.80813,0.00695 -1.51581,0.21287 -2.31073,0.37202l0.23381,-0.00152c0,0 -0.36684,0.55025 -0.91709,0.18341zM273.26753,252.27124c0.8647,-0.17276 1.63704,-0.37901 2.51906,-0.39672c2.06451,-0.12882 4.55,-0.3901 6.59917,-0.07239c2.70938,0.42007 5.74543,3.88181 6.40868,6.61895h0.00952c3.42183,0 6.48844,1.34362 9.78018,2.07454c1.06088,0.30349 2.76941,0.75537 3.51307,1.60993c0.53747,0.61763 0.43596,1.2982 0.44045,2.01905c0.01133,1.8203 0.22842,4.20118 -0.85952,5.78471c-1.5745,2.29175 -5.08974,2.72004 -7.55185,2.72004c-6.96328,0 -14.6371,0.13925 -20.87343,-3.26359c-1.23779,-0.76025 -3.37128,-1.97503 -4.24464,-3.15185c-1.06036,-1.42879 -0.48264,-3.09017 -0.18169,-4.64417c0.524,-2.70581 0.62489,-7.95413 3.5915,-9.17588c0,0 0.36072,-0.13527 0.63476,0.07599z" fill="#000000"/></g><path d="M353.3099,107.31528c0,0 0.539,1.78626 0.70077,2.20847c0.05749,0.15007 0.67871,0.10223 1.13536,0.24635c0.58478,0.18456 1.02667,0.5442 1.02667,0.5442c0,0 5.14873,5.99865 5.69966,14.99773c0.01612,0.26331 1.65474,1.62821 2.2502,2.66295c2.87575,4.99725 9.3969,16.50516 9.528,17.8547c0.91886,9.45945 -4.04439,16.77325 -11.81211,19.37734c-7.2725,2.43807 -17.35673,0.45324 -17.30031,0.63011c0.1124,0.35237 7.73088,0.49225 10.84037,0.61323c0.67722,0.02635 1.26505,-0.03639 1.8,-0.14043c0.3211,-0.06245 0.62315,-0.34295 0.91405,-0.05857c2.83973,2.77617 2.38662,7.68974 2.42066,10.10046c0.03243,2.29632 -0.52888,5.21292 -2.25575,7.12659c-0.47715,0.52875 0.8863,2.2274 1.19458,2.83498c2.8245,5.56682 7.10434,11.72121 7.2119,20.44506c0.22193,17.99961 -13.78967,27.22116 -14.20559,27.57824c-4.46417,3.83267 -21.60062,15.35211 -61.99435,10.29028c-28.23548,-3.53825 -31.7267,-27.71352 -31.83564,-28.34809c-0.60384,-3.51741 -0.80371,-12.56799 7.40355,-28.36352c3.17557,-6.11164 10.28982,-15.32508 14.90534,-22.38915c12.76895,-19.54293 25.50892,-37.48731 29.18935,-41.63659c6.21334,-7.00485 11.50888,-13.00386 16.87457,-17.26186c4.63015,-3.6743 9.6836,-6.09858 11.0219,-6.20379c13.93866,-1.09585 15.2868,6.89131 15.2868,6.89131z" fill="#b3c976" stroke="#000000" stroke-width="2" stroke-linecap="round"/><path d="M294.06849,145.61788c0,0 36.22771,-57.73068 55.23052,-43.65815c4.61039,3.41422 12.95042,21.9719 14.55237,25.60319c0.14656,0.33223 7.18457,12.88303 9.50097,17.01192c0.37249,0.66395 0.11617,21.20721 -19.35501,21.53225c-0.28023,0.00468 4.76551,0.1082 4.52514,0.7719c-0.21788,0.60158 -5.68629,1.75792 -6.55873,1.96367c-33.71804,7.9518 -57.35964,-22.22418 -57.35964,-22.22418" fill="#e19c71" stroke="#000000" stroke-width="0.5" stroke-linecap="round"/><path d="M315.21405,117.36414c0,0 3.00755,-3.71618 4.53281,-5.03171c0.62485,-0.53893 1.5841,-1.85378 2.41823,-2.29097c0.15505,-0.08127 0.80315,-0.49713 0.93154,-0.52119c0.55388,-0.10379 0.34813,0.60241 0.34813,0.60241c0,0 -1.14869,4.35811 -1.39059,6.7382c-0.27259,2.68216 -0.16391,8.55711 -0.16391,8.55711l-6.57024,0.7418l-0.10598,-8.79564z" fill="#7c3e1e" stroke="#000000" stroke-width="1" stroke-linecap="round"/><path d="M318.05423,117.71134c3.56175,-0.04599 7.15894,0.12937 10.71443,0.04538c1.21052,-0.0286 3.50094,-0.82811 4.32518,-0.00387c0.71975,0.71975 0.63806,1.93111 -0.52906,1.98397c-2.02258,0.09159 -3.95437,0.0651 -5.95764,0.04538c-2.60047,-0.0256 -5.20123,-0.01325 -7.80179,0c-1.12548,0.00573 -3.49722,0.73624 -3.97555,-0.10084c-0.31187,-0.18406 -0.52108,-0.52355 -0.52108,-0.91191c0,-0.58438 0.47373,-1.05812 1.05812,-1.05812c0.18102,0 0.35141,0.04545 0.5004,0.12557c0.71103,-0.13544 1.51673,-0.11691 2.187,-0.12557z" fill="#000000" stroke="none" stroke-width="0.5" stroke-linecap="butt"/><path d="M353.73758,179.01526c0,0 1.32517,1.17215 1.99373,1.9351c0.8058,0.91956 2.50666,3.20064 2.50666,3.20064" fill="none" stroke="#000000" stroke-width="2" stroke-linecap="round"/><path d="M358.87991,167.62488c0,0 -16.46956,6.6093 -46.12681,-4.30891c-9.79935,-3.60759 -18.29969,-17.00751 -18.29969,-17.00751" fill="none" stroke="#000000" stroke-width="1" stroke-linecap="round"/><path d="M364.40155,219.17121c0,0 -13.08298,8.03811 -27.24007,6.99079c-5.8598,-0.4335 21.52586,-0.48771 -13.97772,0.91551c-0.89815,0.03549 -4.0771,-0.80141 -4.95644,-0.82306c-15.19016,-0.37398 -27.56704,-1.33071 -39.6047,-6.67866c-4.82536,-2.14376 -8.56094,-3.10265 -12.98061,-5.71346c-0.98304,-0.58071 -2.76954,-1.21967 -4.45715,-1.84603c-1.11904,-0.41534 -2.40842,-0.68259 -2.6193,-1.43825c-0.3464,-1.2413 1.13054,-5.17136 1.13054,-5.17136c0,0 12.231,8.53181 25.8809,8.96949c10.10703,0.32407 36.30803,-4.57866 54.7343,-8.44143c16.45944,-3.45046 26.41827,3.66357 26.41827,3.66357z" fill="#e19c72" stroke="#000000" stroke-width="1" stroke-linecap="round"/><path d="M366.77081,120.19082c0,4.01562 -3.90629,7.27093 -8.72494,7.27093c-1.52004,0 -3.49173,-0.08399 -4.73622,-0.65353c-2.70063,-1.23595 -3.98872,-3.8685 -3.98872,-6.6174c0,-3.02052 1.98144,-6.84325 5.31456,-7.14908c1.32856,-0.1219 2.21628,-0.12185 3.41038,-0.12185c4.81865,0 8.72494,3.25531 8.72494,7.27093z" fill="#5fbeb6" stroke="#278986" stroke-width="1" stroke-linecap="butt"/><path d="M366.20484,120.44385c0,3.84205 -2.54115,6.95664 -5.67583,6.95664c-3.13467,0 -5.67583,-3.11459 -5.67583,-6.95664c0,-3.84205 2.54115,-6.95665 5.67583,-6.95665c3.13467,0 5.67583,3.1146 5.67583,6.95665z" fill="#77ece3" stroke="#278986" stroke-width="1" stroke-linecap="butt"/><path d="M351.44943,120.92222c0,4.5566 -4.24811,8.25045 -9.48842,8.25045c-1.65306,0 -3.79728,-0.09531 -5.15067,-0.74158c-2.93695,-1.40246 -4.33776,-4.38966 -4.33776,-7.50888c0,-3.42744 2.15483,-7.76516 5.77962,-8.11218c1.44482,-0.13832 2.41022,-0.13827 3.70881,-0.13827c5.24031,0 9.48842,3.69385 9.48842,8.25045z" fill="#5fbeb6" stroke="#278986" stroke-width="1" stroke-linecap="butt"/><path d="M351.48139,120.74999c0,4.31852 -3.17136,7.81937 -7.08343,7.81937c-3.91207,0 -7.08343,-3.50085 -7.08343,-7.81937c0,-4.31852 3.17136,-7.81937 7.08343,-7.81937c3.91207,0 7.08343,3.50085 7.08343,7.81937z" fill="#77ece3" stroke="#278986" stroke-width="1" stroke-linecap="butt"/><path d="M314.6594,150.56055c0,-0.29219 0.23687,-0.52906 0.52906,-0.52906c0.29219,0 0.52906,0.23687 0.52906,0.52906c0,0.29219 -0.23687,0.52906 -0.52906,0.52906c-0.29219,0 -0.52906,-0.23687 -0.52906,-0.52906z" fill="#000000" stroke="none" stroke-width="0.5" stroke-linecap="butt"/><path d="M318.15435,154.24614c0,-0.29219 0.23687,-0.52906 0.52906,-0.52906c0.29219,0 0.52906,0.23686 0.52906,0.52906c0,0.29219 -0.23687,0.52906 -0.52906,0.52906c-0.29219,0 -0.52906,-0.23686 -0.52906,-0.52906z" fill="#000000" stroke="none" stroke-width="0.5" stroke-linecap="butt"/><path d="M315.04067,158.37653c0,-0.29219 0.23687,-0.52906 0.52906,-0.52906c0.29219,0 0.52906,0.23686 0.52906,0.52906c0,0.29219 -0.23687,0.52906 -0.52906,0.52906c-0.29219,0 -0.52906,-0.23686 -0.52906,-0.52906z" fill="#000000" stroke="none" stroke-width="0.5" stroke-linecap="butt"/><path d="M326.41513,159.71097c0,-0.29219 0.23687,-0.52906 0.52906,-0.52906c0.29219,0 0.52906,0.23686 0.52906,0.52906c0,0.29219 -0.23687,0.52906 -0.52906,0.52906c-0.29219,0 -0.52906,-0.23686 -0.52906,-0.52906z" fill="#000000" stroke="none" stroke-width="0.5" stroke-linecap="butt"/><path d="M333.02376,163.52364c0,-0.29219 0.23687,-0.52906 0.52906,-0.52906c0.29219,0 0.52906,0.23686 0.52906,0.52906c0,0.29219 -0.23687,0.52906 -0.52906,0.52906c-0.29219,0 -0.52906,-0.23686 -0.52906,-0.52906z" fill="#000000" stroke="none" stroke-width="0.5" stroke-linecap="butt"/><path d="M337.78961,159.45679c0,-0.29219 0.23687,-0.52906 0.52906,-0.52906c0.29219,0 0.52906,0.23686 0.52906,0.52906c0,0.29219 -0.23687,0.52906 -0.52906,0.52906c-0.29219,0 -0.52906,-0.23686 -0.52906,-0.52906z" fill="#000000" stroke="none" stroke-width="0.5" stroke-linecap="butt"/><path d="M341.03038,161.55376c0,-0.29219 0.23687,-0.52906 0.52906,-0.52906c0.29219,0 0.52906,0.23686 0.52906,0.52906c0,0.29219 -0.23687,0.52906 -0.52906,0.52906c-0.29219,0 -0.52906,-0.23686 -0.52906,-0.52906z" fill="#000000" stroke="none" stroke-width="0.5" stroke-linecap="butt"/><path d="M348.338,157.80463c0,-0.29219 0.23687,-0.52906 0.52906,-0.52906c0.29219,0 0.52906,0.23686 0.52906,0.52906c0,0.29219 -0.23687,0.52906 -0.52906,0.52906c-0.29219,0 -0.52906,-0.23686 -0.52906,-0.52906z" fill="#000000" stroke="none" stroke-width="0.5" stroke-linecap="butt"/><path d="M352.97675,159.71097c0,-0.29219 0.23687,-0.52906 0.52906,-0.52906c0.29219,0 0.52906,0.23686 0.52906,0.52906c0,0.29219 -0.23687,0.52906 -0.52906,0.52906c-0.29219,0 -0.52906,-0.23686 -0.52906,-0.52906z" fill="#000000" stroke="none" stroke-width="0.5" stroke-linecap="butt"/><path d="M362.24907,155.77121c0,-0.36524 0.29608,-0.66132 0.66132,-0.66132c0.36524,0 0.66132,0.29608 0.66132,0.66132c0,0.36524 -0.29608,0.66132 -0.66132,0.66132c-0.36524,0 -0.66132,-0.29608 -0.66132,-0.66132z" fill="#000000" stroke="none" stroke-width="0.5" stroke-linecap="butt"/><path d="M360.97819,160.09223c0,-0.36524 0.29608,-0.66132 0.66132,-0.66132c0.36524,0 0.66132,0.29608 0.66132,0.66132c0,0.36524 -0.29608,0.66132 -0.66132,0.66132c-0.36524,0 -0.66132,-0.29608 -0.66132,-0.66132z" fill="#000000" stroke="none" stroke-width="0.5" stroke-linecap="butt"/><path d="M356.08525,157.80463c0,-0.36524 0.29608,-0.66132 0.66132,-0.66132c0.36524,0 0.66132,0.29608 0.66132,0.66132c0,0.36524 -0.29608,0.66132 -0.66132,0.66132c-0.36524,0 -0.66132,-0.29608 -0.66132,-0.66132z" fill="#000000" stroke="none" stroke-width="0.5" stroke-linecap="butt"/><path d="M345.65639,213.89477c0.61921,0.23221 0.38701,0.85142 0.38701,0.85142l-0.14303,0.38118c-0.1936,0.53692 -0.12234,1.20184 -0.48579,1.64193c-1.43328,1.73547 -4.34535,-0.10265 -5.79239,-0.77637c0,0 -0.59928,-0.27966 -0.31961,-0.87894c0.27967,-0.59928 0.87894,-0.31961 0.87894,-0.31961c1.11485,0.52138 2.07081,1.15438 3.32895,1.25873c0.28301,0.02347 0.71571,0.17091 0.84817,-0.0803c0.20582,-0.39034 0.14881,-0.87433 0.29613,-1.29029l0.15019,-0.40074c0,0 0.2322,-0.61921 0.85142,-0.38701z" fill="#000000" stroke="none" stroke-width="0.5" stroke-linecap="butt"/><path d="M348.20978,214.9278c0.66132,0 0.66132,0.66132 0.66132,0.66132l-0.02687,0.67531c-0.30258,0.99239 -0.96536,2.51123 -1.91859,3.07517c-0.6696,0.39615 -1.74172,0.23402 -2.47887,0.23402c-2.33668,0 -5.80401,-0.22479 -7.52665,-2.02467c0,0 -0.44485,-0.48934 0.04449,-0.93419c0.48934,-0.44485 0.93419,0.04449 0.93419,0.04449c0.51067,0.61111 0.97167,0.55323 1.71853,0.79325c1.75267,0.56327 2.95983,0.79848 4.82944,0.79848c0.39352,0 1.44443,0.17414 1.82171,-0.05921c0.62819,-0.38855 1.12029,-1.63472 1.30685,-2.30054l-0.02687,-0.3021c0,0 0,-0.66132 0.66132,-0.66132z" fill="#000000" stroke="none" stroke-width="0.5" stroke-linecap="butt"/><path d="M336.22493,135.36914c0,0 6.06678,-2.97897 9.02835,-3.34837c17.54842,-2.18882 19.93919,5.84703 19.93919,5.84703c0,0 1.31231,2.62771 0.26709,4.11709c-0.89505,1.2754 -3.97067,1.54664 -6.0158,0.51713c-7.53476,-3.79296 -19.08268,-0.38332 -24.28533,2.61025c-1.27437,0.73326 -2.15432,-2.65251 -1.45758,-5.6312c0.50602,-2.16333 2.52409,-4.11193 2.52409,-4.11193z" fill="#dc6d2c" stroke="#a60e03" stroke-width="2" stroke-linecap="round"/><path d="M337.91894,136.08909c0,2.05826 -3.65757,12.32391 -7.85596,12.32391c-4.1984,0 -7.34777,-10.26565 -7.34777,-12.32391c0,-2.05826 3.40347,-3.72682 7.60187,-3.72682c4.1984,0 7.60186,1.66855 7.60186,3.72682z" fill="#e19c72" stroke="none" stroke-width="0" stroke-linecap="butt"/><path d="M341.838,136.41827c4.73346,-1.05342 10.32674,-2.43914 15.20491,-1.74381c0.89191,0.12713 6.00726,2.13834 5.09896,3.95494c-0.22529,0.45059 -0.78261,0.44787 -1.09067,0.18382c-1.45281,-1.24527 -1.69168,-2.79116 -4.17174,-2.82511c-5.78929,-0.07927 -12.61968,0.59697 -17.99036,2.85831c-0.10954,0.2139 -0.33217,0.3603 -0.589,0.3603c-0.21374,0 -0.40379,-0.1014 -0.52469,-0.25871c-1.60657,-1.11034 3.92136,-2.49831 4.06259,-2.52974z" fill="#a60e03" stroke="none" stroke-width="0.5" stroke-linecap="butt"/><path d="M337.72256,106.94513c1.16403,-0.0545 4.21855,2.481 5.90998,2.73177c1.28687,0.19079 2.90944,0.29495 3.83985,-0.79496c0.61614,-0.72176 1.51453,-4.27468 2.48995,-2.97412c1.00283,1.33711 -2.4062,4.60523 -3.284,5.07339c-1.72757,0.92138 -5.2338,-0.41811 -6.84288,-1.30141c-0.23857,-0.13097 -2.60641,-1.26666 -2.63103,-1.70962c-0.0672,-0.10352 -0.10622,-0.22701 -0.10622,-0.35961c0,-0.32478 0.23412,-0.59487 0.54279,-0.65073c0.02563,-0.00829 0.05274,-0.01336 0.08156,-0.01471z" fill="#000000" stroke="none" stroke-width="0.5" stroke-linecap="butt"/><path d="M358.82686,109.34061c3.17649,-1.40056 2.26987,-4.06963 3.30071,-5.05158c0.39275,-0.37412 0.78417,-0.49717 1.22077,0.03657c0.54366,0.66462 -0.73034,2.90618 -1.10711,3.48905c-1.67145,2.58572 -4.98772,4.39008 -8.06416,2.52953c-1.21444,-0.73446 -1.89205,-1.74946 -2.54511,-2.98853c-0.09093,-0.17253 -0.70612,-1.41903 0.00409,-1.45849c0.10351,-0.0672 0.227,-0.10623 0.35961,-0.10623c0.36524,0 0.66132,0.29609 0.66132,0.66132c0,0.0121 -0.00032,0.02412 -0.00096,0.03607c1.6659,1.94937 2.66843,4.39657 6.17084,2.85229z" fill="#000000" stroke="none" stroke-width="0.5" stroke-linecap="butt"/><path d="M364.71459,218.79566c0,0 -8.32951,14.36267 -17.3575,19.06391c-3.41663,1.77918 -9.83364,4.77432 -16.39193,6.10975c-8.88877,1.80999 -17.81563,1.67835 -17.81563,1.67835c0,0 -34.3695,4.35472 -47.4701,-13.97855c-3.76484,-5.2686 -5.83535,-11.82572 -6.56997,-16.14314c-0.41504,-2.43924 -0.14938,-4.41785 -0.14938,-4.41785c0,0 18.55269,9.75982 31.6679,12.13112c27.32344,4.94024 55.85288,5.03583 66.15996,-0.88439c0.65113,-0.374 2.20778,-0.71485 2.80996,-1.02424c3.50319,-1.7999 5.11669,-2.53495 5.11669,-2.53495z" fill="#82615a" stroke="#000000" stroke-width="0.5" stroke-linecap="round"/><path d="M269.24003,232.57028l0.00993,0.02482l0.00615,0.04507l0.02141,0.04014l0.0054,0.02161l0.00115,0.00152l0.00562,0.00187l0.00722,0.01524l0.01927,0.02569l0.05678,0.13486l0.06264,0.13224l0.0063,0.03148l0.00654,0.01554l-0.00235,0.00543l0.00165,0.00821l0.0786,0.1179l0.00542,0.01519l0.0114,0.0114l0.22675,0.37792l0.00211,0.00692l0.005,0.00522l0.11999,0.20998l0.18585,0.21683l0.00212,0.00423l0.00381,0.00279l0.16975,0.20371l0.14653,0.14653l0.19069,0.1589l0.2663,0.19973l0.58084,0.36302l0.00301,0.00312l0.00411,0.00139l0.52554,0.33785l0.51597,0.32248l0.62097,0.16342l0.00266,0.00146l0.00304,0.00007l0.83142,0.22675l0.01639,0.0092l0.01873,0.00144l0.83294,0.27764l0.79143,0.06882l0.01766,0.00608l0.01858,-0.00192l1.05816,0.15117l0.0364,0.01483l0.0393,0.00054l1.24014,0.32828l1.27055,0.17721l0.00963,0.00388l0.01036,-0.00079l1.13659,0.19412l0.8892,0.1067h0.80765l1.07328,-0.07155l0.98244,-0.18193l0.01159,0.00071l0.01072,-0.00445l0.75583,-0.11337l0.02426,0.00234l0.02313,-0.00771l0.42462,-0.03266l0.20025,-0.05721l0.01131,-0.00038l0.00998,-0.00532l0.28375,-0.07094l0.58639,-0.18324l0.01956,-0.00114l0.01729,-0.00922l0.44849,-0.11212l0.53554,-0.14281l0.5034,-0.17979l0.02581,-0.00254l0.02261,-0.01269l0.398,-0.10855l0.00006,-0.00002l0.02038,-0.01223l0.09972,-0.07578l0.12152,-0.05209l0.07162,-0.08356l0.03294,-0.00183l0.041,-0.03514l0.96533,-0.48266l0.04714,-0.055l0.09582,-0.11793l0.01474,-0.01106l0.01236,-0.01442l0.00742,-0.00041l0.11665,-0.08749l0.032,-0.01347l0.02455,-0.02455l0.11915,-0.07149l0.13139,-0.13139l0.02621,-0.01573l0.01804,-0.02469l0.22675,-0.18896l0.00188,-0.0009l0.0026,-0.0161l0.07332,-0.17109l0.00256,-0.01022l-0.00314,-0.06579l0.0378,-0.18896l0.01789,-0.03776l0.00321,-0.04167l0.03779,-0.11338l0.01068,-0.01678l0.00269,-0.0197l0.04614,-0.11535l0.02658,-0.18606l0.02268,-0.05567l0.00461,-0.05994l0.00385,-0.01157v-0.2706l0.01309,-0.05238l-0.01309,-0.03028l0.05087,-0.12082l0.0318,-0.12717l0.02865,-0.01637l0.02095,-0.04976l0.0189,-0.0252v-1.04693l-0.04356,-0.08711l-0.0158,-0.07109l-0.03427,-0.06426l-0.05172,-0.20687l-0.06275,-0.10457l-0.0212,-0.06967l-0.0391,-0.06144l-0.05263,-0.15788l-0.07603,-0.1267l-0.00755,-0.02481l-0.01687,-0.01969l-0.04426,-0.0885l-0.1074,-0.13425l-0.04058,-0.08855l-0.05703,-0.07896l-0.02517,-0.06293l-0.20635,-0.20635l-0.03389,-0.05648l-0.04874,-0.04431l-0.19043,-0.28564l-0.18045,-0.18045l-0.01916,-0.03193l-0.02962,-0.02257l-0.73295,-0.91619l-0.4665,-0.4665l-0.37374,-0.27181l-0.00703,-0.0084l-0.01002,-0.00442l-0.34013,-0.26454l-0.01369,-0.01746l-0.01966,-0.01028l-0.30581,-0.27183l-0.29816,-0.19877l-0.59846,-0.38724l-0.84867,-0.38897l-0.92967,-0.37186l-0.01164,-0.00841l-0.01413,-0.00254l-0.71962,-0.32383l-0.48442,-0.15138l-0.78302,-0.03404l-0.03451,-0.01024l-0.03583,0.0034l-1.19787,-0.18149h-4.98786l-0.898,0.07184l-0.75296,0.10757l-1.00345,0.20761l-0.28947,0.13158l-0.00195,0.00341l-0.01233,0.00308l-0.04467,0.02031l-0.13777,0.0253l-0.13589,0.03397h-0.04907l-0.0125,0.0023l-0.00318,-0.0023h-0.02655l-0.45368,0.25519l-0.05465,0.01497l-0.04714,0.03143l-0.52418,0.18721l-0.29073,0.10902l-0.31642,0.12657l-0.25226,0.15766l-0.01659,0.00538l-0.01274,0.01192l-0.18532,0.10295l-0.02226,0.03711l-0.06964,0.06964l-0.05504,0.08167l-0.37792,0.34012l-0.00421,0.00223l-0.00271,0.00391l-0.24441,0.21386l-0.29422,0.41191l-0.08977,0.20199l-0.02396,0.14377l-0.00723,0.01662l0.00048,0.01812l-0.07558,0.34013l-0.02424,0.04846l-0.00732,0.05368l-0.12462,0.31154l-0.02604,0.15624l-0.02861,0.0658l-0.00969,0.07109l-0.12462,0.31154l-0.02604,0.15624l-0.02861,0.0658l-0.0097,0.07109l-0.10387,0.25967v0.21277l-0.00814,0.03258l0.00487,0.03322l-0.0378,0.37792l-0.03144,0.08759l-0.01258,0.09221l-0.05892,0.14729l-0.00716,0.02864v0.43833c0.11688,0.11928 0.18896,0.28264 0.18896,0.46284c0,0.09088 -0.01833,0.17747 -0.05149,0.25629zM267.87075,230.89449l0.04087,-0.10217l0.0252,-0.25208v-0.30714l0.03038,-0.12151l0.01692,-0.1241l0.12462,-0.31154l0.02604,-0.15624l0.02861,-0.0658l0.0097,-0.07109l0.12462,-0.31154l0.02604,-0.15624l0.02861,-0.0658l0.0097,-0.07109l0.13125,-0.32812l0.06011,-0.27049l0.03488,-0.20929l0.03351,-0.07708l0.01449,-0.08279l0.15117,-0.34013l0.04148,-0.0531l0.0247,-0.0627l0.37792,-0.52908l0.05869,-0.04999l0.04397,-0.06332l0.29885,-0.26149l0.3008,-0.27072l0.05926,-0.09877l0.00013,-0.01019l0.12396,-0.11597l0.12003,-0.12003l0.01019,0.00022l0.31995,-0.17775l0.28789,-0.17993l0.05663,-0.01837l0.04827,-0.03485l0.37792,-0.15117l0.00732,-0.001l0.00608,-0.0042l0.30234,-0.11337l0.00532,-0.00061l0.00446,-0.00297l0.47622,-0.17008l0.54434,-0.30619l0.00496,-0.00868l0.16807,-0.04202l0.16709,-0.04578l0.00857,0.00513h0.10821l0.2853,-0.12968l0.0729,-0.01339l0.06677,-0.03217l1.09596,-0.22675l0.021,0.00086l0.01946,-0.00793l0.79362,-0.11337l0.02089,0.00216l0.0199,-0.0067l0.94479,-0.07559l0.02659,0.00443l0.02615,-0.00654h5.06408l0.0489,0.01222l0.05018,-0.00476l1.21213,0.18366l0.83385,0.03626l0.08256,0.0245l0.08597,0.00498l0.60467,0.18896l0.03443,0.02101l0.0397,0.00714l0.74306,0.33438l0.93179,0.37272l0.01353,0.00977l0.0164,0.00307l0.907,0.41571l0.03785,0.03028l0.04587,0.01568l0.64246,0.41571l0.00318,0.00341l0.00439,0.00157l0.34013,0.22675l0.0313,0.03443l0.04122,0.02155l0.32391,0.28792l0.31458,0.24467l0.40708,0.29607l0.03367,0.04022l0.04499,0.02699l0.52908,0.52908l0.01916,0.03193l0.02962,0.02257l0.73295,0.91619l0.20085,0.20085l0.03389,0.05648l0.04874,0.0443l-0.30086,0.28564l-0.17637,0.35272l0.22807,0.26472l0.6454,-0.41163l-0.93237,0.01242l1.05105,0.15192l0.07792,0.10789l0.02638,0.06594l0.00259,0.00432l-0.00035,0.00128l0.01058,0.02644l-1.38393,-0.00094l1.50319,0.17733l0.04578,0.05342l0.06423,0.12845l0.10031,0.16718l0.0212,0.06967l0.0391,0.06144l0.05263,0.15788l0.07603,0.12671l0.02847,0.09356l0.04602,0.08629l0.05798,0.23191l0.06161,0.12322l0.00645,0.00369l0.0046,0.01843l0.00824,0.01648l0.03297,0.14833l0.03685,0.14742v0.01843l0.00412,0.01854l-0.00412,0.00618v1.24177l-0.01598,0.0639l0.00314,0.06579l-0.0273,0.13649l0.00235,0.00543l-0.00654,0.01554l-0.0063,0.03149l-0.06264,0.13224l-0.03789,0.09v0.17715l-0.02579,0.10313l-0.00815,0.10599l-0.01893,0.0568l-0.02936,0.20551l-0.02993,0.07347l-0.01072,0.07861l-0.06836,0.17092l-0.01863,0.05588l-0.01687,0.08437v0.04789l-0.03228,0.12912l-0.02119,0.13139l-0.02798,0.06527l-0.00122,0.00488l-0.00115,0.00066l-0.06215,0.14502l-0.02494,0.09976l-0.03473,0.06512l0.00488,0.03901l-0.07475,0.092l-0.05579,0.1046l-0.03785,0.01064l-0.04654,0.05728l-0.13761,0.10321l-0.19069,0.15891l-0.16774,0.16774l-0.06981,0.04189l-0.05757,0.05757l-0.15879,0.09528l-0.00566,0.01131l-0.03514,0.041l-0.00183,0.03294l-0.09953,0.08532l-0.08532,0.09953l-0.03294,0.00183l-0.041,0.03514l-0.99366,0.49683l-0.031,0.02356l-0.07294,0.0851l-0.04211,0.00234l-0.06707,0.05097l-0.18125,0.07768l-0.08206,0.04923l-0.1282,0.08158l-0.01749,0.00582l-0.01628,0.00977l-0.00717,-0.00195l-0.07244,0.02415l-0.01874,0.00144l-0.01639,0.00919l-0.3912,0.10669l-0.50517,0.18042l-0.02769,0.00272l-0.02434,0.01348l-0.56687,0.15117l-0.00532,0.00008l-0.00469,0.0025l-0.43492,0.10873l-0.58638,0.18324l-0.01957,0.00113l-0.01729,0.00922l-0.29164,0.07291l-0.25395,0.07256l-0.06719,0.00224l-0.06377,0.02126l-0.46751,0.03596l-0.72105,0.10816l-1.00925,0.18689l-0.03912,-0.00242l-0.03731,0.01201l-1.13375,0.07558l-0.02215,-0.00399l-0.02184,0.00546h-0.8692l-0.03895,-0.00974l-0.03984,0.00503l-0.94479,-0.11337l-0.01574,-0.006l-0.0168,0.00128l-1.14283,-0.19519l-1.29995,-0.1813l-0.03747,-0.01512l-0.0404,-0.00056l-1.24121,-0.32856l-1.00181,-0.14312l-0.85103,-0.074l-0.0739,-0.02545l-0.07794,-0.00599l-0.88958,-0.29653l-0.81086,-0.22115l-0.71519,-0.18821l-0.08737,-0.04799l-0.09483,-0.03075l-0.60467,-0.37792l-0.00301,-0.00312l-0.00411,-0.00139l-0.52554,-0.33785l-0.60109,-0.37568l-0.01989,-0.02063l-0.02641,-0.01112l-0.30234,-0.22675l-0.01095,-0.01347l-0.01563,-0.00755l-0.22675,-0.18896l-0.01804,-0.02469l-0.02621,-0.01573l-0.18896,-0.18896l-0.01573,-0.02621l-0.02469,-0.01804l-0.18602,-0.22322l-0.22376,-0.26105l-0.0283,-0.05659l-0.04378,-0.04568l-0.14768,-0.25843l-0.21503,-0.35839l-0.14244,-0.21365l-0.04322,-0.12101l-0.05501,-0.11613l-0.00837,-0.04187l-0.02337,-0.03116l-0.05085,-0.12077l-0.06167,-0.11563l-0.01898,-0.0759l-0.00077,-0.00183l0.0002,-0.00046l-0.00736,-0.02943l-0.05646,-0.14114l-0.00804,-0.00625l-0.0175,-0.16913l-0.01364,-0.10003l-0.04129,-0.0236l-0.08267,-0.33066v-0.98258l0.01974,-0.07898v-0.08142l0.03779,-0.15117l0.02141,-0.04014z" fill="#82615a" stroke="none" stroke-width="0.5" stroke-linecap="butt"/><g><path d="M291.88907,230.43511c0,0 6.27849,10.18416 6.39016,13.63734c0.11899,3.67923 -2.31306,8.62632 -3.22422,10.28057c-1.05032,1.9069 -3.53943,2.88046 -3.53943,2.88046c0,0 -9.45731,-0.01002 -13.8762,-0.80442c-3.7966,-0.68254 -11.0547,-3.67753 -11.0547,-3.67753c0,0 3.0056,-8.01187 3.20838,-11.56046c0.16099,-2.81736 -2.08789,-8.04811 -2.08789,-8.04811z" fill="#82615a" stroke="#000000" stroke-width="3" stroke-linecap="round"/><path d="M269.24003,232.57028l0.00993,0.02482l0.00615,0.04507l0.02141,0.04014l0.0054,0.02161l0.00115,0.00152l0.00562,0.00187l0.00722,0.01524l0.01927,0.02569l0.05678,0.13486l0.06264,0.13224l0.0063,0.03148l0.00654,0.01554l-0.00235,0.00543l0.00165,0.00821l0.0786,0.1179l0.00542,0.01519l0.0114,0.0114l0.22675,0.37792l0.00211,0.00692l0.005,0.00522l0.11999,0.20998l0.18585,0.21683l0.00212,0.00423l0.00381,0.00279l0.16975,0.20371l0.14653,0.14653l0.19069,0.1589l0.2663,0.19973l0.58084,0.36302l0.00301,0.00312l0.00411,0.00139l0.52554,0.33785l0.51597,0.32248l0.62097,0.16342l0.00266,0.00146l0.00304,0.00007l0.83142,0.22675l0.01639,0.0092l0.01873,0.00144l0.83294,0.27764l0.79143,0.06882l0.01766,0.00608l0.01858,-0.00192l1.05816,0.15117l0.0364,0.01483l0.0393,0.00054l1.24014,0.32828l1.27055,0.17721l0.00963,0.00388l0.01036,-0.00079l1.13659,0.19412l0.8892,0.1067h0.80765l1.07328,-0.07155l0.98244,-0.18193l0.01159,0.00071l0.01072,-0.00445l0.75583,-0.11337l0.02426,0.00234l0.02313,-0.00771l0.42462,-0.03266l0.20025,-0.05721l0.01131,-0.00038l0.00998,-0.00532l0.28375,-0.07094l0.58639,-0.18324l0.01956,-0.00114l0.01729,-0.00922l0.44849,-0.11212l0.53554,-0.14281l0.5034,-0.17979l0.02581,-0.00254l0.02261,-0.01269l0.398,-0.10855l0.00006,-0.00002l0.02038,-0.01223l0.09972,-0.07578l0.12152,-0.05209l0.07162,-0.08356l0.03294,-0.00183l0.041,-0.03514l0.96533,-0.48266l0.04714,-0.055l0.09582,-0.11793l0.01474,-0.01106l0.01236,-0.01442l0.00742,-0.00041l0.11665,-0.08749l0.032,-0.01347l0.02455,-0.02455l0.11915,-0.07149l0.13139,-0.13139l0.02621,-0.01573l0.01804,-0.02469l0.22675,-0.18896l0.00188,-0.0009l0.0026,-0.0161l0.07332,-0.17109l0.00256,-0.01022l-0.00314,-0.06579l0.0378,-0.18896l0.01789,-0.03776l0.00321,-0.04167l0.03779,-0.11338l0.01068,-0.01678l0.00269,-0.0197l0.04614,-0.11535l0.02658,-0.18606l0.02268,-0.05567l0.00461,-0.05994l0.00385,-0.01157v-0.2706l0.01309,-0.05238l-0.01309,-0.03028l0.05087,-0.12082l0.0318,-0.12717l0.02865,-0.01637l0.02095,-0.04976l0.0189,-0.0252v-1.04693l-0.04356,-0.08711l-0.0158,-0.07109l-0.03427,-0.06426l-0.05172,-0.20687l-0.06275,-0.10457l-0.0212,-0.06967l-0.0391,-0.06144l-0.05263,-0.15788l-0.07603,-0.1267l-0.00755,-0.02481l-0.01687,-0.01969l-0.04426,-0.0885l-0.1074,-0.13425l-0.04058,-0.08855l-0.05703,-0.07896l-0.02517,-0.06293l-0.20635,-0.20635l-0.03389,-0.05648l-0.04874,-0.04431l-0.19043,-0.28564l-0.18045,-0.18045l-0.01916,-0.03193l-0.02962,-0.02257l-0.73295,-0.91619l-0.4665,-0.4665l-0.37374,-0.27181l-0.00703,-0.0084l-0.01002,-0.00442l-0.34013,-0.26454l-0.01369,-0.01746l-0.01966,-0.01028l-0.30581,-0.27183l-0.29816,-0.19877l-0.59846,-0.38724l-0.84867,-0.38897l-0.92967,-0.37186l-0.01164,-0.00841l-0.01413,-0.00254l-0.71962,-0.32383l-0.48442,-0.15138l-0.78302,-0.03404l-0.03451,-0.01024l-0.03583,0.0034l-1.19787,-0.18149h-4.98786l-0.898,0.07184l-0.75296,0.10757l-1.00345,0.20761l-0.28947,0.13158l-0.00195,0.00341l-0.01233,0.00308l-0.04467,0.02031l-0.13777,0.0253l-0.13589,0.03397h-0.04907l-0.0125,0.0023l-0.00318,-0.0023h-0.02655l-0.45368,0.25519l-0.05465,0.01497l-0.04714,0.03143l-0.52418,0.18721l-0.29073,0.10902l-0.31642,0.12657l-0.25226,0.15766l-0.01659,0.00538l-0.01274,0.01192l-0.18532,0.10295l-0.02226,0.03711l-0.06964,0.06964l-0.05504,0.08167l-0.37792,0.34012l-0.00421,0.00223l-0.00271,0.00391l-0.24441,0.21386l-0.29422,0.41191l-0.08977,0.20199l-0.02396,0.14377l-0.00723,0.01662l0.00048,0.01812l-0.07558,0.34013l-0.02424,0.04846l-0.00732,0.05368l-0.12462,0.31154l-0.02604,0.15624l-0.02861,0.0658l-0.00969,0.07109l-0.12462,0.31154l-0.02604,0.15624l-0.02861,0.0658l-0.0097,0.07109l-0.10387,0.25967v0.21277l-0.00814,0.03258l0.00487,0.03322l-0.0378,0.37792l-0.03144,0.08759l-0.01258,0.09221l-0.05892,0.14729l-0.00716,0.02864v0.43833c0.11688,0.11928 0.18896,0.28264 0.18896,0.46284c0,0.09088 -0.01833,0.17747 -0.05149,0.25629zM267.87075,230.89449l0.04087,-0.10217l0.0252,-0.25208v-0.30714l0.03038,-0.12151l0.01692,-0.1241l0.12462,-0.31154l0.02604,-0.15624l0.02861,-0.0658l0.0097,-0.07109l0.12462,-0.31154l0.02604,-0.15624l0.02861,-0.0658l0.0097,-0.07109l0.13125,-0.32812l0.06011,-0.27049l0.03488,-0.20929l0.03351,-0.07708l0.01449,-0.08279l0.15117,-0.34013l0.04148,-0.0531l0.0247,-0.0627l0.37792,-0.52908l0.05869,-0.04999l0.04397,-0.06332l0.29885,-0.26149l0.3008,-0.27072l0.05926,-0.09877l0.00013,-0.01019l0.12396,-0.11597l0.12003,-0.12003l0.01019,0.00022l0.31995,-0.17775l0.28789,-0.17993l0.05663,-0.01837l0.04827,-0.03485l0.37792,-0.15117l0.00732,-0.001l0.00608,-0.0042l0.30234,-0.11337l0.00532,-0.00061l0.00446,-0.00297l0.47622,-0.17008l0.54434,-0.30619l0.00496,-0.00868l0.16807,-0.04202l0.16709,-0.04578l0.00857,0.00513h0.10821l0.2853,-0.12968l0.0729,-0.01339l0.06677,-0.03217l1.09596,-0.22675l0.021,0.00086l0.01946,-0.00793l0.79362,-0.11337l0.02089,0.00216l0.0199,-0.0067l0.94479,-0.07559l0.02659,0.00443l0.02615,-0.00654h5.06408l0.0489,0.01222l0.05018,-0.00476l1.21213,0.18366l0.83385,0.03626l0.08256,0.0245l0.08597,0.00498l0.60467,0.18896l0.03443,0.02101l0.0397,0.00714l0.74306,0.33438l0.93179,0.37272l0.01353,0.00977l0.0164,0.00307l0.907,0.41571l0.03785,0.03028l0.04587,0.01568l0.64246,0.41571l0.00318,0.00341l0.00439,0.00157l0.34013,0.22675l0.0313,0.03443l0.04122,0.02155l0.32391,0.28792l0.31458,0.24467l0.40708,0.29607l0.03367,0.04022l0.04499,0.02699l0.52908,0.52908l0.01916,0.03193l0.02962,0.02257l0.73295,0.91619l0.20085,0.20085l0.03389,0.05648l0.04874,0.0443l-0.30086,0.28564l-0.17637,0.35272l0.22807,0.26472l0.6454,-0.41163l-0.93237,0.01242l1.05105,0.15192l0.07792,0.10789l0.02638,0.06594l0.00259,0.00432l-0.00035,0.00128l0.01058,0.02644l-1.38393,-0.00094l1.50319,0.17733l0.04578,0.05342l0.06423,0.12845l0.10031,0.16718l0.0212,0.06967l0.0391,0.06144l0.05263,0.15788l0.07603,0.12671l0.02847,0.09356l0.04602,0.08629l0.05798,0.23191l0.06161,0.12322l0.00645,0.00369l0.0046,0.01843l0.00824,0.01648l0.03297,0.14833l0.03685,0.14742v0.01843l0.00412,0.01854l-0.00412,0.00618v1.24177l-0.01598,0.0639l0.00314,0.06579l-0.0273,0.13649l0.00235,0.00543l-0.00654,0.01554l-0.0063,0.03149l-0.06264,0.13224l-0.03789,0.09v0.17715l-0.02579,0.10313l-0.00815,0.10599l-0.01893,0.0568l-0.02936,0.20551l-0.02993,0.07347l-0.01072,0.07861l-0.06836,0.17092l-0.01863,0.05588l-0.01687,0.08437v0.04789l-0.03228,0.12912l-0.02119,0.13139l-0.02798,0.06527l-0.00122,0.00488l-0.00115,0.00066l-0.06215,0.14502l-0.02494,0.09976l-0.03473,0.06512l0.00488,0.03901l-0.07475,0.092l-0.05579,0.1046l-0.03785,0.01064l-0.04654,0.05728l-0.13761,0.10321l-0.19069,0.15891l-0.16774,0.16774l-0.06981,0.04189l-0.05757,0.05757l-0.15879,0.09528l-0.00566,0.01131l-0.03514,0.041l-0.00183,0.03294l-0.09953,0.08532l-0.08532,0.09953l-0.03294,0.00183l-0.041,0.03514l-0.99366,0.49683l-0.031,0.02356l-0.07294,0.0851l-0.04211,0.00234l-0.06707,0.05097l-0.18125,0.07768l-0.08206,0.04923l-0.1282,0.08158l-0.01749,0.00582l-0.01628,0.00977l-0.00717,-0.00195l-0.07244,0.02415l-0.01874,0.00144l-0.01639,0.00919l-0.3912,0.10669l-0.50517,0.18042l-0.02769,0.00272l-0.02434,0.01348l-0.56687,0.15117l-0.00532,0.00008l-0.00469,0.0025l-0.43492,0.10873l-0.58638,0.18324l-0.01957,0.00113l-0.01729,0.00922l-0.29164,0.07291l-0.25395,0.07256l-0.06719,0.00224l-0.06377,0.02126l-0.46751,0.03596l-0.72105,0.10816l-1.00925,0.18689l-0.03912,-0.00242l-0.03731,0.01201l-1.13375,0.07558l-0.02215,-0.00399l-0.02184,0.00546h-0.8692l-0.03895,-0.00974l-0.03984,0.00503l-0.94479,-0.11337l-0.01574,-0.006l-0.0168,0.00128l-1.14283,-0.19519l-1.29995,-0.1813l-0.03747,-0.01512l-0.0404,-0.00056l-1.24121,-0.32856l-1.00181,-0.14312l-0.85103,-0.074l-0.0739,-0.02545l-0.07794,-0.00599l-0.88958,-0.29653l-0.81086,-0.22115l-0.71519,-0.18821l-0.08737,-0.04799l-0.09483,-0.03075l-0.60467,-0.37792l-0.00301,-0.00312l-0.00411,-0.00139l-0.52554,-0.33785l-0.60109,-0.37568l-0.01989,-0.02063l-0.02641,-0.01112l-0.30234,-0.22675l-0.01095,-0.01347l-0.01563,-0.00755l-0.22675,-0.18896l-0.01804,-0.02469l-0.02621,-0.01573l-0.18896,-0.18896l-0.01573,-0.02621l-0.02469,-0.01804l-0.18602,-0.22322l-0.22376,-0.26105l-0.0283,-0.05659l-0.04378,-0.04568l-0.14768,-0.25843l-0.21503,-0.35839l-0.14244,-0.21365l-0.04322,-0.12101l-0.05501,-0.11613l-0.00837,-0.04187l-0.02337,-0.03116l-0.05085,-0.12077l-0.06167,-0.11563l-0.01898,-0.0759l-0.00077,-0.00183l0.0002,-0.00046l-0.00736,-0.02943l-0.05646,-0.14114l-0.00804,-0.00625l-0.0175,-0.16913l-0.01364,-0.10003l-0.04129,-0.0236l-0.08267,-0.33066v-0.98258l0.01974,-0.07898v-0.08142l0.03779,-0.15117l0.02141,-0.04014z" fill="#82615a" stroke="none" stroke-width="0.5" stroke-linecap="butt"/><path d="M269.25724,232.53285c0.03316,-0.07882 0.05144,-0.16602 0.05144,-0.25689c0,-0.1802 -0.07214,-0.3447 -0.18902,-0.46398l-0.00002,-0.43938l0.00716,-0.02871l0.05892,-0.14764l0.01258,-0.09244l0.03145,-0.0878l0.03784,-0.37884l-0.00486,-0.0333l0.00815,-0.03266l0.00004,-0.21327l0.10394,-0.26032l0.00972,-0.07126l0.02863,-0.06596l0.02609,-0.15662l0.12475,-0.31233l0.00972,-0.07126l0.02864,-0.06596l0.02611,-0.15662l0.12479,-0.31234l0.00735,-0.05382l0.02426,-0.04859l0.07581,-0.34096l-0.00047,-0.01816l0.00724,-0.01667l0.02406,-0.1441l0.08994,-0.20251l0.29463,-0.41305l0.24468,-0.21454l0.00272,-0.00392l0.00421,-0.00224l0.3784,-0.34122l0.05515,-0.0819l0.06974,-0.06986l0.02232,-0.03721l0.18553,-0.10337l0.01276,-0.01196l0.01661,-0.00541l0.25259,-0.15827l0.31678,-0.1272l0.29108,-0.1096l0.52487,-0.18827l0.04723,-0.03155l0.05472,-0.01507l0.45452,-0.25632l0.02658,-0.00004l0.00318,0.0023l0.01252,-0.00232l0.04913,-0.00007l0.13611,-0.03424l0.13798,-0.02555l0.04476,-0.02041l0.01235,-0.00311l0.00196,-0.00342l0.29007,-0.13225l1.00544,-0.20957l0.7547,-0.10898l0.90038,-0.07342l5.00718,-0.00297l1.20258,0.18306l0.03595,-0.00335l0.03464,0.0103l0.78553,0.03534l0.486,0.15239l0.7219,0.32559l0.01416,0.00257l0.01168,0.00844l0.93204,0.3742l0.85045,0.3912l0.59963,0.38902l0.29866,0.19965l0.30636,0.27289l0.01969,0.01033l0.01371,0.01752l0.34061,0.2656l0.01003,0.00444l0.00704,0.00842l0.37418,0.2729l0.46705,0.46811l0.73366,0.91905l0.02963,0.02264l0.01918,0.03203l0.18054,0.181l0.19054,0.28645l0.04876,0.04444l0.03391,0.05664l0.20641,0.20693l0.02519,0.06309l0.05705,0.07917l0.04061,0.08878l0.10743,0.1346l0.04426,0.08873l0.01688,0.01974l0.00755,0.02487l0.07604,0.12703l0.05264,0.15827l0.0391,0.06159l0.02121,0.06985l0.06275,0.10483l0.05171,0.20736l0.03427,0.06441l0.01579,0.07126l0.04355,0.08732l-0.00022,1.04941l-0.01891,0.02527l-0.02097,0.04988l-0.02865,0.01642l-0.03184,0.12749l-0.05092,0.12112l0.01308,0.03035l-0.01312,0.05251l-0.00012,0.27122l-0.00386,0.01159l-0.00464,0.06007l-0.02271,0.05581l-0.02668,0.1865l-0.04621,0.11564l-0.0027,0.01975l-0.01069,0.01682l-0.03786,0.11365l-0.00323,0.04176l-0.01791,0.03786l-0.03791,0.1894l0.00309,0.06594l-0.00256,0.01024l-0.07345,0.17151l-0.00261,0.01614l-0.00188,0.00091l-0.22693,0.18952l-0.01806,0.02475l-0.02624,0.01579l-0.13152,0.13178l-0.11924,0.07173l-0.02458,0.02462l-0.03201,0.01353l-0.11676,0.08777l-0.00742,0.00042l-0.01237,0.01446l-0.01476,0.01109l-0.09596,0.11827l-0.0472,0.05515l-0.96626,0.48465l-0.04106,0.03526l-0.03297,0.00187l-0.07176,0.08382l-0.12166,0.05233l-0.09987,0.07606l-0.02041,0.01228l-0.00006,0.00003l-0.39842,0.10925l-0.02265,0.01275l-0.02583,0.00258l-0.50408,0.18082l-0.53629,0.14386l-0.4492,0.11301l-0.01733,0.00927l-0.0196,0.00117l-0.58752,0.18451l-0.28434,0.07153l-0.01,0.00535l-0.01132,0.0004l-0.2007,0.05765l-0.4255,0.03345l-0.02318,0.00776l-0.0243,-0.0023l-0.75775,0.11485l-0.01076,0.00448l-0.01162,-0.0007l-0.9855,0.18376l-1.07706,0.07312l-0.81082,0.00083l-0.89294,-0.10625l-1.14169,-0.19435l-0.0104,0.00078l-0.00967,-0.00389l-1.27605,-0.17863l-1.24498,-0.33069l-0.03942,-0.00062l-0.03654,-0.01492l-1.06117,-0.15344l-0.01861,0.00189l-0.01771,-0.00613l-0.79308,-0.07042l-0.83465,-0.27964l-0.01876,-0.00148l-0.01642,-0.00924l-0.83267,-0.22852l-0.00304,-0.00007l-0.00267,-0.00147l-0.62171,-0.16463l-0.5167,-0.32386l-0.52617,-0.33921l-0.00411,-0.0014l-0.00302,-0.00313l-0.5814,-0.36443l-0.26654,-0.20042l-0.19085,-0.15943l-0.14667,-0.14699l-0.16992,-0.2043l-0.00382,-0.0028l-0.00212,-0.00424l-0.18601,-0.21745l-0.12012,-0.21054l-0.005,-0.00524l-0.00211,-0.00694l-0.22694,-0.37892l-0.01141,-0.01143l-0.00543,-0.01523l-0.07864,-0.11821l-0.00165,-0.00823l0.00235,-0.00545l-0.00655,-0.01558l-0.00631,-0.03156l-0.06269,-0.13258l-0.05683,-0.1352l-0.01928,-0.02575l-0.00722,-0.01528l-0.00562,-0.00188l-0.00114,-0.00153l-0.00541,-0.02166l-0.02142,-0.04024l-0.00616,-0.04518l-0.00994,-0.02489z" fill="#82615a" stroke="none" stroke-width="0.5" stroke-linecap="butt"/><path d="M294.52373,233.00548c1.83052,4.2102 3.63958,7.79777 3.72192,12.4865c0.01826,1.03998 0.71699,2.36533 0.00164,3.12042c-0.42993,0.45382 -1.2092,0.43696 -1.24846,-0.29704c-0.12355,-2.30965 0.15054,-4.9991 -0.52932,-7.25445c-0.73042,-2.42305 -1.81605,-5.83951 -3.35534,-7.84581c-0.24971,-0.32547 -2.24369,-2.32738 -2.14129,-2.70286c-0.01368,-0.05298 -0.02095,-0.10853 -0.02095,-0.16578c0,-0.36524 0.29608,-0.66132 0.66132,-0.66132c0.29262,0 0.54084,0.19005 0.62799,0.45344c0.95337,0.45106 1.88317,1.94844 2.2825,2.8669z" fill="#000000" stroke="none" stroke-width="0.5" stroke-linecap="butt"/></g><path d="M341.94765,180.14449c0.46763,0.46762 0,0.93525 0,0.93525l-0.36207,0.36046c-0.7482,0.84172 -1.46844,1.86773 -2.36566,2.55209c-3.62824,2.76747 -9.74008,1.90739 -13.97204,1.68623c-3.18959,-0.01068 -5.91863,-0.94403 -8.79204,-2.26228c-3.39713,-1.55851 -6.24341,-2.95745 -8.48768,-6.04327c0,0 -0.38897,-0.53484 0.14587,-0.9238c0.53484,-0.38897 0.9238,0.14586 0.9238,0.14586c2.10011,2.88769 4.7831,4.15998 7.96844,5.61855c2.71739,1.24429 5.26456,2.13499 8.278,2.14281c2.97673,0.15469 6.08932,0.39798 9.01369,-0.11857c1.49313,-0.26374 2.8667,-0.34372 4.12956,-1.30453c0.82159,-0.62508 1.48436,-1.601 2.16949,-2.37179l0.41538,-0.41699c0,0 0.46762,-0.46762 0.93525,0z" fill="#000000" stroke="none" stroke-width="0.5" stroke-linecap="butt"/><path d="M324.89052,152.53381c-0.13047,-0.78279 0.65232,-0.91325 0.65232,-0.91325l0.01598,0.09955c1.5583,-1.22965 2.87886,-2.66128 4.33253,-4.02137c0.7215,-0.67505 1.62072,-0.83165 2.34012,-1.44384c1.01254,-0.86165 2.27215,-2.38896 2.91235,-3.57277c0.85666,-1.58407 1.09201,-3.41719 1.43886,-5.15145c0.11664,-0.86488 0.43148,-2.38609 -0.07168,-3.18399c-0.33863,-0.53699 -1.28359,-0.82774 -1.82818,-1.02228c-2.24972,-0.80366 -6.07732,-0.72751 -7.7842,1.24543c0,0 -0.53088,0.58987 -1.12075,0.05898c-0.58987,-0.53088 -0.05898,-1.12075 -0.05898,-1.12075c2.22124,-2.40048 6.5945,-2.73074 9.49991,-1.67762c0.89937,0.32599 2.08208,0.78215 2.61994,1.64659c0.75904,1.2199 0.48636,2.9754 0.30958,4.31427c-0.38247,1.91233 -0.6653,3.90693 -1.61128,5.65112c-0.72732,1.34103 -2.16095,3.08015 -3.31501,4.05258c-0.69919,0.58914 -1.57097,0.70901 -2.23509,1.35212c-1.46491,1.41856 -2.85837,2.83574 -4.4366,4.11233l-0.74655,0.22664c0,0 -0.78278,0.13047 -0.91325,-0.65232z" fill="#000000" stroke="none" stroke-width="0.5" stroke-linecap="butt"/><g stroke="none" stroke-width="0.5" stroke-linecap="butt"><path d="M281.23235,179.15422c3.64339,-1.96418 7.37206,0.48423 10.7628,2.38233c0.55406,0.3355 1.23272,0.77648 1.50725,1.33608c-0.05151,0.25693 -0.10729,0.51288 -0.17204,0.76616c-1.60634,3.31535 -2.49421,7.17504 -3.36504,10.76016c-0.66055,2.71949 -1.84329,5.30198 -2.52642,8.01599c-0.36684,1.61403 -1.19253,3.03583 -1.58164,4.64258c-0.60491,2.49781 -0.97357,4.8464 -1.85745,7.29062c-0.83971,2.3221 -2.53814,4.25373 -4.02658,6.17657c-0.45753,0.43143 -1.05949,1.21302 -1.77042,1.21866c-2.04066,0.0162 -4.70182,-2.90985 -5.11978,-4.78958c-0.47129,-2.11957 -0.18414,-4.68803 0.36846,-6.76283c0.38285,-1.90886 0.57277,-4.08964 0.6928,-6.02797c0.23562,-3.80511 1.38942,-7.88788 2.30756,-11.58736c1.07651,-2.21661 1.32935,-4.86723 2.26989,-7.16115c0.70065,-1.70883 1.6495,-3.30848 2.24122,-5.07091c0.1437,-0.42798 0.20949,-0.81655 0.26936,-1.18936z" fill="#e6a075"/><path d="M286.89577,175.3498c0.62132,0.22651 0.39482,0.84783 0.39482,0.84783l-0.30365,0.71385c-0.15877,0.18753 -0.31754,0.37504 -0.47632,0.56256c0,0 -0.01972,0.02329 -0.0557,0.05563c-0.00487,0.01698 -0.0083,0.02642 -0.0083,0.02642l-0.25754,0.7053c-1.13074,2.54242 -1.72294,5.30163 -2.58643,7.94344c-0.8463,1.58983 -1.09139,3.22062 -1.74316,4.88969c-0.73128,1.87268 -1.6654,3.57912 -2.14378,5.55054c-0.58753,2.42123 -0.56037,4.74308 -0.76187,7.20333c0.12195,2.5114 -0.42206,5.52004 -1.10506,7.91613c-0.68331,2.39721 -1.34822,4.35465 -0.60553,6.80638c0,0 0.19159,0.63296 -0.44138,0.82455c-0.63296,0.19159 -0.82455,-0.44138 -0.82455,-0.44138c-1.50424,-4.97344 1.9052,-10.04224 1.65404,-15.1265c0.20258,-2.55183 0.18537,-4.98358 0.79897,-7.49424c0.49586,-2.02891 1.44325,-3.80271 2.20101,-5.72976c0.65927,-1.67656 0.89291,-3.31733 1.75445,-4.91706c0.8495,-2.63824 1.44931,-5.38465 2.57697,-7.92064l0.24121,-0.66279c0,0 0.05188,-0.14234 0.17413,-0.26592c0.05002,-0.13147 0.12311,-0.21779 0.12311,-0.21779c0.15877,-0.18753 0.31754,-0.37504 0.47632,-0.56256l0.07041,-0.31221c0,0 0.22651,-0.62132 0.84783,-0.39482z" fill="#961308"/><path d="M291.15423,177.40914c0.64,0.16658 0.47342,0.80658 0.47342,0.80658l-0.23188,0.85132c-1.90538,2.80949 -2.34435,5.74893 -3.18706,8.84598c-0.95059,1.30335 -0.94258,2.78667 -1.54635,4.248c-1.76612,4.27463 -2.49398,8.75542 -3.38085,13.2743c-0.13986,1.49245 -0.37893,2.90904 -0.96924,4.29006c-0.50316,1.17713 -1.51064,2.245 -1.85506,3.49319c-0.15585,0.5648 -0.08352,1.17339 -0.21344,1.7447c-0.35095,1.54325 -0.63391,2.85205 0.20166,4.31418c0,0 0.32434,0.57633 -0.252,0.90066c-0.57633,0.32434 -0.90066,-0.252 -0.90066,-0.252c-2.71694,-4.88846 2.21873,-9.85732 2.67972,-14.6802c0.89913,-4.62034 1.63574,-9.23955 3.47101,-13.59852c0.62022,-1.47309 0.59279,-2.97995 1.57081,-4.30254c0.75153,-3.05082 1.27643,-6.10017 3.17834,-8.82725l0.155,-0.63505c0,0 0.16658,-0.64 0.80658,-0.47342z" fill="#961308"/><path d="M281.85563,177.28857c-0.05533,0.08461 -0.10501,0.16804 -0.14979,0.25055c3.71822,-1.27811 7.43177,0.91252 10.94614,2.87999c0.41397,0.25891 0.80329,0.53261 1.13787,0.83288c0.09907,-0.51283 0.21312,-1.02072 0.37359,-1.51437c0.29617,-0.91112 0.97556,-2.12758 0.71871,-3.1289c-0.62524,-2.43736 -4.30364,-3.81983 -6.49695,-3.84399c-0.62731,-0.00691 -1.57335,0.67342 -2.14673,0.89914c-1.65604,1.01055 -2.98157,2.29838 -4.38284,3.6247zM280.96412,180.37c-0.59172,1.76243 -1.53584,3.36145 -2.23649,5.07028c-0.94055,2.29392 -1.18203,4.93883 -2.25855,7.15544c-0.91814,3.69948 -2.06759,7.74687 -2.3032,11.55198c-0.12003,1.93833 -0.31597,4.113 -0.69882,6.02187c-0.5526,2.07479 -0.84391,4.64078 -0.37263,6.76035c0.41796,1.87972 3.07177,4.80352 5.11244,4.78731c0.71095,-0.00564 1.31101,-0.78746 1.76855,-1.21888c1.48844,-1.92284 3.18094,-3.85429 4.02065,-6.17639c0.88388,-2.44423 1.24458,-4.79034 1.84949,-7.28815c0.38911,-1.60675 1.20426,-3.01915 1.5711,-4.63318c0.68313,-2.714 1.86475,-5.26977 2.5253,-7.98927c0.87081,-3.58512 1.76598,-7.43623 3.37231,-10.75157c0.06475,-0.25328 0.12089,-0.50896 0.17239,-0.76589c-0.27453,-0.55961 -0.95099,-0.99911 -1.50505,-1.33461c-3.39074,-1.89811 -7.10519,-4.34282 -10.74858,-2.37863c-0.05987,0.37281 -0.12524,0.76135 -0.26893,1.18934zM280.51199,176.98259c-0.08194,-0.53659 0.46919,-0.70339 0.46919,-0.70339l-0.08863,0.09978c1.52184,-1.4394 2.95724,-2.80772 4.75664,-3.8992c0.82166,-0.32719 1.84133,-1.02207 2.74408,-1.03765c0.57443,-0.00991 1.10207,0.33826 1.66949,0.42818c2.38812,0.3785 5.42451,1.7632 6.10234,4.41689c0.33825,1.32426 -0.3372,2.63024 -0.74255,3.85543c-0.28671,0.86658 -0.42507,1.78835 -0.59291,2.70099c0.0228,0.09383 0.04028,0.19001 0.05208,0.28868c3.3665,-2.54541 4.97632,-7.17754 5.45396,-11.14947c0.99978,-3.71417 0.93192,-7.28678 -0.91863,-10.63441c-0.35866,-0.64882 -1.30869,-2.74205 -2.04199,-2.98432c-0.42996,-0.14205 -1.70929,-0.01317 -2.12355,0.01421c-1.76139,0.71038 -3.69708,1.28109 -5.27217,2.37304c-3.79433,2.63049 -6.8514,6.63389 -9.42523,10.403c-1.15439,1.75402 -2.6102,4.22627 -2.13067,6.37567c0.13782,0.61775 0.06494,1.38555 0.59064,1.67927c0.07629,-0.15078 0.18892,-0.24303 0.18892,-0.24303c0.29513,-0.24034 0.5905,-0.45349 0.88602,-0.64131c0.08796,-0.44572 0.19533,-0.88174 0.42297,-1.34236zM291.22892,194.71664c-0.6645,2.72076 -1.84328,5.27795 -2.52622,7.99309c-0.37048,1.6051 -1.18458,3.01304 -1.56527,4.6078c-0.60952,2.55336 -0.98528,4.96993 -1.90097,7.46361c-0.91212,2.48398 -2.67746,4.54868 -4.28155,6.60603c-0.77603,0.73586 -1.52217,1.59265 -2.6876,1.65132c-2.65909,0.13388 -5.87914,-3.34062 -6.45516,-5.78434c-0.54758,-2.32305 -0.21614,-5.09952 0.36667,-7.38427c0.38728,-1.83411 0.54033,-3.93206 0.66684,-5.80202c0.26633,-3.93676 1.4078,-8.10543 2.3812,-11.92627c1.0954,-2.22821 1.34598,-4.91181 2.28783,-7.22868c0.64359,-1.58317 1.49248,-3.05536 2.08766,-4.66142l-0.81551,0.2869c-1.32718,-0.5636 -1.37095,-1.42281 -1.65511,-2.72413c-0.55872,-2.55862 0.95536,-5.29494 2.32289,-7.39506c2.66219,-3.89799 5.82943,-8.03609 9.76008,-10.74706c1.72152,-1.18734 3.812,-1.83057 5.743,-2.58344c0.90089,-0.06763 2.12019,-0.24959 2.99724,0.08661c0.89832,0.34435 1.67064,1.98226 2.15985,2.74322c2.43611,3.7893 2.67247,7.98542 1.51977,12.31412c-0.56115,4.77252 -2.74367,10.15869 -7.11928,12.72158c-0.0952,0.08923 -0.22987,0.15739 -0.41831,0.15283c-1.31649,3.02165 -2.09284,6.43568 -2.86802,9.60957z" fill="#000000"/><path d="M294.88925,183.15765c-0.14105,-1.17879 -1.09683,-2.00093 -2.23421,-2.71227c-4.30337,-2.40918 -8.93196,-5.16707 -13.47551,-1.46694c0,0 -0.11252,0.09246 -0.1888,0.24324c-0.5257,-0.29372 -0.45417,-1.06451 -0.59199,-1.68225c-0.47952,-2.14941 0.97474,-4.63417 2.12912,-6.38818c2.57383,-3.7691 5.65326,-7.79557 9.4476,-10.42607c1.57509,-1.09196 3.52111,-1.66215 5.28249,-2.37254c0.41425,-0.02739 1.697,-0.15516 2.12696,-0.01311c0.73331,0.24227 1.68855,2.3383 2.04721,2.98711c1.85054,3.34763 1.92977,6.94049 0.92999,10.65467c-0.47765,3.97194 -2.10636,8.63092 -5.47287,11.17634z" fill="#b3c976"/></g></g></g></svg>