<svg version="1.1" xmlns="http://www.w3.org/2000/svg" xmlns:xlink="http://www.w3.org/1999/xlink" width="123.28827" height="185.26032" viewBox="0,0,123.28827,185.26032"><g transform="translate(-259.33854,-87.36983)"><g stroke-miterlimit="10"><g><g stroke="none" stroke-width="0.5" stroke-linecap="butt"><path d="M306.81091,252.93968c0,0 0.36753,0.55124 0.91778,0.1844c0.03452,-0.02302 0.06543,-0.04677 0.09305,-0.07105c0.84737,0.33617 1.00468,1.13797 1.23651,2.02556c0.32297,1.23654 1.01433,2.54134 1.20511,3.78599c0.11873,0.77463 0.04183,1.57774 0.18886,2.34751c0.19279,1.00943 0.83289,2.67769 0.07283,3.58243c-0.89268,1.06262 -2.68758,2.10777 -3.86646,2.82726c-6.01157,3.27785 -13.53998,3.0928 -20.25273,3.0928c-2.06986,0 -3.60813,-0.19283 -5.32359,-1.38223c-0.22623,-0.15686 -0.95798,-0.48017 -1.13651,-0.76127c-0.76102,-1.19819 -0.63716,-2.94628 -0.63655,-4.30633c0.00018,-0.40125 -0.22173,-1.57838 0.11944,-1.90579c0.64848,-0.62232 1.98055,-0.94929 2.83634,-1.19345c3.17687,-0.70652 6.16108,-2.04864 9.45988,-2.04864l0.53797,-0.00178c0.22331,0.01234 0.37656,-0.06419 0.47825,-0.16398c0.11052,-0.09217 0.20263,-0.23901 0.21107,-0.46632c0.10726,-1.16749 0.88745,-2.08308 1.63448,-2.97825c0.64089,-0.76797 1.10652,-1.74665 1.99196,-2.28689c2.22972,-1.36044 5.65716,-0.80911 8.15345,-0.65284c0.80813,0.00694 1.51791,0.21545 2.31283,0.37459l-0.23395,-0.00173z" fill="#e19c72"/><path d="M299.6678,254.36385c0.65233,-0.10872 0.76105,0.5436 0.76105,0.5436l0.10237,0.66897c0,0.80505 0.10026,1.72251 -0.11637,2.5072c-0.92214,3.34028 -4.15396,4.13006 -7.17452,4.13006c-2.54046,0 -5.38905,-0.01778 -7.75292,1.05956c-1.64017,0.74751 -2.70826,2.92562 -3.64872,4.34177c0,0 -0.36684,0.55026 -0.91709,0.18342c-0.55025,-0.36683 -0.18341,-0.91709 -0.18341,-0.91709c1.11015,-1.65795 2.29143,-3.90496 4.1947,-4.80889c2.50519,-1.18981 5.60264,-1.18141 8.30743,-1.18141c2.41471,0 5.13682,-0.43621 5.89786,-3.15312c0.18426,-0.65784 0.07039,-1.48794 0.07039,-2.16151l-0.08438,-0.45153c0,0 -0.10872,-0.65232 0.5436,-0.76104z" fill="#8f0700"/><path d="M285.17381,270.04426c-0.64848,-0.1297 -0.51878,-0.77818 -0.51878,-0.77818l0.16767,-0.66528c0.89153,-1.54886 2.0045,-4.12737 3.58798,-5.0899c0.98337,-0.59774 2.25242,-0.37889 3.33565,-0.37889c2.26697,0 4.53393,0 6.80091,0c1.52786,0 3.00597,-0.01563 4.49901,-0.18035c0.46609,-0.05142 1.0984,0.25835 1.40332,-0.09787c0.3906,-0.45632 0.17059,-1.51675 0.17469,-2.04842c0.0167,-2.16473 -1.38607,-4.18398 -1.67563,-6.26741c0,0 -0.08202,-0.65622 0.57419,-0.73824c0.65621,-0.08202 0.73825,0.57418 0.73825,0.57418c0.25683,2.4346 1.7038,4.60126 1.68584,7.17846c-0.0058,0.832 0.09979,1.53905 -0.5723,2.24679c-0.64944,0.6839 -1.37841,0.37662 -2.14489,0.46237c-1.55607,0.17408 -3.09313,0.19315 -4.68247,0.19315c-2.26697,0 -4.53393,0 -6.8009,0c-0.71148,0 -1.98563,-0.24676 -2.64029,0.18135c-1.35237,0.88438 -2.37092,3.2725 -3.13495,4.62101l-0.01909,0.26846c0,0 -0.12969,0.64848 -0.77817,0.51878z" fill="#8f0700"/><path d="M307.70664,253.1387c-0.55025,0.36684 -0.91709,-0.18341 -0.91709,-0.18341l0.23381,0.00152c-0.79492,-0.15914 -1.50261,-0.36507 -2.31073,-0.37202c-2.49629,-0.15627 -5.90907,-0.69955 -8.13879,0.66089c-0.88545,0.54024 -1.34423,1.51927 -1.98512,2.28724c-0.74703,0.89516 -1.51422,1.8061 -1.62148,2.97359c-0.00844,0.22732 -0.0979,0.37206 -0.20842,0.46423c-0.10169,0.0998 -0.25261,0.17394 -0.47592,0.1616h-0.53657c-3.29879,0 -6.27802,1.32739 -9.45489,2.03392c-0.8558,0.24416 -2.1879,0.56897 -2.83638,1.1913c-0.34116,0.3274 -0.11961,1.50142 -0.11979,1.90267c-0.00061,1.36005 -0.12655,3.1015 0.63447,4.29969c0.17854,0.28109 0.9094,0.60268 1.13563,0.75954c1.71546,1.1894 3.24877,1.37587 5.31863,1.37587c6.71275,0 14.19962,0.192 20.21119,-3.08586c1.17889,-0.71949 2.97132,-1.75779 3.86399,-2.82042c0.76006,-0.90474 0.1194,-2.567 -0.0734,-3.57643c-0.14702,-0.76977 -0.06974,-1.56885 -0.18847,-2.34348c-0.19077,-1.24465 -0.88011,-2.54295 -1.20308,-3.77948c-0.23183,-0.88759 -0.38716,-1.68582 -1.23453,-2.022c-0.02763,0.02428 -0.05854,0.04802 -0.09306,0.07104zM307.49749,251.85847c0.27405,-0.21126 0.63477,-0.076 0.63477,-0.076c2.96661,1.22175 3.0675,6.47007 3.5915,9.17588c0.30095,1.554 0.87867,3.21538 -0.18169,4.64417c-0.87336,1.17681 -3.00685,2.3916 -4.24464,3.15185c-6.23633,3.40284 -13.91014,3.26358 -20.87342,3.26358c-2.46212,0 -5.97736,-0.42829 -7.55185,-2.72003c-1.08793,-1.58353 -0.87085,-3.96441 -0.85952,-5.78472c0.00448,-0.72085 -0.09701,-1.40142 0.44046,-2.01905c0.74366,-0.85457 2.45219,-1.30644 3.51307,-1.60993c3.29174,-0.73092 6.35834,-2.07454 9.78017,-2.07454h0.00952c0.66325,-2.73714 3.6993,-6.19888 6.40868,-6.61895c2.04917,-0.31771 4.53466,-0.05643 6.59917,0.07239c0.88202,0.01772 1.65436,0.22395 2.51906,0.39672z" fill="#000000"/></g><g><path d="M318.49652,237.03242c0,0 -3.26211,4.66656 -3.67532,7.4581c-0.52047,3.51607 0.79939,11.97075 0.79939,11.97075c0,0 -7.7144,1.46219 -11.57054,1.36129c-4.48818,-0.11745 -13.75135,-2.02392 -13.75135,-2.02392c0,0 -2.24021,-1.45772 -2.88236,-3.53789c-0.55707,-1.80455 -1.93626,-7.14182 -1.07424,-10.72062c0.80905,-3.35892 9.02087,-12.05965 9.02087,-12.05965z" fill="#82615a" stroke="#000000" stroke-width="3" stroke-linecap="round"/><path d="M317.11211,236.12012c-0.0165,-0.0839 -0.01692,-0.17241 0.0015,-0.26141c0.03652,-0.17646 0.1402,-0.32183 0.27883,-0.41495l0.08881,-0.42924l-0.0012,-0.02949l-0.02785,-0.15617l0.00637,-0.09285l-0.01305,-0.09215l0.03957,-0.37773l0.0115,-0.03155l-0.00137,-0.03356l0.04312,-0.20835l-0.0491,-0.27533l0.00491,-0.07157l-0.01468,-0.07023l0.00616,-0.15827l-0.05891,-0.33033l0.00492,-0.07157l-0.01469,-0.07024l0.00616,-0.15827l-0.05891,-0.33033l0.00371,-0.05406l-0.01391,-0.05236l-0.00509,-0.34839l0.00414,-0.01765l-0.00371,-0.01773l0.00567,-0.14564l-0.04698,-0.21599l-0.20466,-0.46298l-0.19601,-0.25895l-0.00187,-0.00437l-0.00367,-0.00304l-0.30116,-0.40964l-0.03735,-0.09113l-0.05408,-0.08231l-0.01428,-0.04085l-0.16062,-0.13837l-0.01006,-0.01425l-0.01516,-0.00863l-0.21508,-0.20551l-0.2842,-0.18805l-0.26261,-0.16567l-0.47537,-0.28954l-0.03979,-0.04033l-0.05049,-0.02573l-0.39256,-0.34183l-0.026,-0.00538l-0.00358,0.0016l-0.01178,-0.00477l-0.04805,-0.00995l-0.12619,-0.0608l-0.12978,-0.05269l-0.03963,-0.02894l-0.01145,-0.00552l-0.00122,-0.00374l-0.2568,-0.18749l-0.94058,-0.40663l-0.71555,-0.25791l-0.86481,-0.2523l-4.88439,-1.01066l-1.2098,-0.06499l-0.0344,-0.01059l-0.03587,0.00304l-0.77367,-0.12532l-0.50504,0.05009l-0.77031,0.1713l-0.01435,-0.00037l-0.01311,0.00588l-0.98573,0.17578l-0.90988,0.20894l-0.66451,0.25795l-0.33224,0.13422l-0.35454,0.20423l-0.02133,0.00609l-0.01694,0.01432l-0.38668,0.19013l-0.0107,0.00231l-0.00858,0.00679l-0.42106,0.19045l-0.55134,0.36229l-0.90339,0.74868l-0.03357,0.0161l-0.02524,0.02739l-0.21326,0.14013l-0.24436,0.24113l-0.0567,0.03351l-0.04463,0.04844l-0.24389,0.16026l-0.0374,0.05652l-0.07185,0.06577l-0.05768,0.07849l-0.13237,0.1097l-0.06127,0.0777l-0.02051,0.01586l-0.01242,0.02276l-0.10012,0.10867l-0.08352,0.14394l-0.05074,0.05225l-0.03489,0.06392l-0.08263,0.08969l-0.09256,0.19209l-0.04658,0.05598l-0.02988,0.06642l-0.06031,0.07649l-0.21213,1.02521l0.0134,0.02851l0.01044,0.05298l0.02474,0.02183l0.00536,0.13098l0.02534,0.12862l-0.01896,0.02701l0.00221,0.05394l-0.05483,0.26498l0.00143,0.0121l-0.00762,0.05963l0.01093,0.05912l-0.01167,0.18759l0.02181,0.1223l-0.00136,0.01984l0.00705,0.01859l0.01404,0.11867l-0.00531,0.04146l0.00987,0.0406l-0.00127,0.1927l-0.0164,0.06379l0.00043,0.01053l0.03714,0.1824l-0.00072,0.0163l0.00165,0.00126l0.18376,0.23099l0.01267,0.02782l0.02248,0.02072l0.10205,0.15528l0.10219,0.09415l0.01907,0.02901l0.0286,0.01967l0.0965,0.10931l0.00718,0.0019l0.00919,0.01663l0.01219,0.01381l0.06994,0.13491l0.03502,0.0634l0.84751,0.66826l0.03303,0.04271l0.03188,0.00847l0.05321,0.09634l0.10845,0.07563l0.08229,0.09441l0.01748,0.01611l0.00006,0.00003l0.36775,0.18694l0.01957,0.01701l0.02476,0.00772l0.45653,0.27806l0.4955,0.24836l0.41647,0.20067l0.01506,0.01254l0.01893,0.00508l0.53709,0.29826l0.26349,0.12696l0.0087,0.00723l0.011,0.00266l0.18449,0.0966l0.4092,0.11802l0.02108,0.01223l0.02423,0.00262l0.71719,0.26417l0.0096,0.00654l0.0115,0.00165l0.9252,0.37723l1.03652,0.28753l0.7909,0.16366l0.89238,0.07568l1.15234,0.04021l0.00999,0.00287l0.01022,-0.00186l1.2801,0.08392l1.28092,-0.07018l0.0386,0.00744l0.03866,-0.00715l1.06684,0.06637l0.0178,0.00565l0.01853,-0.00237l0.78895,0.09298l0.87192,-0.10312l0.01864,0.00239l0.01792,-0.00568l0.86012,-0.05358l0.00299,0.00055l0.0029,-0.0009l0.64119,-0.0342l0.57062,-0.21124l0.58309,-0.22435l0.00431,-0.00053l0.00358,-0.00244l0.64235,-0.2378l0.30125,-0.14163l0.21893,-0.11697l0.17318,-0.1138l0.2075,-0.16509l0.0043,-0.00196l0.00293,-0.0037l0.22594,-0.17468l0.16005,-0.18131l0.00596,-0.0041l0.00347,-0.00635l0.29863,-0.32413l0.01347,-0.00886l0.00838,-0.01377l0.10086,-0.09952l0.00326,-0.0077l-0.00119,-0.0058l0.00956,-0.0139l0.01255,-0.02955l0.08813,-0.11681l0.08293,-0.12055l0.02407,-0.02125l0.01015,-0.01346l0.00588,-0.0007l0.00143,-0.00126l0.00967,-0.02006l0.02909,-0.03497l0.01516,-0.04288l0.01475,-0.0223zM318.7868,234.84235l0.01283,0.04364l0.00637,0.15569l-0.0165,0.07973l0.00333,0.08134l-0.19909,0.9622l-0.14795,0.30706l-0.04521,0.01474l-0.03363,0.09519l-0.0514,0.16208l-0.00914,0.00449l-0.08388,0.12677l-0.01317,0.02733l0.0001,0.0005l-0.00113,0.00164l-0.03396,0.07048l-0.08382,0.10073l-0.07427,0.10797l-0.0292,0.02577l-0.01668,0.03931l-0.0774,0.10258l-0.06684,0.10974l-0.18277,0.18036l-0.28319,0.30738l-0.19698,0.22315l-0.05213,0.03587l-0.03918,0.04969l-0.27201,0.2103l-0.22739,0.1809l-0.02783,0.01266l-0.02071,0.02248l-0.22333,0.14675l-0.02886,0.0101l-0.02267,0.02053l-0.26033,0.13909l-0.01684,0.00422l-0.01345,0.01098l-0.34201,0.16078l-0.02811,0.00554l-0.02365,0.01617l-0.66476,0.2461l-0.58309,0.22435l-0.00431,0.00053l-0.00357,0.00244l-0.6687,0.24756l-0.09909,0.0109l-0.09529,0.02929l-0.73848,0.03938l-0.83884,0.05226l-0.93122,0.11013l-0.07753,-0.00992l-0.07754,0.00995l-0.84837,-0.09997l-1.01003,-0.06284l-1.28203,0.07024l-0.03968,-0.00763l-0.03976,0.00721l-1.30972,-0.08586l-1.15868,-0.04042l-0.0162,-0.00465l-0.01663,0.00269l-0.94817,-0.08041l-0.03799,-0.013l-0.04012,0.00165l-0.85118,-0.17613l-0.02028,-0.00977l-0.0225,-0.00057l-1.09492,-0.30374l-0.03411,-0.01932l-0.03879,-0.00555l-0.95044,-0.38752l-0.68418,-0.25202l-0.45052,-0.12994l-0.05815,-0.03374l-0.06534,-0.01581l-0.23397,-0.12251l-0.27082,-0.13049l-0.01506,-0.01254l-0.01893,-0.00507l-0.53709,-0.29826l-0.40386,-0.19459l-0.00408,-0.00341l-0.00519,-0.00115l-0.52448,-0.2629l-0.02111,-0.01813l-0.02656,-0.00827l-0.45813,-0.27903l-0.36146,-0.18375l-0.01419,-0.01232l-0.01806,-0.00521l-0.06604,-0.03832l-0.00741,0.00046l-0.01397,-0.01286l-0.01594,-0.00925l-0.109,-0.10586l-0.07038,-0.06484l-0.16175,-0.1128l-0.05535,-0.06351l-0.04076,-0.01083l-0.05418,-0.09811l-0.02559,-0.02935l-0.87237,-0.68786l-0.03303,-0.04272l-0.03188,-0.00846l-0.06338,-0.11476l-0.08018,-0.10371l0.00489,-0.03262l-0.0261,-0.04727l-0.00324,-0.01222l-0.13619,-0.12547l-0.04471,-0.06803l-0.05988,-0.05516l-0.13027,-0.19826l-0.15454,-0.19425l-0.11384,-0.12895l-0.03397,-0.06552l-0.03491,-0.01809l-0.03344,-0.11373l-0.05455,-0.10524l0.01268,-0.03722l-0.02081,-0.07081l-0.00421,-0.10274l-0.03148,-0.1546l-0.00099,-0.00088l-0.0002,-0.00503l-0.01418,-0.06959l0.00588,-0.13296l-0.00545,-0.13297l0.0097,-0.0469l0.00057,-0.08605l-0.00692,-0.05849l-0.03231,-0.18123l0.00543,-0.07915l-0.01443,-0.07801l0.01289,-0.2072l-0.00703,-0.05946l0.01349,-0.10545l-0.00435,-0.10621l0.03589,-0.17348l-0.01887,-0.09581l-0.03455,-0.14218l0.00021,-0.03212l-0.00326,-0.01655l0.0034,-0.00485l0.00092,-0.13919l0.01641,-0.06379l-0.0027,-0.06582l0.25162,-1.216l-0.00279,-0.00688l0.00779,-0.01732l0.00374,-0.01805l0.06596,-0.1369l0.06234,-0.13857l0.01141,-0.01447l0.00825,-0.01712l0.00706,-0.0023l0.0853,-0.10819l0.10377,-0.21534l0.06255,-0.07518l0.04685,-0.08585l0.10012,-0.10868l0.08353,-0.14394l0.05074,-0.05224l0.03488,-0.06393l0.1321,-0.14339l0.08893,-0.11277l0.05566,-0.04304l1.50794,0.13093l-1.35541,-0.2795l0.01571,-0.02375l-0.00008,-0.00132l0.00341,-0.0037l0.03919,-0.05922l0.09817,-0.08986l1.06003,0.0642l-0.91051,-0.20108l0.54861,0.53386l0.27698,-0.21302l-0.10124,-0.38114l-0.23674,-0.34068l0.0567,-0.03351l0.04463,-0.04844l0.23738,-0.15599l0.90339,-0.74867l0.03359,-0.0161l0.02523,-0.02738l0.62532,-0.41091l0.04952,-0.01732l0.04112,-0.03257l0.45863,-0.20744l0.35763,-0.17585l0.37553,-0.21631l0.04474,-0.01274l0.03762,-0.02738l0.37902,-0.15313l0.00461,-0.00064l0.0038,-0.0027l0.71337,-0.2769l0.04809,-0.00605l0.04321,-0.02199l0.97242,-0.2233l0.01668,0.00032l0.01523,-0.00682l0.98798,-0.17618l0.7954,-0.17687l0.04032,0.00105l0.03798,-0.01359l0.63041,-0.06252l0.0852,0.01254l0.08581,-0.00726l0.8239,0.13346l1.22421,0.06576l0.04817,0.01482l0.05036,-0.00206l4.95903,1.02611l0.02428,0.01171l0.02693,0.00105l0.90988,0.26546l0.01813,0.01059l0.02089,0.00212l0.75419,0.27183l0.01745,0.01171l0.02074,0.00341l1.02728,0.44412l0.05887,0.04503l0.06867,0.02789l0.25311,0.1848l0.10596,0.02193l0.00944,-0.00329l0.15434,0.07869l0.15607,0.0752l0.0031,0.0095l0.47101,0.41014l0.43187,0.26304l0.00376,0.00382l0.00509,0.00167l0.2731,0.17229l0.00511,0.00534l0.00697,0.00247l0.33944,0.22461l0.04021,0.04391l0.05173,0.02946l0.24545,0.23453l0.27729,0.23889l0.01002,0.00185l0.09322,0.14187l0.09789,0.13868l-0.00195,0.01001l0.03802,0.10873l0.23971,0.32605l0.23967,0.31662l0.03023,0.07092l0.04734,0.06085l0.26287,0.59467l0.01148,0.0664l0.02987,0.06041l0.07912,0.3637l-0.00259,0.08401l0.01719,0.08227l-0.00825,0.21201l0.00405,0.27706l0.06205,0.34791l-0.00491,0.07158l0.01468,0.07023l-0.00616,0.15828l0.05891,0.33032l-0.00491,0.07158l0.01468,0.07022l-0.00616,0.15827l0.05891,0.33032l-0.00858,0.12496l0.00513,0.12514l-0.06224,0.30077l-0.02639,0.25196l0.01932,0.10833z" fill="#82615a" stroke="none" stroke-width="0.5" stroke-linecap="butt"/><path d="M317.0977,236.16109l-0.01478,0.02236l-0.01519,0.043l-0.02913,0.03507l-0.00968,0.02011l-0.00143,0.00127l-0.00588,0.0007l-0.01017,0.01351l-0.0241,0.02131l-0.08304,0.12088l-0.08825,0.11712l-0.01257,0.02963l-0.00957,0.01394l0.00119,0.00582l-0.00328,0.00773l-0.10096,0.09982l-0.00841,0.01381l-0.01349,0.00888l-0.29901,0.32507l-0.00347,0.00636l-0.00596,0.00412l-0.16029,0.18184l-0.22621,0.17525l-0.00293,0.00372l-0.0043,0.00196l-0.20779,0.16564l-0.17341,0.11422l-0.21919,0.11745l-0.30163,0.14226l-0.64318,0.23907l-0.00358,0.00245l-0.00431,0.00053l-0.58398,0.22557l-0.57161,0.21243l-0.64217,0.03524l-0.0029,0.0009l-0.00299,-0.00055l-0.8617,0.05506l-0.01796,0.00573l-0.01867,-0.00236l-0.874,0.10472l-0.7909,-0.09173l-0.01858,0.00241l-0.01784,-0.00563l-1.07024,-0.06476l-0.0388,0.0072l-0.03873,-0.00738l-1.28616,0.07156l-1.28578,-0.08364l-0.01025,0.00186l-0.01003,-0.00287l-1.15739,-0.04101l-0.89595,-0.07689l-0.79384,-0.1651l-1.0399,-0.28985l-0.92782,-0.37964l-0.01151,-0.00167l-0.00963,-0.00656l-0.71876,-0.26601l-0.02427,-0.00267l-0.02113,-0.01229l-0.4099,-0.11897l-0.18486,-0.09712l-0.01101,-0.00268l-0.00871,-0.00727l-0.26394,-0.12765l-0.53795,-0.29974l-0.01896,-0.00511l-0.01509,-0.01259l-0.41699,-0.20169l-0.49602,-0.24954l-0.45698,-0.2792l-0.02477,-0.00776l-0.0196,-0.01707l-0.36802,-0.18771l-0.00006,-0.00003l-0.01749,-0.01617l-0.08239,-0.09472l-0.10853,-0.0759l-0.0533,-0.09662l-0.0319,-0.0085l-0.03307,-0.04284l-0.84801,-0.67039l-0.03505,-0.06358l-0.07001,-0.13526l-0.0122,-0.01385l-0.00918,-0.01667l-0.00718,-0.00191l-0.09655,-0.10961l-0.02861,-0.01973l-0.01909,-0.02909l-0.10223,-0.09441l-0.10209,-0.1557l-0.02249,-0.02077l-0.01268,-0.0279l-0.18383,-0.23158l-0.00165,-0.00127l0.00071,-0.01633l-0.03718,-0.18283l-0.00043,-0.01055l0.01639,-0.06395l0.00124,-0.19315l-0.00987,-0.04071l0.0053,-0.04155l-0.01405,-0.11896l-0.00706,-0.01863l0.00136,-0.01989l-0.02182,-0.12261l0.01167,-0.18803l-0.01093,-0.05925l0.00763,-0.05978l-0.00143,-0.01213l0.05484,-0.26562l-0.00221,-0.05408l0.01896,-0.02706l-0.02533,-0.12893l-0.00534,-0.13129l-0.02473,-0.02188l-0.01042,-0.0531l-0.0134,-0.02858l0.21242,-1.02768l0.06034,-0.07668l0.02991,-0.06659l0.0466,-0.05614l0.09265,-0.19259l0.08269,-0.08995l0.03492,-0.0641l0.05077,-0.05239l0.08362,-0.14432l0.10019,-0.10898l0.01243,-0.02283l0.02053,-0.01591l0.06133,-0.07792l0.13247,-0.11004l0.05775,-0.07872l0.07191,-0.06597l0.03746,-0.05668l0.24406,-0.16082l0.04467,-0.04858l0.05675,-0.03364l0.24463,-0.24189l0.21347,-0.14066l0.02527,-0.02748l0.03361,-0.01617l0.90466,-0.75133l0.55221,-0.36377l0.42171,-0.19141l0.0086,-0.00683l0.01072,-0.00232l0.38737,-0.19108l0.01697,-0.01438l0.02137,-0.00612l0.35529,-0.20515l0.33293,-0.135l0.66601,-0.25944l0.91208,-0.21076l0.98852,-0.17759l0.01316,-0.00591l0.01439,0.00036l0.7729,-0.17256l0.5068,-0.05076l0.77639,0.12456l0.03602,-0.00306l0.03452,0.01057l1.21473,0.0644l4.90272,1.01748l0.86683,0.25433l0.71697,0.25964l0.94212,0.40894l0.25725,0.18829l0.00123,0.00374l0.01147,0.00555l0.0397,0.02905l0.12994,0.05298l0.12635,0.0611l0.04809,0.01003l0.0118,0.0048l0.00358,-0.0016l0.02602,0.00541l0.39316,0.3431l0.05053,0.02585l0.03987,0.04047l0.47584,0.29071l0.26283,0.16631l0.28443,0.18874l0.21528,0.20616l0.01516,0.00866l0.01008,0.0143l0.16074,0.13881l0.01431,0.04096l0.05413,0.08254l0.03741,0.09137l0.30141,0.41082l0.00367,0.00304l0.00187,0.00439l0.19614,0.25967l0.20481,0.46418l0.04704,0.21652l-0.00563,0.14599l0.00371,0.01779l-0.00413,0.01769l0.00515,0.34924l0.01391,0.05249l-0.00371,0.05419l0.05892,0.33114l-0.00616,0.15866l0.01468,0.07041l-0.00492,0.07175l0.05888,0.33113l-0.00618,0.15865l0.01466,0.0704l-0.00492,0.07175l0.04904,0.27598l-0.04317,0.20885l0.00136,0.03364l-0.0115,0.03162l-0.0397,0.37865l0.01301,0.09235l-0.00641,0.09306l0.02778,0.15652l0.00119,0.02956l-0.08905,0.43026c-0.13863,0.09312 -0.2426,0.2396 -0.27911,0.41606c-0.01841,0.08899 -0.01818,0.17809 -0.00167,0.26199z" fill="#82615a" stroke="none" stroke-width="0.5" stroke-linecap="butt"/><path d="M292.26213,231.46369c0.57716,-0.8185 1.79107,-2.09641 2.81606,-2.34494c0.13871,-0.24026 0.42029,-0.37607 0.70684,-0.31678c0.35766,0.074 0.58761,0.42394 0.5136,0.7816c-0.0116,0.05606 -0.02998,0.10898 -0.05411,0.1581c0.0242,0.38844 -2.33406,1.9448 -2.64454,2.21292c-1.91388,1.65278 -3.66926,4.7784 -4.8755,7.00319c-1.12275,2.0708 -1.3993,4.76001 -1.98827,6.99671c-0.18718,0.71082 -0.95369,0.56943 -1.28275,0.03791c-0.54751,-0.88438 0.40527,-2.04065 0.63388,-3.05536c1.03068,-4.57478 3.52914,-7.72137 6.17478,-11.47333z" fill="#000000" stroke="none" stroke-width="0.5" stroke-linecap="butt"/></g></g><g stroke="none" stroke-width="0.5" stroke-linecap="butt"><path d="M275.65592,187.44669c3.9151,-1.31855 7.08648,1.64321 10.03199,4.01901c0.47655,0.41272 1.05467,0.94728 1.21709,1.53215c-0.09829,0.24023 -0.20055,0.47882 -0.31105,0.71341c-2.18504,2.94973 -3.77262,6.54033 -5.29212,9.86816c-1.15263,2.52433 -2.78795,4.83294 -3.96152,7.34835c-0.65956,1.5022 -1.7298,2.74542 -2.40968,4.23704c-1.05691,2.31884 -1.85585,4.53102 -3.17432,6.75358c-1.25258,2.11151 -3.26803,3.70859 -5.07739,5.33063c-0.52628,0.34424 -1.25875,1.00405 -1.95195,0.8962c-1.98977,-0.30958 -4.03237,-3.56307 -4.08709,-5.44728c-0.0617,-2.12463 0.69908,-4.56242 1.62581,-6.48056c0.73038,-1.78475 1.32387,-3.86317 1.80389,-5.71829c0.94231,-3.64178 2.83057,-7.4057 4.41758,-10.83655c1.46336,-1.97176 2.20615,-4.49447 3.55162,-6.56265c1.0023,-1.54068 2.22578,-2.93622 3.13207,-4.54608c0.22009,-0.39094 0.35694,-0.75617 0.48508,-1.10711z" fill="#e6a075"/><path d="M281.88245,184.67068c0.56246,0.31805 0.22553,0.88274 0.22553,0.88274l-0.42936,0.64187c-0.18971,0.15602 -0.37941,0.31202 -0.56912,0.46804c0,0 -0.02356,0.01938 -0.06465,0.04491c-0.00792,0.01565 -0.01304,0.02422 -0.01304,0.02422l-0.38287,0.64093c-1.5772,2.27816 -2.67073,4.85179 -4.00637,7.26864c-1.12179,1.40239 -1.66596,2.94021 -2.61322,4.45024c-1.06282,1.69422 -2.29196,3.19537 -3.12707,5.02538c-1.02565,2.24757 -1.43423,4.49699 -2.09135,6.84379c-0.35181,2.44782 -1.44514,5.27031 -2.55901,7.47834c-1.1144,2.20906 -2.12847,3.99583 -1.86477,6.4849c0,0 0.06794,0.64257 -0.5842,0.72694c-0.65213,0.08437 -0.72006,-0.55821 -0.72006,-0.55821c-0.53267,-5.04881 3.73636,-9.40664 4.44443,-14.36287c0.67534,-2.43519 1.11419,-4.78931 2.18198,-7.11918c0.86289,-1.88281 2.11759,-3.44698 3.21637,-5.18956c0.95597,-1.51607 1.49085,-3.06536 2.62934,-4.47489c1.32135,-2.41565 2.41987,-4.97566 3.99288,-7.24809l0.35901,-0.60244c0,0 0.07717,-0.12936 0.21934,-0.22938c0.07333,-0.11915 0.16066,-0.19097 0.16066,-0.19097c0.18971,-0.15602 0.37943,-0.31202 0.56913,-0.46805l0.12705,-0.29067c0,0 0.33694,-0.56468 0.89939,-0.24663z" fill="#961308"/><path d="M276.61228,185.74205c-0.06972,0.073 -0.13371,0.14575 -0.19277,0.21839c3.85942,-0.64323 7.06439,2.06687 10.11723,4.52944c0.35452,0.31633 0.68227,0.64305 0.95175,0.98672c0.19254,-0.48009 0.39874,-0.95301 0.64745,-1.40476c0.45906,-0.83381 1.3484,-1.90176 1.28594,-2.91092c-0.15205,-2.45645 -3.47421,-4.37951 -5.60502,-4.75245c-0.60943,-0.10667 -1.65794,0.40039 -2.25845,0.52726c-1.80161,0.7132 -3.3334,1.74719 -4.94612,2.80633zM275.16699,188.57953c-0.90629,1.60986 -2.12505,3.00554 -3.12735,4.54623c-1.34548,2.06819 -2.07614,4.58719 -3.5395,6.55895c-1.587,3.43086 -3.46439,7.16127 -4.40671,10.80304c-0.48002,1.85514 -1.07824,3.92669 -1.80861,5.71145c-0.92672,1.91814 -1.6911,4.35287 -1.62939,6.47749c0.05472,1.8842 2.09059,5.13434 4.08036,5.44392c0.69321,0.10786 1.4239,-0.55247 1.95017,-0.89672c1.80937,-1.62205 3.81901,-3.2199 5.07159,-5.3314c1.31847,-2.22256 2.10921,-4.43363 3.16612,-6.75246c0.67987,-1.49162 1.7381,-2.72741 2.39765,-4.22963c1.17357,-2.51542 2.80281,-4.79837 3.95543,-7.32268c1.51951,-3.32782 3.11256,-6.90896 5.2976,-9.85868c0.11049,-0.23459 0.21305,-0.47287 0.31133,-0.7131c-0.16243,-0.58487 -0.73866,-1.11765 -1.21522,-1.53038c-2.9455,-2.3758 -6.10373,-5.33172 -10.01884,-4.01317c-0.12814,0.35094 -0.26457,0.71621 -0.48466,1.10716zM275.36147,185.23202c0.02076,-0.5319 0.58857,-0.60535 0.58857,-0.60535l-0.10498,0.08235c1.75131,-1.14926 3.40513,-2.24357 5.36148,-3.01219c0.86124,-0.18541 1.98415,-0.69481 2.86597,-0.56599c0.5611,0.08197 1.00957,0.50272 1.54515,0.68013c2.25408,0.74661 4.95078,2.56949 5.11349,5.24351c0.0812,1.3344 -0.82109,2.48956 -1.44528,3.60964c-0.44149,0.79224 -0.7489,1.66149 -1.08329,2.5172c0.00461,0.09436 0.00362,0.19014 -0.00338,0.28744c3.75443,-1.92471 6.18958,-6.14713 7.39878,-9.91165c1.66924,-3.43206 2.27254,-6.89739 1.09812,-10.42931c-0.22761,-0.68455 -0.76034,-2.85999 -1.42888,-3.21113c-0.39198,-0.20588 -1.66165,-0.28517 -2.07009,-0.32472c-1.84793,0.40617 -3.83938,0.64948 -5.57744,1.4543c-4.1869,1.93879 -7.91324,5.3226 -11.12523,8.5569c-1.45251,1.51204 -3.33304,3.67055 -3.2689,5.82533c0.01844,0.6193 -0.19638,1.3501 0.26039,1.7179c0.10253,-0.13364 0.22946,-0.20489 0.22946,-0.20489c0.33236,-0.18536 0.65986,-0.34438 0.98275,-0.4789c0.16914,-0.41697 0.35537,-0.82147 0.66329,-1.23059zM282.47248,204.08799c-1.15671,2.52491 -2.78344,4.8097 -3.95704,7.32623c-0.66142,1.493 -1.7178,2.72465 -2.38722,4.20602c-1.07179,2.3718 -1.8904,4.64861 -3.2491,6.91392c-1.35341,2.2565 -3.45894,3.97159 -5.40609,5.70526c-0.89339,0.58785 -1.78034,1.29739 -2.92596,1.16837c-2.61389,-0.29436 -5.09785,-4.16725 -5.20078,-6.622c-0.09785,-2.33353 0.74502,-4.96541 1.74049,-7.08175c0.72068,-1.71176 1.26276,-3.71596 1.73628,-5.50395c0.99689,-3.76418 2.88923,-7.61312 4.55278,-11.15252c1.48393,-1.97996 2.23067,-4.53493 3.58172,-6.6251c0.9232,-1.42826 2.02548,-2.71649 2.90585,-4.1746l-0.84771,0.14744c-1.1865,-0.75651 -1.06813,-1.59429 -1.10097,-2.89788c-0.06457,-2.56309 1.92217,-4.96764 3.64703,-6.78038c3.32215,-3.34483 7.181,-6.84133 11.51569,-8.83621c1.89848,-0.87371 4.05423,-1.16249 6.07525,-1.5827c0.88975,0.0782 2.11091,0.09659 2.90179,0.56146c0.81006,0.47615 1.25509,2.18301 1.5888,2.99679c1.66174,4.05232 1.10568,8.14742 -0.82758,12.14931c-1.4405,4.52532 -4.57448,9.38561 -9.31464,11.16637c-0.1094,0.0711 -0.25328,0.11556 -0.4359,0.0811c-1.84784,2.71194 -3.24332,5.8894 -4.59268,8.83481z" fill="#000000"/><path d="M274.87339,187.3613c-0.13978,0.50074 -0.15441,1.16181 -0.22277,1.71853c-0.01607,0.13084 -0.29261,0.32544 -0.50054,0.46166c-0.98091,-0.9102 -2.07928,-1.37172 -2.24152,-3.41351c-0.23189,-2.91832 2.99653,-5.85461 3.99871,-8.44574c0.18714,-0.48384 0.98349,-5.82436 1.02364,-5.84534c2.07092,-1.08222 5.03707,-1.41565 7.26788,-0.50943c4.65736,1.89196 2.60514,9.34063 0.78606,12.7166c-0.46925,0.87085 -1.04785,1.50787 -1.31046,2.46866c-0.09655,0.35325 -0.21697,0.71738 -0.3263,1.0589c-0.06398,0.19986 0.04319,0.72519 -0.13578,0.61559c-3.08464,-1.8888 -4.3539,-0.74428 -6.89565,-1.81952c-0.4354,-0.18418 -2.20064,-0.71888 -2.50761,0.03253c-0.17709,0.4335 0.31555,0.71697 1.06434,0.96106z" fill="#b3c976"/><path d="M274.6382,189.10319c0.06835,-0.55672 0.0813,-1.21877 0.22108,-1.7195c-0.74879,-0.24408 -1.20958,-0.56957 -1.03248,-1.00306c0.30697,-0.7514 2.06618,-0.22082 2.50157,-0.03663c2.54175,1.07524 3.78747,-0.06923 6.87212,1.81956c0.17898,0.10958 0.07068,-0.41514 0.13466,-0.615c0.10933,-0.34153 0.22739,-0.70414 0.32394,-1.05739c0.26261,-0.9608 0.83435,-1.59067 1.30359,-2.46153c1.81908,-3.37597 3.88082,-10.78699 -0.77653,-12.67893c-2.23081,-0.90622 -5.17724,-0.57054 -7.24816,0.51168c-0.04015,0.02098 -0.82277,5.35235 -1.00991,5.83618c-1.00218,2.59114 -4.23058,5.49478 -3.9987,8.41309c0.16224,2.04179 1.2527,2.49654 2.23361,3.40674c0.20793,-0.13622 0.45915,-0.28438 0.47521,-0.41521zM280.18163,188.09253c-0.61714,-0.02867 -2.38492,-0.11965 -3.90547,-0.37925c-0.19399,1.18445 -0.79097,3.13292 -1.66853,3.1579c-0.06007,0.06168 -0.13327,0.11259 -0.21766,0.14803c-0.00296,0.00124 -0.00593,0.00248 -0.00891,0.00368c-2.04028,0.83189 -3.79284,-3.80154 -3.77801,-4.89934c0.04747,-3.51515 3.11375,-6.44442 4.32413,-9.62256c0.57387,-1.50682 -0.22209,-4.44295 1.02763,-5.60277c2.12886,-1.97572 6.93273,-1.74038 9.33017,-0.49668c5.74182,2.97867 2.35046,11.55417 -0.00105,15.55664c-0.65144,1.10879 -0.48773,3.82345 -1.86552,4.15652c-0.13155,0.0318 -0.2511,-0.10981 -0.35584,-0.19553c-1.00778,-0.82477 -1.45475,-1.76039 -2.88094,-1.82664z" fill="#000000"/></g><path d="M286.62536,185.45501c0.59938,0.2455 0.3349,0.84586 0.3349,0.84586l-0.36187,0.79725c-2.30915,2.48216 -3.20502,5.28214 -4.5207,8.18259c-1.13643,1.14279 -1.36407,2.5857 -2.18645,3.92735c-2.40557,3.92453 -3.82859,8.18506 -5.41317,12.46185c-0.37368,1.43248 -0.83233,2.77826 -1.62878,4.0436c-0.67887,1.07853 -1.83356,1.98499 -2.36849,3.15332c-0.24206,0.52866 -0.26793,1.12969 -0.48568,1.66807c-0.58815,1.45429 -1.07261,2.68957 -0.48765,4.21995c0,0 0.22565,0.60257 -0.38939,0.84259c-0.61505,0.24001 -0.8407,-0.36256 -0.8407,-0.36256c-1.88075,-5.10664 3.73436,-9.29211 4.95075,-13.92001c1.61267,-4.37381 3.06623,-8.76773 5.5528,-12.76522c0.84033,-1.35094 1.0527,-2.81925 2.21901,-3.97718c1.21919,-2.86741 2.21652,-5.76302 4.5092,-8.16552l0.25238,-0.59707c0,0 0.26448,-0.60036 0.86387,-0.35486z" fill="#961308" stroke="none" stroke-width="0.5" stroke-linecap="butt"/><g stroke="none" stroke-width="0.5" stroke-linecap="butt"><path d="M296.70818,100.90334c0,0 -0.0666,-0.12209 -0.10724,-0.3019c-0.21085,-0.23613 -0.30026,-0.48644 -0.30026,-0.48644c-1.05997,-2.99367 -4.00684,-7.33224 -2.08489,-10.63191c1.44605,-2.48263 5.3584,-2.74324 7.39724,-0.96399c1.20164,1.04864 1.95716,2.87287 2.46141,4.52935c1.66754,-1.35718 4.28948,-2.04972 5.43412,0.30511c0.39031,0.80298 0.33473,1.67225 0.11653,2.52809c1.33394,-0.57748 2.77475,-0.83911 4.29346,-0.42755c2.21612,0.60057 2.80162,2.47824 1.57031,4.36466c-0.1476,0.22614 -0.32106,0.43174 -0.50696,0.62757c1.35823,0.37261 2.56787,1.06852 3.23359,2.5081c1.19863,2.59195 0.4404,8.03526 -3.08294,8.47906c-1.90575,0.24005 -2.69673,-1.07507 -4.18806,-1.83831c-2.11616,-1.08302 -4.34957,-2.05656 -6.50424,-3.07023c-2.53809,-1.26928 -5.08359,-2.45511 -7.10548,-4.49546l-0.62658,-1.12618zM316.29002,103.83253c-0.59409,-1.35153 -2.27251,-1.52823 -3.53032,-1.64263c-0.22079,0.02231 -0.4796,-0.02006 -0.71654,-0.23194c-0.16613,-0.11848 -0.31786,-0.29969 -0.37113,-0.57568c-0.08242,-0.26872 -0.03345,-0.49994 0.05767,-0.6825c0.11537,-0.31332 0.33981,-0.47278 0.555,-0.55312c0.49446,-0.4716 2.25399,-1.9129 1.70243,-2.52448c-0.32558,-0.36101 -0.97053,-0.07712 -1.45666,-0.07237c-1.8504,0.01809 -2.55016,0.3595 -4.02644,1.40607c-0.13,0.14919 -0.32228,0.27184 -0.60663,0.30832c-0.19657,0.04415 -0.43737,0.04557 -0.67359,-0.08798c-0.24597,-0.11459 -0.38477,-0.31137 -0.4631,-0.49699c-0.16998,-0.31665 -0.14566,-0.59426 -0.05676,-0.81234l0.00959,-0.07516c0.39604,-1.18338 1.09082,-2.30956 0.84725,-3.61072c-0.07833,-0.41842 -0.39781,-0.26034 -0.68504,-0.18467c-1.00815,0.26557 -1.57945,0.39294 -2.06522,1.31431c0,0 -0.14246,0.23744 -0.4031,0.39651c-0.13164,0.37713 -0.45186,0.83581 -1.23074,0.83581c-1.32265,0 -1.32264,-1.32264 -1.32264,-1.32264l0.03949,-0.13328c-0.36777,-1.49027 -0.93845,-3.46684 -2.0571,-4.608c-0.68496,-0.69876 -2.8204,-0.68542 -3.31871,0.3074c-1.20553,2.40187 1.51932,6.34107 2.27414,8.43887c0,0 0.19225,0.53828 -0.02988,1.03351l0.26719,0.50287c1.76954,1.74488 4.13847,2.76136 6.33488,3.85935c2.17463,1.02364 4.44106,2.00391 6.57286,3.10507c0.77287,0.39921 1.90034,1.71589 2.89537,1.61258c0.52651,-0.05467 0.76716,-0.59601 1.0286,-0.949c0.84644,-1.14288 1.01866,-3.21598 0.42912,-4.55718z" fill="#000000"/><path d="M312.73512,102.18011c1.25781,0.11441 2.98518,0.31116 3.57927,1.66269c0.58954,1.34119 0.41237,3.42196 -0.43407,4.56484c-0.26144,0.353 -0.50417,0.89635 -1.03067,0.95101c-0.99503,0.10331 -2.12492,-1.21151 -2.89779,-1.61072c-2.1318,-1.10116 -4.41871,-2.07739 -6.59334,-3.10104c-2.19641,-1.09799 -4.58596,-2.13646 -6.3555,-3.88134l-0.2674,-0.50471c0.22213,-0.49523 0.02985,-1.03709 0.02985,-1.03709c-0.75482,-2.0978 -3.47296,-6.05312 -2.26743,-8.45499c0.49831,-0.99282 2.63804,-1.01 3.323,-0.31124c1.11865,1.14117 1.72336,3.15802 2.09112,4.6483l-0.03914,0.13292c0,0 -0.03803,1.28586 1.28462,1.28586c0.77889,0 1.10615,-0.4639 1.23779,-0.84103c0.26063,-0.15907 0.40591,-0.39775 0.40591,-0.39775c0.48576,-0.92137 1.06835,-1.0503 2.0765,-1.31587c0.28724,-0.07567 0.60998,-0.23328 0.68831,0.18515c0.24357,1.30115 -0.46056,2.47939 -0.85661,3.66276l-0.00155,0.02287c-0.0889,0.21809 -0.10879,0.49679 0.06119,0.81343c0.07833,0.18561 0.23116,0.39356 0.47713,0.50816c0.23622,0.13354 0.48001,0.13899 0.67658,0.09484c0.28436,-0.03648 0.42609,-0.14353 0.5561,-0.29273c1.47627,-1.04657 2.22606,-1.40523 4.07646,-1.42332c0.48613,-0.00475 1.13162,-0.28688 1.4572,0.07414c0.55156,0.61158 -1.20713,2.06194 -1.7016,2.53354c-0.21519,0.08034 -0.44003,0.2427 -0.5554,0.55602c-0.09112,0.18256 -0.14092,0.41695 -0.05849,0.68567c0.05328,0.27598 0.20437,0.45896 0.37049,0.57744c0.23694,0.21188 0.44669,0.23449 0.66747,0.21218z" fill="#7c3e1e"/></g><g stroke="none" stroke-width="0.5" stroke-linecap="butt"><path d="M366.26062,253.55108c0,0 0.36753,0.55124 0.91778,0.1844c0.03452,-0.02302 0.06543,-0.04677 0.09305,-0.07105c0.84737,0.33617 1.00468,1.13797 1.23651,2.02556c0.32297,1.23654 1.01434,2.54134 1.20511,3.78598c0.11874,0.77464 0.04184,1.57774 0.18886,2.34751c0.19279,1.00943 0.83289,2.6777 0.07283,3.58244c-0.89268,1.06262 -2.68758,2.10776 -3.86646,2.82725c-6.01157,3.27785 -13.53997,3.0928 -20.25273,3.0928c-2.06986,0 -3.60813,-0.19284 -5.32359,-1.38224c-0.22623,-0.15686 -0.95798,-0.48016 -1.13651,-0.76126c-0.76102,-1.19819 -0.63717,-2.94628 -0.63656,-4.30633c0.00018,-0.40125 -0.22173,-1.57838 0.11944,-1.90578c0.64848,-0.62232 1.98055,-0.94929 2.83634,-1.19345c3.17687,-0.70652 6.16108,-2.04864 9.45987,-2.04864l0.53797,-0.00178c0.22331,0.01234 0.37655,-0.06419 0.47825,-0.16399c0.11052,-0.09217 0.20263,-0.23901 0.21107,-0.46632c0.10726,-1.16749 0.88745,-2.08308 1.63448,-2.97824c0.64089,-0.76797 1.10652,-1.74664 1.99196,-2.28689c2.22972,-1.36044 5.65716,-0.80911 8.15345,-0.65284c0.80813,0.00694 1.5179,0.21544 2.31282,0.37458l-0.23395,-0.00172z" fill="#e19c72"/><path d="M359.11749,254.97525c0.65233,-0.10872 0.76104,0.5436 0.76104,0.5436l0.10237,0.66897c0,0.80505 0.10027,1.72251 -0.11636,2.5072c-0.92214,3.34028 -4.15397,4.13007 -7.17453,4.13007c-2.54046,0 -5.38905,-0.01777 -7.75291,1.05957c-1.64017,0.74751 -2.70826,2.92561 -3.64872,4.34177c0,0 -0.36683,0.55025 -0.91709,0.18341c-0.55025,-0.36684 -0.18342,-0.91709 -0.18342,-0.91709c1.11015,-1.65795 2.29144,-3.90497 4.19471,-4.8089c2.50519,-1.18981 5.60264,-1.18142 8.30742,-1.18142c2.41471,0 5.13682,-0.4362 5.89786,-3.15312c0.18426,-0.65783 0.07038,-1.48794 0.07038,-2.16151l-0.08438,-0.45153c0,0 -0.10872,-0.65232 0.5436,-0.76104z" fill="#8f0700"/><path d="M344.62353,270.65567c-0.64848,-0.1297 -0.51879,-0.77817 -0.51879,-0.77817l0.16766,-0.66529c0.89153,-1.54886 2.0045,-4.12737 3.58798,-5.0899c0.98337,-0.59774 2.25242,-0.37889 3.33565,-0.37889c2.26697,0 4.53393,0 6.80091,0c1.52785,0 3.00598,-0.01563 4.49902,-0.18035c0.46608,-0.05142 1.09839,0.25835 1.40331,-0.09787c0.3906,-0.45632 0.17059,-1.51675 0.17469,-2.04842c0.0167,-2.16474 -1.38608,-4.18397 -1.67563,-6.26741c0,0 -0.08201,-0.65622 0.5742,-0.73824c0.65621,-0.08202 0.73824,0.57418 0.73824,0.57418c0.25683,2.4346 1.7038,4.60126 1.68584,7.17846c-0.0058,0.832 0.09979,1.53905 -0.5723,2.24679c-0.64945,0.6839 -1.37842,0.37662 -2.1449,0.46238c-1.55607,0.17408 -3.09312,0.19313 -4.68247,0.19313c-2.26697,0 -4.53393,0 -6.8009,0c-0.71148,0 -1.98562,-0.24676 -2.64029,0.18135c-1.35237,0.88438 -2.37092,3.27251 -3.13495,4.62101l-0.01909,0.26846c0,0 -0.12969,0.64848 -0.77817,0.51878z" fill="#8f0700"/><path d="M367.15635,253.7501c-0.55025,0.36684 -0.91709,-0.18341 -0.91709,-0.18341l0.23381,0.00152c-0.79492,-0.15914 -1.50261,-0.36507 -2.31073,-0.37202c-2.49629,-0.15627 -5.90906,-0.69955 -8.13878,0.6609c-0.88545,0.54024 -1.34423,1.51927 -1.98512,2.28724c-0.74703,0.89516 -1.51422,1.8061 -1.62148,2.97359c-0.00844,0.22731 -0.09791,0.37206 -0.20843,0.46423c-0.10169,0.0998 -0.25261,0.17394 -0.47592,0.1616h-0.53657c-3.29879,0 -6.27802,1.32739 -9.45489,2.03392c-0.8558,0.24416 -2.1879,0.56896 -2.83638,1.19129c-0.34116,0.3274 -0.11961,1.50142 -0.11979,1.90267c-0.00061,1.36005 -0.12655,3.1015 0.63447,4.29969c0.17854,0.28109 0.9094,0.60268 1.13563,0.75954c1.71546,1.1894 3.24877,1.37588 5.31863,1.37588c6.71276,0 14.19962,0.192 20.21119,-3.08585c1.17889,-0.71949 2.97132,-1.7578 3.86399,-2.82042c0.76006,-0.90474 0.1194,-2.567 -0.0734,-3.57643c-0.14702,-0.76977 -0.06974,-1.56885 -0.18847,-2.34348c-0.19077,-1.24464 -0.88011,-2.54295 -1.20308,-3.77948c-0.23183,-0.88759 -0.38716,-1.68582 -1.23453,-2.022c-0.02763,0.02428 -0.05854,0.04802 -0.09306,0.07104zM366.9472,252.46987c0.27405,-0.21127 0.63477,-0.07599 0.63477,-0.07599c2.96661,1.22175 3.0675,6.47006 3.5915,9.17587c0.30095,1.55401 0.87867,3.21539 -0.18169,4.64418c-0.87336,1.17681 -3.00684,2.3916 -4.24464,3.15184c-6.23633,3.40284 -13.91015,3.26359 -20.87343,3.26359c-2.46212,0 -5.97736,-0.4283 -7.55185,-2.72004c-1.08794,-1.58353 -0.87085,-3.9644 -0.85952,-5.78471c0.00448,-0.72084 -0.09701,-1.40141 0.44046,-2.01905c0.74366,-0.85456 2.45219,-1.30644 3.51307,-1.60994c3.29174,-0.73092 6.35834,-2.07454 9.78017,-2.07454h0.00952c0.66325,-2.73714 3.6993,-6.19888 6.40868,-6.61895c2.04917,-0.31771 4.53466,-0.05643 6.59917,0.07238c0.88202,0.01772 1.65437,0.22396 2.51906,0.39672z" fill="#000000"/></g><path d="M286.69012,107.31528c0,0 1.34814,-7.98716 15.2868,-6.89131c1.3383,0.10522 6.39175,2.52949 11.0219,6.20379c5.3657,4.258 10.66122,10.25701 16.87457,17.26186c3.68043,4.14928 16.42041,22.09366 29.18935,41.63659c4.61552,7.06407 11.72976,16.27751 14.90534,22.38915c8.20726,15.79552 8.0074,24.8461 7.40356,28.36352c-0.10894,0.63458 -3.60017,24.80984 -31.83564,28.34809c-40.39373,5.06184 -57.53018,-6.45761 -61.99435,-10.29028c-0.41591,-0.35708 -14.42752,-9.57862 -14.20559,-27.57824c0.10757,-8.72385 4.38741,-14.87824 7.21191,-20.44506c0.30827,-0.60759 1.67172,-2.30623 1.19457,-2.83498c-1.72687,-1.91367 -2.28818,-4.83027 -2.25575,-7.12659c0.03404,-2.41072 -0.41907,-7.32428 2.42066,-10.10045c0.29089,-0.28438 0.59294,-0.00389 0.91404,0.05856c0.53495,0.10404 1.12279,0.16679 1.8,0.14043c3.10949,-0.12097 10.72796,-0.26085 10.84037,-0.61322c0.05642,-0.17687 -10.02781,1.80795 -17.30031,-0.63011c-7.76772,-2.60408 -12.73097,-9.91789 -11.81211,-19.37734c0.1311,-1.34955 6.65225,-12.85746 9.528,-17.8547c0.59546,-1.03474 2.23408,-2.39964 2.2502,-2.66295c0.55093,-8.99908 5.69966,-14.99773 5.69966,-14.99773c0,0 0.44189,-0.35965 1.02667,-0.54421c0.45664,-0.14411 1.07786,-0.09628 1.13536,-0.24634c0.16177,-0.42221 0.70077,-2.20847 0.70077,-2.20847z" fill="#b3c976" stroke="#000000" stroke-width="2" stroke-linecap="round"/><path d="M345.39588,146.61848c0,0 -23.6416,30.17598 -57.35964,22.22418c-0.87245,-0.20575 -6.34085,-1.36209 -6.55873,-1.96367c-0.24037,-0.66369 4.80536,-0.76722 4.52513,-0.7719c-19.47117,-0.32504 -19.7275,-20.86831 -19.355,-21.53225c2.3164,-4.12888 9.35441,-16.67969 9.50097,-17.01192c1.60195,-3.63129 9.94198,-22.18897 14.55237,-25.60319c19.00282,-14.07253 55.23053,43.65815 55.23053,43.65815" fill="#e19c71" stroke="#000000" stroke-width="0.5" stroke-linecap="round"/><path d="M324.78595,117.36415l-0.10598,8.79564l-6.57024,-0.7418c0,0 0.10868,-5.87495 -0.16391,-8.55711c-0.24189,-2.38009 -1.39058,-6.7382 -1.39058,-6.7382c0,0 -0.20575,-0.7062 0.34813,-0.60241c0.12838,0.02406 0.77649,0.43992 0.93154,0.52119c0.83414,0.43718 1.79338,1.75204 2.41823,2.29097c1.52526,1.31554 4.53281,5.03171 4.53281,5.03171z" fill="#7c3e1e" stroke="#000000" stroke-width="1" stroke-linecap="round"/><path d="M321.94576,117.71134c0.67027,0.00866 1.47597,-0.00987 2.187,0.12557c0.14899,-0.08012 0.31939,-0.12557 0.5004,-0.12557c0.58438,0 1.05811,0.47374 1.05811,1.05812c0,0.38836 -0.20922,0.72784 -0.52109,0.9119c-0.47832,0.83707 -2.85008,0.10658 -3.97555,0.10084c-2.60056,-0.01325 -5.20132,-0.0256 -7.80179,0c-2.00327,0.01972 -3.93506,0.04621 -5.95764,-0.04538c-1.16712,-0.05285 -1.24881,-1.26422 -0.52906,-1.98397c0.82424,-0.82424 3.11467,-0.02472 4.32518,0.00387c3.55548,0.084 7.15267,-0.09136 10.71443,-0.04538z" fill="#000000" stroke="none" stroke-width="0.5" stroke-linecap="butt"/><path d="M281.76203,184.151c0,0 1.70087,-2.28108 2.50666,-3.20064c0.66857,-0.76295 1.99374,-1.9351 1.99374,-1.9351" fill="none" stroke="#000000" stroke-width="2" stroke-linecap="round"/><path d="M345.54659,146.30846c0,0 -8.50034,13.39992 -18.29969,17.00751c-29.65726,10.91821 -46.12681,4.30892 -46.12681,4.30892" fill="none" stroke="#000000" stroke-width="1" stroke-linecap="round"/><path d="M273.27042,209.59831c0,0 9.95883,-7.11403 26.41827,-3.66357c18.42627,3.86278 44.62727,8.76551 54.73431,8.44144c13.6499,-0.43768 25.8809,-8.96948 25.8809,-8.96948c0,0 1.47693,3.93006 1.13054,5.17136c-0.21087,0.75566 -1.50027,1.02292 -2.6193,1.43825c-1.68761,0.62636 -3.4741,1.26532 -4.45714,1.84603c-4.41967,2.61081 -8.15526,3.5697 -12.98061,5.71346c-12.03767,5.34796 -24.41454,6.30469 -39.6047,6.67866c-0.87934,0.02165 -4.05829,0.85855 -4.95644,0.82306c-35.50358,-1.40322 -8.11792,-1.34901 -13.97772,-0.91551c-14.15708,1.04733 -27.24007,-6.99079 -27.24007,-6.99079z" fill="#e19c72" stroke="#000000" stroke-width="1" stroke-linecap="round"/><path d="M273.22919,120.19082c0,-4.01562 3.9063,-7.27093 8.72494,-7.27093c1.1941,0 2.08181,-0.00005 3.41038,0.12185c3.33312,0.30582 5.31456,4.12855 5.31456,7.14908c0,2.7489 -1.28809,5.38144 -3.98872,6.6174c-1.24448,0.56955 -3.21618,0.65353 -4.73622,0.65353c-4.81865,0 -8.72494,-3.2553 -8.72494,-7.27092z" fill="#5fbeb6" stroke="#278986" stroke-width="1" stroke-linecap="butt"/><path d="M279.47099,113.4872c3.13467,0 5.67583,3.1146 5.67583,6.95665c0,3.84205 -2.54116,6.95665 -5.67583,6.95665c-3.13467,0 -5.67582,-3.1146 -5.67582,-6.95665c0,-3.84205 2.54116,-6.95665 5.67582,-6.95665z" fill="#77ece3" stroke="#278986" stroke-width="1" stroke-linecap="butt"/><path d="M298.03899,112.67177c1.29859,0 2.26398,-0.00005 3.7088,0.13827c3.62478,0.34703 5.77962,4.68474 5.77962,8.11218c0,3.11923 -1.4008,6.10642 -4.33776,7.50888c-1.35339,0.64627 -3.49761,0.74158 -5.15067,0.74158c-5.2403,0 -9.48842,-3.69385 -9.48842,-8.25046c0,-4.5566 4.24811,-8.25046 9.48842,-8.25046z" fill="#5fbeb6" stroke="#278986" stroke-width="1" stroke-linecap="butt"/><path d="M295.60204,112.93062c3.91207,0 7.08343,3.50085 7.08343,7.81937c0,4.31852 -3.17136,7.81937 -7.08343,7.81937c-3.91207,0 -7.08344,-3.50085 -7.08344,-7.81937c0,-4.31852 3.17137,-7.81937 7.08344,-7.81937z" fill="#77ece3" stroke="#278986" stroke-width="1" stroke-linecap="butt"/><path d="M324.81154,151.08961c-0.29219,0 -0.52906,-0.23686 -0.52906,-0.52905c0,-0.29219 0.23687,-0.52906 0.52906,-0.52906c0.29219,0 0.52906,0.23687 0.52906,0.52906c0,0.29219 -0.23687,0.52905 -0.52906,0.52905z" fill="#000000" stroke="none" stroke-width="0.5" stroke-linecap="butt"/><path d="M321.31659,154.7752c-0.29219,0 -0.52906,-0.23686 -0.52906,-0.52905c0,-0.29219 0.23687,-0.52906 0.52906,-0.52906c0.29219,0 0.52906,0.23686 0.52906,0.52906c0,0.29219 -0.23687,0.52905 -0.52906,0.52905z" fill="#000000" stroke="none" stroke-width="0.5" stroke-linecap="butt"/><path d="M324.43027,158.90559c-0.29219,0 -0.52906,-0.23686 -0.52906,-0.52906c0,-0.29219 0.23687,-0.52906 0.52906,-0.52906c0.29219,0 0.52906,0.23687 0.52906,0.52906c0,0.29219 -0.23687,0.52906 -0.52906,0.52906z" fill="#000000" stroke="none" stroke-width="0.5" stroke-linecap="butt"/><path d="M313.05581,160.24003c-0.29219,0 -0.52906,-0.23687 -0.52906,-0.52906c0,-0.29219 0.23687,-0.52905 0.52906,-0.52905c0.29219,0 0.52905,0.23686 0.52905,0.52905c0,0.29219 -0.23686,0.52906 -0.52905,0.52906z" fill="#000000" stroke="none" stroke-width="0.5" stroke-linecap="butt"/><path d="M306.44718,164.0527c-0.29219,0 -0.52906,-0.23686 -0.52906,-0.52906c0,-0.29219 0.23687,-0.52905 0.52906,-0.52905c0.29219,0 0.52905,0.23686 0.52905,0.52905c0,0.29219 -0.23686,0.52906 -0.52905,0.52906z" fill="#000000" stroke="none" stroke-width="0.5" stroke-linecap="butt"/><path d="M301.68133,159.98585c-0.29219,0 -0.52905,-0.23686 -0.52905,-0.52906c0,-0.29219 0.23686,-0.52905 0.52905,-0.52905c0.29219,0 0.52906,0.23686 0.52906,0.52905c0,0.29219 -0.23687,0.52906 -0.52906,0.52906z" fill="#000000" stroke="none" stroke-width="0.5" stroke-linecap="butt"/><path d="M298.44056,162.08282c-0.29219,0 -0.52905,-0.23686 -0.52905,-0.52905c0,-0.29219 0.23686,-0.52906 0.52905,-0.52906c0.29219,0 0.52906,0.23687 0.52906,0.52906c0,0.29219 -0.23687,0.52905 -0.52906,0.52905z" fill="#000000" stroke="none" stroke-width="0.5" stroke-linecap="butt"/><path d="M291.13294,158.33369c-0.29219,0 -0.52906,-0.23686 -0.52906,-0.52905c0,-0.29219 0.23687,-0.52906 0.52906,-0.52906c0.29219,0 0.52906,0.23687 0.52906,0.52906c0,0.29219 -0.23687,0.52905 -0.52906,0.52905z" fill="#000000" stroke="none" stroke-width="0.5" stroke-linecap="butt"/><path d="M286.49419,160.24003c-0.29219,0 -0.52906,-0.23687 -0.52906,-0.52906c0,-0.29219 0.23687,-0.52905 0.52906,-0.52905c0.29219,0 0.52906,0.23686 0.52906,0.52905c0,0.29219 -0.23687,0.52906 -0.52906,0.52906z" fill="#000000" stroke="none" stroke-width="0.5" stroke-linecap="butt"/><path d="M277.0896,156.43253c-0.36524,0 -0.66132,-0.29609 -0.66132,-0.66133c0,-0.36524 0.29608,-0.66132 0.66132,-0.66132c0.36524,0 0.66132,0.29608 0.66132,0.66132c0,0.36524 -0.29609,0.66133 -0.66132,0.66133z" fill="#000000" stroke="none" stroke-width="0.5" stroke-linecap="butt"/><path d="M278.36049,160.75355c-0.36524,0 -0.66132,-0.29608 -0.66132,-0.66132c0,-0.36524 0.29608,-0.66132 0.66132,-0.66132c0.36524,0 0.66132,0.29608 0.66132,0.66132c0,0.36524 -0.29609,0.66132 -0.66132,0.66132z" fill="#000000" stroke="none" stroke-width="0.5" stroke-linecap="butt"/><path d="M283.25342,158.46595c-0.36524,0 -0.66132,-0.29608 -0.66132,-0.66132c0,-0.36524 0.29609,-0.66133 0.66132,-0.66133c0.36524,0 0.66132,0.29609 0.66132,0.66133c0,0.36524 -0.29608,0.66132 -0.66132,0.66132z" fill="#000000" stroke="none" stroke-width="0.5" stroke-linecap="butt"/><path d="M294.34361,213.89476c0.61921,-0.23221 0.85142,0.38701 0.85142,0.38701l0.15019,0.40074c0.14732,0.41596 0.09031,0.89995 0.29613,1.29029c0.13246,0.2512 0.56516,0.10377 0.84818,0.0803c1.25814,-0.10434 2.21411,-0.73735 3.32895,-1.25873c0,0 0.59928,-0.27966 0.87894,0.31961c0.27967,0.59929 -0.31961,0.87894 -0.31961,0.87894c-1.44704,0.67372 -4.35911,2.51184 -5.79239,0.77637c-0.36345,-0.44008 -0.29219,-1.10501 -0.48579,-1.64193l-0.14303,-0.38118c0,0 -0.2322,-0.61921 0.38701,-0.85142z" fill="#000000" stroke="none" stroke-width="0.5" stroke-linecap="butt"/><path d="M291.79021,214.92781c0.66132,0 0.66133,0.66132 0.66133,0.66132l-0.02688,0.3021c0.18656,0.66582 0.67867,1.91199 1.30685,2.30054c0.37727,0.23335 1.42819,0.05921 1.82171,0.05921c1.8696,0 3.07677,-0.23522 4.82944,-0.79848c0.74685,-0.24003 1.20785,-0.18214 1.71852,-0.79325c0,0 0.44486,-0.48934 0.93419,-0.04449c0.48934,0.44485 0.04449,0.93419 0.04449,0.93419c-1.72264,1.79987 -5.18997,2.02467 -7.52665,2.02467c-0.73715,0 -1.80927,0.16213 -2.47887,-0.23402c-0.95322,-0.56394 -1.616,-2.08279 -1.91859,-3.07518l-0.02687,-0.6753c0,0 0,-0.66132 0.66132,-0.66132z" fill="#000000" stroke="none" stroke-width="0.5" stroke-linecap="butt"/><path d="M303.77506,135.36914c0,0 2.01808,1.94861 2.52409,4.11194c0.69673,2.97869 -0.18321,6.36446 -1.45758,5.63119c-5.20265,-2.99356 -16.75057,-6.40322 -24.28533,-2.61025c-2.04513,1.02951 -5.12075,0.75827 -6.0158,-0.51713c-1.04521,-1.48938 0.26709,-4.11709 0.26709,-4.11709c0,0 2.39077,-8.03585 19.93919,-5.84703c2.96157,0.3694 9.02835,3.34837 9.02835,3.34837z" fill="#dc6d2c" stroke="#a60e03" stroke-width="2" stroke-linecap="round"/><path d="M309.68291,132.36228c4.1984,0 7.60187,1.66856 7.60187,3.72682c0,2.05827 -3.14937,12.32392 -7.34776,12.32392c-4.19839,0 -7.85597,-10.26566 -7.85597,-12.32392c0,-2.05827 3.40346,-3.72682 7.60186,-3.72682z" fill="#e19c72" stroke="none" stroke-width="0" stroke-linecap="butt"/><path d="M298.16199,136.41828c0.14123,0.03143 5.66916,1.4194 4.06259,2.52974c-0.1209,0.15732 -0.31095,0.25871 -0.52469,0.25871c-0.25683,0 -0.47947,-0.1464 -0.589,-0.3603c-5.37068,-2.26134 -12.20107,-2.93758 -17.99036,-2.85831c-2.48005,0.03395 -2.71892,1.57984 -4.17174,2.82511c-0.30806,0.26405 -0.86537,0.26676 -1.09067,-0.18383c-0.9083,-1.81661 4.20705,-3.8278 5.09896,-3.95493c4.87817,-0.69533 10.47145,0.69038 15.2049,1.7438z" fill="#a60e03" stroke="none" stroke-width="0.5" stroke-linecap="butt"/><path d="M302.359,106.95985c0.30867,0.05586 0.5428,0.32595 0.5428,0.65073c0,0.1326 -0.03903,0.2561 -0.10622,0.35962c-0.02461,0.44297 -2.39245,1.57865 -2.63103,1.70962c-1.60908,0.8833 -5.1153,2.22278 -6.84288,1.30141c-0.8778,-0.46816 -4.28683,-3.73627 -3.284,-5.07339c0.97542,-1.30056 1.87381,2.25236 2.48994,2.97412c0.93041,1.08991 2.55298,0.98575 3.83985,0.79496c1.69144,-0.25078 4.74595,-2.78627 5.90998,-2.73177c0.02882,0.00135 0.05592,0.00643 0.08156,0.01471z" fill="#000000" stroke="none" stroke-width="0.5" stroke-linecap="butt"/><path d="M287.34398,106.48832c-0.00064,-0.01194 -0.00096,-0.02397 -0.00096,-0.03607c0,-0.36523 0.29608,-0.66132 0.66132,-0.66132c0.13261,0 0.2561,0.03903 0.35961,0.10623c0.71022,0.03946 0.09503,1.28597 0.0041,1.45849c-0.65306,1.23907 -1.33067,2.25406 -2.54511,2.98853c-3.07644,1.86056 -6.3927,0.05619 -8.06415,-2.52953c-0.37677,-0.58287 -1.65078,-2.82442 -1.10712,-3.48905c0.4366,-0.53374 0.82802,-0.41069 1.22077,-0.03657c1.03084,0.98194 0.12422,3.65101 3.30071,5.05157c3.50241,1.54427 4.50494,-0.90292 6.17084,-2.85229z" fill="#000000" stroke="none" stroke-width="0.5" stroke-linecap="butt"/><path d="M275.28542,218.79566c0,0 1.6135,0.73505 5.11669,2.53495c0.60218,0.30939 2.15884,0.65024 2.80996,1.02424c10.30707,5.92022 38.83652,5.82462 66.15996,0.88439c13.11521,-2.37131 31.6679,-12.13112 31.6679,-12.13112c0,0 0.26565,1.97861 -0.14938,4.41785c-0.73462,4.31742 -2.80512,10.87455 -6.56996,16.14315c-13.1006,18.33327 -47.47011,13.97856 -47.47011,13.97856c0,0 -8.92686,0.13164 -17.81563,-1.67835c-6.55829,-1.33543 -12.97529,-4.33058 -16.39192,-6.10976c-9.02799,-4.70123 -17.3575,-19.06391 -17.3575,-19.06391z" fill="#82615a" stroke="#000000" stroke-width="0.5" stroke-linecap="round"/><path d="M370.75426,232.5301c-0.03316,-0.07881 -0.05149,-0.16541 -0.05149,-0.25628c0,-0.18019 0.07207,-0.34356 0.18896,-0.46284v-0.43833l-0.00716,-0.02864l-0.05892,-0.14729l-0.01257,-0.09221l-0.03145,-0.08759l-0.0378,-0.37792l0.00487,-0.03323l-0.00814,-0.03258v-0.21276l-0.10387,-0.25967l-0.00969,-0.07109l-0.02861,-0.0658l-0.02605,-0.15624l-0.12462,-0.31154l-0.00969,-0.07109l-0.02861,-0.0658l-0.02604,-0.15624l-0.12462,-0.31154l-0.00733,-0.05369l-0.02423,-0.04846l-0.07558,-0.34013l0.00047,-0.01812l-0.00723,-0.01662l-0.02396,-0.14377l-0.08977,-0.20199l-0.29423,-0.41191l-0.24441,-0.21386l-0.00272,-0.00391l-0.00421,-0.00223l-0.37791,-0.34012l-0.05504,-0.08167l-0.06964,-0.06964l-0.02227,-0.03711l-0.18532,-0.10296l-0.01274,-0.01192l-0.01659,-0.00538l-0.25226,-0.15767l-0.31642,-0.12657l-0.29073,-0.10902l-0.52418,-0.18721l-0.04715,-0.03143l-0.05465,-0.01497l-0.45368,-0.25519h-0.02655l-0.00318,0.0023l-0.0125,-0.0023h-0.04907l-0.13589,-0.03397l-0.13777,-0.02531l-0.04467,-0.02031l-0.01234,-0.00308l-0.00194,-0.00341l-0.28947,-0.13157l-1.00346,-0.20761l-0.75296,-0.10757l-0.89799,-0.07184h-4.98786l-1.19787,0.1815l-0.03583,-0.0034l-0.03451,0.01024l-0.78302,0.03405l-0.48442,0.15139l-0.71962,0.32382l-0.01413,0.00254l-0.01165,0.00841l-0.92966,0.37187l-0.84867,0.38897l-0.59846,0.38724l-0.29816,0.19877l-0.30581,0.27183l-0.01966,0.01028l-0.01369,0.01746l-0.34013,0.26454l-0.01002,0.00442l-0.00702,0.0084l-0.37374,0.27182l-0.4665,0.4665l-0.73295,0.91619l-0.02962,0.02257l-0.01916,0.03193l-0.18045,0.18045l-0.19043,0.28564l-0.04874,0.04431l-0.03388,0.05648l-0.20635,0.20635l-0.02517,0.06292l-0.05703,0.07896l-0.04059,0.08855l-0.10739,0.13425l-0.04426,0.0885l-0.01687,0.01969l-0.00755,0.02481l-0.07603,0.1267l-0.05263,0.15788l-0.03909,0.06144l-0.02121,0.06967l-0.06275,0.10458l-0.05172,0.20686l-0.03427,0.06427l-0.01581,0.0711l-0.04356,0.08711v1.04693l0.0189,0.0252l0.02096,0.04976l0.02864,0.01637l0.0318,0.12717l0.05087,0.12082l-0.0131,0.03028l0.0131,0.05239v0.27059l0.00385,0.01157l0.00461,0.05993l0.02268,0.05567l0.02658,0.18606l0.04614,0.11535l0.00269,0.0197l0.01067,0.01678l0.03779,0.11337l0.0032,0.04167l0.0179,0.03777l0.0378,0.18895l-0.00313,0.06579l0.00255,0.01022l0.07332,0.17109l0.0026,0.01609l0.00187,0.00091l0.22675,0.18896l0.01804,0.02469l0.02621,0.01574l0.13139,0.13138l0.11915,0.07149l0.02455,0.02455l0.03199,0.01347l0.11665,0.08749l0.00741,0.00041l0.01236,0.01442l0.01474,0.01106l0.09582,0.11793l0.04714,0.05499l0.96533,0.48266l0.041,0.03514l0.03294,0.00183l0.07162,0.08356l0.12153,0.05209l0.09972,0.07578l0.02038,0.01223l0.00007,0.00002l0.398,0.10855l0.02261,0.01269l0.02581,0.00254l0.5034,0.17979l0.53554,0.14281l0.44849,0.11212l0.01729,0.00922l0.01957,0.00114l0.58639,0.18324l0.28375,0.07093l0.00998,0.00532l0.01131,0.00038l0.20024,0.05721l0.42462,0.03266l0.02312,0.00771l0.02426,-0.00234l0.75583,0.11337l0.01072,0.00446l0.01159,-0.00071l0.98244,0.18193l1.07328,0.07155h0.80765l0.88921,-0.1067l1.13658,-0.19413l0.01036,0.00079l0.00963,-0.00388l1.27055,-0.1772l1.24014,-0.32828l0.03931,-0.00054l0.03639,-0.01483l1.05817,-0.15117l0.01857,0.00192l0.01766,-0.00608l0.79143,-0.06882l0.83294,-0.27765l0.01873,-0.00144l0.01639,-0.0092l0.83142,-0.22675l0.00304,-0.00007l0.00266,-0.00146l0.62097,-0.16342l0.51597,-0.32248l0.52554,-0.33785l0.0041,-0.00139l0.00302,-0.00313l0.58084,-0.36302l0.2663,-0.19973l0.19069,-0.15891l0.14653,-0.14653l0.16976,-0.20371l0.00381,-0.00279l0.00212,-0.00422l0.18586,-0.21683l0.11999,-0.20998l0.00501,-0.00522l0.0021,-0.00692l0.22676,-0.37792l0.0114,-0.0114l0.00543,-0.01519l0.0786,-0.1179l0.00164,-0.00821l-0.00235,-0.00543l0.00654,-0.01555l0.0063,-0.03149l0.06264,-0.13224l0.05678,-0.13486l0.01927,-0.02569l0.00722,-0.01524l0.00562,-0.00188l0.00115,-0.00152l0.0054,-0.02161l0.02141,-0.04014l0.00615,-0.04507l0.00993,-0.02482zM372.13536,230.93955l0.02141,0.04014l0.03779,0.15117v0.08141l0.01975,0.07898v0.98259l-0.08267,0.33066l-0.04129,0.0236l-0.01364,0.10003l-0.0175,0.16913l-0.00804,0.00625l-0.05646,0.14113l-0.00736,0.02943l0.0002,0.00046l-0.00077,0.00183l-0.01898,0.0759l-0.06167,0.11562l-0.05085,0.12077l-0.02337,0.03116l-0.00837,0.04187l-0.05502,0.11613l-0.04321,0.12101l-0.14244,0.21366l-0.21503,0.35839l-0.14767,0.25844l-0.04378,0.04568l-0.0283,0.05659l-0.22376,0.26105l-0.18601,0.22322l-0.02469,0.01804l-0.01573,0.02621l-0.18896,0.18896l-0.02621,0.01573l-0.01803,0.02469l-0.22676,0.18895l-0.01563,0.00755l-0.01094,0.01347l-0.30234,0.22675l-0.0264,0.01111l-0.01989,0.02063l-0.60109,0.37568l-0.52554,0.33785l-0.00411,0.0014l-0.003,0.00312l-0.60467,0.37792l-0.09483,0.03075l-0.08738,0.04799l-0.71518,0.18821l-0.81086,0.22115l-0.88958,0.29653l-0.07794,0.00599l-0.07391,0.02546l-0.85103,0.074l-1.00181,0.14311l-1.24121,0.32855l-0.0404,0.00056l-0.03747,0.01512l-1.29995,0.18131l-1.14283,0.19518l-0.0168,-0.00127l-0.01574,0.006l-0.94479,0.11337l-0.03984,-0.00502l-0.03895,0.00974h-0.86921l-0.02184,-0.00546l-0.02215,0.004l-1.13375,-0.07558l-0.03731,-0.01202l-0.03912,0.00243l-1.00924,-0.18689l-0.72105,-0.10816l-0.46751,-0.03596l-0.06377,-0.02126l-0.06718,-0.00223l-0.25395,-0.07256l-0.29164,-0.07291l-0.01729,-0.00922l-0.01957,-0.00114l-0.58639,-0.18324l-0.43492,-0.10873l-0.00469,-0.0025l-0.00531,-0.00008l-0.56687,-0.15117l-0.02434,-0.01347l-0.02768,-0.00272l-0.50517,-0.18042l-0.3912,-0.10669l-0.01639,-0.00919l-0.01874,-0.00144l-0.07243,-0.02415l-0.00717,0.00196l-0.01628,-0.00977l-0.01748,-0.00583l-0.1282,-0.08158l-0.08206,-0.04923l-0.18125,-0.07768l-0.06707,-0.05097l-0.04211,-0.00234l-0.07294,-0.0851l-0.031,-0.02356l-0.99366,-0.49684l-0.041,-0.03514l-0.03294,-0.00182l-0.08531,-0.09953l-0.09953,-0.08532l-0.00183,-0.03294l-0.03514,-0.041l-0.00566,-0.01131l-0.15879,-0.09527l-0.05757,-0.05757l-0.06982,-0.04188l-0.16774,-0.16774l-0.19069,-0.15891l-0.13761,-0.10321l-0.04654,-0.05727l-0.03785,-0.01065l-0.05579,-0.1046l-0.07475,-0.092l0.00488,-0.03902l-0.03473,-0.06512l-0.02494,-0.09976l-0.06214,-0.14502l-0.00116,-0.00066l-0.00122,-0.00489l-0.02798,-0.06527l-0.02119,-0.13139l-0.03228,-0.12912v-0.04789l-0.01688,-0.08437l-0.01862,-0.05588l-0.06837,-0.17092l-0.01072,-0.0786l-0.02993,-0.07347l-0.02936,-0.20551l-0.01893,-0.0568l-0.00816,-0.10599l-0.02578,-0.10314v-0.17715l-0.03789,-0.08999l-0.06264,-0.13224l-0.0063,-0.03149l-0.00654,-0.01554l0.00234,-0.00543l-0.0273,-0.13649l0.00314,-0.06579l-0.01598,-0.06391v-1.24177l-0.00412,-0.00618l0.00412,-0.01854v-0.01843l0.03686,-0.14741l0.03296,-0.14834l0.00824,-0.01648l0.0046,-0.01843l0.00646,-0.00369l0.06161,-0.12322l0.05798,-0.23191l0.04602,-0.08629l0.02847,-0.09356l0.07602,-0.12671l0.05264,-0.15788l0.0391,-0.06144l0.0212,-0.06968l0.10031,-0.16718l0.06422,-0.12845l0.04579,-0.05342l1.50319,-0.17734l-1.38393,0.00094l0.01058,-0.02643l-0.00035,-0.00128l0.00259,-0.00431l0.02638,-0.06594l0.07792,-0.10789l1.05105,-0.15192l-0.93237,-0.01242l0.6454,0.41163l0.22806,-0.26472l-0.17636,-0.35272l-0.30086,-0.28564l0.04873,-0.0443l0.0339,-0.05649l0.20085,-0.20085l0.73295,-0.91619l0.02963,-0.02257l0.01916,-0.03194l0.52909,-0.52908l0.04498,-0.02699l0.03367,-0.04022l0.40708,-0.29606l0.31458,-0.24467l0.3239,-0.28791l0.04122,-0.02155l0.0313,-0.03442l0.34013,-0.22675l0.00439,-0.00156l0.00318,-0.00341l0.64247,-0.41571l0.04586,-0.01568l0.03785,-0.03028l0.907,-0.41571l0.01641,-0.00307l0.01353,-0.00977l0.93179,-0.37272l0.74306,-0.33438l0.0397,-0.00713l0.03443,-0.02101l0.60466,-0.18895l0.08598,-0.00499l0.08256,-0.0245l0.83385,-0.03626l1.21214,-0.18365l0.05017,0.00475l0.0489,-0.01222h5.06408l0.02615,0.00654l0.02659,-0.00444l0.94479,0.07558l0.0199,0.0067l0.02089,-0.00216l0.79362,0.11338l0.01946,0.00793l0.021,-0.00087l1.09596,0.22675l0.06676,0.03217l0.0729,0.01339l0.2853,0.12968h0.10821l0.00857,-0.00513l0.1671,0.04578l0.16807,0.04201l0.00496,0.00868l0.54434,0.30619l0.47621,0.17008l0.00446,0.00297l0.00533,0.00061l0.30233,0.11337l0.00609,0.0042l0.00732,0.001l0.37791,0.15117l0.04827,0.03485l0.05662,0.01837l0.28789,0.17994l0.31995,0.17774l0.0102,-0.00021l0.12003,0.12003l0.12396,0.11597l0.00013,0.0102l0.05926,0.09877l0.3008,0.27072l0.29886,0.26149l0.04397,0.06332l0.05869,0.04999l0.37791,0.52908l0.0247,0.0627l0.04149,0.0531l0.15116,0.34013l0.01449,0.0828l0.03351,0.07707l0.03488,0.20929l0.06011,0.2705l0.13125,0.32812l0.0097,0.07109l0.02861,0.0658l0.02604,0.15624l0.12462,0.31154l0.0097,0.07109l0.02861,0.0658l0.02604,0.15624l0.12462,0.31154l0.01692,0.1241l0.03038,0.12151v0.30715l0.02521,0.25208l0.04087,0.10217z" fill="#82615a" stroke="none" stroke-width="0.5" stroke-linecap="butt"/><g><path d="M372.29482,233.14296c0,0 -2.24888,5.23074 -2.08789,8.0481c0.20277,3.5486 3.20838,11.56046 3.20838,11.56046c0,0 -7.2581,2.995 -11.0547,3.67753c-4.41888,0.7944 -13.87619,0.80442 -13.87619,0.80442c0,0 -2.48911,-0.97357 -3.53943,-2.88046c-0.91116,-1.65425 -3.34321,-6.60135 -3.22422,-10.28057c0.11167,-3.45318 6.39015,-13.63734 6.39015,-13.63734z" fill="#82615a" stroke="#000000" stroke-width="3" stroke-linecap="round"/><path d="M370.75426,232.5301c-0.03316,-0.07881 -0.05149,-0.16541 -0.05149,-0.25628c0,-0.18019 0.07207,-0.34356 0.18896,-0.46284v-0.43833l-0.00716,-0.02864l-0.05892,-0.14729l-0.01257,-0.09221l-0.03145,-0.08759l-0.0378,-0.37792l0.00487,-0.03323l-0.00814,-0.03258v-0.21276l-0.10387,-0.25967l-0.00969,-0.07109l-0.02861,-0.0658l-0.02605,-0.15624l-0.12462,-0.31154l-0.00969,-0.07109l-0.02861,-0.0658l-0.02604,-0.15624l-0.12462,-0.31154l-0.00733,-0.05369l-0.02423,-0.04846l-0.07558,-0.34013l0.00047,-0.01812l-0.00723,-0.01662l-0.02396,-0.14377l-0.08977,-0.20199l-0.29423,-0.41191l-0.24441,-0.21386l-0.00272,-0.00391l-0.00421,-0.00223l-0.37791,-0.34012l-0.05504,-0.08167l-0.06964,-0.06964l-0.02227,-0.03711l-0.18532,-0.10296l-0.01274,-0.01192l-0.01659,-0.00538l-0.25226,-0.15767l-0.31642,-0.12657l-0.29073,-0.10902l-0.52418,-0.18721l-0.04715,-0.03143l-0.05465,-0.01497l-0.45368,-0.25519h-0.02655l-0.00318,0.0023l-0.0125,-0.0023h-0.04907l-0.13589,-0.03397l-0.13777,-0.02531l-0.04467,-0.02031l-0.01234,-0.00308l-0.00194,-0.00341l-0.28947,-0.13157l-1.00346,-0.20761l-0.75296,-0.10757l-0.89799,-0.07184h-4.98786l-1.19787,0.1815l-0.03583,-0.0034l-0.03451,0.01024l-0.78302,0.03405l-0.48442,0.15139l-0.71962,0.32382l-0.01413,0.00254l-0.01165,0.00841l-0.92966,0.37187l-0.84867,0.38897l-0.59846,0.38724l-0.29816,0.19877l-0.30581,0.27183l-0.01966,0.01028l-0.01369,0.01746l-0.34013,0.26454l-0.01002,0.00442l-0.00702,0.0084l-0.37374,0.27182l-0.4665,0.4665l-0.73295,0.91619l-0.02962,0.02257l-0.01916,0.03193l-0.18045,0.18045l-0.19043,0.28564l-0.04874,0.04431l-0.03388,0.05648l-0.20635,0.20635l-0.02517,0.06292l-0.05703,0.07896l-0.04059,0.08855l-0.10739,0.13425l-0.04426,0.0885l-0.01687,0.01969l-0.00755,0.02481l-0.07603,0.1267l-0.05263,0.15788l-0.03909,0.06144l-0.02121,0.06967l-0.06275,0.10458l-0.05172,0.20686l-0.03427,0.06427l-0.01581,0.0711l-0.04356,0.08711v1.04693l0.0189,0.0252l0.02096,0.04976l0.02864,0.01637l0.0318,0.12717l0.05087,0.12082l-0.0131,0.03028l0.0131,0.05239v0.27059l0.00385,0.01157l0.00461,0.05993l0.02268,0.05567l0.02658,0.18606l0.04614,0.11535l0.00269,0.0197l0.01067,0.01678l0.03779,0.11337l0.0032,0.04167l0.0179,0.03777l0.0378,0.18895l-0.00313,0.06579l0.00255,0.01022l0.07332,0.17109l0.0026,0.01609l0.00187,0.00091l0.22675,0.18896l0.01804,0.02469l0.02621,0.01574l0.13139,0.13138l0.11915,0.07149l0.02455,0.02455l0.03199,0.01347l0.11665,0.08749l0.00741,0.00041l0.01236,0.01442l0.01474,0.01106l0.09582,0.11793l0.04714,0.05499l0.96533,0.48266l0.041,0.03514l0.03294,0.00183l0.07162,0.08356l0.12153,0.05209l0.09972,0.07578l0.02038,0.01223l0.00007,0.00002l0.398,0.10855l0.02261,0.01269l0.02581,0.00254l0.5034,0.17979l0.53554,0.14281l0.44849,0.11212l0.01729,0.00922l0.01957,0.00114l0.58639,0.18324l0.28375,0.07093l0.00998,0.00532l0.01131,0.00038l0.20024,0.05721l0.42462,0.03266l0.02312,0.00771l0.02426,-0.00234l0.75583,0.11337l0.01072,0.00446l0.01159,-0.00071l0.98244,0.18193l1.07328,0.07155h0.80765l0.88921,-0.1067l1.13658,-0.19413l0.01036,0.00079l0.00963,-0.00388l1.27055,-0.1772l1.24014,-0.32828l0.03931,-0.00054l0.03639,-0.01483l1.05817,-0.15117l0.01857,0.00192l0.01766,-0.00608l0.79143,-0.06882l0.83294,-0.27765l0.01873,-0.00144l0.01639,-0.0092l0.83142,-0.22675l0.00304,-0.00007l0.00266,-0.00146l0.62097,-0.16342l0.51597,-0.32248l0.52554,-0.33785l0.0041,-0.00139l0.00302,-0.00313l0.58084,-0.36302l0.2663,-0.19973l0.19069,-0.15891l0.14653,-0.14653l0.16976,-0.20371l0.00381,-0.00279l0.00212,-0.00422l0.18586,-0.21683l0.11999,-0.20998l0.00501,-0.00522l0.0021,-0.00692l0.22676,-0.37792l0.0114,-0.0114l0.00543,-0.01519l0.0786,-0.1179l0.00164,-0.00821l-0.00235,-0.00543l0.00654,-0.01555l0.0063,-0.03149l0.06264,-0.13224l0.05678,-0.13486l0.01927,-0.02569l0.00722,-0.01524l0.00562,-0.00188l0.00115,-0.00152l0.0054,-0.02161l0.02141,-0.04014l0.00615,-0.04507l0.00993,-0.02482zM372.13536,230.93955l0.02141,0.04014l0.03779,0.15117v0.08141l0.01975,0.07898v0.98259l-0.08267,0.33066l-0.04129,0.0236l-0.01364,0.10003l-0.0175,0.16913l-0.00804,0.00625l-0.05646,0.14113l-0.00736,0.02943l0.0002,0.00046l-0.00077,0.00183l-0.01898,0.0759l-0.06167,0.11562l-0.05085,0.12077l-0.02337,0.03116l-0.00837,0.04187l-0.05502,0.11613l-0.04321,0.12101l-0.14244,0.21366l-0.21503,0.35839l-0.14767,0.25844l-0.04378,0.04568l-0.0283,0.05659l-0.22376,0.26105l-0.18601,0.22322l-0.02469,0.01804l-0.01573,0.02621l-0.18896,0.18896l-0.02621,0.01573l-0.01803,0.02469l-0.22676,0.18895l-0.01563,0.00755l-0.01094,0.01347l-0.30234,0.22675l-0.0264,0.01111l-0.01989,0.02063l-0.60109,0.37568l-0.52554,0.33785l-0.00411,0.0014l-0.003,0.00312l-0.60467,0.37792l-0.09483,0.03075l-0.08738,0.04799l-0.71518,0.18821l-0.81086,0.22115l-0.88958,0.29653l-0.07794,0.00599l-0.07391,0.02546l-0.85103,0.074l-1.00181,0.14311l-1.24121,0.32855l-0.0404,0.00056l-0.03747,0.01512l-1.29995,0.18131l-1.14283,0.19518l-0.0168,-0.00127l-0.01574,0.006l-0.94479,0.11337l-0.03984,-0.00502l-0.03895,0.00974h-0.86921l-0.02184,-0.00546l-0.02215,0.004l-1.13375,-0.07558l-0.03731,-0.01202l-0.03912,0.00243l-1.00924,-0.18689l-0.72105,-0.10816l-0.46751,-0.03596l-0.06377,-0.02126l-0.06718,-0.00223l-0.25395,-0.07256l-0.29164,-0.07291l-0.01729,-0.00922l-0.01957,-0.00114l-0.58639,-0.18324l-0.43492,-0.10873l-0.00469,-0.0025l-0.00531,-0.00008l-0.56687,-0.15117l-0.02434,-0.01347l-0.02768,-0.00272l-0.50517,-0.18042l-0.3912,-0.10669l-0.01639,-0.00919l-0.01874,-0.00144l-0.07243,-0.02415l-0.00717,0.00196l-0.01628,-0.00977l-0.01748,-0.00583l-0.1282,-0.08158l-0.08206,-0.04923l-0.18125,-0.07768l-0.06707,-0.05097l-0.04211,-0.00234l-0.07294,-0.0851l-0.031,-0.02356l-0.99366,-0.49684l-0.041,-0.03514l-0.03294,-0.00182l-0.08531,-0.09953l-0.09953,-0.08532l-0.00183,-0.03294l-0.03514,-0.041l-0.00566,-0.01131l-0.15879,-0.09527l-0.05757,-0.05757l-0.06982,-0.04188l-0.16774,-0.16774l-0.19069,-0.15891l-0.13761,-0.10321l-0.04654,-0.05727l-0.03785,-0.01065l-0.05579,-0.1046l-0.07475,-0.092l0.00488,-0.03902l-0.03473,-0.06512l-0.02494,-0.09976l-0.06214,-0.14502l-0.00116,-0.00066l-0.00122,-0.00489l-0.02798,-0.06527l-0.02119,-0.13139l-0.03228,-0.12912v-0.04789l-0.01688,-0.08437l-0.01862,-0.05588l-0.06837,-0.17092l-0.01072,-0.0786l-0.02993,-0.07347l-0.02936,-0.20551l-0.01893,-0.0568l-0.00816,-0.10599l-0.02578,-0.10314v-0.17715l-0.03789,-0.08999l-0.06264,-0.13224l-0.0063,-0.03149l-0.00654,-0.01554l0.00234,-0.00543l-0.0273,-0.13649l0.00314,-0.06579l-0.01598,-0.06391v-1.24177l-0.00412,-0.00618l0.00412,-0.01854v-0.01843l0.03686,-0.14741l0.03296,-0.14834l0.00824,-0.01648l0.0046,-0.01843l0.00646,-0.00369l0.06161,-0.12322l0.05798,-0.23191l0.04602,-0.08629l0.02847,-0.09356l0.07602,-0.12671l0.05264,-0.15788l0.0391,-0.06144l0.0212,-0.06968l0.10031,-0.16718l0.06422,-0.12845l0.04579,-0.05342l1.50319,-0.17734l-1.38393,0.00094l0.01058,-0.02643l-0.00035,-0.00128l0.00259,-0.00431l0.02638,-0.06594l0.07792,-0.10789l1.05105,-0.15192l-0.93237,-0.01242l0.6454,0.41163l0.22806,-0.26472l-0.17636,-0.35272l-0.30086,-0.28564l0.04873,-0.0443l0.0339,-0.05649l0.20085,-0.20085l0.73295,-0.91619l0.02963,-0.02257l0.01916,-0.03194l0.52909,-0.52908l0.04498,-0.02699l0.03367,-0.04022l0.40708,-0.29606l0.31458,-0.24467l0.3239,-0.28791l0.04122,-0.02155l0.0313,-0.03442l0.34013,-0.22675l0.00439,-0.00156l0.00318,-0.00341l0.64247,-0.41571l0.04586,-0.01568l0.03785,-0.03028l0.907,-0.41571l0.01641,-0.00307l0.01353,-0.00977l0.93179,-0.37272l0.74306,-0.33438l0.0397,-0.00713l0.03443,-0.02101l0.60466,-0.18895l0.08598,-0.00499l0.08256,-0.0245l0.83385,-0.03626l1.21214,-0.18365l0.05017,0.00475l0.0489,-0.01222h5.06408l0.02615,0.00654l0.02659,-0.00444l0.94479,0.07558l0.0199,0.0067l0.02089,-0.00216l0.79362,0.11338l0.01946,0.00793l0.021,-0.00087l1.09596,0.22675l0.06676,0.03217l0.0729,0.01339l0.2853,0.12968h0.10821l0.00857,-0.00513l0.1671,0.04578l0.16807,0.04201l0.00496,0.00868l0.54434,0.30619l0.47621,0.17008l0.00446,0.00297l0.00533,0.00061l0.30233,0.11337l0.00609,0.0042l0.00732,0.001l0.37791,0.15117l0.04827,0.03485l0.05662,0.01837l0.28789,0.17994l0.31995,0.17774l0.0102,-0.00021l0.12003,0.12003l0.12396,0.11597l0.00013,0.0102l0.05926,0.09877l0.3008,0.27072l0.29886,0.26149l0.04397,0.06332l0.05869,0.04999l0.37791,0.52908l0.0247,0.0627l0.04149,0.0531l0.15116,0.34013l0.01449,0.0828l0.03351,0.07707l0.03488,0.20929l0.06011,0.2705l0.13125,0.32812l0.0097,0.07109l0.02861,0.0658l0.02604,0.15624l0.12462,0.31154l0.0097,0.07109l0.02861,0.0658l0.02604,0.15624l0.12462,0.31154l0.01692,0.1241l0.03038,0.12151v0.30715l0.02521,0.25208l0.04087,0.10217z" fill="#82615a" stroke="none" stroke-width="0.5" stroke-linecap="butt"/><path d="M370.74845,232.5731l-0.00993,0.02489l-0.00616,0.04518l-0.02142,0.04024l-0.00541,0.02166l-0.00114,0.00153l-0.00562,0.00187l-0.00722,0.01529l-0.01928,0.02576l-0.05683,0.1352l-0.06269,0.13258l-0.0063,0.03156l-0.00655,0.01558l0.00235,0.00545l-0.00164,0.00823l-0.07864,0.1182l-0.00543,0.01523l-0.01141,0.01144l-0.22695,0.37892l-0.00211,0.00694l-0.00501,0.00524l-0.12012,0.21054l-0.18601,0.21746l-0.00212,0.00423l-0.00382,0.0028l-0.16992,0.2043l-0.14667,0.14699l-0.19085,0.15942l-0.26654,0.20042l-0.58139,0.36444l-0.00302,0.00313l-0.00411,0.0014l-0.52617,0.33921l-0.5167,0.32385l-0.62171,0.16463l-0.00266,0.00147l-0.00304,0.00007l-0.83268,0.22852l-0.01642,0.00924l-0.01876,0.00147l-0.83465,0.27965l-0.79309,0.07043l-0.0177,0.00612l-0.01862,-0.00189l-1.06117,0.15345l-0.03654,0.01492l-0.03942,0.00062l-1.24498,0.33069l-1.27606,0.17863l-0.00967,0.00389l-0.0104,-0.00079l-1.14168,0.19436l-0.89294,0.10625l-0.81081,-0.00082l-1.07706,-0.07312l-0.9855,-0.18376l-0.01162,0.0007l-0.01076,-0.00448l-0.75775,-0.11485l-0.02431,0.00231l-0.02318,-0.00776l-0.4255,-0.03345l-0.20071,-0.05765l-0.01132,-0.0004l-0.01,-0.00534l-0.28433,-0.07153l-0.58753,-0.18451l-0.0196,-0.00117l-0.01733,-0.00926l-0.44919,-0.11302l-0.53629,-0.14386l-0.50408,-0.18081l-0.02583,-0.00258l-0.02265,-0.01274l-0.39842,-0.10925l-0.00007,-0.00002l-0.02041,-0.01228l-0.09987,-0.07605l-0.12167,-0.05233l-0.07176,-0.08382l-0.03296,-0.00186l-0.04106,-0.03526l-0.96626,-0.48465l-0.0472,-0.05516l-0.09596,-0.11827l-0.01476,-0.01109l-0.01237,-0.01446l-0.00743,-0.00042l-0.11676,-0.08777l-0.03202,-0.01353l-0.02458,-0.02462l-0.11924,-0.07173l-0.13152,-0.13178l-0.02624,-0.01579l-0.01806,-0.02475l-0.22694,-0.18953l-0.00187,-0.00091l-0.00261,-0.01614l-0.07345,-0.17151l-0.00256,-0.01024l0.00309,-0.06594l-0.03791,-0.18939l-0.01791,-0.03786l-0.00323,-0.04177l-0.03786,-0.11364l-0.01069,-0.01682l-0.0027,-0.01975l-0.0462,-0.11564l-0.02668,-0.1865l-0.02271,-0.0558l-0.00464,-0.06008l-0.00385,-0.01159l-0.00012,-0.27122l-0.01312,-0.05251l0.01308,-0.03035l-0.05092,-0.12112l-0.03184,-0.12749l-0.02865,-0.01641l-0.02097,-0.04988l-0.01891,-0.02527l-0.00022,-1.04941l0.04355,-0.08732l0.01579,-0.07126l0.03427,-0.06441l0.05171,-0.20737l0.06275,-0.10483l0.02121,-0.06985l0.0391,-0.06159l0.05264,-0.15827l0.07603,-0.12703l0.00755,-0.02487l0.01688,-0.01974l0.04426,-0.08873l0.10742,-0.1346l0.04061,-0.08878l0.05705,-0.07918l0.02518,-0.06309l0.20641,-0.20693l0.03391,-0.05663l0.04876,-0.04443l0.19054,-0.28645l0.18054,-0.18099l0.01918,-0.03203l0.02963,-0.02264l0.73366,-0.91905l0.46705,-0.46811l0.37418,-0.2729l0.00704,-0.00842l0.01002,-0.00444l0.34062,-0.26561l0.01371,-0.01752l0.01968,-0.01033l0.30635,-0.27289l0.29867,-0.19965l0.59963,-0.38902l0.85045,-0.3912l0.93203,-0.3742l0.01168,-0.00844l0.01416,-0.00257l0.7219,-0.32559l0.486,-0.15239l0.78553,-0.03534l0.03464,-0.0103l0.03595,0.00335l1.20258,-0.18306l5.00718,0.00297l0.90038,0.07342l0.7547,0.10897l1.00545,0.20956l0.29007,0.13226l0.00196,0.00341l0.01235,0.00311l0.04477,0.02041l0.13798,0.02555l0.1361,0.03424l0.04913,0.00007l0.01253,0.00232l0.00318,-0.0023l0.02658,0.00003l0.45453,0.25633l0.05472,0.01507l0.04724,0.03155l0.52487,0.18827l0.29108,0.1096l0.31678,0.1272l0.25259,0.15827l0.01661,0.00541l0.01277,0.01196l0.18553,0.10337l0.02232,0.03721l0.06974,0.06986l0.05515,0.0819l0.37839,0.34122l0.00421,0.00224l0.00272,0.00392l0.24468,0.21454l0.29462,0.41305l0.08994,0.20251l0.02406,0.1441l0.00724,0.01667l-0.00047,0.01816l0.07581,0.34095l0.02426,0.04859l0.00735,0.05381l0.1248,0.31234l0.02612,0.15662l0.02864,0.06596l0.00973,0.07127l0.12475,0.31233l0.02609,0.15661l0.02863,0.06597l0.00972,0.07127l0.10394,0.26031l0.00005,0.21328l0.00815,0.03266l-0.00485,0.03331l0.03783,0.37883l0.03145,0.0878l0.01258,0.09244l0.05892,0.14765l0.00716,0.02871l-0.00002,0.43938c-0.11689,0.11928 -0.18903,0.28378 -0.18903,0.46398c0,0.09088 0.01828,0.17808 0.05144,0.2569z" fill="#82615a" stroke="none" stroke-width="0.5" stroke-linecap="butt"/><path d="M345.47626,233.00549c0.39934,-0.91846 1.32912,-2.41583 2.2825,-2.8669c0.08715,-0.26339 0.33537,-0.45344 0.62799,-0.45344c0.36524,0 0.66132,0.29608 0.66132,0.66132c0,0.05725 -0.00728,0.1128 -0.02095,0.16578c0.1024,0.37548 -1.89157,2.3774 -2.14128,2.70287c-1.53929,2.0063 -2.62493,5.42276 -3.35534,7.84581c-0.67986,2.25534 -0.40578,4.94479 -0.52932,7.25445c-0.03926,0.734 -0.81853,0.75086 -1.24846,0.29704c-0.71535,-0.75509 -0.01662,-2.08044 0.00164,-3.12043c0.08234,-4.68873 1.89139,-8.2763 3.72192,-12.4865z" fill="#000000" stroke="none" stroke-width="0.5" stroke-linecap="butt"/></g><path d="M298.05235,180.14449c0.46762,-0.46762 0.93525,0 0.93525,0l0.41538,0.41699c0.68514,0.77079 1.3479,1.74672 2.16949,2.3718c1.26286,0.9608 2.63642,1.04079 4.12956,1.30453c2.92437,0.51656 6.03696,0.27326 9.01369,0.11857c3.01344,-0.00781 5.56061,-0.89852 8.27801,-2.14281c3.18534,-1.45856 5.86834,-2.73086 7.96844,-5.61855c0,0 0.38897,-0.53483 0.9238,-0.14586c0.53483,0.38897 0.14587,0.9238 0.14587,0.9238c-2.24427,3.08583 -5.09055,4.48476 -8.48768,6.04327c-2.87341,1.31825 -5.60244,2.25161 -8.79204,2.26229c-4.23196,0.22116 -10.3438,1.08124 -13.97204,-1.68623c-0.89722,-0.68437 -1.61745,-1.71037 -2.36566,-2.55209l-0.36207,-0.36047c0,0 -0.46763,-0.46762 0,-0.93524z" fill="#000000" stroke="none" stroke-width="0.5" stroke-linecap="butt"/><path d="M314.19623,153.18614l-0.74656,-0.22665c-1.57824,-1.27659 -2.97169,-2.69376 -4.4366,-4.11233c-0.66412,-0.64311 -1.53591,-0.76298 -2.2351,-1.35212c-1.15406,-0.97243 -2.58769,-2.71154 -3.31501,-4.05258c-0.94598,-1.74419 -1.22881,-3.73879 -1.61128,-5.65112c-0.17678,-1.33887 -0.44947,-3.09438 0.30957,-4.31428c0.53786,-0.86444 1.72057,-1.3206 2.61993,-1.64659c2.90541,-1.05312 7.27866,-0.72286 9.49991,1.67762c0,0 0.53089,0.58987 -0.05899,1.12075c-0.58987,0.53089 -1.12075,-0.05899 -1.12075,-0.05899c-1.70688,-1.97294 -5.53447,-2.04909 -7.7842,-1.24543c-0.54458,0.19454 -1.48955,0.48528 -1.82818,1.02227c-0.50316,0.7979 -0.18831,2.31911 -0.07168,3.18399c0.34685,1.73425 0.5822,3.56738 1.43885,5.15145c0.6402,1.18381 1.89981,2.71112 2.91235,3.57277c0.7194,0.61219 1.61863,0.76879 2.34012,1.44384c1.45367,1.36009 2.77423,2.79172 4.33253,4.02137l0.01598,-0.09955c0,0 0.78279,0.13045 0.65233,0.91324c-0.13047,0.78279 -0.91325,0.65233 -0.91325,0.65233z" fill="#000000" stroke="none" stroke-width="0.5" stroke-linecap="butt"/><g stroke="none" stroke-width="0.5" stroke-linecap="butt"><path d="M357.96455,182.17047c0.05123,0.37408 0.10802,0.76407 0.24177,1.19527c0.55079,1.77564 1.46237,3.39682 2.1233,5.12141c0.88722,2.31506 1.07866,4.97083 2.1036,7.21175c0.83231,3.71972 1.89134,7.82811 2.03885,11.63764c0.07514,1.94059 0.21456,4.12518 0.55315,6.04238c0.50445,2.08704 0.73209,4.66143 0.21188,6.76954c-0.46133,1.86955 -3.18947,4.73326 -5.22922,4.66984c-0.71061,-0.02209 -1.29433,-0.81739 -1.74176,-1.25929c-1.44355,-1.95677 -3.09683,-3.92718 -3.88259,-6.26808c-0.82709,-2.46402 -1.14132,-4.82051 -1.68827,-7.33165c-0.35183,-1.61533 -1.14439,-3.05585 -1.4738,-4.67793c-0.62015,-2.72908 -1.74281,-5.33824 -2.34028,-8.07229c-0.78764,-3.60432 -1.58599,-7.48352 -3.11518,-10.83514c-0.05886,-0.2547 -0.10872,-0.51187 -0.15427,-0.76992c0.2874,-0.5531 0.97609,-0.97825 1.53776,-1.30085c3.43376,-1.81914 7.21807,-4.18063 10.81504,-2.13268z" fill="#e6a075"/><path d="M352.39067,178.23602c0.62639,-0.21207 0.83847,0.41433 0.83847,0.41433l0.06317,0.31375c0.1544,0.19114 0.30878,0.38229 0.46318,0.57343c0,0 0.07108,0.08798 0.11804,0.22058c0.11934,0.12637 0.16793,0.26987 0.16793,0.26987l0.22581,0.6682c1.06868,2.5614 1.60479,5.32094 2.39303,7.97813c0.82431,1.61924 1.01992,3.26497 1.64022,4.95634c0.71297,1.94406 1.61909,3.73931 2.06786,5.77915c0.55535,2.52419 0.48188,4.95489 0.62536,7.51073c-0.36873,5.0771 2.92253,10.22341 1.30362,15.16072c0,0 -0.20618,0.62836 -0.83453,0.42218c-0.62836,-0.20618 -0.42218,-0.83453 -0.42218,-0.83453c0.79921,-2.43389 0.17978,-4.4062 -0.44789,-6.81858c-0.62737,-2.41126 -1.10164,-5.43167 -0.92161,-7.93957c-0.14452,-2.46424 -0.06364,-4.78484 -0.595,-7.21902c-0.43265,-1.98196 -1.32703,-3.70954 -2.01479,-5.59865c-0.61298,-1.68371 -0.82029,-3.31974 -1.62956,-4.92872c-0.80214,-2.66107 -1.33035,-5.43324 -2.40196,-8.00115l-0.24115,-0.71107c0,0 -0.00323,-0.00952 -0.00769,-0.02661c-0.03522,-0.03316 -0.0544,-0.05691 -0.0544,-0.05691c-0.1544,-0.19114 -0.30877,-0.38228 -0.46317,-0.57342l-0.28704,-0.72069c0,0 -0.21206,-0.6264 0.41433,-0.83847z" fill="#961308"/><path d="M348.08569,180.19631c0.64368,-0.15173 0.79542,0.49196 0.79542,0.49196l0.14027,0.63847c1.83831,2.77036 2.2925,5.83104 2.97326,8.89842c0.94715,1.34488 0.88487,2.85067 1.47083,4.33773c1.73393,4.40026 2.36347,9.03527 3.15546,13.67519c0.3493,4.83224 5.16867,9.91397 2.33935,14.73826c0,0 -0.33757,0.56867 -0.90625,0.23109c-0.56867,-0.33759 -0.23109,-0.90625 -0.23109,-0.90625c0.86917,-1.44241 0.61656,-2.75741 0.30142,-4.30836c-0.11668,-0.57417 -0.03029,-1.18093 -0.17303,-1.74918c-0.31544,-1.25581 -1.29794,-2.34671 -1.77373,-3.53516c-0.55819,-1.39431 -0.76444,-2.81605 -0.86973,-4.31134c-0.78208,-4.5382 -1.40607,-9.03463 -3.07282,-13.34897c-0.5698,-1.47491 -0.52748,-2.95765 -1.44766,-4.28265c-0.77084,-3.11571 -1.14168,-6.06453 -2.98155,-8.91735l-0.21211,-0.85647c0,0 -0.15173,-0.64368 0.49195,-0.79541z" fill="#961308"/><path d="M357.38459,180.2909c-1.3702,-1.35838 -2.66558,-2.67654 -4.2978,-3.72513c-0.56801,-0.23893 -1.49805,-0.94096 -2.12535,-0.94856c-2.19328,-0.02659 -5.90268,1.2704 -6.58414,3.69265c-0.27996,0.99512 0.37111,2.22696 0.64611,3.14469c0.14901,0.49723 0.25127,1.00762 0.33845,1.5226c0.34144,-0.29245 0.737,-0.55707 1.15684,-0.80634c3.55894,-1.88563 7.32218,-3.98975 11.00983,-2.62596c-0.04285,-0.08351 -0.09059,-0.16807 -0.14394,-0.25394zM358.20458,183.39213c-0.13375,-0.43119 -0.19012,-0.82115 -0.24134,-1.19524c-3.59697,-2.04795 -7.36699,0.31016 -10.80075,2.12931c-0.56167,0.32259 -1.24812,0.74634 -1.53552,1.29943c0.04554,0.25805 0.09576,0.51497 0.15462,0.76968c1.52921,3.35162 2.33503,7.22241 3.12266,10.82671c0.59746,2.73405 1.71963,5.31647 2.33978,8.04555c0.32941,1.62209 1.11166,3.05296 1.46348,4.66829c0.54696,2.51113 0.85329,4.86497 1.68037,7.32899c0.78576,2.3409 2.43312,4.31099 3.87668,6.26776c0.44743,0.4419 1.02925,1.23738 1.73987,1.25948c2.03975,0.06342 4.76049,-2.7982 5.22183,-4.66775c0.5202,-2.1081 0.28834,-4.68013 -0.2161,-6.76716c-0.33859,-1.91722 -0.48416,-4.09584 -0.55931,-6.03644c-0.14752,-3.80953 -1.20302,-7.88243 -2.03532,-11.60216c-1.02494,-2.24092 -1.20517,-4.89071 -2.09238,-7.20579c-0.66093,-1.72459 -1.56781,-3.34503 -2.11859,-5.12066zM358.73496,180.01608c0.21692,0.46577 0.31418,0.90416 0.39179,1.35179c0.2911,0.1946 0.58145,0.41455 0.87093,0.66165c0,0 0.11047,0.09484 0.18324,0.24734c0.53234,-0.28148 0.47726,-1.05076 0.62933,-1.66515c0.52913,-2.13774 -0.86909,-4.64302 -1.98259,-6.42326c-2.48593,-3.82764 -5.44955,-7.90071 -9.18201,-10.61828c-1.5494,-1.1281 -3.47139,-1.74345 -5.21586,-2.4944c-0.41351,-0.03696 -1.68951,-0.1954 -2.12265,-0.06333c-0.73871,0.22525 -1.73693,2.29592 -2.1105,2.93627c-1.9275,3.30392 -2.078,6.874 -1.16442,10.61031c0.38562,3.98192 1.88784,8.65005 5.19455,11.27267c0.01408,-0.09838 0.03379,-0.19413 0.05875,-0.2874c-0.14667,-0.91627 -0.26368,-1.841 -0.53026,-2.71398c-0.3769,-1.23425 -1.02195,-2.5555 -0.65314,-3.87157c0.73904,-2.6373 3.80666,-3.95137 6.20289,-4.27453c0.56936,-0.07678 1.10492,-0.41263 1.67895,-0.38944c0.90215,0.03646 1.90548,0.75474 2.71934,1.10086c1.77368,1.13282 3.17703,2.53399 4.66516,4.00821l-0.08629,-0.1018c0,0 0.54712,0.17951 0.45279,0.71406zM347.61059,197.49742c-0.70154,-3.19096 -1.39868,-6.62205 -2.64492,-9.67335c-0.1885,0.00019 -0.32155,-0.07106 -0.41467,-0.16247c-4.31516,-2.66344 -6.37248,-8.09867 -6.82306,-12.88289c-1.05224,-4.35421 -0.71886,-8.54373 1.80426,-12.27566c0.50668,-0.74943 1.31669,-2.36904 2.22274,-2.69251c0.8846,-0.31581 2.09936,-0.10569 2.99845,-0.01724c1.91306,0.79735 3.98809,1.48877 5.68169,2.71563c3.86687,2.8012 6.93754,7.01146 9.50883,10.97c1.31858,2.13119 2.76892,4.90181 2.15117,7.44681c-0.31419,1.29439 -0.37782,2.15236 -1.71769,2.6851l-0.80866,-0.30569c0.55787,1.6194 1.37248,3.11084 1.97926,4.70848c0.88799,2.33804 1.07641,5.02672 2.11997,7.27968c0.88474,3.84234 1.92945,8.0363 2.10463,11.97817c0.08321,1.87238 0.18768,3.97331 0.53243,5.81589c0.5298,2.29761 0.79689,5.08101 0.19572,7.39078c-0.6324,2.42975 -3.93198,5.82882 -6.58726,5.63345c-1.16376,-0.08563 -1.88988,-0.95945 -2.64867,-1.71306c-1.55606,-2.09392 -3.27317,-4.1989 -4.12757,-6.70332c-0.85774,-2.51421 -1.1775,-4.93883 -1.72777,-7.50559c-0.34369,-1.60315 -1.125,-3.02954 -1.45825,-4.64279c-0.61994,-2.73021 -1.73924,-5.31399 -2.34061,-8.0494z" fill="#000000"/><path d="M344.21868,185.85685c-3.3067,-2.62262 -4.8272,-7.31804 -5.21282,-11.29997c-0.91358,-3.73631 -0.75124,-7.32638 1.17626,-10.6303c0.37357,-0.64035 1.37706,-2.7137 2.11577,-2.93895c0.43313,-0.13206 1.71257,0.02536 2.12608,0.06232c1.74448,0.75095 3.67678,1.36602 5.22618,2.49412c3.73246,2.71758 6.71792,6.81422 9.20385,10.64186c1.11349,1.78025 2.50989,4.29799 1.98076,6.43574c-0.15207,0.61439 -0.0984,1.38663 -0.63075,1.66812c-0.07278,-0.1525 -0.18312,-0.24754 -0.18312,-0.24754c-4.45673,-3.80425 -9.14789,-1.1542 -13.50585,1.15476c-1.15353,0.68483 -2.12808,1.48464 -2.29636,2.65985z" fill="#b3c976"/></g></g></g></svg>